<svg xmlns="http://www.w3.org/2000/svg" viewBox="0 0 542.30564 380.87911"><defs><style>.a{fill:#ffda00;}.b{fill:#75bbef;}.c{fill:#ea7d7d;}.d{fill:#eaeaea;}</style></defs><polygon class="a" points="368.628 306.573 333.628 367.195 403.628 367.195 368.628 306.573"/><polygon class="a" points="368.628 229.573 333.628 290.195 403.628 290.195 368.628 229.573"/><polygon class="a" points="368.628 152.573 333.628 213.195 403.628 213.195 368.628 152.573"/><polygon class="a" points="368.628 75.573 333.628 136.195 403.628 136.195 368.628 75.573"/><circle class="b" cx="283.1953" cy="105.88436" r="35"/><circle class="b" cx="283.1953" cy="182.88436" r="35"/><circle class="b" cx="283.1953" cy="259.88436" r="35"/><circle class="b" cx="283.1953" cy="336.88436" r="35"/><path d="M187.74061,16.11946a4.00073,4.00073,0,0,0-1.59668-.83984v2.75879c1.87695.71484,2.62011,1.55566,2.62011,2.92773v.02832a2.68878,2.68878,0,0,1-2.59179,2.66114V25.057h-1.1211V23.6556a4.98581,4.98581,0,0,1-2.91308-1.33008l.89648-1.19141a4.0474,4.0474,0,0,0,2.04492,1.10742V19.35579c-1.793-.68652-2.57714-1.44336-2.57714-2.87207v-.01367a2.6616,2.6616,0,0,1,2.54882-2.61914v-.86914h1.1211v.88281a4.3145,4.3145,0,0,1,2.40918,1.05078Zm-2.66114,1.5127V15.23763a1.13549,1.13549,0,0,0-1.00878,1.13379v.01464C184.07069,16.91829,184.29529,17.25423,185.07947,17.63216Zm1.06446,2.11523v2.50782a1.18927,1.18927,0,0,0,1.06445-1.19043v-.02832C187.20838,20.50423,186.97108,20.1263,186.14393,19.74739Z"/><path d="M189.7533,13.85091h1.76563l2.40918,7.40918,2.40918-7.40918h1.709l-3.38965,9.86133h-1.499Z"/><path d="M198.1117,21.52669v-.07031c0-1.59668,1.06445-2.38086,2.63379-2.38086a5.04768,5.04768,0,0,1,1.708.29394v-.30859a1.40443,1.40443,0,0,0-1.59668-1.5127,4.23114,4.23114,0,0,0-1.793.44825l-.44824-1.26075a5.28782,5.28782,0,0,1,2.45117-.58789,2.95073,2.95073,0,0,1,2.18555.75684,2.92622,2.92622,0,0,1,.74218,2.14258v4.6084h-1.55468v-.91016a2.36213,2.36213,0,0,1-2.0586,1.05078A2.16817,2.16817,0,0,1,198.1117,21.52669Zm4.35645-.36426v-.74219a3.5702,3.5702,0,0,0-1.37305-.2666c-.91016,0-1.44238.46289-1.44238,1.24707V21.429a1.13091,1.13091,0,0,0,1.2041,1.17578A1.48432,1.48432,0,0,0,202.46815,21.16243Z"/><path d="M205.69959,16.23177h1.583v1.457a2.20675,2.20675,0,0,1,2.22754-1.56934V17.8431h-.07031c-1.28907,0-2.15723.83984-2.15723,2.53515V23.6556h-1.583Z"/><path d="M211.97205,15.47493l-1.54.46289-.2666-1.40136,2.26953-.75586h1.14844v9.875h-1.61133Z"/><path d="M271.43885,16.11946a4.00706,4.00706,0,0,0-1.59668-.83984v2.75879c1.87695.71484,2.61914,1.55566,2.61914,2.92773v.02832a2.68878,2.68878,0,0,1-2.5918,2.66114V25.057H268.7494V23.6556a4.98846,4.98846,0,0,1-2.91407-1.33008l.89649-1.19141a4.05411,4.05411,0,0,0,2.0459,1.10742V19.35579c-1.793-.68652-2.57813-1.44336-2.57813-2.87207v-.01367a2.66248,2.66248,0,0,1,2.54981-2.61914v-.86914h1.12011v.88281a4.31731,4.31731,0,0,1,2.41016,1.05078Zm-2.66113,1.5127V15.23763a1.13466,1.13466,0,0,0-1.00879,1.13379v.01464C267.76893,16.91829,267.99256,17.25423,268.77772,17.63216Zm1.06445,2.11523v2.50782a1.18927,1.18927,0,0,0,1.06445-1.19043v-.02832C270.90662,20.50423,270.66834,20.1263,269.84217,19.74739Z"/><path d="M273.45154,13.85091h1.76465l2.40918,7.40918,2.41016-7.40918h1.708l-3.38965,9.86133h-1.498Z"/><path d="M281.80994,21.52669v-.07031c0-1.59668,1.06446-2.38086,2.63379-2.38086a5.04768,5.04768,0,0,1,1.708.29394v-.30859a1.40443,1.40443,0,0,0-1.59668-1.5127,4.23118,4.23118,0,0,0-1.793.44825l-.44824-1.26075a5.28782,5.28782,0,0,1,2.45117-.58789,2.95071,2.95071,0,0,1,2.18555.75684,2.92622,2.92622,0,0,1,.74219,2.14258v4.6084h-1.55469v-.91016a2.36213,2.36213,0,0,1-2.0586,1.05078A2.16818,2.16818,0,0,1,281.80994,21.52669Zm4.35645-.36426v-.74219a3.5702,3.5702,0,0,0-1.373-.2666c-.91015,0-1.44238.46289-1.44238,1.24707V21.429a1.13091,1.13091,0,0,0,1.2041,1.17578A1.48432,1.48432,0,0,0,286.16639,21.16243Z"/><path d="M289.39783,16.23177h1.583v1.457a2.2056,2.2056,0,0,1,2.22656-1.56934V17.8431h-.06933c-1.28906,0-2.15723.83984-2.15723,2.53515V23.6556h-1.583Z"/><path d="M294.14393,22.36751l2.99707-3.208c1.10644-1.14844,1.51269-1.751,1.51269-2.5498a1.34479,1.34479,0,0,0-1.42871-1.40039c-.77051,0-1.3164.41992-1.96094,1.26074l-1.07812-.99512a3.70332,3.70332,0,0,1,3.17969-1.76465,2.71277,2.71277,0,0,1,2.9414,2.75977v.02832c0,1.33008-.61621,2.12891-2.04492,3.55762l-1.96191,2.1289H300.349V23.6556h-6.20508Z"/><path d="M356.45252,16.11946a4.00066,4.00066,0,0,0-1.59668-.83984v2.75879c1.877.71484,2.62012,1.55566,2.62012,2.92773v.02832a2.68878,2.68878,0,0,1-2.5918,2.66114V25.057h-1.12109V23.6556A4.98581,4.98581,0,0,1,350.85,22.32552l.89649-1.19141a4.04736,4.04736,0,0,0,2.04492,1.10742V19.35579c-1.793-.68652-2.57715-1.44336-2.57715-2.87207v-.01367a2.6616,2.6616,0,0,1,2.54883-2.61914v-.86914h1.12109v.88281a4.31444,4.31444,0,0,1,2.40918,1.05078Zm-2.66113,1.5127V15.23763a1.13549,1.13549,0,0,0-1.00879,1.13379v.01464C352.7826,16.91829,353.00721,17.25423,353.79139,17.63216Zm1.06445,2.11523v2.50782a1.18927,1.18927,0,0,0,1.06445-1.19043v-.02832C355.92029,20.50423,355.683,20.1263,354.85584,19.74739Z"/><path d="M358.46522,13.85091h1.76562L362.64,21.26009l2.40918-7.40918h1.709l-3.38965,9.86133h-1.499Z"/><path d="M366.82361,21.52669v-.07031c0-1.59668,1.06446-2.38086,2.63379-2.38086a5.04763,5.04763,0,0,1,1.708.29394v-.30859a1.40443,1.40443,0,0,0-1.59668-1.5127,4.23118,4.23118,0,0,0-1.793.44825l-.44824-1.26075a5.28782,5.28782,0,0,1,2.45117-.58789,2.95071,2.95071,0,0,1,2.18555.75684,2.92622,2.92622,0,0,1,.74219,2.14258v4.6084h-1.55469v-.91016a2.36211,2.36211,0,0,1-2.05859,1.05078A2.16818,2.16818,0,0,1,366.82361,21.52669Zm4.35645-.36426v-.74219a3.5702,3.5702,0,0,0-1.37305-.2666c-.91015,0-1.44238.46289-1.44238,1.24707V21.429a1.13091,1.13091,0,0,0,1.2041,1.17578A1.48432,1.48432,0,0,0,371.18006,21.16243Z"/><path d="M374.41151,16.23177h1.583v1.457a2.20676,2.20676,0,0,1,2.22754-1.56934V17.8431h-.07031c-1.28906,0-2.15723.83984-2.15723,2.53515V23.6556h-1.583Z"/><path d="M378.976,22.46517l1.00781-1.14844a2.73521,2.73521,0,0,0,2.11524,1.02246,1.52287,1.52287,0,0,0,1.61132-1.55469v-.042c0-1.00879-.86914-1.56934-2.22754-1.56934h-.49023l-.21-1.02246,2.38086-2.84375h-3.71192v-1.456h5.74317v1.27441l-2.47949,2.84375a2.7169,2.7169,0,0,1,2.60547,2.7168v.042a3.00519,3.00519,0,0,1-3.207,3.082A4.10157,4.10157,0,0,1,378.976,22.46517Z"/><rect class="c" x="163.38696" y="70.88436" width="70" height="70"/><path d="M185.08338,114.53841V112.6263l3.07324-.39649v-11.1582q-.25488.05714-.666.1416c-.27344.05664-.55957.1084-.85645.15625-.29785.04688-.58789.08985-.87109.127-.28321.03808-.51856.06152-.708.07129l-.36816-2.46387a10.42948,10.42948,0,0,0,1.69921-.4961,14.178,14.178,0,0,0,1.62891-.74316,16.64848,16.64848,0,0,0,1.458-.87793,14.74466,14.74466,0,0,0,1.2041-.89941h.01367l2.56348.43945v15.70312l2.917.39649v1.91211Z"/><path d="M200.476,118.51692q1.18946-2.32178,2.40723-4.84277,1.21728-2.51953,2.35058-4.96289,1.13232-2.44189,2.124-4.666.99024-2.22216,1.72754-3.95019l-7.71777.11328-1.08984,3.32715-2.77539-.50977.77832-6.627h14.0332l1.01953,1.14746-7.73144,22.33008Z"/><path d="M270.25623,107.599a6.36718,6.36718,0,0,1,.36426-2.22364,4.77342,4.77342,0,0,1,1.02832-1.6748,4.46388,4.46388,0,0,1,1.5957-1.0586,5.56178,5.56178,0,0,1,2.06543-.36914,9.94542,9.94542,0,0,1,1.2041.06543q.53614.06592.94434.15821.40869.09228.69434.18457t.46191.13672l-.08789,3.21679h-1.73145l-.5625-1.59082a1.96935,1.96935,0,0,0-.42187-.6416.84007.84007,0,0,0-.60645-.2373,1.26659,1.26659,0,0,0-.65039.17968,1.54359,1.54359,0,0,0-.541.58887,3.76437,3.76437,0,0,0-.37305,1.07715,8.18837,8.18837,0,0,0-.14062,1.65234,9.44428,9.44428,0,0,0,.13574,1.74024,3.16426,3.16426,0,0,0,.42676,1.15136,1.64706,1.64706,0,0,0,.72949.62793,2.61135,2.61135,0,0,0,1.03711.18946,4.34057,4.34057,0,0,0,1.40136-.19825,5.30729,5.30729,0,0,0,.98926-.44335l.501,1.18652a3.23568,3.23568,0,0,1-.501.42187,5.23758,5.23758,0,0,1-.81738.46973,6.07032,6.07032,0,0,1-1.06836.37793,5.00493,5.00493,0,0,1-1.26074.1543,5.65171,5.65171,0,0,1-2.20606-.38672,3.91742,3.91742,0,0,1-1.49414-1.07227,4.30971,4.30971,0,0,1-.84863-1.63086A7.49173,7.49173,0,0,1,270.25623,107.599Z"/><path d="M279.65174,109.849a2.6806,2.6806,0,0,1,.23242-1.14258,2.87559,2.87559,0,0,1,.6377-.88379,3.79986,3.79986,0,0,1,.95312-.65039,6.61816,6.61816,0,0,1,1.18653-.43946,9.48677,9.48677,0,0,1,1.332-.25488,13.00164,13.00164,0,0,1,1.38867-.0918v-.40429a1.68124,1.68124,0,0,0-.41309-1.2793,1.81143,1.81143,0,0,0-1.26562-.38183,6.56405,6.56405,0,0,0-.9541.07031q-.479.0703-.918.17578-.43946.10546-.81739.23242-.37793.12744-.65039.251h-.00879l-.58007-1.35352a4.83715,4.83715,0,0,1,.6416-.38672,8.13477,8.13477,0,0,1,1.08105-.46191,11.352,11.352,0,0,1,1.415-.39063,7.90007,7.90007,0,0,1,1.65235-.167,5.66877,5.66877,0,0,1,1.70019.22363,2.82153,2.82153,0,0,1,1.15625.668,2.62124,2.62124,0,0,1,.6543,1.11621,5.36151,5.36151,0,0,1,.207,1.56934v5.37012h1.08984v1.19531l-.418.08789q-.25049.05274-.57128.10059-.3208.04833-.70313.084-.38232.03516-.8125.03516a4.91269,4.91269,0,0,1-.59766-.03125.90685.90685,0,0,1-.3916-.127.54866.54866,0,0,1-.21094-.27734,1.42557,1.42557,0,0,1-.06542-.47852v-.60644a3.78694,3.78694,0,0,1-.43555.51855,3.13782,3.13782,0,0,1-.63672.49219,3.83378,3.83378,0,0,1-.84375.36426,3.59966,3.59966,0,0,1-1.05469.14551,3.90581,3.90581,0,0,1-1.17773-.17188,2.58763,2.58763,0,0,1-.94531-.52246,2.40821,2.40821,0,0,1-.62793-.90137A3.35876,3.35876,0,0,1,279.65174,109.849Zm4.37695,1.01074a1.45885,1.45885,0,0,0,.30274-.04,2.74741,2.74741,0,0,0,.36914-.10938,2.62782,2.62782,0,0,0,.36914-.17187,1.42226,1.42226,0,0,0,.3125-.23242v-2.751a4.616,4.616,0,0,0-1.25293.14453,2.21315,2.21315,0,0,0-.80371.3916,1.3991,1.3991,0,0,0-.42676.57129,1.86164,1.86164,0,0,0-.127.68555,1.83736,1.83736,0,0,0,.29883,1.09375A1.09725,1.09725,0,0,0,284.02869,110.8597Z"/><path d="M291.1742,110.31478V104.0306h-1.22168v-1.08106c.02344-.01172.08887-.03711.19727-.07519s.22265-.082.34277-.13184.23145-.09473.334-.13574a1.42957,1.42957,0,0,0,.16309-.07031,3.81446,3.81446,0,0,0,.70313-.94922,9.29329,9.29329,0,0,0,.39941-.86621q.20653-.50538.35644-.9795h1.80176l.03516,2.68067h2.39941v1.6084h-2.39941v4.67578q0,.668.02148,1.06738a2.16525,2.16525,0,0,0,.10157.61133.44625.44625,0,0,0,.2373.27637,1.14465,1.14465,0,0,0,.43066.0664h.00879a2.46136,2.46136,0,0,0,.4043-.03515c.14063-.02344.27832-.05176.41309-.084s.26172-.06738.38183-.10547.21875-.07129.29492-.10058h.00879l.46582,1.125a5.36537,5.36537,0,0,1-.67285.43945,5.75106,5.75106,0,0,1-.86523.39062,6.88561,6.88561,0,0,1-1.01074.27735,5.77183,5.77183,0,0,1-1.11622.10547h-.01757a2.81875,2.81875,0,0,1-1.06836-.17578,1.63777,1.63777,0,0,1-.67676-.49219,1.87759,1.87759,0,0,1-.35156-.76465A4.52212,4.52212,0,0,1,291.1742,110.31478Z"/><path d="M270.80506,189.73177a3.97279,3.97279,0,0,1-1.542-.29492,3.17573,3.17573,0,0,1-1.22168-.90528,4.38844,4.38844,0,0,1-.80469-1.54687,7.53383,7.53383,0,0,1-.29-2.21875,6.68191,6.68191,0,0,1,.35645-2.23242,4.92356,4.92356,0,0,1,1.02832-1.73633,4.59078,4.59078,0,0,1,1.64355-1.125,5.76044,5.76044,0,0,1,2.21-.39942,6.01572,6.01572,0,0,1,.65528.03516q.32079.03516.61035.09668v-2.83887l-1.54688-.32519v-1.08985l3.97266-.37793h.04394l.61524.46582v12.99024h.93164v1.2041q-.47462.09667-1.07227.20215a7.6658,7.6658,0,0,1-1.32714.10547,1.34937,1.34937,0,0,1-.9004-.27246,1.1418,1.1418,0,0,1-.32128-.91407v-.334a3.11319,3.11319,0,0,1-.51368.58887,3.47887,3.47887,0,0,1-.69043.47851,3.79887,3.79887,0,0,1-.84765.3252A3.963,3.963,0,0,1,270.80506,189.73177Zm1.27441-1.72266a2.07528,2.07528,0,0,0,.81348-.1543,1.50916,1.50916,0,0,0,.55762-.373v-6.60938a1.1856,1.1856,0,0,0-.42578-.2373,2.02352,2.02352,0,0,0-.66407-.09668,1.67978,1.67978,0,0,0-.791.19336,1.73065,1.73065,0,0,0-.65039.64551,3.89808,3.89808,0,0,0-.44824,1.2041,9.48815,9.48815,0,0,0-.18457,1.86816,9.82177,9.82177,0,0,0,.10156,1.63477,3.64045,3.64045,0,0,0,.334,1.10254,1.497,1.497,0,0,0,.56641.624A1.55452,1.55452,0,0,0,272.07947,188.00911Z"/><path d="M278.50428,184.60774a6.29358,6.29358,0,0,1,.41308-2.3955,4.66481,4.66481,0,0,1,1.11231-1.66114,4.40427,4.40427,0,0,1,1.62109-.96679,6.023,6.023,0,0,1,1.94239-.31153,5.8371,5.8371,0,0,1,2.00879.3252,3.95666,3.95666,0,0,1,1.51562.9707,4.30954,4.30954,0,0,1,.958,1.6084,6.79266,6.79266,0,0,1,.334,2.22852,6.4887,6.4887,0,0,1-.41308,2.44726,4.52015,4.52015,0,0,1-1.11133,1.65723,4.30251,4.30251,0,0,1-1.61719.93555,6.31356,6.31356,0,0,1-1.93848.29492,5.76077,5.76077,0,0,1-2.00781-.33008,4.00535,4.00535,0,0,1-1.5166-.97559,4.358,4.358,0,0,1-.96191-1.60351A6.66884,6.66884,0,0,1,278.50428,184.60774Zm5.001,3.84082a1.26054,1.26054,0,0,0,.71191-.19824,1.42082,1.42082,0,0,0,.49219-.63672,4.25873,4.25873,0,0,0,.28613-1.14257,13.471,13.471,0,0,0,.0918-1.71387,18.231,18.231,0,0,0-.083-1.88574,5.36072,5.36072,0,0,0-.27734-1.30078,1.68406,1.68406,0,0,0-.50977-.75977,1.22164,1.22164,0,0,0-.77344-.24609,1.2799,1.2799,0,0,0-.71582.19726,1.46447,1.46447,0,0,0-.50586.6377,4.10545,4.10545,0,0,0-.29883,1.13769,12.84275,12.84275,0,0,0-.09668,1.71875,16.463,16.463,0,0,0,.09278,1.88477,5.44874,5.44874,0,0,0,.29,1.30078,1.69789,1.69789,0,0,0,.51855.76074A1.23873,1.23873,0,0,0,283.50526,188.44856Z"/><path d="M294.184,186.1722q-.37794,0-.71582-.02246-.33838-.022-.64649-.06543a1.05666,1.05666,0,0,0-.1582.29,1.08776,1.08776,0,0,0-.06152.37793.91027.91027,0,0,0,.10156.457.65635.65635,0,0,0,.33789.27246,2.22016,2.22016,0,0,0,.624.13183q.38672.03516.958.03516h1.66992a8.82179,8.82179,0,0,1,1.73145.14941,3.40887,3.40887,0,0,1,1.23047.47852,2.06827,2.06827,0,0,1,.73828.85742,3.01992,3.01992,0,0,1,.24609,1.2832,2.93458,2.93458,0,0,1-.50488,1.69141,4.26055,4.26055,0,0,1-1.34082,1.24805,6.80465,6.80465,0,0,1-1.89844.76953,9.06018,9.06018,0,0,1-2.18848.26367h-.00879a9.25394,9.25394,0,0,1-2.20117-.22461,4.48277,4.48277,0,0,1-1.46777-.61523,2.366,2.366,0,0,1-.82227-.92676,2.68739,2.68739,0,0,1-.25488-1.16895,1.797,1.797,0,0,1,.14941-.71679,2.2752,2.2752,0,0,1,.40918-.63282,3.03114,3.03114,0,0,1,.59766-.50488,2.79215,2.79215,0,0,1,.71582-.334,2.18658,2.18658,0,0,1-.835-.68555,1.62512,1.62512,0,0,1-.29-.958,1.81566,1.81566,0,0,1,.33887-1.10351,3.25993,3.25993,0,0,1,.86523-.80371,2.75975,2.75975,0,0,1-1.33984-1.165,3.63787,3.63787,0,0,1-.40918-1.7793,2.85729,2.85729,0,0,1,.36035-1.42383,3.47229,3.47229,0,0,1,.98926-1.10351,4.79472,4.79472,0,0,1,1.48535-.71582,6.49106,6.49106,0,0,1,1.8584-.25489h.00879a5.76824,5.76824,0,0,1,3.39258.79981,1.78767,1.78767,0,0,1,.34277-.30762,2.64734,2.64734,0,0,1,.48828-.26855,3.22583,3.22583,0,0,1,.61523-.18848,3.46514,3.46514,0,0,1,.707-.07031h.44824v2.10058h-1.70508a3.96039,3.96039,0,0,1,.17578,1.2041,3.1492,3.1492,0,0,1-.334,1.43653,3.42637,3.42637,0,0,1-.94922,1.15137,4.60939,4.60939,0,0,1-1.48926.76464,6.4651,6.4651,0,0,1-1.95605.27735Zm-.58887,3.51562c-.13477,0-.2666-.00488-.39551-.01367s-.252-.01855-.36914-.03027a1.609,1.609,0,0,0-.31152.44336,1.83609,1.83609,0,0,0-.14551.81347,2.89476,2.89476,0,0,0,.1543,1.01953,1.49287,1.49287,0,0,0,.44336.64161,1.70725,1.70725,0,0,0,.71191.334,4.30687,4.30687,0,0,0,.958.09668h.00879a4.02912,4.02912,0,0,0,.97168-.11914,2.83874,2.83874,0,0,0,.86132-.36426,2.05455,2.05455,0,0,0,.61915-.61133,1.55041,1.55041,0,0,0,.2373-.86523,2.07079,2.07079,0,0,0-.083-.62891.84409.84409,0,0,0-.28613-.417,1.29914,1.29914,0,0,0-.54883-.22851,4.468,4.468,0,0,0-.86621-.07032Zm.7998-4.7373h.00879a1.09422,1.09422,0,0,0,.668-.18946,1.27608,1.27608,0,0,0,.40039-.50488,2.41844,2.41844,0,0,0,.19336-.72949,7.41273,7.41273,0,0,0,.04785-.86133,3.25112,3.25112,0,0,0-.3164-1.66113,1.16864,1.16864,0,0,0-1.07227-.501h-.00879a1.37528,1.37528,0,0,0-.668.14453,1.0907,1.0907,0,0,0-.42187.418,1.90686,1.90686,0,0,0-.21973.668,5.81046,5.81046,0,0,0-.06152.8877,6.16046,6.16046,0,0,0,.07031.98437,2.22516,2.22516,0,0,0,.23731.72949,1.16018,1.16018,0,0,0,.44824.457A1.3987,1.3987,0,0,0,294.3949,184.95052Z"/><path d="M265.44373,266.04524V253.59993l-1.248-.24609v-1.125l3.68261-.457h.03516l.61523.38672v5.15039a3.95017,3.95017,0,0,1,.4834-.39063,3.46386,3.46386,0,0,1,.61133-.334,3.95088,3.95088,0,0,1,.72461-.22852,3.86529,3.86529,0,0,1,.81738-.084,4.33551,4.33551,0,0,1,1.51172.25976,3.00534,3.00534,0,0,1,1.22168.84375,4.21319,4.21319,0,0,1,.82227,1.5293,7.66062,7.66062,0,0,1,.30273,2.31641,6.5162,6.5162,0,0,1-.35547,2.17968,5.10412,5.10412,0,0,1-1.02832,1.75293,4.71575,4.71575,0,0,1-1.64844,1.165,5.50675,5.50675,0,0,1-2.20605.42188,15.85272,15.85272,0,0,1-1.71777-.084q-.76026-.08349-1.30957-.19726a6.73383,6.73383,0,0,1-.87891-.2334A3.164,3.164,0,0,1,265.44373,266.04524Zm4.44727-8.041a2.0931,2.0931,0,0,0-.8086.14844,1.42385,1.42385,0,0,0-.55371.3789v6.5918a.85435.85435,0,0,0,.4043.24609,1.997,1.997,0,0,0,.668.10547,1.44423,1.44423,0,0,0,.98047-.34765,2.48037,2.48037,0,0,0,.6416-.90528,5.1742,5.1742,0,0,0,.35156-1.26074,9.20923,9.20923,0,0,0,.10938-1.42383,11.57776,11.57776,0,0,0-.083-1.45508,3.96849,3.96849,0,0,0-.29-1.11621,1.718,1.718,0,0,0-.55371-.71191A1.44253,1.44253,0,0,0,269.891,258.00423Z"/><path d="M276.33338,266.53743v-1.291l1.2041-.18555v-6.47656l-1.16894-.36133v-1.4668l3.50683-.46679h.044l.7207.40429v8.36719l1.2041.18555v1.291Zm2.44336-11.63672a1.3391,1.3391,0,0,1-.58887-.123,1.22813,1.22813,0,0,1-.42578-.334,1.4689,1.4689,0,0,1-.25976-.4873,1.92321,1.92321,0,0,1-.08789-.585,2.32018,2.32018,0,0,1,.10156-.69336,1.625,1.625,0,0,1,.30273-.56739,1.43616,1.43616,0,0,1,.50586-.38183,1.68667,1.68667,0,0,1,.71582-.14063h.00879a1.68252,1.68252,0,0,1,.67676.12305,1.28807,1.28807,0,0,1,.73828.80859,1.87839,1.87839,0,0,1,.08789.58008,2.39775,2.39775,0,0,1-.10059.707,1.45645,1.45645,0,0,1-.86621.95313,2.05549,2.05549,0,0,1-.7998.14062Z"/><path d="M283.02186,266.53743v-1.291l1.17773-.18555v-6.47656l-1.17773-.35157v-1.47656l3.27832-.46679h.05273l.49219.40429v2.33008h.04394a5.18021,5.18021,0,0,1,.40918-.84375,4.89053,4.89053,0,0,1,.68067-.90137,3.93348,3.93348,0,0,1,.91406-.71582,2.1859,2.1859,0,0,1,1.09863-.291,3.42351,3.42351,0,0,1,.457.02246,1.27627,1.27627,0,0,1,.2461.05762v3.498a1.55453,1.55453,0,0,0-.58008-.18066,6.52328,6.52328,0,0,0-1.14258-.083,4.654,4.654,0,0,0-.46972.02539c-.17286.01758-.3418.04-.50586.06641a3.54378,3.54378,0,0,0-.43946.09668,1.08079,1.08079,0,0,0-.27246.11035v5.17578l2.0918.23828v1.23828Z"/><path d="M295.44959,266.73079a3.9724,3.9724,0,0,1-1.542-.29394,3.17573,3.17573,0,0,1-1.22168-.90528,4.38861,4.38861,0,0,1-.80469-1.54687,7.53383,7.53383,0,0,1-.29-2.21875,6.68191,6.68191,0,0,1,.35645-2.23242,4.92356,4.92356,0,0,1,1.02832-1.73633,4.59078,4.59078,0,0,1,1.64355-1.125,5.76029,5.76029,0,0,1,2.21-.40039,6.01825,6.01825,0,0,1,.65528.03515c.21386.02344.417.05664.61035.09766v-2.83984l-1.54688-.32422v-1.08985l3.97266-.3789h.04395l.61523.46679v12.99024h.93164V266.432q-.47461.09669-1.07226.20313a7.666,7.666,0,0,1-1.32715.10547,1.34953,1.34953,0,0,1-.90039-.27344,1.14176,1.14176,0,0,1-.32129-.91406v-.334a3.11865,3.11865,0,0,1-.51367.58985,3.47945,3.47945,0,0,1-.69043.47851,3.79914,3.79914,0,0,1-.84766.3252A3.96359,3.96359,0,0,1,295.44959,266.73079Zm1.27442-1.72265a2.07511,2.07511,0,0,0,.81347-.15333,1.51016,1.51016,0,0,0,.55762-.374v-6.60937a1.18508,1.18508,0,0,0-.42578-.23633,2.02194,2.02194,0,0,0-.66406-.09766,1.67994,1.67994,0,0,0-.791.19336,1.734,1.734,0,0,0-.65039.64649,3.89834,3.89834,0,0,0-.44824,1.2041,9.48891,9.48891,0,0,0-.18457,1.86816,9.82177,9.82177,0,0,0,.10156,1.63477,3.64045,3.64045,0,0,0,.334,1.10254,1.497,1.497,0,0,0,.56641.624A1.55409,1.55409,0,0,0,296.724,265.00814Z"/><path d="M264.56483,343.53743v-1.26562l1.37988-.27246v-6.82911h-1.46777V334.0013l1.46777-.43945v-.34278a4.45077,4.45077,0,0,1,.21094-1.39746,4.52808,4.52808,0,0,1,.57617-1.16894,4.70892,4.70892,0,0,1,.85254-.93555,5.32567,5.32567,0,0,1,1.041-.68555,5.506,5.506,0,0,1,1.13867-.42187,4.74911,4.74911,0,0,1,1.14649-.14551,3.17977,3.17977,0,0,1,.69043.05762,3.49063,3.49063,0,0,1,.33789.09179v2.96192a1.75479,1.75479,0,0,0-.373-.29,3.09948,3.09948,0,0,0-.51465-.24609,3.7229,3.7229,0,0,0-.59765-.167,3.26443,3.26443,0,0,0-.624-.06152.76252.76252,0,0,0-.55761.21094,1.04477,1.04477,0,0,0-.21582.75586l.00879,1.78418h2.19726v1.60839h-2.19726v6.89063l1.98632.21094v1.26562Z"/><path d="M272.2992,343.53743v-1.292l1.17774-.18457v-6.47754l-1.17774-.35156v-1.47656l3.27832-.46582h.05274l.49218.40429v2.3291h.04395a5.17938,5.17938,0,0,1,.40918-.84375,4.88479,4.88479,0,0,1,.68066-.90039,3.93753,3.93753,0,0,1,.91406-.71679,2.185,2.185,0,0,1,1.09864-.29,3.42362,3.42362,0,0,1,.457.02246,1.28324,1.28324,0,0,1,.24609.05664v3.498a1.55922,1.55922,0,0,0-.58008-.17969,6.51165,6.51165,0,0,0-1.14257-.084,4.67542,4.67542,0,0,0-.46973.02637c-.17285.01758-.3418.04-.50586.06641a3.5436,3.5436,0,0,0-.43945.09668,1.08722,1.08722,0,0,0-.27246.10937v5.17676l2.09179.2373v1.23926Z"/><path d="M280.83338,338.60677a6.28838,6.28838,0,0,1,.41309-2.39453,4.66466,4.66466,0,0,1,1.1123-1.66114,4.40427,4.40427,0,0,1,1.62109-.96679,6.02357,6.02357,0,0,1,1.94239-.3125,5.83734,5.83734,0,0,1,2.00879.32519,3.95867,3.95867,0,0,1,1.51562.97168,4.30954,4.30954,0,0,1,.958,1.6084,6.78629,6.78629,0,0,1,.334,2.22754,6.494,6.494,0,0,1-.41308,2.44824,4.516,4.516,0,0,1-1.11133,1.65625,4.30453,4.30453,0,0,1-1.61719.93653,6.31316,6.31316,0,0,1-1.93847.29394,5.76117,5.76117,0,0,1-2.00782-.3291,4.00535,4.00535,0,0,1-1.5166-.97559,4.36232,4.36232,0,0,1-.96191-1.60449A6.66877,6.66877,0,0,1,280.83338,338.60677Zm5.001,3.84082a1.26,1.26,0,0,0,.71191-.19727,1.424,1.424,0,0,0,.49219-.63769,4.25892,4.25892,0,0,0,.28613-1.14258,13.471,13.471,0,0,0,.0918-1.71387,18.21062,18.21062,0,0,0-.083-1.88476,5.36024,5.36024,0,0,0-.27734-1.30078,1.68765,1.68765,0,0,0-.50977-.76075,1.22164,1.22164,0,0,0-.77344-.24609,1.28042,1.28042,0,0,0-.71582.19824,1.46119,1.46119,0,0,0-.50586.63672,4.11291,4.11291,0,0,0-.29882,1.13867,12.82541,12.82541,0,0,0-.09668,1.71778,16.48375,16.48375,0,0,0,.09277,1.88574,5.44874,5.44874,0,0,0,.29,1.30078,1.69445,1.69445,0,0,0,.51855.75976A1.23868,1.23868,0,0,0,285.83436,342.44759Z"/><path d="M296.51307,340.17122q-.37794,0-.71582-.02148-.33839-.022-.64649-.06641a1.05693,1.05693,0,0,0-.1582.29,1.0878,1.0878,0,0,0-.06152.37793.91038.91038,0,0,0,.10156.457.65625.65625,0,0,0,.33789.27246,2.22048,2.22048,0,0,0,.624.13184q.38673.03514.958.03515h1.66992a8.82173,8.82173,0,0,1,1.73145.14942,3.40917,3.40917,0,0,1,1.23047.47949,2.06554,2.06554,0,0,1,.73828.85645,3.01989,3.01989,0,0,1,.24609,1.2832,2.93767,2.93767,0,0,1-.50488,1.69238,4.26044,4.26044,0,0,1-1.34082,1.248,6.80324,6.80324,0,0,1-1.89844.76855,9.06018,9.06018,0,0,1-2.18848.26367h-.00878a9.25886,9.25886,0,0,1-2.20118-.22363,4.48277,4.48277,0,0,1-1.46777-.61523,2.36846,2.36846,0,0,1-.82227-.92774,2.68738,2.68738,0,0,1-.25488-1.16894,1.79226,1.79226,0,0,1,.14942-.71582,2.275,2.275,0,0,1,.40918-.63282,3.03507,3.03507,0,0,1,.59765-.50585,2.79185,2.79185,0,0,1,.71582-.334,2.18658,2.18658,0,0,1-.835-.68555,1.62509,1.62509,0,0,1-.29-.958,1.81272,1.81272,0,0,1,.33887-1.10254,3.26339,3.26339,0,0,1,.86523-.80469,2.75813,2.75813,0,0,1-1.33984-1.16406,3.6418,3.6418,0,0,1-.40918-1.78028,2.85722,2.85722,0,0,1,.36035-1.42382,3.46916,3.46916,0,0,1,.98926-1.10254,4.79627,4.79627,0,0,1,1.48535-.7168,6.49141,6.49141,0,0,1,1.8584-.25488h.00879a5.76823,5.76823,0,0,1,3.39258.7998,1.788,1.788,0,0,1,.34277-.30762,2.64673,2.64673,0,0,1,.48828-.26757,3.22608,3.22608,0,0,1,.61524-.18946,3.46567,3.46567,0,0,1,.707-.07031h.44824v2.10059h-1.70508a3.96034,3.96034,0,0,1,.17578,1.2041,3.15325,3.15325,0,0,1-.334,1.4375,3.42625,3.42625,0,0,1-.94922,1.15137,4.60939,4.60939,0,0,1-1.48926.76464,6.4659,6.4659,0,0,1-1.95605.27637Zm-.58887,3.51563c-.13476,0-.2666-.00391-.39551-.0127s-.25195-.01953-.36914-.03125a1.61537,1.61537,0,0,0-.31152.44434,1.8314,1.8314,0,0,0-.14551.8125,2.8948,2.8948,0,0,0,.1543,1.01953,1.49284,1.49284,0,0,0,.44336.6416,1.70725,1.70725,0,0,0,.71191.334,4.30628,4.30628,0,0,0,.958.09668h.00879a4.0281,4.0281,0,0,0,.97168-.11816,2.84051,2.84051,0,0,0,.86133-.36523,2.05173,2.05173,0,0,0,.61914-.61036,1.55369,1.55369,0,0,0,.2373-.86621,2.064,2.064,0,0,0-.083-.62793.84675.84675,0,0,0-.28613-.418,1.29921,1.29921,0,0,0-.54883-.22851,4.46808,4.46808,0,0,0-.86621-.07031Zm.79981-4.73731h.00878a1.094,1.094,0,0,0,.668-.18848,1.27924,1.27924,0,0,0,.40039-.50585,2.41851,2.41851,0,0,0,.19336-.7295,7.41268,7.41268,0,0,0,.04785-.86132,3.25109,3.25109,0,0,0-.3164-1.66114,1.16866,1.16866,0,0,0-1.07227-.501h-.00879a1.37494,1.37494,0,0,0-.668.1455,1.0881,1.0881,0,0,0-.42188.417,1.9068,1.9068,0,0,0-.21973.668,5.81055,5.81055,0,0,0-.06152.8877,6.16037,6.16037,0,0,0,.07031.98437,2.22522,2.22522,0,0,0,.23731.7295,1.16031,1.16031,0,0,0,.44824.457A1.39872,1.39872,0,0,0,296.724,338.94954Z"/><path d="M354.32459,120.53841v-.81152l1.53125-.1504v-6.35937l-1.37012.124-.41308,2.33106h-1.11231l.15625-3.3086h7.36328l.17774,3.3086h-1.11719l-.41894-2.33106-1.31055-.124v6.35937l1.60547.1504v.81152Z"/><path d="M361.23182,120.53841v-.81152l.87012-.14454v-6.25781l-.85352-.17187v-.78907h1.7832c.18262,0,.34473-.0039.48535-.01074.14161-.00781.28418-.01465.42774-.02148.14258-.00782.29687-.01465.46191-.02149.16407-.00781.35742-.01074.58008-.01074a6.22273,6.22273,0,0,1,1.41211.13672,2.45733,2.45733,0,0,1,.92676.40527,1.51523,1.51523,0,0,1,.50488.669,2.59266,2.59266,0,0,1,.15332.92676,2.95083,2.95083,0,0,1-.08594.6875,2.35115,2.35115,0,0,1-.27441.666,2.04193,2.04193,0,0,1-.48828.54785,1.8616,1.8616,0,0,1-.73047.33789,1.37538,1.37538,0,0,1,.54785.35743,3.16888,3.16888,0,0,1,.4209.56152,5.568,5.568,0,0,1,.333.64941q.14794.33838.27441.623a3.77578,3.77578,0,0,0,.25.4834.45954.45954,0,0,0,.2627.23144l.46191.14454v.81152h-2.19629q-.12891,0-.26074-.22852a4.25556,4.25556,0,0,1-.26856-.58008q-.13768-.35156-.28515-.77832c-.09766-.28515-.20215-.55859-.31152-.81933a5.903,5.903,0,0,0-.34083-.69824,1.17447,1.17447,0,0,0-.37011-.42481c-.08985,0-.18164-.001-.27735-.002-.09472-.00195-.18359-.00391-.26855-.00586-.084-.00195-.1582-.00391-.22266-.00488-.06445-.002-.1123-.00293-.14453-.00293v2.58886l.89649.14454v.81152Zm2.77734-4.335a.62889.62889,0,0,0,.14453.02441c.06446.00586.13379.00781.207.00781h.38379a1.12327,1.12327,0,0,0,.92383-.41894,2.09423,2.09423,0,0,0,.33887-1.32129,1.47948,1.47948,0,0,0-.3418-1.0791,1.4112,1.4112,0,0,0-1.04394-.34375,3.68,3.68,0,0,0-.41114.01562c-.084.01075-.15136.02149-.20117.03223Z"/><path d="M373.02186,120.62435a3.61877,3.61877,0,0,1-2.57032-.82227,3.37533,3.37533,0,0,1-.873-2.56738v-3.9043l-.73535-.17773v-.78907h3.71093v.78907l-.94531.17187v4.125a4.42768,4.42768,0,0,0,.09961.98047,2.4067,2.4067,0,0,0,.293.74707,1.395,1.395,0,0,0,.47754.47461,1.27244,1.27244,0,0,0,.65527.167,1.5934,1.5934,0,0,0,1.415-.74414,2.3234,2.3234,0,0,0,.31445-.76758,4.07075,4.07075,0,0,0,.09668-.88965v-4.09277l-.93945-.17187v-.78907h2.84668v.78907l-.709.17187v4.04981a4.12144,4.12144,0,0,1-.23633,1.47461,2.68681,2.68681,0,0,1-.65528,1.00976,2.56843,2.56843,0,0,1-.99414.58008A4.03871,4.03871,0,0,1,373.02186,120.62435Z"/><path d="M377.40467,120.53841V119.722l.87012-.14551V113.3304l-.86524-.17773v-.78907h6.10156l.11817,1.96h-1.042l-.41309-1.06835-1.93945-.12891V115.973l1.21972-.02149.16114-.91308h1.03125v2.71777h-1.03125l-.16114-.9082-1.21972-.02149V119.641l2.39551-.12891.67675-1.46582,1.03711.21484-.30078,2.27735Z"/><rect class="c" x="163.38696" y="147.88436" width="70" height="70"/><path d="M191.88123,192.89778a5.84623,5.84623,0,0,0,.68653.17676q.38964.07764.82128.13477.43214.05567.88477.085c.30273.01855.59961.02832.89258.02832a7.27937,7.27937,0,0,0,2.209-.31153,4.876,4.876,0,0,0,1.65625-.87792,3.82233,3.82233,0,0,0,1.041-1.35254,4.11221,4.11221,0,0,0,.36133-1.73438,3.89454,3.89454,0,0,0-.17774-1.126,3.06506,3.06506,0,0,0-.58691-1.083,3.44012,3.44012,0,0,0-1.07617-.84278,4.03129,4.03129,0,0,0-1.64258-.40332l-1.91211.31153-.84961-2.23731a6.59037,6.59037,0,0,0,1.26074-.30469q.63722-.21972,1.16113-.418a6.2573,6.2573,0,0,0,1.45118-.793,4.6255,4.6255,0,0,0,.98437-.9834,3.72435,3.72435,0,0,0,.55859-1.13281,4.36543,4.36543,0,0,0,.17774-1.23926,2.78049,2.78049,0,0,0-.21973-1.16113,2.16042,2.16042,0,0,0-.58789-.78614,2.39078,2.39078,0,0,0-.82812-.44629,3.25061,3.25061,0,0,0-.95606-.1416,6.82581,6.82581,0,0,0-2.34375.36133,7.66,7.66,0,0,0-1.86133.99805l-1.17578-2.09571a6.19811,6.19811,0,0,1,1.01953-.77832,10.36321,10.36321,0,0,1,1.53614-.793,12.03254,12.03254,0,0,1,1.91211-.61621,9.23807,9.23807,0,0,1,2.1455-.248,10.14178,10.14178,0,0,1,2.52051.29785,5.79892,5.79892,0,0,1,2.00293.91308,4.406,4.406,0,0,1,1.32422,1.53614,4.644,4.644,0,0,1,.48145,2.18066,5.9675,5.9675,0,0,1-1.2461,3.85156,8.68807,8.68807,0,0,1-3.61035,2.52051,7.46805,7.46805,0,0,1,2.541.291,5.16278,5.16278,0,0,1,1.834.97656,4.10127,4.10127,0,0,1,1.11133,1.4873,4.46639,4.46639,0,0,1,.376,1.81934,6.5272,6.5272,0,0,1-.62305,2.83887,6.20317,6.20317,0,0,1-1.88379,2.27246,9.54973,9.54973,0,0,1-3.13672,1.51562,15.57605,15.57605,0,0,1-4.38184.55176q-.49658,0-1.041-.042-.54492-.04248-1.0625-.12012c-.34375-.05273-.667-.11328-.96973-.18457a7.55152,7.55152,0,0,1-.77832-.21973Z"/><path d="M354.32459,197.53841v-.81152l1.53125-.1504v-6.35937l-1.37012.124-.41308,2.33106h-1.11231l.15625-3.3086h7.36328l.17774,3.3086h-1.11719l-.41894-2.33106-1.31055-.124v6.35937l1.60547.1504v.81152Z"/><path d="M361.23182,197.53841v-.81152l.87012-.14454v-6.25781l-.85352-.17187v-.78907h1.7832c.18262,0,.34473-.0039.48535-.01074.14161-.00781.28418-.01465.42774-.02148.14258-.00782.29687-.01465.46191-.02149.16407-.00781.35742-.01074.58008-.01074a6.22273,6.22273,0,0,1,1.41211.13672,2.45733,2.45733,0,0,1,.92676.40527,1.51523,1.51523,0,0,1,.50488.66895,2.59266,2.59266,0,0,1,.15332.92676,2.95083,2.95083,0,0,1-.08594.6875,2.35115,2.35115,0,0,1-.27441.666,2.04193,2.04193,0,0,1-.48828.54785,1.8616,1.8616,0,0,1-.73047.33789,1.37538,1.37538,0,0,1,.54785.35743,3.16888,3.16888,0,0,1,.4209.56152,5.568,5.568,0,0,1,.333.64941q.14794.33838.27441.62305a3.77578,3.77578,0,0,0,.25.4834.45954.45954,0,0,0,.2627.23144l.46191.14454v.81152h-2.19629q-.12891,0-.26074-.22852a4.25556,4.25556,0,0,1-.26856-.58008q-.13768-.35155-.28515-.77832c-.09766-.28515-.20215-.55859-.31152-.81933a5.903,5.903,0,0,0-.34083-.69824,1.17447,1.17447,0,0,0-.37011-.42481c-.08985,0-.18164-.001-.27735-.00195-.09472-.00195-.18359-.00391-.26855-.00586-.084-.00195-.1582-.00391-.22266-.00488-.06445-.002-.1123-.00293-.14453-.00293v2.58886l.89649.14454v.81152Zm2.77734-4.335a.62889.62889,0,0,0,.14453.02441c.06446.00586.13379.00781.207.00781h.38379a1.12327,1.12327,0,0,0,.92383-.41894,2.09423,2.09423,0,0,0,.33887-1.32129,1.47948,1.47948,0,0,0-.3418-1.0791,1.4112,1.4112,0,0,0-1.04394-.34375,3.68,3.68,0,0,0-.41114.01562c-.084.01075-.15136.02149-.20117.03223Z"/><path d="M373.02186,197.62435a3.61877,3.61877,0,0,1-2.57032-.82227,3.37533,3.37533,0,0,1-.873-2.56738v-3.9043l-.73535-.17773v-.78907h3.71093v.78907l-.94531.17187v4.125a4.42768,4.42768,0,0,0,.09961.98047,2.4067,2.4067,0,0,0,.293.74707,1.395,1.395,0,0,0,.47754.47461,1.27244,1.27244,0,0,0,.65527.167,1.5934,1.5934,0,0,0,1.415-.74414,2.3234,2.3234,0,0,0,.31445-.76758,4.07075,4.07075,0,0,0,.09668-.88965v-4.09277l-.93945-.17187v-.78907h2.84668v.78907l-.709.17187v4.04981a4.12144,4.12144,0,0,1-.23633,1.47461,2.68681,2.68681,0,0,1-.65528,1.00976,2.56843,2.56843,0,0,1-.99414.58008A4.03871,4.03871,0,0,1,373.02186,197.62435Z"/><path d="M377.40467,197.53841V196.722l.87012-.14551V190.3304l-.86524-.17773v-.78907h6.10156l.11817,1.96h-1.042l-.41309-1.06835-1.93945-.12891V192.973l1.21972-.02149.16114-.91308h1.03125v2.71777h-1.03125l-.16114-.9082-1.21972-.02149V196.641l2.39551-.12891.67675-1.46582,1.03711.21484-.30078,2.27735Z"/><rect class="c" x="163.38696" y="224.88436" width="70" height="70"/><path d="M185.30994,268.53841V266.6263l3.07325-.39649v-11.1582q-.2549.05714-.666.1416c-.27344.05664-.55957.1084-.85645.15625-.29785.04688-.58789.08985-.87109.127-.2832.03808-.51855.06152-.708.07129l-.36816-2.46387a10.42988,10.42988,0,0,0,1.69922-.4961,14.17861,14.17861,0,0,0,1.6289-.74316,16.647,16.647,0,0,0,1.458-.87793,14.74292,14.74292,0,0,0,1.2041-.89941h.01367l2.56348.43945v15.70312l2.917.39649v1.91211Z"/><path d="M198.29529,269.89778a5.84674,5.84674,0,0,0,.68653.17676q.38964.07764.82129.13477.43212.05566.88476.085c.30274.01855.59961.02832.89258.02832a7.27948,7.27948,0,0,0,2.209-.31153,4.8762,4.8762,0,0,0,1.65625-.87792,3.82242,3.82242,0,0,0,1.041-1.35254,4.11205,4.11205,0,0,0,.36133-1.73438,3.89454,3.89454,0,0,0-.17774-1.126,3.0649,3.0649,0,0,0-.58691-1.083,3.44,3.44,0,0,0-1.07617-.84278,4.03129,4.03129,0,0,0-1.64258-.40332l-1.91211.31153-.84961-2.23731a6.59019,6.59019,0,0,0,1.26074-.30469q.63721-.21972,1.16114-.418a6.25743,6.25743,0,0,0,1.45117-.793,4.62526,4.62526,0,0,0,.98437-.9834,3.72438,3.72438,0,0,0,.5586-1.13281,4.36577,4.36577,0,0,0,.17773-1.23926,2.78066,2.78066,0,0,0-.21972-1.16113,2.16055,2.16055,0,0,0-.5879-.78614,2.39069,2.39069,0,0,0-.82812-.44629,3.25061,3.25061,0,0,0-.95606-.1416,6.82581,6.82581,0,0,0-2.34375.36133,7.65971,7.65971,0,0,0-1.86132.99805l-1.17578-2.09571a6.19767,6.19767,0,0,1,1.01953-.77832,10.36258,10.36258,0,0,1,1.53613-.793,12.03254,12.03254,0,0,1,1.91211-.61621,9.23809,9.23809,0,0,1,2.14551-.248,10.14169,10.14169,0,0,1,2.5205.29785,5.79892,5.79892,0,0,1,2.00293.91308,4.406,4.406,0,0,1,1.32422,1.53614,4.644,4.644,0,0,1,.48145,2.18066,5.9675,5.9675,0,0,1-1.2461,3.85156,8.688,8.688,0,0,1-3.61035,2.52051,7.46805,7.46805,0,0,1,2.541.291,5.16278,5.16278,0,0,1,1.834.97656,4.10127,4.10127,0,0,1,1.11133,1.4873,4.46639,4.46639,0,0,1,.376,1.81934,6.5272,6.5272,0,0,1-.623,2.83887,6.20307,6.20307,0,0,1-1.88379,2.27246,9.54973,9.54973,0,0,1-3.13672,1.51562,15.576,15.576,0,0,1-4.38183.55176q-.49659,0-1.041-.042-.54492-.04248-1.0625-.12012c-.34375-.05273-.667-.11328-.96973-.18457a7.55225,7.55225,0,0,1-.77832-.21973Z"/><path d="M350.85486,274.53841v-.81152l.85938-.1504v-6.25195l-.875-.17187v-.78907h6.23047l.10742,2.11621h-1.19238l-.44629-1.2246-1.86328-.09668v2.88378l1.18652-.01562.2207-.87012h1.00977v2.78711H355.0824l-.2207-.94531-1.18652-.02148v2.5996l1.63281.1504v.81152Z"/><path d="M357.10194,274.53841l-.00586-.81152.6875-.14454,2.51953-7.23535h1.9873l2.5459,7.22949.78418.1504v.81152h-3.78711v-.81152l.88086-.14454-.34863-1.18164h-2.77735l-.32226,1.18164.88086.14454v.81152Zm3.66308-6.47266-.92969,3.41114h2.251l-1.01562-3.41114-.166-.74121Z"/><path d="M365.642,274.53841v-.81152l.87012-.1504V267.3304l-.86523-.17773v-.78907H369.557v.78907l-1.10058.17187v6.22559l1.99218-.11817.69336-2.15918,1.21387.13965-.333,3.126Z"/><path d="M375.90076,274.66146a5.75572,5.75572,0,0,1-.94824-.07227c-.292-.04785-.55273-.10156-.78418-.16113-.23047-.0586-.42969-.11328-.5957-.16407a2.0933,2.0933,0,0,0-.38477-.08593l.0918-2.06739h1.085l.24121,1.33692a1.02694,1.02694,0,0,0,.15918.13476,1.13567,1.13567,0,0,0,.24414.126,1.87729,1.87729,0,0,0,.33594.09375,2.15347,2.15347,0,0,0,.4209.03809,1.76953,1.76953,0,0,0,.60742-.08887,1.04827,1.04827,0,0,0,.38965-.23633.83805.83805,0,0,0,.209-.34668,1.387,1.387,0,0,0,.06153-.41308.97456.97456,0,0,0-.12012-.48047,1.54013,1.54013,0,0,0-.34961-.41407,3.6473,3.6473,0,0,0-.55859-.38671q-.3296-.19044-.749-.4004-.312-.15526-.666-.373a3.20062,3.20062,0,0,1-.65235-.53125,2.75035,2.75035,0,0,1-.49707-.73926,2.31411,2.31411,0,0,1-.19922-.99316,1.94914,1.94914,0,0,1,.71485-1.51758,2.6924,2.6924,0,0,1,.90527-.4834,4.08806,4.08806,0,0,1,1.28027-.17969,5.01892,5.01892,0,0,1,.7334.05371c.24512.03516.47559.07617.69043.1211q.32227.06591.56934.1289c.16406.041.28808.06836.37012.083l-.06934,1.874h-1.06934l-.19824-1.19726a.485.485,0,0,0-.13476-.09668,1.37349,1.37349,0,0,0-.21485-.08887,1.99515,1.99515,0,0,0-.26562-.06445,1.76139,1.76139,0,0,0-.28711-.02442,1.66861,1.66861,0,0,0-.53223.0752.99371.99371,0,0,0-.35449.19922.73746.73746,0,0,0-.19531.29.98789.98789,0,0,0-.0625.35449,1.03091,1.03091,0,0,0,.15039.55273,1.77549,1.77549,0,0,0,.4082.44629,4.21409,4.21409,0,0,0,.60156.38965q.34424.18457.73633.37793.33252.167.68457.38477a3.72178,3.72178,0,0,1,.64746.50488,2.49257,2.49257,0,0,1,.4834.65723,1.84321,1.84321,0,0,1,.1875.84375,2.68382,2.68382,0,0,1-.15527.875,2.18078,2.18078,0,0,1-.52149.82226,2.74017,2.74017,0,0,1-.96093.60645A4.03181,4.03181,0,0,1,375.90076,274.66146Z"/><path d="M379.73572,274.53841V273.722l.87012-.14551V267.3304l-.86523-.17773v-.78907h6.10156l.11816,1.96h-1.042l-.41308-1.06835-1.93946-.12891V269.973l1.21973-.02149.16113-.91308h1.03125v2.71777h-1.03125l-.16113-.9082-1.21973-.02149v2.81446l2.39551-.12891.67676-1.46582,1.03711.21484-.30078,2.27735Z"/><rect class="c" x="163.38696" y="301.88436" width="70" height="70"/><path d="M187.27186,345.53841V343.6263l3.07226-.39649v-11.1582q-.25488.05713-.665.1416-.41161.085-.85644.15625c-.29785.04688-.58789.08985-.8711.127q-.4248.05712-.708.07129l-.36817-2.46387a10.4293,10.4293,0,0,0,1.69922-.4961,14.08723,14.08723,0,0,0,1.62793-.74316,16.5259,16.5259,0,0,0,1.459-.87793,14.55136,14.55136,0,0,0,1.20312-.89941h.01465l2.5625.43945v15.70312l2.917.39649v1.91211Z"/><path d="M200.101,345.53841V343.6263l3.07226-.39649v-11.1582q-.25488.05713-.665.1416-.41163.085-.85645.15625c-.29785.04688-.58789.08985-.87109.127q-.42481.05712-.708.07129l-.36817-2.46387a10.4293,10.4293,0,0,0,1.69922-.4961,14.08723,14.08723,0,0,0,1.62793-.74316,16.5259,16.5259,0,0,0,1.459-.87793,14.55136,14.55136,0,0,0,1.20312-.89941h.01465l2.5625.43945v15.70312l2.917.39649v1.91211Z"/><path d="M354.32459,351.53841v-.81152l1.53125-.1504v-6.35937l-1.37012.124-.41308,2.33106h-1.11231l.15625-3.3086h7.36328l.17774,3.3086h-1.11719l-.41894-2.33106-1.31055-.124v6.35937l1.60547.1504v.81152Z"/><path d="M361.23182,351.53841v-.81152l.87012-.14454v-6.25781l-.85352-.17187v-.78907h1.7832c.18262,0,.34473-.0039.48535-.01074.14161-.00781.28418-.01465.42774-.02148.14258-.00782.29687-.01465.46191-.02149.16407-.00781.35742-.01074.58008-.01074a6.22273,6.22273,0,0,1,1.41211.13672,2.45733,2.45733,0,0,1,.92676.40527,1.51523,1.51523,0,0,1,.50488.66895,2.59266,2.59266,0,0,1,.15332.92676,2.95083,2.95083,0,0,1-.08594.6875,2.35115,2.35115,0,0,1-.27441.666,2.04193,2.04193,0,0,1-.48828.54785,1.8616,1.8616,0,0,1-.73047.33789,1.37538,1.37538,0,0,1,.54785.35743,3.16888,3.16888,0,0,1,.4209.56152,5.568,5.568,0,0,1,.333.64941q.14794.33839.27441.623a3.77578,3.77578,0,0,0,.25.4834.45954.45954,0,0,0,.2627.23144l.46191.14454v.81152h-2.19629q-.12891,0-.26074-.22852a4.25556,4.25556,0,0,1-.26856-.58008q-.13768-.35156-.28515-.77832c-.09766-.28515-.20215-.55859-.31152-.81933a5.903,5.903,0,0,0-.34083-.69824,1.17447,1.17447,0,0,0-.37011-.42481c-.08985,0-.18164-.001-.27735-.002-.09472-.002-.18359-.00391-.26855-.00586-.084-.002-.1582-.00391-.22266-.00488-.06445-.002-.1123-.00293-.14453-.00293v2.58886l.89649.14454v.81152Zm2.77734-4.335a.62889.62889,0,0,0,.14453.02441c.06446.00586.13379.00781.207.00781h.38379a1.12327,1.12327,0,0,0,.92383-.41894,2.09423,2.09423,0,0,0,.33887-1.32129,1.47948,1.47948,0,0,0-.3418-1.0791,1.4112,1.4112,0,0,0-1.04394-.34375,3.68,3.68,0,0,0-.41114.01562c-.084.01075-.15136.02149-.20117.03223Z"/><path d="M373.02186,351.62435a3.61877,3.61877,0,0,1-2.57032-.82227,3.37533,3.37533,0,0,1-.873-2.56738v-3.9043l-.73535-.17773v-.78907h3.71093v.78907l-.94531.17187v4.125a4.42768,4.42768,0,0,0,.09961.98047,2.4067,2.4067,0,0,0,.293.74707,1.395,1.395,0,0,0,.47754.47461,1.27244,1.27244,0,0,0,.65527.167,1.5934,1.5934,0,0,0,1.415-.74414,2.3234,2.3234,0,0,0,.31445-.76758,4.07075,4.07075,0,0,0,.09668-.88965v-4.09277l-.93945-.17187v-.78907h2.84668v.78907l-.709.17187v4.04981a4.12144,4.12144,0,0,1-.23633,1.47461,2.68681,2.68681,0,0,1-.65528,1.00976,2.56843,2.56843,0,0,1-.99414.58008A4.03871,4.03871,0,0,1,373.02186,351.62435Z"/><path d="M377.40467,351.53841V350.722l.87012-.14551V344.3304l-.86524-.17773v-.78907h6.10156l.11817,1.96h-1.042l-.41309-1.06835-1.93945-.12891V346.973l1.21972-.02149.16114-.91308h1.03125v2.71777h-1.03125l-.16114-.9082-1.21972-.02149v2.81446l2.39551-.12891.67675-1.46582,1.03711.21484-.30078,2.27735Z"/><path d="M231.38709,29.99446h-66a2.50232,2.50232,0,0,1-2.5-2.5v-16.5a2.50232,2.50232,0,0,1,2.5-2.5h66a2.50232,2.50232,0,0,1,2.5,2.5v16.5A2.50231,2.50231,0,0,1,231.38709,29.99446Zm-66-20.5a1.50164,1.50164,0,0,0-1.5,1.5v16.5a1.50164,1.50164,0,0,0,1.5,1.5h66a1.50164,1.50164,0,0,0,1.5-1.5v-16.5a1.50164,1.50164,0,0,0-1.5-1.5Z"/><path d="M316.38709,29.99446h-66a2.50232,2.50232,0,0,1-2.5-2.5v-16.5a2.50232,2.50232,0,0,1,2.5-2.5h66a2.50232,2.50232,0,0,1,2.5,2.5v16.5A2.50231,2.50231,0,0,1,316.38709,29.99446Zm-66-20.5a1.50164,1.50164,0,0,0-1.5,1.5v16.5a1.50164,1.50164,0,0,0,1.5,1.5h66a1.50164,1.50164,0,0,0,1.5-1.5v-16.5a1.50164,1.50164,0,0,0-1.5-1.5Z"/><path d="M401.38709,29.99446h-66a2.50232,2.50232,0,0,1-2.5-2.5v-16.5a2.50232,2.50232,0,0,1,2.5-2.5h66a2.50232,2.50232,0,0,1,2.5,2.5v16.5A2.50231,2.50231,0,0,1,401.38709,29.99446Zm-66-20.5a1.50164,1.50164,0,0,0-1.5,1.5v16.5a1.50164,1.50164,0,0,0,1.5,1.5h66a1.50164,1.50164,0,0,0,1.5-1.5v-16.5a1.50164,1.50164,0,0,0-1.5-1.5Z"/><path d="M16.69471,144.07845h6.31738v1.83594h-4.2998v2.11523h3.78222v1.834H18.71229v2.18555h4.35644v1.835h-6.374Z"/><path d="M24.5492,143.77083h1.98828v10.11328H24.5492Z"/><path d="M27.90858,150.21419v-.126c0-2.22754,1.38671-3.85156,3.27734-3.85156,2.14355,0,3.19434,1.75,3.19434,3.99219,0,.11133,0,.34961-.01465.64355H29.88319a1.60354,1.60354,0,0,0,1.625,1.5127,2.18868,2.18868,0,0,0,1.56933-.74219L34.1,152.848a3.469,3.469,0,0,1-2.67578,1.2041A3.529,3.529,0,0,1,27.90858,150.21419Zm4.55273-.6582c-.085-1.03614-.5332-1.68067-1.27539-1.68067-.72852,0-1.2041.61524-1.31641,1.68067Z"/><path d="M35.67811,146.3763h1.98925v1.00879a2.29627,2.29627,0,0,1,1.94727-1.14844,1.9802,1.9802,0,0,1,1.84863,1.0918,2.6804,2.6804,0,0,1,2.12989-1.0918c1.33007,0,2.22656.86719,2.22656,2.52051v5.12695H43.8451V149.3597c0-.86914-.37891-1.33008-1.03711-1.33008s-1.06445.46094-1.06445,1.33008v4.52441H39.75428V149.3597c0-.86914-.36426-1.33008-1.02246-1.33008s-1.06446.46094-1.06446,1.33008v4.52441H35.67811Z"/><path d="M47.07459,150.21419v-.126c0-2.22754,1.38672-3.85156,3.27735-3.85156,2.14355,0,3.19433,1.75,3.19433,3.99219,0,.11133,0,.34961-.01465.64355H49.0492a1.60355,1.60355,0,0,0,1.625,1.5127,2.18872,2.18872,0,0,0,1.56934-.74219L53.266,152.848a3.469,3.469,0,0,1-2.67578,1.2041A3.529,3.529,0,0,1,47.07459,150.21419Zm4.55274-.6582c-.085-1.03614-.53321-1.68067-1.27539-1.68067-.72852,0-1.20411.61524-1.31641,1.68067Z"/><path d="M54.84412,146.3763h1.98926v1.00879a2.29419,2.29419,0,0,1,1.93359-1.14844c1.40039,0,2.21289.98047,2.21289,2.53516v5.1123H58.99061V149.3597c0-.88281-.39258-1.33008-1.06446-1.33008-.6582,0-1.09277.44727-1.09277,1.33008v4.52441H54.84412Z"/><path d="M62.80994,152.00716V148.057h-.75586V146.3763h.75586v-1.91895H64.7992v1.91895h1.48535V148.057H64.7992v3.54395c0,.43457.19629.64453.61621.64453a1.93745,1.93745,0,0,0,.85449-.21v1.582a2.8824,2.8824,0,0,1-1.4707.39258C63.65076,154.01009,62.80994,153.56185,62.80994,152.00716Z"/><path d="M67.01014,152.98763l.86816-1.40137a3.50166,3.50166,0,0,0,2.00293.84082c.56055,0,.79883-.2666.79883-.57422v-.02832c0-.43359-.56055-.61523-1.373-.96582-1.06445-.46191-1.97461-.99512-1.97461-2.26953v-.02832a2.324,2.324,0,0,1,2.57715-2.29688,4.432,4.432,0,0,1,2.47949.8125l-.79882,1.42872a3.4102,3.4102,0,0,0-1.709-.64454c-.47558,0-.72851.23829-.72851.53223v.02832c0,.3916.56054.61621,1.35937.98047,1.09277.51855,1.98926,1.06445,1.98926,2.25488v.02832c0,1.55469-1.14941,2.33887-2.64746,2.33887A4.54725,4.54725,0,0,1,67.01014,152.98763Z"/><rect class="d" x="114.90925" y="96.03292" width="37.63434" height="19.70286" rx="9.85142"/><path d="M121.42811,100.73274h3.78222v1.21875h-2.2832V111.141h2.2832v1.21777h-3.78222Z"/><path d="M128.03651,102.35774l-1.541.46192-.26563-1.40039,2.26856-.75684h1.14941v9.876h-1.61132Z"/><path d="M131.25526,111.88314c.86914-.168,1.21875-.65821,1.14843-1.34473h-.71386v-1.86328h1.793v1.56933a2.04593,2.04593,0,0,1-2.04492,2.3252Z"/><path d="M142.24549,111.141h2.2832v-9.18946h-2.2832v-1.21875h3.78223v11.626h-3.78223Z"/><rect class="d" x="179.37838" y="40.33812" width="37.63434" height="19.70286" rx="9.85142"/><path d="M186.22694,45.03841h3.78222v1.21875H187.726v9.18848h2.2832v1.21875h-3.78222Z"/><path d="M198.33631,56.18782c.86914-.168,1.21875-.6582,1.14844-1.34472h-.71387V52.98079h1.793v1.56836a2.04594,2.04594,0,0,1-2.04492,2.3252Z"/><path d="M202.92908,46.66243l-1.541.46289-.26563-1.40136,2.26856-.75586h1.14941v9.875h-1.61133Z"/><path d="M206.38611,55.44564h2.28321V46.25716h-2.28321V45.03841h3.78223v11.626h-3.78223Z"/><rect class="d" x="272.91239" y="354.11738" width="20.56583" height="10.76692" rx="5.38345"/><path d="M274.4408,356.49251h2.0918v.67383h-1.26367v5.085h1.26367v.6748h-2.0918Z"/><path d="M279.56385,360.73958h-2.40234l-.125-.65039,2.582-3.62793h.79882v3.52637h.67383v.75195h-.67383v1.17871h-.85351Zm0-.75195v-2.17774l-1.53516,2.17774Z"/><path d="M281.62635,362.66243c.48047-.09277.67383-.36426.63476-.74414h-.39453V360.887h.99219v.86817a1.13367,1.13367,0,0,1-1.13281,1.2871Z"/><path d="M285.65565,361.2054,287.3158,359.43c.61133-.63574.83594-.96875.83594-1.41113a.74348.74348,0,0,0-.78906-.77539c-.42774,0-.73047.2334-1.08594.69824l-.59766-.55078a2.0491,2.0491,0,0,1,1.75977-.97656,1.50216,1.50216,0,0,1,1.62891,1.52734v.01562c0,.73633-.3418,1.17774-1.13282,1.96875l-1.084,1.17774h2.24023v.81445h-3.43554Z"/><path d="M289.85877,362.2513h1.26367v-5.085h-1.26367v-.67383h2.0918v6.43359h-2.0918Z"/><rect class="d" x="272.91239" y="123.11738" width="20.56583" height="10.76692" rx="5.38345"/><path d="M275.3119,125.49153h2.09375v.67481H276.142v5.085h1.26368v.6748H275.3119Z"/><path d="M278.9701,126.391l-.85156.25586-.14649-.77539,1.25391-.418h.63672v5.46484h-.89258Z"/><path d="M280.7533,131.66243c.48047-.09375.67578-.36426.63672-.74414h-.39648V129.887h.99218v.86817a1.13228,1.13228,0,0,1-1.13086,1.2871Z"/><path d="M284.78455,130.20442l1.65821-1.77441c.61328-.63574.83789-.96875.83789-1.41113a.745.745,0,0,0-.791-.77539c-.42578,0-.72852.2334-1.08594.69824l-.5957-.55078a2.04909,2.04909,0,0,1,1.75977-.97656,1.50054,1.50054,0,0,1,1.62695,1.52734v.01562c0,.73633-.33985,1.17774-1.13086,1.96875l-1.08594,1.17774h2.24024v.81445h-3.4336Z"/><path d="M288.98572,131.2513h1.26368v-5.085h-1.26368v-.67481h2.09375v6.43457h-2.09375Z"/><rect class="d" x="358.34531" y="123.11738" width="20.56583" height="10.76692" rx="5.38345"/><path d="M360.7533,125.49153h2.09278v.67481H361.5824v5.085h1.26368v.6748H360.7533Z"/><path d="M364.41151,126.391l-.85254.25586-.14649-.77539,1.25488-.418h.63575v5.46484h-.8916Z"/><path d="M366.19471,131.66243c.48047-.09375.6748-.36426.63574-.74414h-.39551V129.887h.99219v.86817a1.133,1.133,0,0,1-1.13184,1.2871Z"/><path d="M370.1244,130.25911l.55859-.63574a1.509,1.509,0,0,0,1.16992.56641.84329.84329,0,0,0,.8916-.86036V129.306c0-.5586-.48047-.86817-1.23242-.86817h-.27148l-.11621-.5664,1.31738-1.57325h-2.05371v-.80664h3.17773v.70606l-1.37207,1.57324a1.50488,1.50488,0,0,1,1.44238,1.50391v.02343a1.66289,1.66289,0,0,1-1.77539,1.70508A2.27311,2.27311,0,0,1,370.1244,130.25911Z"/><path d="M374.41151,131.2513h1.26367v-5.085h-1.26367v-.67481h2.09277v6.43457h-2.09277Z"/><rect class="d" x="272.91239" y="200.11738" width="20.56583" height="10.76692" rx="5.38345"/><path d="M274.60682,202.49153h2.09179v.67481h-1.26367v5.085h1.26367v.6748h-2.09179Z"/><path d="M277.41932,207.20442l1.66015-1.77441c.61133-.63672.83594-.96875.83594-1.41113a.74348.74348,0,0,0-.78906-.77539c-.42774,0-.73047.2334-1.08594.69824l-.59765-.55078a2.04907,2.04907,0,0,1,1.75976-.97656,1.50216,1.50216,0,0,1,1.62891,1.52734v.01562c0,.73633-.3418,1.17774-1.13282,1.96875l-1.084,1.17774h2.24023v.81445h-3.43554Z"/><path d="M281.45838,208.66243c.48047-.09375.67578-.36523.63672-.74414h-.39649V206.887h.99219v.86817a1.131,1.131,0,0,1-1.13086,1.28613Z"/><path d="M285.48963,207.20442l1.6582-1.77441c.61328-.63672.83789-.96875.83789-1.41113a.745.745,0,0,0-.791-.77539c-.42578,0-.72852.2334-1.08594.69824l-.5957-.55078a2.04908,2.04908,0,0,1,1.75976-.97656,1.50054,1.50054,0,0,1,1.627,1.52734v.01562c0,.73633-.33985,1.17774-1.13086,1.96875l-1.08594,1.17774h2.24023v.81445h-3.43359Z"/><path d="M289.6908,208.2513h1.26367v-5.085H289.6908v-.67481h2.09375v6.43457H289.6908Z"/><rect class="d" x="358.34531" y="200.11738" width="20.56583" height="10.76692" rx="5.38345"/><path d="M360.04725,202.49153H362.14v.67481h-1.26367v5.085H362.14v.6748h-2.09277Z"/><path d="M362.86072,207.20442,364.5199,205.43c.61231-.63672.83692-.96875.83692-1.41113a.74425.74425,0,0,0-.79-.77539c-.42676,0-.72949.2334-1.08594.69824l-.59668-.55078a2.04909,2.04909,0,0,1,1.75977-.97656,1.50135,1.50135,0,0,1,1.62793,1.52734v.01562c0,.73633-.34082,1.17774-1.13184,1.96875l-1.085,1.17774h2.24023v.81445h-3.43457Z"/><path d="M366.89979,208.66243c.48047-.09375.6748-.36523.63574-.74414H367.14V206.887h.99219v.86817a1.13171,1.13171,0,0,1-1.13184,1.28613Z"/><path d="M370.82947,207.25911l.5586-.63574a1.509,1.509,0,0,0,1.16992.56641.8435.8435,0,0,0,.8916-.86133V206.305c0-.55762-.48047-.86719-1.23242-.86719h-.27148l-.11622-.5664,1.31739-1.57325h-2.05371v-.80664h3.17773v.70606l-1.37207,1.57324a1.50422,1.50422,0,0,1,1.44238,1.50391v.02246a1.66365,1.66365,0,0,1-1.77539,1.70605A2.27313,2.27313,0,0,1,370.82947,207.25911Z"/><path d="M375.11658,208.2513h1.26368v-5.085h-1.26368v-.67481h2.09278v6.43457h-2.09278Z"/><rect class="d" x="187.69454" y="354.11738" width="20.56583" height="10.76692" rx="5.38345"/><path d="M189.94276,356.49251h2.09375v.67383h-1.26368v5.085h1.26368v.6748h-2.09375Z"/><path d="M195.06776,360.73958h-2.4043l-.123-.65039,2.58008-3.62793h.79883v3.52637h.67383v.75195h-.67383v1.17871h-.85156Zm0-.75195v-2.17774l-1.53516,2.17774Z"/><path d="M197.1283,362.66243c.48047-.09277.67578-.36426.63672-.74414h-.39648V360.887h.99218v.86817a1.13228,1.13228,0,0,1-1.13086,1.2871Z"/><path d="M202.0033,357.39095l-.85156.25586-.14648-.77539,1.2539-.418h.63672v5.46484h-.89258Z"/><path d="M203.91932,362.2513H205.183v-5.085h-1.26367v-.67383h2.09375v6.43359h-2.09375Z"/><rect class="d" x="188.13073" y="123.11738" width="20.56583" height="10.76692" rx="5.38345"/><path d="M191.25135,125.49153h2.09277v.67481h-1.26367v5.085h1.26367v.6748h-2.09277Z"/><path d="M194.90955,126.391l-.85254.25586-.14648-.77539,1.25488-.418h.63574v5.46484h-.8916Z"/><path d="M196.69276,131.66243c.48046-.09375.6748-.36426.63574-.74414H196.933V129.887h.99219v.86817a1.133,1.133,0,0,1-1.13184,1.2871Z"/><path d="M201.56776,126.391l-.85254.25586-.14649-.77539,1.25488-.418h.63575v5.46484h-.8916Z"/><path d="M203.48377,131.2513h1.26367v-5.085h-1.26367v-.67481h2.09277v6.43457h-2.09277Z"/><rect class="d" x="187.77819" y="200.11738" width="20.56583" height="10.76692" rx="5.38345"/><path d="M190.19373,202.49153h2.09278v.67481h-1.26368v5.085h1.26368v.6748h-2.09278Z"/><path d="M193.00721,207.20442l1.65918-1.77441c.6123-.63672.83691-.96875.83691-1.41113a.74425.74425,0,0,0-.79-.77539c-.42675,0-.72949.2334-1.08593.69824l-.59668-.55078a2.05027,2.05027,0,0,1,1.75976-.97656,1.50135,1.50135,0,0,1,1.62793,1.52734v.01562c0,.73633-.34082,1.17774-1.13183,1.96875l-1.085,1.17774h2.24024v.81445h-3.43457Z"/><path d="M197.04627,208.66243c.48047-.09375.67481-.36523.63574-.74414h-.3955V206.887h.99218v.86817a1.13171,1.13171,0,0,1-1.13183,1.28613Z"/><path d="M201.92225,203.391l-.85352.25586-.14648-.77539,1.25488-.418h.63574v5.46484h-.89062Z"/><path d="M203.83631,208.2513H205.1v-5.085h-1.26367v-.67481h2.09277v6.43457h-2.09277Z"/><rect class="d" x="187.78185" y="277.11738" width="20.56583" height="10.76692" rx="5.38345"/><path d="M190.20447,279.49251h2.09278v.67383h-1.26367v5.085h1.26367v.6748h-2.09278Z"/><path d="M192.91736,284.25911l.5586-.63574a1.509,1.509,0,0,0,1.16992.56641.84329.84329,0,0,0,.8916-.86036V283.306c0-.5586-.48047-.86817-1.23242-.86817h-.27148l-.11622-.5664,1.31739-1.57325H193.181v-.80566h3.17773v.70508l-1.37207,1.57324a1.50489,1.50489,0,0,1,1.44238,1.50391v.02343a1.66289,1.66289,0,0,1-1.77539,1.70508A2.26981,2.26981,0,0,1,192.91736,284.25911Z"/><path d="M197.04139,285.66243c.48047-.09277.6748-.36426.63574-.74414h-.39551V283.887h.99219v.86817a1.133,1.133,0,0,1-1.13184,1.2871Z"/><path d="M201.91639,280.39095l-.85254.25586-.14649-.77539,1.25489-.418h.63574v5.46484h-.8916Z"/><path d="M203.8324,285.2513h1.26368v-5.085H203.8324v-.67383h2.09278v6.43359H203.8324Z"/><rect class="d" x="272.91239" y="277.11738" width="20.56583" height="10.76692" rx="5.38345"/><path d="M274.61463,279.49251h2.0918v.67383h-1.26367v5.085h1.26367v.6748h-2.0918Z"/><path d="M277.32752,284.25911l.55859-.63574a1.50751,1.50751,0,0,0,1.16993.56641.84249.84249,0,0,0,.89062-.86036V283.306c0-.5586-.48047-.86817-1.23242-.86817h-.27148l-.11524-.5664,1.31641-1.57325h-2.05274v-.80566h3.17774v.70508l-1.37305,1.57324a1.50572,1.50572,0,0,1,1.44336,1.50391v.02343a1.6629,1.6629,0,0,1-1.77539,1.70508A2.26824,2.26824,0,0,1,277.32752,284.25911Z"/><path d="M281.45057,285.66243c.48047-.09277.67578-.36426.63672-.74414h-.39649V283.887h.99219v.86817a1.13229,1.13229,0,0,1-1.13086,1.2871Z"/><path d="M285.48182,284.2054,287.14,282.43c.61328-.63574.83789-.96875.83789-1.41113a.745.745,0,0,0-.791-.77539c-.42579,0-.72852.2334-1.08594.69824l-.5957-.55078a2.04907,2.04907,0,0,1,1.75976-.97656,1.50054,1.50054,0,0,1,1.627,1.52734v.01562c0,.73633-.33984,1.17774-1.13086,1.96875l-1.08593,1.17774h2.24023v.81445h-3.43359Z"/><path d="M289.683,285.2513h1.26367v-5.085H289.683v-.67383h2.09375v6.43359H289.683Z"/><rect class="d" x="358.34531" y="277.11738" width="20.56583" height="10.76692" rx="5.38345"/><path d="M360.05506,279.49251h2.09277v.67383h-1.26367v5.085h1.26367v.6748h-2.09277Z"/><path d="M362.768,284.25911l.55859-.63574a1.509,1.509,0,0,0,1.16993.56641.84329.84329,0,0,0,.8916-.86036V283.306c0-.5586-.48047-.86817-1.23242-.86817h-.27149l-.11621-.5664,1.31738-1.57325h-2.05371v-.80566h3.17774v.70508l-1.37207,1.57324a1.50489,1.50489,0,0,1,1.44238,1.50391v.02343a1.6629,1.6629,0,0,1-1.77539,1.70508A2.26978,2.26978,0,0,1,362.768,284.25911Z"/><path d="M366.892,285.66243c.48047-.09277.67481-.36426.63575-.74414h-.39551V283.887h.99219v.86817a1.133,1.133,0,0,1-1.13184,1.2871Z"/><path d="M370.82166,284.25911l.5586-.63574a1.509,1.509,0,0,0,1.16992.56641.84329.84329,0,0,0,.8916-.86036V283.306c0-.5586-.48047-.86817-1.23242-.86817h-.27149l-.11621-.5664,1.31738-1.57325h-2.05371v-.80566h3.17774v.70508l-1.37207,1.57324a1.50489,1.50489,0,0,1,1.44238,1.50391v.02343a1.6629,1.6629,0,0,1-1.77539,1.70508A2.26978,2.26978,0,0,1,370.82166,284.25911Z"/><path d="M375.10877,285.2513h1.26367v-5.085h-1.26367v-.67383h2.09277v6.43359h-2.09277Z"/><rect class="d" x="358.34531" y="354.11738" width="20.56583" height="10.76692" rx="5.38345"/><path d="M359.64783,356.49251h2.09278v.67383h-1.26367v5.085h1.26367v.6748h-2.09278Z"/><path d="M364.77186,360.73958h-2.40332l-.124-.65039,2.58106-3.62793h.79883v3.52637h.67382v.75195h-.67382v1.17871h-.85254Zm0-.75195v-2.17774l-1.53516,2.17774Z"/><path d="M366.83338,362.66243c.48047-.09277.67481-.36426.63574-.74414h-.39551V360.887h.99219v.86817a1.133,1.133,0,0,1-1.13183,1.2871Z"/><path d="M373.29041,360.73958h-2.40332l-.124-.65039,2.581-3.62793h.79883v3.52637h.67383v.75195H374.143v1.17871h-.85254Zm0-.75195v-2.17774l-1.53515,2.17774Z"/><path d="M375.516,362.2513h1.26367v-5.085H375.516v-.67383h2.09277v6.43359H375.516Z"/><rect class="d" x="264.56979" y="40.33812" width="37.63434" height="19.70286" rx="9.85142"/><path d="M269.808,45.03841h3.78223v1.21875H271.307v9.18848h2.28321v1.21875H269.808Z"/><path d="M281.91736,56.18782c.86915-.168,1.21875-.6582,1.14844-1.34472h-.71386V52.98079h1.793v1.56836A2.04593,2.04593,0,0,1,282.1,56.87435Z"/><path d="M285.599,53.555l2.998-3.208c1.10645-1.14844,1.5127-1.751,1.5127-2.5498a1.3453,1.3453,0,0,0-1.42871-1.40039c-.77051,0-1.31739.41992-1.96094,1.26074l-1.0791-.99512a3.70452,3.70452,0,0,1,3.17969-1.76465,2.71277,2.71277,0,0,1,2.9414,2.75977v.02832c0,1.33008-.61621,2.12891-2.04492,3.55762l-1.96094,2.1289h4.04785V54.8431H285.599Z"/><path d="M293.1869,55.44564h2.2832V46.25716h-2.2832V45.03841h3.78222v11.626H293.1869Z"/><rect class="d" x="349.81106" y="40.33812" width="37.63434" height="19.70286" rx="9.85142"/><path d="M355.06385,45.03841h3.78125v1.21875h-2.2832v9.18848h2.2832v1.21875h-3.78125Z"/><path d="M367.17322,56.18782c.86817-.168,1.21875-.6582,1.14844-1.34472h-.71484V52.98079h1.793v1.56836a2.04594,2.04594,0,0,1-2.04493,2.3252Z"/><path d="M370.67225,53.65267l1.00879-1.14844a2.73517,2.73517,0,0,0,2.11523,1.02246,1.52261,1.52261,0,0,0,1.61035-1.55469V51.93c0-1.00879-.86816-1.56934-2.22656-1.56934h-.49023l-.21094-1.02246,2.38183-2.84375h-3.71191v-1.456H376.892v1.27441l-2.47949,2.84375a2.71756,2.71756,0,0,1,2.60547,2.7168v.042a3.006,3.006,0,0,1-3.208,3.082A4.1031,4.1031,0,0,1,370.67225,53.65267Z"/><path d="M378.41444,55.44564h2.2832V46.25716h-2.2832V45.03841h3.78222v11.626h-3.78222Z"/><rect class="d" x="114.90925" y="173.03292" width="37.63434" height="19.70286" rx="9.85142"/><path d="M120.15467,177.73274h3.78125v1.21875h-2.2832V188.141h2.2832v1.21777h-3.78125Z"/><path d="M125.23572,186.24935l2.998-3.208c1.10645-1.14844,1.5127-1.751,1.5127-2.54883a1.34555,1.34555,0,0,0-1.42871-1.40137c-.77051,0-1.31739.4209-1.96094,1.26075l-1.0791-.99415a3.70452,3.70452,0,0,1,3.17968-1.76464,2.712,2.712,0,0,1,2.94141,2.75879v.02832c0,1.33105-.61621,2.1289-2.04492,3.55761l-1.96094,2.12989h4.04785v1.4707h-6.20508Z"/><path d="M132.52967,188.88314c.86816-.168,1.21875-.65821,1.14844-1.34473h-.71485v-1.86328h1.793v1.56933a2.04593,2.04593,0,0,1-2.04492,2.3252Z"/><path d="M143.51893,188.141h2.2832v-9.18946h-2.2832v-1.21875h3.78222v11.626h-3.78222Z"/><rect class="d" x="114.90925" y="250.03292" width="37.63434" height="19.70286" rx="9.85142"/><path d="M120.16834,254.73274h3.78223v1.21875h-2.28321v9.18946h2.28321v1.21777h-3.78223Z"/><path d="M125.06776,263.348l1.00878-1.14942a2.73216,2.73216,0,0,0,2.11524,1.02247,1.52261,1.52261,0,0,0,1.61035-1.55469v-.042c0-1.00782-.86816-1.56836-2.22656-1.56836h-.49024l-.21093-1.02246,2.38183-2.84375h-3.71191v-1.457h5.74316v1.27442l-2.47949,2.84375a2.71845,2.71845,0,0,1,2.60547,2.71777v.042a3.006,3.006,0,0,1-3.208,3.082A4.10642,4.10642,0,0,1,125.06776,263.348Z"/><path d="M132.516,265.88314c.86816-.168,1.21875-.65821,1.14844-1.34473h-.71485v-1.86328h1.793v1.56933a2.04594,2.04594,0,0,1-2.04492,2.3252Z"/><path d="M143.50526,265.14095h2.2832v-9.18946h-2.2832v-1.21875h3.78222v11.626h-3.78222Z"/><rect class="d" x="114.90925" y="327.03292" width="37.63434" height="19.70286" rx="9.85142"/><path d="M119.85291,331.73274h3.78223v1.21875h-2.2832v9.18946h2.2832v1.21777h-3.78223Z"/><path d="M129.10877,339.4095H124.767l-.22461-1.17676,4.665-6.55566h1.44239v6.37305h1.21875v1.35937h-1.21875v2.12891h-1.541Zm0-1.35937v-3.93555l-2.77344,3.93555Z"/><path d="M132.83045,342.88314c.86816-.168,1.21875-.65821,1.14844-1.34473H133.264v-1.86328h1.793v1.56933a2.04593,2.04593,0,0,1-2.04492,2.3252Z"/><path d="M143.81971,342.14095h2.2832v-9.18946h-2.2832v-1.21875h3.78223v11.626h-3.78223Z"/><path d="M446.00916,125.61751v-.126c0-2.96972,1.84863-4.9873,4.44043-4.9873A4.1205,4.1205,0,0,1,453.601,121.807l-1.21875,1.56934a2.73229,2.73229,0,0,0-2.00293-.98047c-1.31641,0-2.2832,1.21777-2.2832,3.123v.042c0,1.94727,1.00878,3.13769,2.31152,3.13769a2.75751,2.75751,0,0,0,2.0166-1.02246l1.21875,1.44336a4.25994,4.25994,0,0,1-3.31934,1.47071C447.74549,130.59017,446.00916,128.61458,446.00916,125.61751Z"/><path d="M454.33924,126.79427V126.64a3.58886,3.58886,0,0,1,3.54395-3.83789,3.54741,3.54741,0,0,1,3.51562,3.82324v.1543a3.5416,3.5416,0,1,1-7.05957.01465Zm5.09863-.02832v-.09864c0-1.21777-.61621-2.14257-1.56933-2.14257-.99414,0-1.56836.91015-1.56836,2.1289v.09766c0,1.20508.62988,2.14355,1.583,2.14355C458.86365,128.89485,459.43787,127.9847,459.43787,126.766Z"/><path d="M462.78065,120.33626h1.98925v10.11328h-1.98925Z"/><path d="M466.40662,128.054v-5.1123h1.97559v4.52441c0,.88282.3916,1.33106,1.06445,1.33106.67188,0,1.09278-.44824,1.09278-1.33106v-4.52441h1.98925v7.50781h-1.98925v-1.00879a2.27345,2.27345,0,0,1-1.91895,1.14942C467.20545,130.59017,466.40662,129.6097,466.40662,128.054Z"/><path d="M474.12049,122.94173h1.98926v1.00879a2.29626,2.29626,0,0,1,1.94726-1.14844,1.9802,1.9802,0,0,1,1.84864,1.0918,2.68038,2.68038,0,0,1,2.12988-1.0918c1.33008,0,2.22656.86816,2.22656,2.52051v5.127h-1.97461v-4.52441c0-.86817-.3789-1.33008-1.03711-1.33008s-1.06445.46191-1.06445,1.33008v4.52441h-1.98926v-4.52441c0-.86817-.36426-1.33008-1.02246-1.33008s-1.06445.46191-1.06445,1.33008v4.52441h-1.98926Z"/><path d="M485.82459,122.94173h1.98926v1.00879a2.29464,2.29464,0,0,1,1.93262-1.14844c1.40039,0,2.21289.98047,2.21289,2.53516v5.1123h-1.98828v-4.52441c0-.88184-.39258-1.33008-1.06543-1.33008-.65821,0-1.0918.44824-1.0918,1.33008v4.52441h-1.98926Z"/><path d="M496.88514,120.64485h2.03027v9.80469h-2.03027Z"/><path d="M500.76209,122.94173h1.98926v1.00879a2.29632,2.29632,0,0,1,1.93359-1.14844c1.40039,0,2.21289.98047,2.21289,2.53516v5.1123h-1.98925v-4.52441c0-.88184-.39258-1.33008-1.06446-1.33008-.6582,0-1.09277.44824-1.09277,1.33008v4.52441h-1.98926Z"/><path d="M508.16834,126.80794v-.22461c0-2.56348,1.3584-3.78125,2.85742-3.78125a2.45713,2.45713,0,0,1,2.03125,1.10645v-3.57227h1.98926v10.11328H513.057v-1.03613a2.37432,2.37432,0,0,1-2.03125,1.17676C509.54139,130.59017,508.16834,129.37142,508.16834,126.80794Zm4.916-.042v-.14063c0-1.27441-.64356-2.08691-1.47071-2.08691-.82617,0-1.45605.8125-1.45605,2.08691v.14063c0,1.27441.62988,2.08691,1.45605,2.08691C512.4408,128.85286,513.08436,128.04036,513.08436,126.766Z"/><path d="M516.33045,126.77962v-.126c0-2.22754,1.38672-3.85156,3.27734-3.85156,2.14356,0,3.19434,1.751,3.19434,3.99219,0,.11133,0,.34961-.01465.64355h-4.48242a1.60355,1.60355,0,0,0,1.625,1.5127,2.18872,2.18872,0,0,0,1.56934-.74219l1.02246,1.20508a3.469,3.469,0,0,1-2.67578,1.2041A3.52845,3.52845,0,0,1,516.33045,126.77962Zm4.55274-.6582c-.085-1.03614-.53321-1.68067-1.2754-1.68067-.72851,0-1.2041.61621-1.3164,1.68067Z"/><path d="M526.60779,125.141l1.19043-2.19922h2.05957l-2.17187,3.65625,2.25586,3.85156h-2.11524l-1.24707-2.33887-1.26074,2.33887h-2.07324l2.24121-3.82422-2.15625-3.68359H525.431Z"/><path d="M446.35877,247.73372h6.31738v1.835h-4.2998v2.11524h3.78223v1.835h-3.78223v2.18554h4.35644v1.835h-6.374Z"/><path d="M454.21326,247.4261h1.98828v10.11329h-1.98828Z"/><path d="M457.57264,253.86946v-.126c0-2.22754,1.38672-3.85254,3.27734-3.85254,2.14356,0,3.19434,1.751,3.19434,3.99219,0,.1123,0,.35058-.01465.64453h-4.48242a1.60426,1.60426,0,0,0,1.625,1.51269,2.19239,2.19239,0,0,0,1.56933-.74219l1.02246,1.20411a3.46661,3.46661,0,0,1-2.67578,1.20507A3.529,3.529,0,0,1,457.57264,253.86946Zm4.55273-.6582c-.085-1.03711-.5332-1.68164-1.27539-1.68164-.72851,0-1.2041.61621-1.3164,1.68164Z"/><path d="M465.34217,250.03157h1.98926v1.00782a2.29834,2.29834,0,0,1,1.94726-1.14844,1.97934,1.97934,0,0,1,1.84864,1.09277,2.68132,2.68132,0,0,1,2.12988-1.09277c1.33008,0,2.22656.86816,2.22656,2.52148v5.127h-1.97461V253.015c0-.86914-.3789-1.33105-1.03711-1.33105s-1.06445.46191-1.06445,1.33105v4.52442h-1.98926V253.015c0-.86914-.36426-1.33105-1.02246-1.33105s-1.06445.46191-1.06445,1.33105v4.52442h-1.98926Z"/><path d="M476.73865,253.86946v-.126c0-2.22754,1.38672-3.85254,3.27735-3.85254,2.14355,0,3.19433,1.751,3.19433,3.99219,0,.1123,0,.35058-.01464.64453h-4.48243a1.60427,1.60427,0,0,0,1.625,1.51269,2.19241,2.19241,0,0,0,1.56934-.74219l1.02246,1.20411a3.46663,3.46663,0,0,1-2.67578,1.20507A3.529,3.529,0,0,1,476.73865,253.86946Zm4.55274-.6582c-.085-1.03711-.5332-1.68164-1.27539-1.68164-.72852,0-1.2041.61621-1.31641,1.68164Z"/><path d="M484.50819,250.03157h1.98925v1.00782a2.29632,2.29632,0,0,1,1.9336-1.14844c1.40039,0,2.21289.98047,2.21289,2.53515v5.11329h-1.98926V253.015c0-.88281-.39258-1.33105-1.06445-1.33105-.65821,0-1.09278.44824-1.09278,1.33105v4.52442h-1.98925Z"/><path d="M492.474,255.66243v-3.95019h-.75586v-1.68067h.75586v-1.91992h1.98925v1.91992h1.48535v1.68067h-1.48535v3.54394c0,.4336.19629.64453.61621.64453a1.92511,1.92511,0,0,0,.8545-.21093v1.583a2.88246,2.88246,0,0,1-1.47071.39258C493.31483,257.66536,492.474,257.21712,492.474,255.66243Z"/><path d="M500.63709,247.73372h2.03027v9.80567h-2.03027Z"/><path d="M504.514,250.03157h1.98926v1.00782a2.29632,2.29632,0,0,1,1.9336-1.14844c1.40039,0,2.21289.98047,2.21289,2.53515v5.11329h-1.98926V253.015c0-.88281-.39258-1.33105-1.06445-1.33105-.65821,0-1.09278.44824-1.09278,1.33105v4.52442H504.514Z"/><path d="M511.92029,253.89681v-.22364c0-2.56347,1.3584-3.78222,2.85743-3.78222a2.45714,2.45714,0,0,1,2.03125,1.10644V247.4261h1.98925v10.11329H516.809v-1.03711a2.37223,2.37223,0,0,1-2.03125,1.17675C513.29334,257.679,511.92029,256.46028,511.92029,253.89681Zm4.916-.042v-.13964c0-1.27442-.64355-2.08692-1.4707-2.08692-.82617,0-1.45606.8125-1.45606,2.08692v.13964c0,1.2754.62989,2.0879,1.45606,2.0879C516.19276,255.94271,516.83631,255.13021,516.83631,253.85481Z"/><path d="M520.08143,253.86946v-.126c0-2.22754,1.38672-3.85254,3.27832-3.85254,2.14258,0,3.19336,1.751,3.19336,3.99219,0,.1123,0,.35058-.01367.64453H522.057a1.60365,1.60365,0,0,0,1.625,1.51269,2.19033,2.19033,0,0,0,1.56836-.74219l1.02246,1.20411a3.466,3.466,0,0,1-2.6748,1.20507A3.5297,3.5297,0,0,1,520.08143,253.86946Zm4.55273-.6582c-.084-1.03711-.53222-1.68164-1.27441-1.68164-.72852,0-1.20508.61621-1.31739,1.68164Z"/><path d="M530.35975,252.22981l1.19043-2.19824h2.05957l-2.17188,3.65528,2.25586,3.85254H531.5785l-1.24707-2.33985-1.26074,2.33985h-2.07325l2.24121-3.82422-2.15625-3.6836H529.183Z"/><path d="M9.34412,292.07942h3.68457a3.64475,3.64475,0,0,1,2.66114.93848,3.10434,3.10434,0,0,1,.82617,2.26856v.05664a2.9596,2.9596,0,0,1-1.82031,2.89941l2.08691,3.6416H14.4574l-1.80761-3.22168H11.37537v3.22168H9.34412Zm3.53028,4.79a1.4134,1.4134,0,0,0,1.59668-1.4707v-.01367c0-.98047-.60254-1.4707-1.63868-1.4707h-1.457v2.95507Z"/><path d="M17.50623,298.22884v-.1543a3.58886,3.58886,0,0,1,3.544-3.83789,3.54685,3.54685,0,0,1,3.51562,3.82324v.1543a3.5416,3.5416,0,1,1-7.05957.01465Zm5.09863-.02832v-.09863c0-1.21778-.61621-2.14258-1.56835-2.14258-.99512,0-1.56934.91015-1.56934,2.1289v.09766c0,1.20508.63086,2.14355,1.583,2.14355C22.03065,300.32942,22.60486,299.41927,22.60486,298.20052Z"/><path d="M25.08045,294.3763h2.00293l1.02246,4.44043L29.268,294.348h1.69531L32.14,298.8304l1.03613-4.4541h1.97559l-2.01758,7.56445h-1.835l-1.19043-4.45508L28.89,301.94075H27.06873Z"/><path d="M39.61268,292.07942H41.643v9.80469H39.61268Z"/><path d="M43.49061,294.3763h1.98925v1.00879a2.29465,2.29465,0,0,1,1.93262-1.14844c1.40039,0,2.21289.98047,2.21289,2.53516v5.1123H47.63709V297.3597c0-.88184-.39258-1.33008-1.06543-1.33008-.6582,0-1.0918.44824-1.0918,1.33008v4.52441H43.49061Z"/><path d="M50.89588,298.24251v-.22461c0-2.56348,1.35938-3.78125,2.85742-3.78125a2.45571,2.45571,0,0,1,2.03125,1.10645v-3.57227h1.98926v10.11328H55.78455V300.848a2.37176,2.37176,0,0,1-2.03125,1.17676C52.26893,302.02474,50.89588,300.806,50.89588,298.24251Zm4.917-.042v-.14063c0-1.27441-.64453-2.08691-1.4707-2.08691s-1.457.8125-1.457,2.08691v.14063c0,1.27441.63086,2.08691,1.457,2.08691S55.81287,299.47493,55.81287,298.20052Z"/><path d="M59.058,298.21419v-.126c0-2.22754,1.38672-3.85156,3.27734-3.85156,2.14356,0,3.19434,1.751,3.19434,3.99219,0,.11133,0,.34961-.01465.64355H61.0326a1.60355,1.60355,0,0,0,1.625,1.5127,2.18872,2.18872,0,0,0,1.56934-.74219L65.2494,300.848a3.469,3.469,0,0,1-2.67579,1.2041A3.52845,3.52845,0,0,1,59.058,298.21419Zm4.55273-.6582c-.085-1.03614-.5332-1.68067-1.27539-1.68067-.72851,0-1.2041.61621-1.3164,1.68067Z"/><path d="M69.33533,296.57552l1.19141-2.19922h2.05859l-2.17089,3.65625,2.25488,3.85156H70.55408L69.308,299.54524l-1.26074,2.33887H65.974l2.24121-3.82422L66.058,294.3763h2.10156Z"/><rect x="372.31398" y="18.6717" width="1.49974" height="145.57521" transform="translate(123.94169 383.82824) rotate(-63.3411)"/><polygon points="310.67 55.95 303.204 56.387 307.314 62.635 310.67 55.95"/><rect x="76.66497" y="127.01796" width="103.21574" height="1.50086" transform="translate(-37.63609 55.29144) rotate(-21.28911)"/><polygon points="176.701 112.922 181.378 107.087 173.986 105.952 176.701 112.922"/><rect x="411.24442" y="196.76818" width="1.50019" height="68.15765" transform="translate(-29.56828 398.33468) rotate(-50.03466)"/><polygon points="389.116 206.795 381.75 205.501 384.312 212.527 389.116 206.795"/><rect x="384.67173" y="269.4819" width="55.503" height="1.49974" transform="translate(-71.51439 175.77274) rotate(-22.18938)"/><polygon points="386.331 276.851 381.75 282.762 389.16 283.775 386.331 276.851"/><rect x="430.16094" y="40.54721" width="1.49919" height="95.59762" transform="translate(108.22273 387.27995) rotate(-54.39796)"/><polygon points="395.113 58.116 387.67 57.387 390.759 64.198 395.113 58.116"/><rect x="130.93442" y="113.15625" width="1.50008" height="106.76237" transform="translate(-63.62603 249.78001) rotate(-74.74989)"/><polygon points="181.146 183.899 188.379 181.994 183.114 176.683 181.146 183.899"/><rect x="150.84608" y="93.72355" width="1.49998" height="231.68831" transform="translate(-102.87464 255.87803) rotate(-64.43316)"/><polygon points="253.496 262.463 260.953 261.884 256.724 255.716 253.496 262.463"/><rect x="93.95338" y="294.12223" width="1.49925" height="38.10482" transform="translate(-205.28562 182.58431) rotate(-49.65051)"/><polygon points="105.968 327.651 113.325 328.994 110.81 321.951 105.968 327.651"/><rect x="75.65092" y="281.7546" width="38.10418" height="1.49925" transform="translate(-160.38015 128.5241) rotate(-40.35032)"/><polygon points="110.81 273.728 113.325 266.685 105.968 268.028 110.81 273.728"/><rect x="288.64298" y="308.77058" width="172.99799" height="1.49952" transform="translate(-107.03202 245.93904) rotate(-32.01329)"/><polygon points="300.717 351.578 297.204 358.18 304.678 357.922 300.717 351.578"/></svg>