<svg xmlns="http://www.w3.org/2000/svg" viewBox="0 0 583.99814 232.12937"><defs><style>.a{fill:#ea7d7d;}.b{fill:#75bbef;}.c{fill:#eaeaea;}</style></defs><rect class="a" x="129.49915" y="34.91598" width="70" height="70"/><path d="M151.19531,78.56984V76.65773l3.07324-.39648V65.10305q-.25488.05712-.665.14257c-.27442.05665-.56055.10743-.85743.15528s-.58789.08984-.87109.12793q-.4248.05567-.707.07031l-.36914-2.46387a10.52438,10.52438,0,0,0,1.69922-.49511,14.18687,14.18687,0,0,0,1.6289-.74414,16.29484,16.29484,0,0,0,1.459-.87793,14.719,14.719,0,0,0,1.20312-.89942h.01367l2.56348.43945V76.26125l2.917.39648v1.91211Z"/><path d="M166.58789,82.54836q1.18946-2.32178,2.40723-4.8418,1.21728-2.521,2.35058-4.96386,1.13379-2.4419,2.124-4.665.9917-2.22364,1.72754-3.95118l-7.7168.11329-1.09082,3.32812-2.77539-.50977.77832-6.627h14.0332l1.01953,1.14649-7.73144,22.33007Z"/><rect class="a" x="214.3075" y="34.91598" width="70" height="70"/><path d="M233.13672,76.63039a29.92346,29.92346,0,0,0,3.54785-2.35156,19.901,19.901,0,0,0,2.76074-2.55567,11.42619,11.42619,0,0,0,1.791-2.65527,6.1635,6.1635,0,0,0,.63769-2.66211,3.14857,3.14857,0,0,0-.21191-1.16016,2.61334,2.61334,0,0,0-.61621-.92773,2.93511,2.93511,0,0,0-.98438-.61621,3.59719,3.59719,0,0,0-1.31738-.22656,5.15934,5.15934,0,0,0-1.42285.18457,6.78,6.78,0,0,0-1.168.44531,6.30341,6.30341,0,0,0-.93457.56641q-.41016.30468-.72266.54492l-1.23144-1.89649a5.40121,5.40121,0,0,1,1.11816-1.10547,9.39585,9.39585,0,0,1,1.71387-1.02636,11.99868,11.99868,0,0,1,2.13086-.75684,9.484,9.484,0,0,1,2.38574-.29785,8.55665,8.55665,0,0,1,2.81836.41113,5.51556,5.51556,0,0,1,1.93262,1.10352,4.32476,4.32476,0,0,1,1.11914,1.60742,5.22421,5.22421,0,0,1,.36035,1.93359,6.13988,6.13988,0,0,1-.72852,2.85254,12.17377,12.17377,0,0,1-1.97558,2.7334,22.26414,22.26414,0,0,1-2.88184,2.54883,35.861,35.861,0,0,1-3.46191,2.28711l7.68848-.86426,1.11914-2.02441,2.166.42383-.835,5.42382H233.85938Z"/><path d="M250.582,76.63039a29.92264,29.92264,0,0,0,3.54785-2.35156,19.901,19.901,0,0,0,2.76074-2.55567,11.42587,11.42587,0,0,0,1.791-2.65527,6.16352,6.16352,0,0,0,.6377-2.66211,3.14837,3.14837,0,0,0-.21192-1.16016,2.6132,2.6132,0,0,0-.61621-.92773,2.93516,2.93516,0,0,0-.98437-.61621,3.59729,3.59729,0,0,0-1.31739-.22656,5.15934,5.15934,0,0,0-1.42285.18457,6.78032,6.78032,0,0,0-1.168.44531,6.30341,6.30341,0,0,0-.93457.56641q-.41016.30468-.72265.54492L250.71,63.31984a5.40121,5.40121,0,0,1,1.11816-1.10547A9.39619,9.39619,0,0,1,253.542,61.188a11.999,11.999,0,0,1,2.13086-.75684,9.484,9.484,0,0,1,2.38574-.29785,8.55661,8.55661,0,0,1,2.81836.41113,5.51547,5.51547,0,0,1,1.93262,1.10352,4.32476,4.32476,0,0,1,1.11914,1.60742,5.224,5.224,0,0,1,.36035,1.93359,6.13987,6.13987,0,0,1-.72851,2.85254,12.17383,12.17383,0,0,1-1.97559,2.7334,22.26281,22.26281,0,0,1-2.88184,2.54883,35.861,35.861,0,0,1-3.46191,2.28711l7.68848-.86426,1.11914-2.02441,2.166.42383-.835,5.42382H251.30469Z"/><rect class="a" x="299.11585" y="34.91598" width="70" height="70"/><path d="M329.416,78.56984V76.65773l3.07226-.39648V65.10305q-.25488.05712-.666.14257c-.27344.05665-.5586.10743-.85547.15528-.29883.04785-.58789.08984-.8711.12793q-.4248.05567-.709.07031l-.36719-2.46387a10.52408,10.52408,0,0,0,1.69922-.49511,14.09613,14.09613,0,0,0,1.62793-.74414,16.41525,16.41525,0,0,0,1.458-.87793,14.57668,14.57668,0,0,0,1.2041-.89942h.01465l2.5625.43945V76.26125l2.917.39648v1.91211Z"/><rect class="a" x="383.9242" y="34.91598" width="70" height="70"/><path d="M412.418,79.92922a5.72737,5.72737,0,0,0,.6875.17676q.38964.07762.82129.13476c.28808.03809.583.06543.88476.085s.59961.02832.8916.02832a7.27076,7.27076,0,0,0,2.209-.31152,4.83836,4.83836,0,0,0,1.65723-.87793,3.82233,3.82233,0,0,0,1.041-1.35254,4.10841,4.10841,0,0,0,.36035-1.73437,3.89226,3.89226,0,0,0-.17675-1.126,3.08084,3.08084,0,0,0-.58692-1.083,3.45405,3.45405,0,0,0-1.07617-.84277,4.03523,4.03523,0,0,0-1.64258-.40332l-1.91211.31152-.84961-2.2373a6.56443,6.56443,0,0,0,1.25977-.30469q.63867-.21973,1.16211-.418a6.25669,6.25669,0,0,0,1.45117-.793,4.67093,4.67093,0,0,0,.98437-.9834,3.73585,3.73585,0,0,0,.5586-1.13281,4.36572,4.36572,0,0,0,.17773-1.23926,2.79944,2.79944,0,0,0-.21972-1.16113,2.1715,2.1715,0,0,0-.58789-.78613,2.37229,2.37229,0,0,0-.82813-.44532,3.22907,3.22907,0,0,0-.95605-.14257,6.82583,6.82583,0,0,0-2.34375.36132,7.67579,7.67579,0,0,0-1.86133.998l-1.17578-2.0957a6.19712,6.19712,0,0,1,1.01953-.77832,10.31465,10.31465,0,0,1,1.53613-.793,12.23391,12.23391,0,0,1,1.91211-.61621,9.23809,9.23809,0,0,1,2.14551-.248,10.12822,10.12822,0,0,1,2.51953.29785,5.79579,5.79579,0,0,1,2.00391.91309,4.40031,4.40031,0,0,1,1.32421,1.53711,4.64888,4.64888,0,0,1,.48145,2.17969A5.96759,5.96759,0,0,1,424.044,68.898a8.70485,8.70485,0,0,1-3.61036,2.52148,7.44544,7.44544,0,0,1,2.541.29,5.17832,5.17832,0,0,1,1.834.97656,4.1205,4.1205,0,0,1,1.11133,1.48731,4.48508,4.48508,0,0,1,.375,1.81934,6.51335,6.51335,0,0,1-.623,2.83886,6.21091,6.21091,0,0,1-1.88282,2.27344,9.5684,9.5684,0,0,1-3.13672,1.51465,15.57873,15.57873,0,0,1-4.38281.55176q-.49512,0-1.04-.042-.54639-.04248-1.0625-.12011c-.34472-.05274-.667-.11328-.96972-.18457a7.58051,7.58051,0,0,1-.7793-.21973Z"/><rect class="a" x="468.73255" y="34.91598" width="70" height="70"/><path d="M489.332,71.43312V68.26125h12.53223v3.17187Z"/><path d="M506.75,79.92922a5.61442,5.61442,0,0,0,.68652.17676c.25879.05175.53321.09668.82129.13476.28711.03809.582.06543.88477.085s.59961.02832.89258.02832a7.28874,7.28874,0,0,0,2.209-.31152,4.85143,4.85143,0,0,0,1.65625-.87793,3.82225,3.82225,0,0,0,1.041-1.35254,4.109,4.109,0,0,0,.36132-1.73437,3.89475,3.89475,0,0,0-.17773-1.126,3.05243,3.05243,0,0,0-.58789-1.083,3.4317,3.4317,0,0,0-1.07617-.84277,4.023,4.023,0,0,0-1.64258-.40332l-1.91113.31152-.84961-2.2373a6.6263,6.6263,0,0,0,1.26074-.30469c.42383-.14649.81152-.28516,1.16016-.418a6.26419,6.26419,0,0,0,1.45214-.793,4.59685,4.59685,0,0,0,.9834-.9834,3.71623,3.71623,0,0,0,.55957-1.13281,4.36459,4.36459,0,0,0,.17676-1.23926,2.7843,2.7843,0,0,0-.21875-1.16113,2.16041,2.16041,0,0,0-.58789-.78613,2.38075,2.38075,0,0,0-.82813-.44532,3.21951,3.21951,0,0,0-.95605-.14257,6.82583,6.82583,0,0,0-2.34375.36132,7.71788,7.71788,0,0,0-1.8623.998l-1.17481-2.0957a6.11413,6.11413,0,0,1,1.01953-.77832,10.36321,10.36321,0,0,1,1.53614-.793,12.23378,12.23378,0,0,1,1.9121-.61621,9.22982,9.22982,0,0,1,2.14454-.248,10.14968,10.14968,0,0,1,2.52148.29785,5.79893,5.79893,0,0,1,2.00293.91309,4.42056,4.42056,0,0,1,1.32422,1.53711,4.63712,4.63712,0,0,1,.48144,2.17969A5.97307,5.97307,0,0,1,518.375,68.898a8.69569,8.69569,0,0,1-3.61133,2.52148,7.45121,7.45121,0,0,1,2.542.29,5.1953,5.1953,0,0,1,1.834.97656,4.10947,4.10947,0,0,1,1.11133,1.48731,4.46983,4.46983,0,0,1,.376,1.81934,6.52711,6.52711,0,0,1-.623,2.83886,6.21387,6.21387,0,0,1-1.88379,2.27344,9.578,9.578,0,0,1-3.13672,1.51465,15.5861,15.5861,0,0,1-4.38184.55176q-.49658,0-1.041-.042-.54492-.04248-1.0625-.12011c-.34375-.05274-.668-.11328-.96973-.18457A7.55657,7.55657,0,0,1,506.75,82.605Z"/><circle class="b" cx="164.49915" cy="186.9163" r="35"/><path d="M151.56055,188.63039a6.36716,6.36716,0,0,1,.36425-2.22363,4.78249,4.78249,0,0,1,1.02832-1.67481,4.47663,4.47663,0,0,1,1.59571-1.05859,5.55652,5.55652,0,0,1,2.06445-.36914,9.75386,9.75386,0,0,1,1.20508.0664,9.14756,9.14756,0,0,1,.94434.15821c.27246.06054.5039.123.69433.18359.19043.0625.34375.10742.46094.13672l-.08789,3.2168h-1.73047l-.5625-1.59082a1.96937,1.96937,0,0,0-.42188-.6416.84231.84231,0,0,0-.60742-.23731,1.25829,1.25829,0,0,0-.65039.18066,1.53843,1.53843,0,0,0-.54.5879,3.77378,3.77378,0,0,0-.374,1.07714,8.18846,8.18846,0,0,0-.14063,1.65235,9.43512,9.43512,0,0,0,.13672,1.74023,3.16475,3.16475,0,0,0,.42578,1.15137,1.658,1.658,0,0,0,.73047.62891,2.62918,2.62918,0,0,0,1.03711.18847,4.31419,4.31419,0,0,0,1.40137-.19824,5.24484,5.24484,0,0,0,.98926-.44336l.5,1.18652a3.21978,3.21978,0,0,1-.5.42188,5.17547,5.17547,0,0,1-.81836.46973,6.05789,6.05789,0,0,1-1.06738.3789,5.05052,5.05052,0,0,1-1.26075.15332,5.6566,5.6566,0,0,1-2.207-.38672,3.9174,3.9174,0,0,1-1.49414-1.07226,4.31126,4.31126,0,0,1-.84766-1.62989A7.504,7.504,0,0,1,151.56055,188.63039Z"/><path d="M160.95508,190.88039a2.68065,2.68065,0,0,1,.2334-1.14258,2.85992,2.85992,0,0,1,.63769-.88281,3.749,3.749,0,0,1,.95313-.65039,6.47188,6.47188,0,0,1,1.18652-.43945,9.46965,9.46965,0,0,1,1.33106-.25586,13.25955,13.25955,0,0,1,1.38867-.0918v-.4043a1.68261,1.68261,0,0,0-.41211-1.27929,1.81617,1.81617,0,0,0-1.26563-.38184,6.56566,6.56566,0,0,0-.9541.07031q-.479.07032-.91894.17578c-.293.07032-.56446.14746-.81641.2334a6.88608,6.88608,0,0,0-.65039.25h-.00977l-.58008-1.35351a4.86387,4.86387,0,0,1,.64258-.38672,7.99672,7.99672,0,0,1,1.08008-.46094,11.1981,11.1981,0,0,1,1.416-.3916,7.89923,7.89923,0,0,1,1.65234-.167,5.63539,5.63539,0,0,1,1.7002.22461,2.79615,2.79615,0,0,1,1.15527.668,2.61917,2.61917,0,0,1,.65527,1.11524,5.36758,5.36758,0,0,1,.20606,1.56934v5.37011h1.08984v1.19531l-.417.0879c-.167.03515-.35742.06835-.57129.10156-.21387.03125-.44824.05957-.70312.083s-.5254.03515-.8125.03515a5.14152,5.14152,0,0,1-.59766-.03027.92.92,0,0,1-.3916-.12793.55024.55024,0,0,1-.21094-.27637,1.43539,1.43539,0,0,1-.06543-.47949v-.60645a3.78637,3.78637,0,0,1-.43555.51856,3.1379,3.1379,0,0,1-.63672.49219,3.78836,3.78836,0,0,1-.84375.36425,3.56708,3.56708,0,0,1-1.05468.14551,3.937,3.937,0,0,1-1.17774-.1709,2.60386,2.60386,0,0,1-.94531-.52343,2.41462,2.41462,0,0,1-.62891-.90039A3.36757,3.36757,0,0,1,160.95508,190.88039Zm4.37695,1.01074a1.40284,1.40284,0,0,0,.30371-.04,2.61183,2.61183,0,0,0,.36914-.10937,2.5219,2.5219,0,0,0,.36914-.17188,1.38572,1.38572,0,0,0,.31153-.23242v-2.751a4.56685,4.56685,0,0,0-1.252.1455,2.20231,2.20231,0,0,0-.80468.39063,1.39652,1.39652,0,0,0-.42579.57129,1.86159,1.86159,0,0,0-.127.68554,1.84259,1.84259,0,0,0,.29883,1.09473A1.09728,1.09728,0,0,0,165.332,191.89113Z"/><path d="M172.47852,191.34621V185.062h-1.22266V183.981c.02344-.01172.08984-.03614.19824-.0752.1084-.03711.22266-.082.34278-.13086.12011-.05078.23144-.0957.334-.13672a1.35674,1.35674,0,0,0,.16211-.07031,3.81427,3.81427,0,0,0,.70312-.94922,9.361,9.361,0,0,0,.40039-.86523q.20655-.50684.35547-.98047h1.80274l.03515,2.68066h2.39844v1.6084h-2.39844v4.67578c0,.44531.00684.80078.02149,1.06836a2.16421,2.16421,0,0,0,.10156.61035.44243.44243,0,0,0,.23633.27637,1.13075,1.13075,0,0,0,.43164.06641h.00781a2.4604,2.4604,0,0,0,.4043-.03516c.14062-.02344.2793-.05078.41406-.084.13477-.03125.26172-.06641.38184-.10547.12011-.03711.21777-.07129.29394-.10059h.00977l.46484,1.125a5.34785,5.34785,0,0,1-.67187.43945,5.85166,5.85166,0,0,1-.86524.39161,7.02244,7.02244,0,0,1-1.01172.27636,5.76071,5.76071,0,0,1-1.11523.10547h-.01758a2.81859,2.81859,0,0,1-1.06836-.17578,1.63783,1.63783,0,0,1-.67676-.49219,1.87753,1.87753,0,0,1-.35156-.76465A4.52269,4.52269,0,0,1,172.47852,191.34621Z"/><circle class="b" cx="249.3075" cy="186.9163" r="35"/><path d="M236.918,193.7632a3.96332,3.96332,0,0,1-1.543-.29492,3.17,3.17,0,0,1-1.2207-.9043,4.38959,4.38959,0,0,1-.80469-1.54687,7.54531,7.54531,0,0,1-.29-2.21973,6.65726,6.65726,0,0,1,.35645-2.23242,4.90842,4.90842,0,0,1,1.02734-1.73535,4.56994,4.56994,0,0,1,1.64453-1.125,5.73841,5.73841,0,0,1,2.21-.40039,6.03128,6.03128,0,0,1,.65527.03515c.2129.02344.417.05567.61036.09668v-2.83886l-1.54688-.3252v-1.08984l3.97266-.37793h.04394l.61524.46582v12.99023h.93164v1.2041q-.47462.09669-1.07227.20215a7.66485,7.66485,0,0,1-1.32715.10547,1.35389,1.35389,0,0,1-.90136-.27246,1.14486,1.14486,0,0,1-.32032-.91406v-.334a3.148,3.148,0,0,1-.51367.58887,3.55342,3.55342,0,0,1-.69043.47949,3.78736,3.78736,0,0,1-.84863.32422A3.90454,3.90454,0,0,1,236.918,193.7632Zm1.27441-1.72265a2.06124,2.06124,0,0,0,.81348-.1543,1.50548,1.50548,0,0,0,.55762-.373v-6.60937a1.18239,1.18239,0,0,0-.42676-.23731,2.01329,2.01329,0,0,0-.66309-.09668,1.6799,1.6799,0,0,0-.791.19336,1.72672,1.72672,0,0,0-.65039.64649,3.8917,3.8917,0,0,0-.44825,1.20312,9.498,9.498,0,0,0-.18457,1.86817,9.93849,9.93849,0,0,0,.10059,1.63476,3.68759,3.68759,0,0,0,.334,1.10254,1.50819,1.50819,0,0,0,.56739.625A1.56391,1.56391,0,0,0,238.19238,192.04055Z"/><path d="M244.61719,188.63918a6.29713,6.29713,0,0,1,.41308-2.39551,4.64768,4.64768,0,0,1,1.11231-1.66015,4.37025,4.37025,0,0,1,1.62109-.9668,5.997,5.997,0,0,1,1.94238-.3125,5.84121,5.84121,0,0,1,2.00879.32519,3.95464,3.95464,0,0,1,1.51563.97168,4.30547,4.30547,0,0,1,.958,1.60743,6.79668,6.79668,0,0,1,.334,2.22851,6.4852,6.4852,0,0,1-.41308,2.44727,4.524,4.524,0,0,1-1.11133,1.65722,4.33284,4.33284,0,0,1-1.61719.93653,6.3472,6.3472,0,0,1-1.93848.29394,5.79353,5.79353,0,0,1-2.00879-.3291,4.01112,4.01112,0,0,1-1.51562-.97656,4.365,4.365,0,0,1-.96289-1.60352A6.69491,6.69491,0,0,1,244.61719,188.63918Zm5.001,3.84082a1.26783,1.26783,0,0,0,.71192-.19727,1.4295,1.4295,0,0,0,.49219-.63769,4.22527,4.22527,0,0,0,.28515-1.14258,13.27189,13.27189,0,0,0,.09278-1.71387,18.47333,18.47333,0,0,0-.083-1.88476,5.38548,5.38548,0,0,0-.27735-1.30078,1.68217,1.68217,0,0,0-.50976-.76075,1.22164,1.22164,0,0,0-.77344-.24609,1.27811,1.27811,0,0,0-.7168.19824,1.46092,1.46092,0,0,0-.50488.63672,4.10383,4.10383,0,0,0-.29883,1.13867,12.817,12.817,0,0,0-.09668,1.71778,16.74539,16.74539,0,0,0,.0918,1.88574,5.46712,5.46712,0,0,0,.291,1.30078,1.69877,1.69877,0,0,0,.51757.75977A1.24352,1.24352,0,0,0,249.61816,192.48Z"/><path d="M260.29688,190.20363c-.252,0-.49024-.00683-.7168-.02246-.22461-.01367-.44043-.03613-.64551-.06543a1.05666,1.05666,0,0,0-.1582.29,1.08784,1.08784,0,0,0-.06153.37793.90016.90016,0,0,0,.10157.457.65225.65225,0,0,0,.33789.27246,2.22013,2.22013,0,0,0,.624.13184q.38671.03516.958.03516h1.66992a8.82179,8.82179,0,0,1,1.73145.14941,3.42657,3.42657,0,0,1,1.23046.47851,2.07424,2.07424,0,0,1,.73829.85743,3.01989,3.01989,0,0,1,.24609,1.2832,2.93966,2.93966,0,0,1-.50488,1.69141,4.24857,4.24857,0,0,1-1.34082,1.248,6.77525,6.77525,0,0,1-1.89844.76953,9.05975,9.05975,0,0,1-2.18848.26368h-.00879a9.21819,9.21819,0,0,1-2.20215-.22461,4.43548,4.43548,0,0,1-1.46679-.61524,2.35163,2.35163,0,0,1-.82227-.92676,2.68738,2.68738,0,0,1-.25488-1.16894,1.8004,1.8004,0,0,1,.14941-.7168,2.32318,2.32318,0,0,1,.40821-.63281,3.1221,3.1221,0,0,1,.59765-.50488,2.81336,2.81336,0,0,1,.7168-.334,2.18657,2.18657,0,0,1-.835-.68554,1.62512,1.62512,0,0,1-.29-.958,1.82355,1.82355,0,0,1,.33789-1.10352,3.29577,3.29577,0,0,1,.86621-.80371,2.76173,2.76173,0,0,1-1.34082-1.165,3.646,3.646,0,0,1-.4082-1.77929,2.85713,2.85713,0,0,1,.36035-1.42383,3.47116,3.47116,0,0,1,.98926-1.10352,4.81117,4.81117,0,0,1,1.48437-.71582,6.50315,6.50315,0,0,1,1.85938-.25488h.00879a5.76819,5.76819,0,0,1,3.39257.7998,1.78772,1.78772,0,0,1,.34278-.30761,2.55918,2.55918,0,0,1,.48828-.26758,3.117,3.117,0,0,1,.61523-.18946,3.45884,3.45884,0,0,1,.707-.07031h.44825v2.10059H264.8584a3.96039,3.96039,0,0,1,.17578,1.2041,3.1562,3.1562,0,0,1-.334,1.4375,3.423,3.423,0,0,1-.94922,1.15039,4.621,4.621,0,0,1-1.48926.76563,6.50132,6.50132,0,0,1-1.95606.27636Zm-.58887,3.51563c-.13477,0-.2666-.00489-.39551-.0127-.12891-.00976-.252-.01953-.36914-.03125a1.64647,1.64647,0,0,0-.3125.44336,1.85469,1.85469,0,0,0-.14453.81348,2.87273,2.87273,0,0,0,.15429,1.01953,1.48461,1.48461,0,0,0,.44336.6416,1.70743,1.70743,0,0,0,.71192.334,4.30681,4.30681,0,0,0,.958.09668h.00879a4.08318,4.08318,0,0,0,.97168-.11817,2.88641,2.88641,0,0,0,.86132-.36523,2.05454,2.05454,0,0,0,.61914-.61133,1.5481,1.5481,0,0,0,.23731-.86524,2.10638,2.10638,0,0,0-.083-.6289.85477.85477,0,0,0-.28613-.417,1.29838,1.29838,0,0,0-.54981-.22852,4.451,4.451,0,0,0-.86523-.07031Zm.7998-4.73731h.00879a1.08785,1.08785,0,0,0,.668-.18945,1.25889,1.25889,0,0,0,.39941-.50488,2.36275,2.36275,0,0,0,.19336-.7295,7.1984,7.1984,0,0,0,.04883-.86132,3.25119,3.25119,0,0,0-.3164-1.66114,1.16866,1.16866,0,0,0-1.07227-.501h-.00879a1.38648,1.38648,0,0,0-.668.14453,1.09735,1.09735,0,0,0-.42187.418,1.90679,1.90679,0,0,0-.21973.668,5.80914,5.80914,0,0,0-.06152.88769,6.15943,6.15943,0,0,0,.07031.98438,2.22516,2.22516,0,0,0,.2373.72949,1.16033,1.16033,0,0,0,.44825.457A1.3987,1.3987,0,0,0,260.50781,188.982Z"/><circle class="b" cx="334.11585" cy="186.9163" r="35"/><path d="M316.36523,193.07766V180.63234l-1.248-.24609v-1.125l3.68261-.457h.03516l.61524.38672v5.15039a3.85957,3.85957,0,0,1,.48339-.39063,3.3107,3.3107,0,0,1,.61133-.334,3.89981,3.89981,0,0,1,1.542-.3125,4.31321,4.31321,0,0,1,1.51172.25976,2.98671,2.98671,0,0,1,1.22168.84375,4.21152,4.21152,0,0,1,.82227,1.5293,7.68016,7.68016,0,0,1,.30273,2.31543,6.54106,6.54106,0,0,1-.35547,2.17969,5.09715,5.09715,0,0,1-1.02929,1.75293,4.69061,4.69061,0,0,1-1.64746,1.165,5.5068,5.5068,0,0,1-2.20606.42187,16.15749,16.15749,0,0,1-1.71875-.083c-.50586-.05664-.94336-.12207-1.30859-.19824a6.49953,6.49953,0,0,1-.87891-.2334A3.02515,3.02515,0,0,1,316.36523,193.07766Zm4.44727-8.042a2.09305,2.09305,0,0,0-.80859.14942,1.42223,1.42223,0,0,0-.55371.37793v6.59179a.85426.85426,0,0,0,.40429.2461,1.99727,1.99727,0,0,0,.668.10547,1.444,1.444,0,0,0,.97949-.34668,2.48622,2.48622,0,0,0,.64258-.90625,5.24957,5.24957,0,0,0,.35156-1.26074,9.331,9.331,0,0,0,.10938-1.42383,11.358,11.358,0,0,0-.084-1.4541,3.97631,3.97631,0,0,0-.28906-1.11719,1.71641,1.71641,0,0,0-.55469-.71094A1.43118,1.43118,0,0,0,320.8125,185.03566Z"/><path d="M327.25488,193.56984v-1.292l1.2041-.18457v-6.47754l-1.16894-.36035v-1.46777l3.50684-.46582h.04394l.7207.40429v8.36719l1.2041.18457v1.292Zm2.44336-11.63672a1.33909,1.33909,0,0,1-.58886-.123,1.21921,1.21921,0,0,1-.42579-.334,1.44686,1.44686,0,0,1-.25976-.48828,1.91223,1.91223,0,0,1-.08789-.584,2.29605,2.29605,0,0,1,.10156-.69434,1.61774,1.61774,0,0,1,.30273-.56738,1.43893,1.43893,0,0,1,.50586-.38184,1.6836,1.6836,0,0,1,.71582-.14062h.00879a1.68232,1.68232,0,0,1,.67676.12305,1.28807,1.28807,0,0,1,.73828.80859,1.87809,1.87809,0,0,1,.08789.58008,2.44236,2.44236,0,0,1-.10058.708,1.5364,1.5364,0,0,1-.31641.57032,1.50285,1.50285,0,0,1-.5498.38281,2.05558,2.05558,0,0,1-.79981.14062Z"/><path d="M333.94336,193.56984v-1.292l1.17773-.18457v-6.47754l-1.17773-.35156v-1.47656l3.27832-.46582h.05273l.49219.40429v2.32911h.04395a5.24685,5.24685,0,0,1,.4082-.84375,4.974,4.974,0,0,1,.68164-.90137,3.95952,3.95952,0,0,1,.91406-.71582,2.185,2.185,0,0,1,1.09864-.29,3.64359,3.64359,0,0,1,.457.02148,1.35356,1.35356,0,0,1,.24609.05762v3.49805a1.57332,1.57332,0,0,0-.58008-.18067,6.621,6.621,0,0,0-1.14258-.083,4.65971,4.65971,0,0,0-.46972.02636c-.17383.01758-.3418.03906-.50586.06641a3.55473,3.55473,0,0,0-.43945.0957,1.11968,1.11968,0,0,0-.27247.11035v5.17676l2.0918.23731v1.23925Z"/><path d="M346.37109,193.7632a3.96332,3.96332,0,0,1-1.543-.29492,3.17013,3.17013,0,0,1-1.2207-.9043,4.38959,4.38959,0,0,1-.80469-1.54687,7.54567,7.54567,0,0,1-.29-2.21973,6.65751,6.65751,0,0,1,.35644-2.23242,4.90871,4.90871,0,0,1,1.02734-1.73535,4.57,4.57,0,0,1,1.64454-1.125,5.73834,5.73834,0,0,1,2.21-.40039,6.03142,6.03142,0,0,1,.65527.03515c.21289.02344.417.05567.61035.09668v-2.83886l-1.54687-.3252v-1.08984l3.97265-.37793h.04395l.61523.46582v12.99023h.93164v1.2041q-.4746.09669-1.07226.20215a7.66493,7.66493,0,0,1-1.32715.10547,1.35392,1.35392,0,0,1-.90137-.27246,1.14485,1.14485,0,0,1-.32031-.91406v-.334a3.14835,3.14835,0,0,1-.51367.58887,3.554,3.554,0,0,1-.69043.47949,3.78736,3.78736,0,0,1-.84863.32422A3.90462,3.90462,0,0,1,346.37109,193.7632Zm1.27442-1.72265a2.06119,2.06119,0,0,0,.81347-.1543,1.5054,1.5054,0,0,0,.55762-.373v-6.60937a1.18239,1.18239,0,0,0-.42676-.23731,2.01323,2.01323,0,0,0-.66308-.09668,1.68,1.68,0,0,0-.791.19336,1.72679,1.72679,0,0,0-.65039.64649,3.89171,3.89171,0,0,0-.44824,1.20312,9.49719,9.49719,0,0,0-.18457,1.86817,9.93971,9.93971,0,0,0,.10058,1.63476,3.68729,3.68729,0,0,0,.334,1.10254,1.50817,1.50817,0,0,0,.56738.625A1.564,1.564,0,0,0,347.64551,192.04055Z"/><circle class="b" cx="418.9242" cy="186.9163" r="35"/><path d="M400.29492,193.56984v-1.26562l1.37988-.27246v-6.8291H400.207v-1.16895l1.46777-.43945v-.34278a4.45105,4.45105,0,0,1,.21094-1.39746,4.55752,4.55752,0,0,1,.5752-1.16894,4.6876,4.6876,0,0,1,.85351-.93555,5.21108,5.21108,0,0,1,1.041-.68555,5.3766,5.3766,0,0,1,1.13867-.42187,4.69486,4.69486,0,0,1,1.14648-.14551,3.1035,3.1035,0,0,1,.68946.05762,3.187,3.187,0,0,1,.33887.0918v2.96191a1.73839,1.73839,0,0,0-.374-.29,3.05217,3.05217,0,0,0-.51367-.24609,3.723,3.723,0,0,0-.59766-.167,3.26425,3.26425,0,0,0-.624-.06152.761.761,0,0,0-.55762.21094,1.04035,1.04035,0,0,0-.21582.75586l.00879,1.78418h2.19727v1.6084h-2.19727v6.89062l1.98633.21094v1.26562Z"/><path d="M408.0293,193.56984v-1.292l1.17773-.18457v-6.47754l-1.17773-.35156v-1.47656l3.27832-.46582h.05273l.49219.40429v2.32911h.04394a5.247,5.247,0,0,1,.40821-.84375,4.97352,4.97352,0,0,1,.68164-.90137,3.95952,3.95952,0,0,1,.91406-.71582,2.185,2.185,0,0,1,1.09863-.29,3.64337,3.64337,0,0,1,.457.02148,1.35369,1.35369,0,0,1,.2461.05762v3.49805a1.57332,1.57332,0,0,0-.58008-.18067,6.62119,6.62119,0,0,0-1.14258-.083,4.65971,4.65971,0,0,0-.46972.02636c-.17383.01758-.3418.03906-.50586.06641a3.55492,3.55492,0,0,0-.43946.0957,1.11974,1.11974,0,0,0-.27246.11035v5.17676l2.0918.23731v1.23925Z"/><path d="M416.56348,188.63918a6.29713,6.29713,0,0,1,.41308-2.39551,4.67127,4.67127,0,0,1,1.11133-1.66015,4.38981,4.38981,0,0,1,1.62207-.9668,5.997,5.997,0,0,1,1.94238-.3125,5.82773,5.82773,0,0,1,2.00782.32519,3.94365,3.94365,0,0,1,1.5166.97168,4.30547,4.30547,0,0,1,.958,1.60743,6.79668,6.79668,0,0,1,.334,2.22851,6.48519,6.48519,0,0,1-.41309,2.44727,4.5018,4.5018,0,0,1-1.1123,1.65722,4.30252,4.30252,0,0,1-1.61719.93653,6.33174,6.33174,0,0,1-1.9375.29394,5.78,5.78,0,0,1-2.00781-.3291,3.99977,3.99977,0,0,1-1.5166-.97656,4.33715,4.33715,0,0,1-.96192-1.60352A6.64409,6.64409,0,0,1,416.56348,188.63918Zm5.001,3.84082a1.26783,1.26783,0,0,0,.71192-.19727,1.42942,1.42942,0,0,0,.49218-.63769,4.29581,4.29581,0,0,0,.28614-1.14258,13.65534,13.65534,0,0,0,.09179-1.71387,17.89913,17.89913,0,0,0-.084-1.88476,5.29772,5.29772,0,0,0-.27637-1.30078,1.68225,1.68225,0,0,0-.50976-.76075,1.22164,1.22164,0,0,0-.77344-.24609,1.27036,1.27036,0,0,0-.71582.19824,1.44865,1.44865,0,0,0-.50586.63672,4.10348,4.10348,0,0,0-.29883,1.13867,12.817,12.817,0,0,0-.09668,1.71778,16.27351,16.27351,0,0,0,.09278,1.88574,5.47509,5.47509,0,0,0,.28906,1.30078,1.70122,1.70122,0,0,0,.51953.75977A1.23677,1.23677,0,0,0,421.56445,192.48Z"/><path d="M432.24316,190.20363c-.25195,0-.49121-.00683-.71582-.02246-.22656-.01367-.4414-.03613-.64648-.06543a1.05666,1.05666,0,0,0-.1582.29,1.08784,1.08784,0,0,0-.06153.37793.9211.9211,0,0,0,.10059.457.66281.66281,0,0,0,.33887.27246,2.22013,2.22013,0,0,0,.624.13184q.38671.03516.958.03516h1.66992a8.82161,8.82161,0,0,1,1.73144.14941,3.42655,3.42655,0,0,1,1.23047.47851,2.07415,2.07415,0,0,1,.73828.85743,3.01973,3.01973,0,0,1,.2461,1.2832,2.926,2.926,0,0,1-.50586,1.69141,4.22425,4.22425,0,0,1-1.33985,1.248,6.77519,6.77519,0,0,1-1.89843.76953,9.05975,9.05975,0,0,1-2.18848.26368h-.00879a9.1981,9.1981,0,0,1-2.20117-.22461,4.44728,4.44728,0,0,1-1.46875-.61524,2.36408,2.36408,0,0,1-.82129-.92676,2.68738,2.68738,0,0,1-.25488-1.16894,1.8004,1.8004,0,0,1,.14941-.7168,2.28157,2.28157,0,0,1,.40918-.63281,3.00782,3.00782,0,0,1,.59766-.50488,2.77666,2.77666,0,0,1,.71582-.334,2.18657,2.18657,0,0,1-.835-.68554,1.62512,1.62512,0,0,1-.29-.958,1.81134,1.81134,0,0,1,.33887-1.10352,3.26125,3.26125,0,0,1,.86523-.80371,2.75047,2.75047,0,0,1-1.33984-1.165,3.62443,3.62443,0,0,1-.40918-1.77929,2.85713,2.85713,0,0,1,.36035-1.42383,3.49119,3.49119,0,0,1,.98828-1.10352,4.82231,4.82231,0,0,1,1.48633-.71582,6.48656,6.48656,0,0,1,1.8584-.25488h.00878a5.7682,5.7682,0,0,1,3.39258.7998,1.78772,1.78772,0,0,1,.34278-.30761,2.61072,2.61072,0,0,1,.4873-.26758,3.20061,3.20061,0,0,1,.61524-.18946,3.4823,3.4823,0,0,1,.708-.07031h.44825v2.10059h-1.70508a3.96039,3.96039,0,0,1,.17578,1.2041,3.15608,3.15608,0,0,1-.334,1.4375,3.42288,3.42288,0,0,1-.94921,1.15039,4.606,4.606,0,0,1-1.49024.76563,6.48557,6.48557,0,0,1-1.95508.27636Zm-.58886,3.51563c-.13477,0-.2666-.00489-.39551-.0127-.12891-.00976-.25195-.01953-.36914-.03125a1.60349,1.60349,0,0,0-.31153.44336,1.82537,1.82537,0,0,0-.1455.81348,2.91935,2.91935,0,0,0,.15332,1.01953,1.50283,1.50283,0,0,0,.44433.6416,1.70743,1.70743,0,0,0,.71192.334,4.30681,4.30681,0,0,0,.958.09668h.00878a4.063,4.063,0,0,0,.97071-.11817,2.844,2.844,0,0,0,.86133-.36523,2.03594,2.03594,0,0,0,.62011-.61133,1.5481,1.5481,0,0,0,.23731-.86524,2.043,2.043,0,0,0-.084-.6289.84039.84039,0,0,0-.28515-.417,1.30476,1.30476,0,0,0-.54883-.22852,4.47589,4.47589,0,0,0-.86621-.07031Zm.7998-4.73731h.00879a1.08785,1.08785,0,0,0,.668-.18945,1.2779,1.2779,0,0,0,.40039-.50488,2.47715,2.47715,0,0,0,.19336-.7295,7.63546,7.63546,0,0,0,.04785-.86132,3.25107,3.25107,0,0,0-.31641-1.66114,1.16863,1.16863,0,0,0-1.07226-.501H432.375a1.38648,1.38648,0,0,0-.668.14453,1.09728,1.09728,0,0,0-.42187.418,1.90679,1.90679,0,0,0-.21973.668,5.80914,5.80914,0,0,0-.06152.88769,6.15943,6.15943,0,0,0,.07031.98438,2.22516,2.22516,0,0,0,.2373.72949,1.16033,1.16033,0,0,0,.44825.457A1.3987,1.3987,0,0,0,432.4541,188.982Z"/><path d="M13.27637,95.11086h6.31738v1.835H15.293v2.11523h3.7832v1.835H15.293v2.18554h4.35742v1.835h-6.374Z"/><path d="M21.13086,94.80324h1.98828v10.11328H21.13086Z"/><path d="M24.49023,101.2466v-.126c0-2.22753,1.38672-3.85253,3.27735-3.85253,2.14258,0,3.19336,1.751,3.19336,3.99218,0,.11231,0,.35059-.01367.64453H26.46484a1.60427,1.60427,0,0,0,1.625,1.5127,2.19033,2.19033,0,0,0,1.56836-.74219l1.02344,1.2041a3.46809,3.46809,0,0,1-2.67578,1.20508A3.529,3.529,0,0,1,24.49023,101.2466Zm4.55274-.6582c-.085-1.03711-.5332-1.68164-1.27539-1.68164-.72852,0-1.20508.61621-1.31641,1.68164Z"/><path d="M32.25977,97.40871H34.249v1.00781a2.298,2.298,0,0,1,1.94629-1.14843,1.97979,1.97979,0,0,1,1.84961,1.09277,2.68092,2.68092,0,0,1,2.12891-1.09277c1.331,0,2.22754.86816,2.22754,2.52148v5.127H40.42578v-4.52441c0-.86914-.37793-1.33106-1.03613-1.33106s-1.06445.46192-1.06445,1.33106v4.52441H36.33594v-4.52441c0-.86914-.36426-1.33106-1.02246-1.33106S34.249,99.523,34.249,100.39211v4.52441H32.25977Z"/><path d="M43.65625,101.2466v-.126c0-2.22753,1.38672-3.85253,3.27734-3.85253,2.14258,0,3.19336,1.751,3.19336,3.99218,0,.11231,0,.35059-.01367.64453H45.63086a1.60427,1.60427,0,0,0,1.625,1.5127,2.19033,2.19033,0,0,0,1.56836-.74219l1.02344,1.2041a3.46809,3.46809,0,0,1-2.67578,1.20508A3.529,3.529,0,0,1,43.65625,101.2466Zm4.55273-.6582c-.085-1.03711-.5332-1.68164-1.27539-1.68164-.72851,0-1.20507.61621-1.3164,1.68164Z"/><path d="M51.42578,97.40871H53.415v1.00781a2.296,2.296,0,0,1,1.93262-1.14843c1.40039,0,2.21289.98046,2.21289,2.53515v5.11328H55.57227v-4.52441c0-.88281-.39258-1.33106-1.06446-1.33106-.6582,0-1.09277.44825-1.09277,1.33106v4.52441H51.42578Z"/><path d="M59.3916,103.03957v-3.9502h-.75683V97.40871h.75683V95.48879h1.98926v1.91992h1.48437v1.68066H61.38086v3.54395c0,.43359.19629.64453.61621.64453a1.92821,1.92821,0,0,0,.85449-.21094v1.583a2.888,2.888,0,0,1-1.4707.39258C60.23242,105.0425,59.3916,104.59426,59.3916,103.03957Z"/><path d="M63.5918,104.02l.86816-1.40137a3.50825,3.50825,0,0,0,2.00293.84082c.56055,0,.79883-.2666.79883-.57422V102.857c0-.43359-.56055-.61621-1.373-.96582-1.06445-.46289-1.97461-.99511-1.97461-2.26953v-.02832a2.32369,2.32369,0,0,1,2.57617-2.29687,4.435,4.435,0,0,1,2.48047.8125l-.79882,1.42871a3.41018,3.41018,0,0,0-1.709-.64453c-.47656,0-.72851.23828-.72851.53222v.02832c0,.3916.56054.61621,1.35937.98047,1.0918.51758,1.98828,1.06445,1.98828,2.25488v.02832c0,1.55469-1.14844,2.33887-2.64648,2.33887A4.54717,4.54717,0,0,1,63.5918,104.02Z"/><rect x="74.65498" y="85.25217" width="65.108" height="1.4996" transform="translate(-23.5143 43.55756) rotate(-20.74819)"/><polygon points="137.956 78.36 142.688 72.57 135.308 71.365 137.956 78.36"/><rect x="107.20626" y="91.83097" width="1.50056" height="94.88106" transform="translate(-64.9555 105.32168) rotate(-41.11064)"/><polygon points="135.612 176.65 142.688 179.07 141.248 171.732 135.612 176.65"/><path d="M516.79492,134.42043v-.168c0-2.94141,1.84961-5.001,4.44141-5.001,2.60547,0,4.42578,2.04493,4.42578,4.97266v.168c0,2.92773-1.84961,5.001-4.44043,5.001C518.61621,139.39309,516.79492,137.34816,516.79492,134.42043Zm6.76563-.042v-.09766c0-1.93359-.98047-3.15234-2.33887-3.15234-1.37207,0-2.33887,1.20508-2.33887,3.13867v.09766c0,1.93261.99414,3.15136,2.35352,3.15136C522.59473,137.51613,523.56055,136.312,523.56055,134.37844Z"/><path d="M527.08594,131.7173h1.98828v1.33106a1.96849,1.96849,0,0,1,2.03125-1.457v2.15625h-.084c-1.21875,0-1.94726.75683-1.94726,2.32617v3.15137h-1.98828Z"/><path d="M531.81641,135.58352v-.22461c0-2.56348,1.35937-3.78125,2.85742-3.78125a2.45363,2.45363,0,0,1,2.03125,1.10546v-3.57128h1.99023v10.11328h-1.99023V138.189a2.371,2.371,0,0,1-2.03125,1.17579C533.18945,139.36477,531.81641,138.146,531.81641,135.58352Zm4.917-.043v-.13965c0-1.27442-.64356-2.08692-1.4707-2.08692-.82618,0-1.45606.8125-1.45606,2.08692v.13965c0,1.27539.62988,2.08789,1.45606,2.08789C536.08984,137.62844,536.7334,136.81594,536.7334,135.54055Z"/><path d="M539.97852,135.5552v-.126c0-2.22754,1.38671-3.85156,3.27832-3.85156,2.14355,0,3.19433,1.75,3.19433,3.99218,0,.11133,0,.34961-.01465.64356H541.9541a1.60292,1.60292,0,0,0,1.625,1.51269,2.18869,2.18869,0,0,0,1.56934-.74218l1.02148,1.20507a3.467,3.467,0,0,1-2.6748,1.20411A3.52971,3.52971,0,0,1,539.97852,135.5552Zm4.55273-.65821c-.084-1.03613-.53223-1.68066-1.27441-1.68066-.72852,0-1.20411.61523-1.31739,1.68066Z"/><path d="M547.749,131.7173h1.98926v1.33106a1.96777,1.96777,0,0,1,2.03125-1.457v2.15625h-.084c-1.21875,0-1.94727.75683-1.94727,2.32617v3.15137H547.749Z"/><path d="M552.915,129.11184h2.07324v1.80664H552.915Zm.042,2.60546h1.98828v7.50782H552.957Z"/><path d="M556.625,131.7173h1.98926v1.00879a2.29386,2.29386,0,0,1,1.93262-1.14843c1.40039,0,2.21289.98046,2.21289,2.53515v5.11231h-1.98829V134.7007c0-.88281-.39257-1.33008-1.06445-1.33008-.6582,0-1.09277.44727-1.09277,1.33008v4.52442H556.625Z"/><path d="M564.33887,140.73781l.61621-1.541a4.41414,4.41414,0,0,0,2.1289.54687c1.24707,0,1.84961-.57422,1.84961-1.7793v-.47656a2.50655,2.50655,0,0,1-2.10156,1.17676c-1.48437,0-2.80078-1.16309-2.80078-3.53027v-.041c0-2.36719,1.33008-3.51562,2.80078-3.51562a2.53527,2.53527,0,0,1,2.08789,1.10546v-.96582h1.98828v6.13575a3.59509,3.59509,0,0,1-.85351,2.61914,3.941,3.941,0,0,1-2.85742.89648A6.62815,6.62815,0,0,1,564.33887,140.73781Zm4.6084-5.61719V135.107c0-1.10644-.63086-1.82129-1.47071-1.82129s-1.457.71485-1.457,1.82129v.01367c0,1.13477.61719,1.83594,1.457,1.83594S568.94727,136.24172,568.94727,135.12062Z"/><rect class="c" x="145.68198" y="127.21339" width="37.63434" height="19.70286" rx="9.85142"/><path d="M164.18555,133.53859l-1.541.46289-.26562-1.40136,2.26855-.75684h1.14942v9.876h-1.61133Z"/><rect class="c" x="230.49033" y="127.21339" width="37.63434" height="19.70286" rx="9.85142"/><path d="M246.165,140.43117l2.99707-3.209c1.10742-1.14844,1.51367-1.75,1.51367-2.54883a1.345,1.345,0,0,0-1.42969-1.40039c-.76953,0-1.3164.41992-1.96093,1.25976l-1.07813-.99414a3.70236,3.70236,0,0,1,3.17969-1.76464,2.71256,2.71256,0,0,1,2.9414,2.75878v.0293c0,1.33008-.61621,2.12891-2.04492,3.55664l-1.96093,2.12988h4.04785v1.47071H246.165Z"/><rect class="c" x="315.29868" y="127.21339" width="37.63434" height="19.70286" rx="9.85142"/><path d="M330.80566,140.52883l1.00879-1.14844a2.73132,2.73132,0,0,0,2.11524,1.02148,1.522,1.522,0,0,0,1.61035-1.55468v-.041c0-1.00976-.86816-1.56933-2.22754-1.56933h-.49023l-.21-1.02247,2.38184-2.84375h-3.71289v-1.457h5.74414V133.189l-2.48047,2.84375a2.71623,2.71623,0,0,1,2.60547,2.7168v.042a3.00518,3.00518,0,0,1-3.207,3.082A4.10155,4.10155,0,0,1,330.80566,140.52883Z"/><rect class="c" x="400.10703" y="127.21339" width="37.63434" height="19.70286" rx="9.85142"/><path d="M419.76074,139.58937H415.418l-.22363-1.17578,4.665-6.55566h1.4414v6.374h1.21875v1.35742h-1.21875v2.12989h-1.54Zm0-1.35742v-3.93652L416.9873,138.232Z"/><rect class="c" x="145.68198" y="10.21307" width="37.63434" height="19.70286" rx="9.85142"/><path d="M164.18555,16.53859l-1.541.46192-.26562-1.40039,2.26855-.75684h1.14942v9.876h-1.61133Z"/><rect class="c" x="230.49033" y="10.21307" width="37.63434" height="19.70286" rx="9.85142"/><path d="M246.165,23.4302l2.99707-3.208c1.10742-1.14844,1.51367-1.751,1.51367-2.54883a1.34581,1.34581,0,0,0-1.42969-1.40137c-.76953,0-1.3164.4209-1.96093,1.26074l-1.07813-.99414a3.70236,3.70236,0,0,1,3.17969-1.76464,2.712,2.712,0,0,1,2.9414,2.75878v.02832c0,1.33106-.61621,2.12891-2.04492,3.55762l-1.96093,2.12988h4.04785v1.47071H246.165Z"/><rect class="c" x="315.29868" y="10.21307" width="37.63434" height="19.70286" rx="9.85142"/><path d="M330.80566,23.52883l1.00879-1.14942a2.72909,2.72909,0,0,0,2.11524,1.02246A1.52261,1.52261,0,0,0,335.54,21.84719v-.042c0-1.00879-.86816-1.56836-2.22754-1.56836h-.49023l-.21-1.02247,2.38184-2.84375h-3.71289v-1.457h5.74414V16.188l-2.48047,2.84375a2.71778,2.71778,0,0,1,2.60547,2.71777v.042a3.00518,3.00518,0,0,1-3.207,3.082A4.10491,4.10491,0,0,1,330.80566,23.52883Z"/><rect class="c" x="400.10703" y="10.21307" width="37.63434" height="19.70286" rx="9.85142"/><path d="M419.76074,22.58937H415.418l-.22363-1.17578,4.665-6.55566h1.4414v6.373h1.21875v1.35839h-1.21875v2.12989h-1.54Zm0-1.35839V17.29543L416.9873,21.231Z"/><rect class="c" x="484.91538" y="10.21307" width="37.63434" height="19.70286" rx="9.85142"/><path d="M500.47168,23.64016l.9248-1.20411a3.08269,3.08269,0,0,0,2.08692.93848,1.647,1.647,0,0,0,1.751-1.751v-.02832a1.639,1.639,0,0,0-1.80665-1.65234,3.37293,3.37293,0,0,0-1.48437.36328l-.95313-.62988.26563-4.7627h5.18359V16.399h-3.81054l-.1543,2.32519a3.88584,3.88584,0,0,1,1.30273-.22461,2.835,2.835,0,0,1,3.06836,3.04v.02734a3.15071,3.15071,0,0,1-3.34765,3.30664A4.32629,4.32629,0,0,1,500.47168,23.64016Z"/><rect x="472.24742" y="18.04323" width="1.4993" height="126.00636" transform="matrix(0.80617, -0.59169, 0.59169, 0.80617, 43.72864, 295.57697)"/><polygon points="439.38 28.924 432.534 25.916 433.351 33.35 439.38 28.924"/><rect x="437.91602" y="137.08742" width="72.35938" height="1.5"/><polygon points="439.01 134.097 432.534 137.837 439.01 141.577 439.01 134.097"/></svg>