<svg xmlns="http://www.w3.org/2000/svg" viewBox="0 0 542.49325 349.99706"><defs><style>.a{fill:#ea7d7d;}.b{fill:#eaeaea;}</style></defs><rect class="a" x="248.47947" y="39.8245" width="70" height="70"/><path d="M269.07978,76.34192V73.17H281.612v3.17188Z"/><path d="M286.49677,84.838a5.86672,5.86672,0,0,0,.6875.17676c.25879.05273.53321.09766.82032.13477.28808.03711.583.0664.88476.085.30274.01855.59961.02832.89258.02832a7.24932,7.24932,0,0,0,2.209-.31153,4.87585,4.87585,0,0,0,1.65625-.87793,3.80251,3.80251,0,0,0,1.041-1.35253,4.11221,4.11221,0,0,0,.36133-1.73438,3.87171,3.87171,0,0,0-.17774-1.126,3.05791,3.05791,0,0,0-.58691-1.083,3.42888,3.42888,0,0,0-1.07617-.84278,4.06278,4.06278,0,0,0-1.64258-.40332l-1.91113.31153-.84961-2.23731a6.59856,6.59856,0,0,0,1.25976-.30469q.63721-.21825,1.16114-.417a6.3214,6.3214,0,0,0,1.45214-.793,4.6683,4.6683,0,0,0,.9834-.98437,3.74955,3.74955,0,0,0,.55957-1.13282,4.39964,4.39964,0,0,0,.17676-1.23925,2.78057,2.78057,0,0,0-.21973-1.16114,2.16868,2.16868,0,0,0-.58789-.78613,2.40686,2.40686,0,0,0-.82812-.44629,3.24827,3.24827,0,0,0-.95508-.14062,6.82678,6.82678,0,0,0-2.34375.36035,7.61846,7.61846,0,0,0-1.8623.999l-1.17481-2.0957a6.06,6.06,0,0,1,1.01953-.7793,10.39473,10.39473,0,0,1,1.53516-.793,12.09783,12.09783,0,0,1,1.91211-.61621,9.23771,9.23771,0,0,1,2.14551-.24707,10.1371,10.1371,0,0,1,2.5205.29688,5.81235,5.81235,0,0,1,2.00391.91308,4.42617,4.42617,0,0,1,1.32422,1.53614,4.65711,4.65711,0,0,1,.48047,2.18164,5.96939,5.96939,0,0,1-1.2461,3.85156,8.689,8.689,0,0,1-3.61035,2.51953,7.47689,7.47689,0,0,1,2.542.291,5.17949,5.17949,0,0,1,1.834.97656,4.11228,4.11228,0,0,1,1.11133,1.4873,4.48511,4.48511,0,0,1,.375,1.81934,6.51329,6.51329,0,0,1-.62305,2.83887,6.202,6.202,0,0,1-1.88281,2.27246,9.56895,9.56895,0,0,1-3.13672,1.51562,15.58593,15.58593,0,0,1-4.38281.55274c-.33008,0-.67774-.01465-1.041-.043s-.7168-.06836-1.0625-.12012q-.51562-.07764-.96875-.18457a7.77957,7.77957,0,0,1-.7793-.21875Z"/><rect class="a" x="333.11741" y="39.8245" width="70" height="70"/><path d="M363.41767,83.47864V81.5675l3.07324-.39648V70.01282c-.16992.03711-.39257.084-.666.14062s-.55957.10938-.85645.15625c-.29785.04688-.58789.08985-.87109.127-.2832.03808-.51855.0625-.708.07128l-.36816-2.46386a10.42988,10.42988,0,0,0,1.69922-.4961,14.08877,14.08877,0,0,0,1.62793-.74316,16.52424,16.52424,0,0,0,1.459-.87793,14.77807,14.77807,0,0,0,1.20313-.89844h.01464l2.56348.43848V81.171l2.916.39648v1.91114Z"/><rect class="a" x="248.47947" y="116.77165" width="70" height="70"/><path d="M269.07978,153.28918v-3.17187H281.612v3.17187Z"/><path d="M286.49677,161.78528a5.86672,5.86672,0,0,0,.6875.17676c.25879.05175.53321.09668.82032.13476q.43212.05566.88476.085c.30274.01856.59961.02832.89258.02832a7.27969,7.27969,0,0,0,2.209-.31152,4.8762,4.8762,0,0,0,1.65625-.87793,3.81111,3.81111,0,0,0,1.041-1.35254,4.11219,4.11219,0,0,0,.36133-1.73437,3.86165,3.86165,0,0,0-.17774-1.126,3.04973,3.04973,0,0,0-.58691-1.083,3.42886,3.42886,0,0,0-1.07617-.84277,4.03113,4.03113,0,0,0-1.64258-.40332l-1.91113.31152-.84961-2.2373a6.59931,6.59931,0,0,0,1.25976-.30469q.63721-.21973,1.16114-.418a6.28448,6.28448,0,0,0,1.45214-.793,4.642,4.642,0,0,0,.9834-.9834,3.74961,3.74961,0,0,0,.55957-1.13281,4.39971,4.39971,0,0,0,.17676-1.23926,2.78052,2.78052,0,0,0-.21973-1.16113,2.1603,2.1603,0,0,0-.58789-.78613,2.39036,2.39036,0,0,0-.82812-.44629,3.24891,3.24891,0,0,0-.95508-.1416,6.82583,6.82583,0,0,0-2.34375.36132,7.64848,7.64848,0,0,0-1.8623.99805l-1.17481-2.0957a6.11413,6.11413,0,0,1,1.01953-.77832,10.30058,10.30058,0,0,1,1.53516-.793,12.09783,12.09783,0,0,1,1.91211-.61621,9.23809,9.23809,0,0,1,2.14551-.24805,10.13606,10.13606,0,0,1,2.5205.29785,5.81236,5.81236,0,0,1,2.00391.91309,4.42614,4.42614,0,0,1,1.32422,1.53613,4.65582,4.65582,0,0,1,.48047,2.18067,5.96754,5.96754,0,0,1-1.2461,3.85156,8.68178,8.68178,0,0,1-3.61035,2.52051,7.47715,7.47715,0,0,1,2.542.291,5.17965,5.17965,0,0,1,1.834.97656,4.1124,4.1124,0,0,1,1.11133,1.48731,4.48173,4.48173,0,0,1,.375,1.81933,6.51323,6.51323,0,0,1-.62305,2.83887,6.20984,6.20984,0,0,1-1.88281,2.27246,9.56916,9.56916,0,0,1-3.13672,1.51563,15.58841,15.58841,0,0,1-4.38281.55176c-.33008,0-.67774-.01368-1.041-.042s-.7168-.06836-1.0625-.12011c-.34375-.05274-.667-.11328-.96875-.18457a7.51143,7.51143,0,0,1-.7793-.21973Z"/><rect class="a" x="333.11741" y="116.77165" width="70" height="70"/><path d="M360.6706,158.48547a29.98411,29.98411,0,0,0,3.54688-2.35058,19.91658,19.91658,0,0,0,2.76172-2.55567,11.45663,11.45663,0,0,0,1.791-2.65527,6.17906,6.17906,0,0,0,.63672-2.66211,3.13741,3.13741,0,0,0-.21191-1.16113,2.58383,2.58383,0,0,0-.61621-.92676,2.91988,2.91988,0,0,0-.98438-.61621,3.59189,3.59189,0,0,0-1.31641-.22656,5.19984,5.19984,0,0,0-1.42382.18359,6.81127,6.81127,0,0,0-1.168.44629,6.29108,6.29108,0,0,0-.9336.56641q-.41161.30468-.72265.54492l-1.23242-1.89746a5.45525,5.45525,0,0,1,1.11914-1.1045,9.332,9.332,0,0,1,1.71289-1.02636,12.10548,12.10548,0,0,1,2.13086-.75782,9.53058,9.53058,0,0,1,2.38671-.29687,8.58787,8.58787,0,0,1,2.81836.41016,5.51823,5.51823,0,0,1,1.93164,1.10449,4.30236,4.30236,0,0,1,1.11915,1.60742,5.21979,5.21979,0,0,1,.36132,1.93262,6.15852,6.15852,0,0,1-.72851,2.85351,12.17962,12.17962,0,0,1-1.97656,2.7334,22.39894,22.39894,0,0,1-2.88086,2.54883,35.56942,35.56942,0,0,1-3.46289,2.28613l7.68945-.86328,1.11914-2.02539,2.166.42481-.83593,5.42382H361.39326Z"/><rect class="a" x="248.47947" y="193.71879" width="70" height="70"/><path d="M269.07978,230.23645v-3.17187H281.612v3.17187Z"/><path d="M286.49677,238.73254a5.86672,5.86672,0,0,0,.6875.17676c.25879.05176.53321.09668.82032.13477q.43212.05566.88476.085c.30274.01855.59961.02832.89258.02832a7.27969,7.27969,0,0,0,2.209-.31152,4.8762,4.8762,0,0,0,1.65625-.87793,3.81111,3.81111,0,0,0,1.041-1.35254,4.11221,4.11221,0,0,0,.36133-1.73438,3.86175,3.86175,0,0,0-.17774-1.126,3.04969,3.04969,0,0,0-.58691-1.083,3.42888,3.42888,0,0,0-1.07617-.84278,4.03129,4.03129,0,0,0-1.64258-.40332l-1.91113.31153-.84961-2.23731a6.59856,6.59856,0,0,0,1.25976-.30469q.63721-.21972,1.16114-.418a6.28523,6.28523,0,0,0,1.45214-.793,4.64224,4.64224,0,0,0,.9834-.9834,3.74961,3.74961,0,0,0,.55957-1.13281,4.39976,4.39976,0,0,0,.17676-1.23926,2.78049,2.78049,0,0,0-.21973-1.16113,2.16042,2.16042,0,0,0-.58789-.78614,2.39069,2.39069,0,0,0-.82812-.44629,3.24891,3.24891,0,0,0-.95508-.1416,6.82581,6.82581,0,0,0-2.34375.36133,7.6478,7.6478,0,0,0-1.8623.99805l-1.17481-2.09571a6.11467,6.11467,0,0,1,1.01953-.77832,10.30153,10.30153,0,0,1,1.53516-.793,12.09783,12.09783,0,0,1,1.91211-.61621,9.23809,9.23809,0,0,1,2.14551-.248,10.13606,10.13606,0,0,1,2.5205.29785,5.81235,5.81235,0,0,1,2.00391.91308,4.42626,4.42626,0,0,1,1.32422,1.53614,4.6558,4.6558,0,0,1,.48047,2.18066,5.9675,5.9675,0,0,1-1.2461,3.85156,8.6816,8.6816,0,0,1-3.61035,2.52051,7.47689,7.47689,0,0,1,2.542.291,5.17965,5.17965,0,0,1,1.834.97656,4.11236,4.11236,0,0,1,1.11133,1.4873,4.48177,4.48177,0,0,1,.375,1.81934,6.51329,6.51329,0,0,1-.62305,2.83887,6.20992,6.20992,0,0,1-1.88281,2.27246,9.56895,9.56895,0,0,1-3.13672,1.51562,15.588,15.588,0,0,1-4.38281.55176c-.33008,0-.67774-.01367-1.041-.042s-.7168-.06836-1.0625-.12012c-.34375-.05273-.667-.11328-.96875-.18457a7.50913,7.50913,0,0,1-.7793-.21972Z"/><rect class="a" x="163.47947" y="39.8245" width="70" height="70"/><path d="M185.17646,83.47864V81.5675l3.07324-.39648V70.01282q-.25488.05567-.665.14062c-.27441.05664-.56054.10938-.85742.15625s-.58789.08985-.87109.127c-.2832.03808-.51856.0625-.707.07128L184.78,68.04407a10.42988,10.42988,0,0,0,1.69922-.4961,14.17861,14.17861,0,0,0,1.6289-.74316,16.5259,16.5259,0,0,0,1.459-.87793,14.95076,14.95076,0,0,0,1.20312-.89844h.01367l2.56348.43848V81.171l2.917.39648v1.91114Z"/><path d="M200.569,87.45813q1.18945-2.32324,2.40723-4.84375,1.21728-2.51953,2.35058-4.96289,1.13379-2.44189,2.124-4.666.99169-2.22216,1.72753-3.95019l-7.71679.11328-1.09082,3.32715-2.77539-.50977.77832-6.627h14.0332l1.01953,1.14746L205.695,88.8175Z"/><rect class="a" x="163.47947" y="116.77165" width="70" height="70"/><path d="M191.97431,161.78528a5.84674,5.84674,0,0,0,.68653.17676c.25976.05175.5332.09668.82226.13476q.43066.05566.88477.085c.30176.01856.59961.02832.8916.02832a7.27969,7.27969,0,0,0,2.209-.31152,4.88112,4.88112,0,0,0,1.65723-.87793,3.83363,3.83363,0,0,0,1.041-1.35254,4.11175,4.11175,0,0,0,.36035-1.73437,3.92562,3.92562,0,0,0-.17676-1.126,3.08321,3.08321,0,0,0-.58789-1.083,3.42886,3.42886,0,0,0-1.07617-.84277,4.027,4.027,0,0,0-1.64258-.40332l-1.91211.31152-.84961-2.2373a6.59094,6.59094,0,0,0,1.26074-.30469q.63722-.21973,1.16114-.418a6.23655,6.23655,0,0,0,1.45117-.793,4.62527,4.62527,0,0,0,.98437-.9834,3.72438,3.72438,0,0,0,.5586-1.13281,4.33116,4.33116,0,0,0,.17773-1.23926,2.79658,2.79658,0,0,0-.21875-1.16113,2.17127,2.17127,0,0,0-.58789-.78613,2.3991,2.3991,0,0,0-.82813-.44629,3.26188,3.26188,0,0,0-.957-.1416,6.82583,6.82583,0,0,0-2.34375.36132,7.67823,7.67823,0,0,0-1.86132.99805l-1.17579-2.0957a6.19769,6.19769,0,0,1,1.01954-.77832,10.37531,10.37531,0,0,1,1.5371-.793,11.9686,11.9686,0,0,1,1.91211-.61621,9.22982,9.22982,0,0,1,2.14454-.24805,10.14169,10.14169,0,0,1,2.5205.29785,5.78224,5.78224,0,0,1,2.00293.91309,4.40586,4.40586,0,0,1,1.32422,1.53613,4.64408,4.64408,0,0,1,.48242,2.18067,5.97307,5.97307,0,0,1-1.24609,3.85156,8.69826,8.69826,0,0,1-3.61133,2.52051,7.46527,7.46527,0,0,1,2.541.291,5.16278,5.16278,0,0,1,1.834.97656,4.1013,4.1013,0,0,1,1.11133,1.48731,4.46634,4.46634,0,0,1,.376,1.81933,6.52713,6.52713,0,0,1-.62305,2.83887,6.19349,6.19349,0,0,1-1.88379,2.27246,9.54046,9.54046,0,0,1-3.13672,1.51563,15.57639,15.57639,0,0,1-4.38183.55176c-.33106,0-.67676-.01368-1.04-.042q-.54639-.04248-1.0625-.12011c-.34473-.05274-.668-.11328-.97071-.18457a7.62893,7.62893,0,0,1-.77832-.21973Z"/><rect class="a" x="163.47947" y="193.71879" width="70" height="70"/><path d="M185.403,237.37317v-1.91211l3.07325-.39648V223.90637q-.25489.05713-.665.1416-.41163.085-.85742.15625c-.29688.04688-.5879.08985-.8711.127q-.4248.05712-.707.07129l-.36914-2.46387a10.42959,10.42959,0,0,0,1.69922-.4961,14.17861,14.17861,0,0,0,1.6289-.74316,16.52444,16.52444,0,0,0,1.459-.87793,14.719,14.719,0,0,0,1.20312-.89941h.01368l2.56347.43945v15.70313l2.917.39648v1.91211Z"/><path d="M198.38838,238.73254a5.846,5.846,0,0,0,.68652.17676c.25976.05176.5332.09668.82226.13477q.43066.05566.88477.085c.30176.01855.59961.02832.8916.02832a7.2798,7.2798,0,0,0,2.209-.31152,4.88117,4.88117,0,0,0,1.65722-.87793,3.83363,3.83363,0,0,0,1.041-1.35254,4.11176,4.11176,0,0,0,.36035-1.73438,3.92573,3.92573,0,0,0-.17676-1.126,3.08317,3.08317,0,0,0-.58789-1.083,3.42888,3.42888,0,0,0-1.07617-.84278,4.0272,4.0272,0,0,0-1.64258-.40332l-1.91211.31153-.84961-2.23731a6.59047,6.59047,0,0,0,1.26075-.30469q.6372-.21972,1.16113-.418a6.23729,6.23729,0,0,0,1.45117-.793,4.62526,4.62526,0,0,0,.98437-.9834,3.72438,3.72438,0,0,0,.5586-1.13281,4.33121,4.33121,0,0,0,.17773-1.23926,2.79654,2.79654,0,0,0-.21875-1.16113,2.17139,2.17139,0,0,0-.58789-.78614,2.39947,2.39947,0,0,0-.82812-.44629,3.262,3.262,0,0,0-.957-.1416,6.82581,6.82581,0,0,0-2.34375.36133,7.6776,7.6776,0,0,0-1.86133.99805l-1.17578-2.09571a6.19767,6.19767,0,0,1,1.01953-.77832,10.3759,10.3759,0,0,1,1.53711-.793,11.96827,11.96827,0,0,1,1.91211-.61621,9.22973,9.22973,0,0,1,2.14453-.248,10.14183,10.14183,0,0,1,2.52051.29785,5.7824,5.7824,0,0,1,2.00293.91308,4.406,4.406,0,0,1,1.32421,1.53614,4.64407,4.64407,0,0,1,.48243,2.18066,5.973,5.973,0,0,1-1.2461,3.85156,8.698,8.698,0,0,1-3.61133,2.52051,7.465,7.465,0,0,1,2.541.291,5.16278,5.16278,0,0,1,1.834.97656,4.10115,4.10115,0,0,1,1.11133,1.4873,4.46639,4.46639,0,0,1,.376,1.81934,6.5272,6.5272,0,0,1-.62305,2.83887,6.19357,6.19357,0,0,1-1.88379,2.27246,9.54015,9.54015,0,0,1-3.13672,1.51562,15.576,15.576,0,0,1-4.38183.55176c-.33106,0-.67676-.01367-1.04-.042q-.54639-.04248-1.0625-.12012c-.34473-.05273-.668-.11328-.9707-.18457a7.62508,7.62508,0,0,1-.77832-.21972Z"/><rect class="a" x="333.11741" y="193.71879" width="70" height="70"/><path d="M361.612,238.73254a5.91684,5.91684,0,0,0,.6875.17676q.38964.07764.82129.13477.43212.05566.88476.085c.30176.01855.59961.02832.8916.02832a7.27076,7.27076,0,0,0,2.209-.31152,4.87213,4.87213,0,0,0,1.65723-.87793,3.82242,3.82242,0,0,0,1.041-1.35254,4.11161,4.11161,0,0,0,.36035-1.73438,3.89237,3.89237,0,0,0-.17675-1.126,3.0808,3.0808,0,0,0-.58692-1.083,3.44,3.44,0,0,0-1.07617-.84278,4.03539,4.03539,0,0,0-1.64258-.40332l-1.91211.31153-.84961-2.23731a6.56369,6.56369,0,0,0,1.25977-.30469q.63867-.21972,1.16211-.418a6.25743,6.25743,0,0,0,1.45117-.793,4.67116,4.67116,0,0,0,.98437-.9834,3.747,3.747,0,0,0,.5586-1.13281,4.36577,4.36577,0,0,0,.17773-1.23926,2.79622,2.79622,0,0,0-.21972-1.16113,2.17162,2.17162,0,0,0-.58789-.78614,2.39082,2.39082,0,0,0-.82813-.44629,3.26028,3.26028,0,0,0-.95605-.1416,6.82581,6.82581,0,0,0-2.34375.36133,7.64184,7.64184,0,0,0-1.86133.99805l-1.17578-2.09571a6.19767,6.19767,0,0,1,1.01953-.77832,10.31465,10.31465,0,0,1,1.53613-.793,12.03254,12.03254,0,0,1,1.91211-.61621,9.23809,9.23809,0,0,1,2.14551-.248,10.12822,10.12822,0,0,1,2.51953.29785,5.79564,5.79564,0,0,1,2.0039.91308,4.406,4.406,0,0,1,1.32422,1.53614,4.65576,4.65576,0,0,1,.48145,2.18066,5.96755,5.96755,0,0,1-1.24609,3.85156,8.69446,8.69446,0,0,1-3.61036,2.52051,7.46805,7.46805,0,0,1,2.541.291,5.16278,5.16278,0,0,1,1.834.97656,4.11225,4.11225,0,0,1,1.11133,1.4873,4.48177,4.48177,0,0,1,.375,1.81934,6.51329,6.51329,0,0,1-.62305,2.83887,6.20009,6.20009,0,0,1-1.88281,2.27246,9.54973,9.54973,0,0,1-3.13672,1.51562,15.57837,15.57837,0,0,1-4.38281.55176q-.49512,0-1.04-.042-.54639-.04248-1.0625-.12012c-.34472-.05273-.667-.11328-.96972-.18457a7.57817,7.57817,0,0,1-.7793-.21972Z"/><rect class="a" x="248.47947" y="270.71879" width="70" height="70"/><path d="M269.07978,307.23645v-3.17187H281.612v3.17187Z"/><path d="M286.49677,315.73254a5.86672,5.86672,0,0,0,.6875.17676c.25879.05176.53321.09668.82032.13477q.43212.05567.88476.085c.30274.01855.59961.02832.89258.02832a7.27969,7.27969,0,0,0,2.209-.31152,4.8762,4.8762,0,0,0,1.65625-.87793,3.81111,3.81111,0,0,0,1.041-1.35254,4.11221,4.11221,0,0,0,.36133-1.73438,3.86175,3.86175,0,0,0-.17774-1.126,3.04969,3.04969,0,0,0-.58691-1.083,3.42888,3.42888,0,0,0-1.07617-.84278,4.03129,4.03129,0,0,0-1.64258-.40332l-1.91113.31153-.84961-2.23731a6.59856,6.59856,0,0,0,1.25976-.30469q.63721-.21972,1.16114-.418a6.28523,6.28523,0,0,0,1.45214-.793,4.64224,4.64224,0,0,0,.9834-.9834,3.74961,3.74961,0,0,0,.55957-1.13281,4.39976,4.39976,0,0,0,.17676-1.23926,2.78049,2.78049,0,0,0-.21973-1.16113,2.16042,2.16042,0,0,0-.58789-.78614,2.39069,2.39069,0,0,0-.82812-.44629,3.24891,3.24891,0,0,0-.95508-.1416,6.82581,6.82581,0,0,0-2.34375.36133,7.6478,7.6478,0,0,0-1.8623.99805l-1.17481-2.09571a6.11467,6.11467,0,0,1,1.01953-.77832,10.30153,10.30153,0,0,1,1.53516-.793,12.09783,12.09783,0,0,1,1.91211-.61621,9.23809,9.23809,0,0,1,2.14551-.248,10.13606,10.13606,0,0,1,2.5205.29785,5.81235,5.81235,0,0,1,2.00391.91308,4.42626,4.42626,0,0,1,1.32422,1.53614,4.6558,4.6558,0,0,1,.48047,2.18066,5.9675,5.9675,0,0,1-1.2461,3.85156,8.6816,8.6816,0,0,1-3.61035,2.52051,7.47689,7.47689,0,0,1,2.542.291,5.17965,5.17965,0,0,1,1.834.97656,4.11236,4.11236,0,0,1,1.11133,1.4873,4.48177,4.48177,0,0,1,.375,1.81934,6.51329,6.51329,0,0,1-.62305,2.83887,6.20992,6.20992,0,0,1-1.88281,2.27246,9.56895,9.56895,0,0,1-3.13672,1.51562,15.588,15.588,0,0,1-4.38281.55176c-.33008,0-.67774-.01367-1.041-.042s-.7168-.06836-1.0625-.12012c-.34375-.05273-.667-.11328-.96875-.18457a7.50913,7.50913,0,0,1-.7793-.21972Z"/><rect class="a" x="163.47947" y="270.71879" width="70" height="70"/><path d="M187.36494,314.37317v-1.91211l3.07324-.39648V300.90637c-.16992.03809-.39258.085-.666.1416s-.55957.1084-.85644.15625c-.29785.04688-.58789.08985-.87109.127-.28321.03808-.51856.06152-.708.07129l-.36817-2.46387a10.4293,10.4293,0,0,0,1.69922-.4961,14.08723,14.08723,0,0,0,1.62793-.74316,16.5259,16.5259,0,0,0,1.459-.87793,14.55136,14.55136,0,0,0,1.20312-.89941h.01465l2.56348.43945v15.70313l2.916.39648v1.91211Z"/><path d="M200.194,314.37317v-1.91211l3.07227-.39648V300.90637c-.16993.03809-.39063.085-.665.1416s-.55957.1084-.85645.15625c-.29785.04688-.58789.08985-.87109.127q-.42481.05712-.708.07129l-.36816-2.46387a10.42948,10.42948,0,0,0,1.69921-.4961,14.178,14.178,0,0,0,1.62891-.74316,16.64848,16.64848,0,0,0,1.458-.87793,14.74466,14.74466,0,0,0,1.2041-.89941h.01367l2.5625.43945v15.70313l2.918.39648v1.91211Z"/><rect class="a" x="333.11741" y="270.71879" width="70" height="70"/><path d="M359.37568,312.26282q.46583-.8628,1.14648-2.25782.67969-1.396,1.46583-3.0664.78514-1.66992,1.61425-3.49024.82764-1.81933,1.60742-3.5332.77784-1.7124,1.43653-3.19238.65918-1.481,1.09765-2.47168h.6084l4.23438,2.082L365.5915,308.964l-1.72754,2.69043,5.76367-.38281.1836-4.50293,4.27636-.29688v4.50293l3.45508-.24121v3.63965h-3.45508v5.32422h-4.48925v-5.32422h-8.86328Z"/><rect class="b" x="187.97841" y="323.08878" width="20.56583" height="10.76692" rx="5.38345"/><path d="M190.22724,325.464H192.32v.67383h-1.26368v5.085H192.32v.6748h-2.09278Z"/><path d="M195.35127,329.71106H192.948l-.124-.65039,2.58106-3.62793h.79883v3.52637h.67382v.75195h-.67382v1.17871h-.85254Zm0-.75195v-2.17774l-1.53516,2.17774Z"/><path d="M197.41279,331.63391c.48047-.09277.6748-.36426.63574-.74414H197.653v-1.03125h.99219v.86816a1.133,1.133,0,0,1-1.13183,1.28711Z"/><path d="M202.28779,326.36243l-.85254.25586-.14648-.77539,1.25488-.418h.63574v5.46484h-.8916Z"/><path d="M204.20381,331.22278h1.26367v-5.085h-1.26367V325.464h2.09277v6.43359h-2.09277Z"/><rect class="b" x="188.41461" y="92.08878" width="20.56583" height="10.76692" rx="5.38345"/><path d="M191.53584,94.463h2.09277v.67481h-1.26367v5.085h1.26367v.6748h-2.09277Z"/><path d="M195.194,95.36243l-.85254.25586-.14648-.77539,1.25488-.418h.63574v5.46484h-.8916Z"/><path d="M196.97724,100.63391c.48047-.09375.67481-.36523.63575-.74414h-.39551V98.85852h.99218v.86816a1.13171,1.13171,0,0,1-1.13183,1.28614Z"/><path d="M201.85224,95.36243l-.85254.25586-.14648-.77539,1.25488-.418h.63574v5.46484h-.8916Z"/><path d="M203.76826,100.22278h1.26367v-5.085h-1.26367V94.463H205.861v6.43457h-2.09277Z"/><rect class="b" x="188.06207" y="169.08878" width="20.56583" height="10.76692" rx="5.38345"/><path d="M190.47822,171.463H192.571v.67481h-1.26367v5.085H192.571v.67383h-2.09277Z"/><path d="M193.2917,176.1759l1.65918-1.77539c.6123-.63574.83691-.96875.83691-1.41015a.74425.74425,0,0,0-.79-.77539c-.42676,0-.72949.23242-1.08594.69726l-.59668-.5498a2.05031,2.05031,0,0,1,1.75977-.97657,1.50115,1.50115,0,0,1,1.62793,1.52637v.01563c0,.73632-.34082,1.17871-1.13184,1.96875l-1.085,1.17871h2.24024v.81347H193.2917Z"/><path d="M197.33076,177.63293c.48047-.09277.6748-.36425.63574-.74414H197.571v-1.03027h.99219v.86816a1.13171,1.13171,0,0,1-1.13184,1.28614Z"/><path d="M202.20674,172.36243l-.85352.25586-.14648-.77539,1.25488-.41895h.63574v5.46484h-.89062Z"/><path d="M204.1208,177.22278h1.26367v-5.085H204.1208V171.463h2.09277v6.4336H204.1208Z"/><rect class="b" x="188.06573" y="246.08878" width="20.56583" height="10.76692" rx="5.38345"/><path d="M190.489,248.464h2.09278v.67383h-1.26368v5.085h1.26368v.6748H190.489Z"/><path d="M193.20185,253.23059l.5586-.63574a1.509,1.509,0,0,0,1.16992.5664.84329.84329,0,0,0,.8916-.86035v-.02343c0-.5586-.48047-.86817-1.23242-.86817h-.27149l-.11621-.5664,1.31739-1.57325h-2.05372V248.464h3.17774v.70508l-1.37207,1.57324a1.50489,1.50489,0,0,1,1.44238,1.50391v.02343a1.6629,1.6629,0,0,1-1.77539,1.70508A2.26978,2.26978,0,0,1,193.20185,253.23059Z"/><path d="M197.32588,254.63391c.48046-.09277.6748-.36426.63574-.74414h-.39551v-1.03125h.99219v.86816a1.133,1.133,0,0,1-1.13184,1.28711Z"/><path d="M202.20088,249.36243l-.85254.25586-.14649-.77539,1.25489-.418h.63574v5.46484h-.8916Z"/><path d="M204.11689,254.22278h1.26367v-5.085h-1.26367V248.464h2.09277v6.43359h-2.09277Z"/><rect class="b" x="273.07589" y="323.08878" width="20.56583" height="10.76692" rx="5.38345"/><path d="M274.6042,325.464H276.697v.67383H275.4333v5.085H276.697v.6748H274.6042Z"/><path d="M279.72822,329.71106H277.3249l-.124-.65137,2.58105-3.62695h.79883v3.52637h.67383v.75195h-.67383v1.17871h-.85254Zm0-.75195V326.7804l-1.53516,2.17871Z"/><path d="M281.78974,331.63391c.48047-.09375.67481-.36523.63575-.74414H282.03v-1.03125h.99218v.86816a1.13171,1.13171,0,0,1-1.13183,1.28614Z"/><path d="M285.82,330.17688l1.65918-1.77539c.6123-.63672.83691-.96875.83691-1.41113a.74425.74425,0,0,0-.79-.77539c-.42676,0-.72949.23339-1.08594.69824l-.59668-.55078a2.04911,2.04911,0,0,1,1.75977-.97657,1.50136,1.50136,0,0,1,1.62793,1.52735v.01562c0,.73633-.34082,1.17774-1.13184,1.96875l-1.085,1.17774h2.24024v.81445H285.82Z"/><path d="M290.02216,331.22278h1.26368v-5.085h-1.26368V325.464h2.09278v6.43359h-2.09278Z"/><rect class="b" x="273.07589" y="92.08878" width="20.56583" height="10.76692" rx="5.38345"/><path d="M275.47627,94.463H277.569v.67481h-1.26367v5.085H277.569v.6748h-2.09277Z"/><path d="M279.13447,95.36243l-.85254.25586-.14648-.77539,1.25488-.418h.63574v5.46484h-.8916Z"/><path d="M280.91767,100.63391c.48047-.09375.67481-.36523.63574-.74414h-.3955V98.85852h.99218v.86816a1.13171,1.13171,0,0,1-1.13183,1.28614Z"/><path d="M284.948,99.1759l1.65918-1.77441c.6123-.63672.83691-.96875.83691-1.41113a.74425.74425,0,0,0-.79-.77539c-.42676,0-.72949.23339-1.08594.69824l-.59668-.55078a2.05031,2.05031,0,0,1,1.75977-.97657,1.50136,1.50136,0,0,1,1.62793,1.52735v.01562c0,.73633-.34082,1.17774-1.13184,1.96875l-1.085,1.17774h2.24024v.81445H284.948Z"/><path d="M289.15009,100.22278h1.26368v-5.085h-1.26368V94.463h2.09278v6.43457h-2.09278Z"/><rect class="b" x="357.83449" y="92.08878" width="20.56583" height="10.76692" rx="5.38345"/><path d="M360.24287,94.463h2.09277v.67481H361.072v5.085h1.26367v.6748h-2.09277Z"/><path d="M363.90107,95.36243l-.85254.25586-.14648-.77539,1.25488-.418h.63574v5.46484h-.8916Z"/><path d="M365.68427,100.63391c.48047-.09375.67481-.36523.63575-.74414h-.39551V98.85852h.99219v.86816a1.13172,1.13172,0,0,1-1.13184,1.28614Z"/><path d="M369.614,99.23059l.5586-.63574a1.509,1.509,0,0,0,1.16992.5664.8435.8435,0,0,0,.8916-.86132v-.02344c0-.55762-.48047-.86719-1.23242-.86719h-.27149l-.11621-.5664,1.31738-1.57325h-2.05371V94.463h3.17774v.70606l-1.37207,1.57324a1.50422,1.50422,0,0,1,1.44238,1.50391v.02246a1.66365,1.66365,0,0,1-1.77539,1.706A2.27311,2.27311,0,0,1,369.614,99.23059Z"/><path d="M373.90107,100.22278h1.26367v-5.085h-1.26367V94.463h2.09277v6.43457h-2.09277Z"/><rect class="b" x="273.07589" y="169.08878" width="20.56583" height="10.76692" rx="5.38345"/><path d="M274.77021,171.463H276.863v.67481h-1.26368v5.085H276.863v.67383h-2.09278Z"/><path d="M277.58369,176.1759l1.65918-1.77539c.6123-.63574.83691-.96875.83691-1.41015a.74425.74425,0,0,0-.79-.77539c-.42675,0-.72949.23242-1.08593.69726l-.59668-.5498a2.04908,2.04908,0,0,1,1.75976-.97657,1.50115,1.50115,0,0,1,1.62793,1.52637v.01563c0,.73632-.34082,1.17871-1.13183,1.96875l-1.085,1.17871h2.24024v.81347h-3.43457Z"/><path d="M281.62275,177.63293c.48047-.09277.67481-.36425.63574-.74414h-.3955v-1.03027h.99218v.86816a1.13171,1.13171,0,0,1-1.13183,1.28614Z"/><path d="M285.653,176.1759l1.65918-1.77539c.61231-.63574.83692-.96875.83692-1.41015a.74425.74425,0,0,0-.79-.77539c-.42676,0-.72949.23242-1.08594.69726l-.59668-.5498a2.0503,2.0503,0,0,1,1.75977-.97657,1.50115,1.50115,0,0,1,1.62793,1.52637v.01563c0,.73632-.34082,1.17871-1.13184,1.96875l-1.085,1.17871h2.24023v.81347H285.653Z"/><path d="M289.85517,177.22278h1.26367v-5.085h-1.26367V171.463H291.948v6.4336h-2.09278Z"/><rect class="b" x="357.83449" y="169.08878" width="20.56583" height="10.76692" rx="5.38345"/><path d="M359.53681,171.463h2.09278v.67481h-1.26368v5.085h1.26368v.67383h-2.09278Z"/><path d="M362.35029,176.1759l1.65918-1.77539c.6123-.63574.83691-.96875.83691-1.41015a.74425.74425,0,0,0-.79-.77539c-.42675,0-.72949.23242-1.08593.69726l-.59668-.5498a2.04909,2.04909,0,0,1,1.75976-.97657,1.50114,1.50114,0,0,1,1.62793,1.52637v.01563c0,.73632-.34082,1.17871-1.13183,1.96875l-1.085,1.17871h2.24023v.81347h-3.43457Z"/><path d="M366.38935,177.63293c.48047-.09277.67481-.36425.63574-.74414h-.3955v-1.03027h.99218v.86816a1.13171,1.13171,0,0,1-1.13183,1.28614Z"/><path d="M370.319,176.23059l.55859-.63574a1.51126,1.51126,0,0,0,1.16993.56543.84273.84273,0,0,0,.8916-.86035v-.02344c0-.55762-.48047-.86816-1.23242-.86816h-.27149l-.11621-.56543,1.31738-1.57325h-2.05371V171.463h3.17774v.70508l-1.37207,1.57422a1.50422,1.50422,0,0,1,1.44238,1.50391v.02246a1.66365,1.66365,0,0,1-1.77539,1.70605A2.27311,2.27311,0,0,1,370.319,176.23059Z"/><path d="M374.60615,177.22278h1.26367v-5.085h-1.26367V171.463h2.09277v6.4336h-2.09277Z"/><rect class="b" x="273.07589" y="246.08878" width="20.56583" height="10.76692" rx="5.38345"/><path d="M274.778,248.464h2.09278v.67383h-1.26367v5.085h1.26367v.6748H274.778Z"/><path d="M277.49091,253.23059l.5586-.63574a1.509,1.509,0,0,0,1.16992.5664.84328.84328,0,0,0,.8916-.86035v-.02343c0-.5586-.48047-.86817-1.23242-.86817h-.27148l-.11622-.5664,1.31739-1.57325h-2.05371V248.464h3.17773v.70508l-1.37207,1.57324a1.50489,1.50489,0,0,1,1.44238,1.50391v.02343a1.66289,1.66289,0,0,1-1.77539,1.70508A2.26981,2.26981,0,0,1,277.49091,253.23059Z"/><path d="M281.61494,254.63391c.48047-.09277.6748-.36426.63574-.74414h-.39551v-1.03125h.99219v.86816a1.133,1.133,0,0,1-1.13184,1.28711Z"/><path d="M285.64521,253.17688l1.65918-1.77539c.61231-.63574.83692-.96875.83692-1.41113a.74426.74426,0,0,0-.79-.77539c-.42676,0-.7295.23339-1.08594.69824l-.59668-.55078a2.05028,2.05028,0,0,1,1.75976-.97657,1.50135,1.50135,0,0,1,1.62793,1.52735v.01562c0,.73633-.34082,1.17774-1.13183,1.96875l-1.085,1.17774h2.24023v.81445h-3.43457Z"/><path d="M289.84736,254.22278H291.111v-5.085h-1.26367V248.464h2.09277v6.43359h-2.09277Z"/><rect class="b" x="357.83449" y="246.08878" width="20.56583" height="10.76692" rx="5.38345"/><path d="M359.54463,248.464h2.09277v.67383h-1.26367v5.085h1.26367v.6748h-2.09277Z"/><path d="M362.25752,253.23059l.55859-.63574a1.509,1.509,0,0,0,1.16992.5664.84328.84328,0,0,0,.8916-.86035v-.02343c0-.5586-.48047-.86817-1.23242-.86817h-.27148l-.11621-.5664,1.31738-1.57325h-2.05371V248.464h3.17773v.70508l-1.37207,1.57324a1.50489,1.50489,0,0,1,1.44239,1.50391v.02343a1.6629,1.6629,0,0,1-1.7754,1.70508A2.26977,2.26977,0,0,1,362.25752,253.23059Z"/><path d="M366.38154,254.63391c.48047-.09277.6748-.36426.63574-.74414h-.39551v-1.03125h.99219v.86816a1.133,1.133,0,0,1-1.13183,1.28711Z"/><path d="M370.31123,253.23059l.55859-.63574a1.509,1.509,0,0,0,1.16992.5664.84328.84328,0,0,0,.8916-.86035v-.02343c0-.5586-.48046-.86817-1.23242-.86817h-.27148l-.11621-.5664,1.31738-1.57325H370.5749V248.464h3.17773v.70508l-1.37207,1.57324a1.50489,1.50489,0,0,1,1.44239,1.50391v.02343a1.6629,1.6629,0,0,1-1.77539,1.70508A2.26978,2.26978,0,0,1,370.31123,253.23059Z"/><path d="M374.59834,254.22278H375.862v-5.085h-1.26367V248.464h2.09277v6.43359h-2.09277Z"/><rect class="b" x="358.19651" y="323.08878" width="20.56583" height="10.76692" rx="5.38345"/><path d="M359.4997,325.464h2.09278v.67383h-1.26367v5.085h1.26367v.6748H359.4997Z"/><path d="M364.62373,329.71106h-2.40332l-.124-.65137,2.58106-3.62695h.79883v3.52637h.67382v.75195h-.67382v1.17871h-.85254Zm0-.75195V326.7804l-1.53516,2.17871Z"/><path d="M366.68525,331.63391c.48047-.09375.67481-.36523.63574-.74414h-.3955v-1.03125h.99218v.86816a1.13171,1.13171,0,0,1-1.13183,1.28614Z"/><path d="M373.14228,329.71106H370.739l-.124-.65137,2.58105-3.62695h.79883v3.52637h.67383v.75195h-.67383v1.17871h-.85254Zm0-.75195V326.7804l-1.53515,2.17871Z"/><path d="M375.36787,331.22278h1.26367v-5.085h-1.26367V325.464h2.09277v6.43359h-2.09277Z"/><path d="M16.78877,113.01868h6.31738v1.835H18.80537v2.11523h3.7832v1.835h-3.7832v2.18555h4.35742v1.835h-6.374Z"/><path d="M24.64326,112.71106h1.98828v10.11328H24.64326Z"/><path d="M28.00263,119.15442v-.126c0-2.22754,1.38672-3.85254,3.27735-3.85254,2.14258,0,3.19336,1.751,3.19336,3.99219,0,.11231,0,.35059-.01368.64453H29.97724a1.60428,1.60428,0,0,0,1.625,1.5127,2.19037,2.19037,0,0,0,1.56836-.74219l1.02344,1.2041a3.46809,3.46809,0,0,1-2.67578,1.20508A3.529,3.529,0,0,1,28.00263,119.15442Zm4.55274-.6582c-.085-1.03711-.53321-1.68164-1.27539-1.68164-.72852,0-1.20508.61621-1.31641,1.68164Z"/><path d="M35.77216,115.31653h1.98926v1.00781a2.298,2.298,0,0,1,1.94629-1.14844,1.9798,1.9798,0,0,1,1.84961,1.09278,2.6809,2.6809,0,0,1,2.12891-1.09278c1.331,0,2.22754.86817,2.22754,2.52149v5.127H43.93818v-4.52441c0-.86914-.37793-1.33106-1.03613-1.33106s-1.06446.46192-1.06446,1.33106v4.52441H39.84834v-4.52441c0-.86914-.36426-1.33106-1.02246-1.33106s-1.06446.46192-1.06446,1.33106v4.52441H35.77216Z"/><path d="M47.16865,119.15442v-.126c0-2.22754,1.38672-3.85254,3.27734-3.85254,2.14258,0,3.19336,1.751,3.19336,3.99219,0,.11231,0,.35059-.01367.64453H49.14326a1.60427,1.60427,0,0,0,1.625,1.5127,2.19037,2.19037,0,0,0,1.56836-.74219l1.02344,1.2041a3.4681,3.4681,0,0,1-2.67579,1.20508A3.529,3.529,0,0,1,47.16865,119.15442Zm4.55273-.6582c-.085-1.03711-.5332-1.68164-1.27539-1.68164-.72851,0-1.20508.61621-1.3164,1.68164Z"/><path d="M54.93818,115.31653h1.98926v1.00781a2.296,2.296,0,0,1,1.93262-1.14844c1.40039,0,2.21289.98047,2.21289,2.53516v5.11328H59.08466v-4.52441c0-.88282-.39257-1.33106-1.06445-1.33106-.6582,0-1.09277.44824-1.09277,1.33106v4.52441H54.93818Z"/><path d="M62.904,120.94739v-3.9502h-.75684v-1.68066H62.904v-1.91992h1.98926v1.91992h1.48437v1.68066H64.89326v3.54395c0,.43359.19629.64453.61621.64453a1.92821,1.92821,0,0,0,.85449-.21094v1.583a2.888,2.888,0,0,1-1.4707.39258C63.74482,122.95032,62.904,122.50208,62.904,120.94739Z"/><path d="M67.1042,121.92786l.86816-1.40137a3.50832,3.50832,0,0,0,2.00293.84082c.56055,0,.79883-.2666.79883-.57422v-.02832c0-.43359-.56055-.61621-1.373-.96582-1.06445-.46289-1.97461-.99512-1.97461-2.26953v-.02832a2.3237,2.3237,0,0,1,2.57617-2.29688,4.435,4.435,0,0,1,2.48047.8125l-.79883,1.42871a3.41021,3.41021,0,0,0-1.709-.64453c-.47656,0-.72852.23828-.72852.53223v.02832c0,.3916.56055.61621,1.35938.98047,1.0918.51758,1.98828,1.06445,1.98828,2.25488v.02832c0,1.55469-1.14844,2.33887-2.64648,2.33887A4.54723,4.54723,0,0,1,67.1042,121.92786Z"/><rect class="b" x="115.00176" y="64.97307" width="37.63434" height="19.70286" rx="9.85142"/><path d="M121.52216,69.673h3.78125v1.21875h-2.2832v9.18946h2.2832V81.299h-3.78125Z"/><path d="M128.12959,71.298l-1.54.46192-.2666-1.40039,2.26953-.75684h1.14843v9.876h-1.61132Z"/><path d="M131.34931,80.82336c.86817-.168,1.21875-.6582,1.14844-1.34472h-.71387V77.61536h1.793v1.56933a2.04644,2.04644,0,0,1-2.04492,2.3252Z"/><path d="M142.33857,80.08118h2.2832V70.89172h-2.2832V69.673h3.7832V81.299h-3.7832Z"/><rect class="b" x="179.47089" y="9.27827" width="37.63434" height="19.70286" rx="9.85142"/><path d="M186.321,13.97864h3.78125v1.21875H187.819v9.18847h2.2832v1.21875H186.321Z"/><path d="M198.43037,25.12805c.86914-.168,1.21875-.6582,1.14844-1.34472H198.864V21.921h1.793v1.56836a2.04543,2.04543,0,0,1-2.04492,2.3252Z"/><path d="M203.02314,15.60266l-1.541.46289-.26661-1.40137,2.26954-.75585h1.14843v9.875h-1.61035Z"/><path d="M206.4792,24.38586h2.2832V15.19739h-2.2832V13.97864h3.7832v11.626h-3.7832Z"/><rect class="b" x="264.6623" y="9.27827" width="37.63434" height="19.70286" rx="9.85142"/><path d="M269.902,13.97864h3.78222v1.21875h-2.2832v9.18847h2.2832v1.21875H269.902Z"/><path d="M282.01142,25.12805c.86817-.168,1.21875-.6582,1.14844-1.34472H282.446V21.921h1.793v1.56836a2.04645,2.04645,0,0,1-2.04492,2.3252Z"/><path d="M285.69306,22.49524l2.99707-3.208c1.10743-1.14844,1.51368-1.751,1.51368-2.5498a1.34556,1.34556,0,0,0-1.42969-1.40039c-.76953,0-1.31641.41992-1.96094,1.26074l-1.07812-.99512a3.7045,3.7045,0,0,1,3.17968-1.76465,2.71277,2.71277,0,0,1,2.94141,2.75977v.02832c0,1.33008-.61621,2.1289-2.04492,3.55762l-1.96094,2.1289h4.04785v1.47071h-6.20508Z"/><path d="M293.28,24.38586h2.2832V15.19739H293.28V13.97864h3.7832v11.626H293.28Z"/><rect class="b" x="349.90357" y="9.27827" width="37.63434" height="19.70286" rx="9.85142"/><path d="M355.15693,13.97864h3.78223v1.21875H356.656v9.18847h2.28321v1.21875h-3.78223Z"/><path d="M367.26631,25.12805c.86914-.168,1.21875-.6582,1.14843-1.34472h-.71386V21.921h1.793v1.56836a2.04594,2.04594,0,0,1-2.04492,2.3252Z"/><path d="M370.76631,22.5929l1.00781-1.14844a2.73825,2.73825,0,0,0,2.11523,1.02246,1.52287,1.52287,0,0,0,1.61133-1.55469v-.042c0-1.00879-.86914-1.56934-2.22656-1.56934h-.49024l-.21093-1.02246,2.38086-2.84375h-3.71094v-1.456h5.74219v1.27441l-2.47852,2.84375a2.71756,2.71756,0,0,1,2.60547,2.7168v.042a3.006,3.006,0,0,1-3.208,3.082A4.10308,4.10308,0,0,1,370.76631,22.5929Z"/><path d="M378.50849,24.38586h2.28321V15.19739h-2.28321V13.97864h3.78125v11.626h-3.78125Z"/><rect class="b" x="115.00176" y="141.97307" width="37.63434" height="19.70286" rx="9.85142"/><path d="M120.24873,146.673H124.03v1.21875h-2.28321v9.18946H124.03V158.299h-3.78125Z"/><path d="M125.32978,155.18958l2.99707-3.208c1.10742-1.14844,1.51367-1.751,1.51367-2.54883a1.34581,1.34581,0,0,0-1.42968-1.40137c-.76953,0-1.31641.4209-1.96094,1.26074l-1.07813-.99414a3.70453,3.70453,0,0,1,3.17969-1.76464,2.712,2.712,0,0,1,2.94141,2.75878v.02832c0,1.33106-.61621,2.12891-2.04492,3.55762l-1.96094,2.12988h4.04785v1.47071h-6.20508Z"/><path d="M132.62373,157.82336c.86816-.168,1.21875-.6582,1.14843-1.34472h-.71484v-1.86328h1.793v1.56933a2.04594,2.04594,0,0,1-2.04492,2.3252Z"/><path d="M143.613,157.08118h2.2832v-9.18946H143.613V146.673h3.78222v11.626H143.613Z"/><rect class="b" x="115.00176" y="218.97307" width="37.63434" height="19.70286" rx="9.85142"/><path d="M120.2624,223.673h3.78125v1.21875h-2.2832v9.18946h2.2832V235.299H120.2624Z"/><path d="M125.16181,232.28821l1.00879-1.14942a2.72909,2.72909,0,0,0,2.11524,1.02246,1.52261,1.52261,0,0,0,1.61035-1.55468v-.042c0-1.00782-.86817-1.56836-2.22754-1.56836h-.49024l-.21-1.02247,2.38184-2.84375H125.6374v-1.457h5.74414v1.27442l-2.48047,2.84375a2.71778,2.71778,0,0,1,2.60547,2.71777v.042a3.00518,3.00518,0,0,1-3.207,3.082A4.10491,4.10491,0,0,1,125.16181,232.28821Z"/><path d="M132.61006,234.82336c.86816-.168,1.21875-.6582,1.14843-1.34472h-.71484v-1.86328h1.793v1.56933a2.04594,2.04594,0,0,1-2.04492,2.3252Z"/><path d="M143.59931,234.08118h2.28321v-9.18946h-2.28321V223.673h3.78223v11.626h-3.78223Z"/><rect class="b" x="115.00176" y="295.97307" width="37.63434" height="19.70286" rx="9.85142"/><path d="M119.947,300.673h3.78223v1.21875H121.446v9.18946h2.28321V312.299H119.947Z"/><path d="M129.20283,308.34973h-4.34277l-.22364-1.17676,4.665-6.55566h1.44141v6.37305h1.21875v1.35937h-1.21875v2.12891h-1.54Zm0-1.35937v-3.93555l-2.77344,3.93555Z"/><path d="M132.92451,311.82336c.86816-.168,1.21875-.6582,1.14844-1.34472h-.71485v-1.86328h1.793v1.56933a2.04593,2.04593,0,0,1-2.04492,2.3252Z"/><path d="M143.91377,311.08118h2.2832v-9.18946h-2.2832V300.673H147.696v11.626h-3.78222Z"/><path d="M446.10224,94.55774v-.126c0-2.96972,1.84961-4.9873,4.44141-4.9873a4.12048,4.12048,0,0,1,3.15137,1.30273l-1.21875,1.56934a2.734,2.734,0,0,0-2.00293-.98047c-1.31641,0-2.28321,1.21777-2.28321,3.123v.042c0,1.94726,1.00782,3.13769,2.31055,3.13769a2.75779,2.75779,0,0,0,2.01758-1.02246l1.21875,1.44336a4.26053,4.26053,0,0,1-3.32031,1.47071C447.83955,99.5304,446.10224,97.55481,446.10224,94.55774Z"/><path d="M454.43232,95.7345v-.1543a3.5896,3.5896,0,0,1,3.54492-3.83789,3.54741,3.54741,0,0,1,3.51563,3.82324v.1543a3.54205,3.54205,0,1,1-7.06055.01465Zm5.09961-.02832v-.09864c0-1.21777-.61719-2.14257-1.56934-2.14257-.99511,0-1.56933.91015-1.56933,2.1289v.09766c0,1.20508.63086,2.14355,1.584,2.14355C458.95771,97.83508,459.53193,96.92493,459.53193,95.70618Z"/><path d="M462.8747,89.27649H464.864V99.38977H462.8747Z"/><path d="M466.50068,96.99426V91.882h1.97461v4.52441c0,.88281.39258,1.33106,1.06445,1.33106.67285,0,1.09375-.44825,1.09375-1.33106V91.882h1.98828v7.50781h-1.98828V98.381a2.2738,2.2738,0,0,1-1.91992,1.14942C467.29951,99.5304,466.50068,98.54993,466.50068,96.99426Z"/><path d="M474.21455,91.882h1.98926v1.00879a2.295,2.295,0,0,1,1.94726-1.14844,1.98119,1.98119,0,0,1,1.84863,1.0918,2.679,2.679,0,0,1,2.12989-1.0918c1.33007,0,2.22656.86816,2.22656,2.52051v5.12695h-1.97461V94.86536c0-.86817-.37891-1.33008-1.03711-1.33008s-1.06445.46191-1.06445,1.33008v4.52441h-1.98926V94.86536c0-.86817-.36426-1.33008-1.02246-1.33008s-1.06445.46191-1.06445,1.33008v4.52441h-1.98926Z"/><path d="M485.91865,91.882h1.98828v1.00879a2.29632,2.29632,0,0,1,1.93359-1.14844c1.40039,0,2.21289.98047,2.21289,2.53516v5.1123h-1.98828V94.86536c0-.88184-.39257-1.33008-1.06543-1.33008-.6582,0-1.09277.44824-1.09277,1.33008v4.52441h-1.98828Z"/><path d="M496.9792,89.58508h2.03027v9.80469H496.9792Z"/><path d="M500.85615,91.882h1.98926v1.00879a2.296,2.296,0,0,1,1.93261-1.14844c1.40039,0,2.21289.98047,2.21289,2.53516v5.1123h-1.98828V94.86536c0-.88184-.39257-1.33008-1.06445-1.33008-.6582,0-1.09277.44824-1.09277,1.33008v4.52441h-1.98926Z"/><path d="M508.2624,95.74817v-.22461c0-2.56348,1.3584-3.78125,2.85742-3.78125a2.45856,2.45856,0,0,1,2.03125,1.10644V89.27649h1.98828V99.38977h-1.98828V98.35364a2.37432,2.37432,0,0,1-2.03125,1.17676C509.63545,99.5304,508.2624,98.31165,508.2624,95.74817Zm4.916-.042v-.14063c0-1.27441-.64453-2.08691-1.4707-2.08691s-1.457.8125-1.457,2.08691v.14063c0,1.27441.63086,2.08691,1.457,2.08691S513.17841,96.98059,513.17841,95.70618Z"/><path d="M516.42451,95.71985v-.126c0-2.22754,1.38672-3.85156,3.27734-3.85156,2.14258,0,3.19336,1.751,3.19336,3.99219,0,.11133,0,.34961-.01367.64355h-4.48242a1.60355,1.60355,0,0,0,1.625,1.5127,2.18664,2.18664,0,0,0,1.56836-.74219l1.02343,1.20508a3.47048,3.47048,0,0,1-2.67578,1.2041A3.52845,3.52845,0,0,1,516.42451,95.71985Zm4.55273-.6582c-.085-1.03614-.5332-1.68067-1.27539-1.68067-.72851,0-1.20508.61621-1.3164,1.68067Z"/><path d="M526.70185,94.08118l1.19043-2.19922h2.05957L527.78,95.53821l2.25586,3.85156H527.9206l-1.24707-2.33887-1.26074,2.33887h-2.07324l2.24121-3.82422L523.42451,91.882h2.10058Z"/><path d="M446.45283,216.674h6.31738v1.835h-4.30078v2.11524h3.7832v1.835h-3.7832v2.18457h4.35742v1.83593h-6.374Z"/><path d="M454.30732,216.36633h1.98828v10.11328h-1.98828Z"/><path d="M457.6667,222.80969v-.12695c0-2.22656,1.38671-3.85156,3.27734-3.85156,2.14258,0,3.19336,1.751,3.19336,3.99218,0,.11133,0,.34961-.01367.64454h-4.48242a1.60338,1.60338,0,0,0,1.625,1.51171,2.18659,2.18659,0,0,0,1.56835-.74218l1.02344,1.20507a3.47131,3.47131,0,0,1-2.67578,1.20508A3.529,3.529,0,0,1,457.6667,222.80969Zm4.55273-.6582c-.085-1.03711-.5332-1.68164-1.27539-1.68164-.72852,0-1.20508.61621-1.31641,1.68164Z"/><path d="M465.43623,218.9718h1.98926v1.00781a2.29587,2.29587,0,0,1,1.94628-1.14843,1.98066,1.98066,0,0,1,1.84961,1.09179,2.68,2.68,0,0,1,2.12891-1.09179c1.33105,0,2.22754.86816,2.22754,2.52148v5.127h-1.97559v-4.52539c0-.86816-.37793-1.33007-1.03613-1.33007s-1.06445.46191-1.06445,1.33007v4.52539H469.5124v-4.52539c0-.86816-.36426-1.33007-1.02246-1.33007s-1.06445.46191-1.06445,1.33007v4.52539h-1.98926Z"/><path d="M476.83271,222.80969v-.12695c0-2.22656,1.38672-3.85156,3.27735-3.85156,2.14257,0,3.19335,1.751,3.19335,3.99218,0,.11133,0,.34961-.01367.64454h-4.48242a1.6034,1.6034,0,0,0,1.625,1.51171,2.18661,2.18661,0,0,0,1.56836-.74218l1.02344,1.20507a3.47131,3.47131,0,0,1-2.67578,1.20508A3.529,3.529,0,0,1,476.83271,222.80969Zm4.55274-.6582c-.085-1.03711-.53321-1.68164-1.27539-1.68164-.72852,0-1.20508.61621-1.31641,1.68164Z"/><path d="M484.60224,218.9718h1.98926v1.00781a2.296,2.296,0,0,1,1.93262-1.14843c1.40039,0,2.21289.98047,2.21289,2.53515v5.11328h-1.98828v-4.52539c0-.88183-.39258-1.33007-1.06446-1.33007-.6582,0-1.09277.44824-1.09277,1.33007v4.52539h-1.98926Z"/><path d="M492.56806,224.60266v-3.95117h-.75683V218.9718h.75683v-1.91992h1.98926v1.91992h1.48438v1.67969h-1.48438v3.54492c0,.43359.19629.64453.61621.64453a1.92821,1.92821,0,0,0,.85449-.21094v1.583a2.89749,2.89749,0,0,1-1.4707.3916C493.40888,226.60461,492.56806,226.15735,492.56806,224.60266Z"/><path d="M500.73115,216.674h2.03027v9.80566h-2.03027Z"/><path d="M504.6081,218.9718h1.98926v1.00781a2.296,2.296,0,0,1,1.93262-1.14843c1.40039,0,2.21289.98047,2.21289,2.53515v5.11328h-1.98828v-4.52539c0-.88183-.39258-1.33007-1.06446-1.33007-.6582,0-1.09277.44824-1.09277,1.33007v4.52539H504.6081Z"/><path d="M512.01435,222.837v-.22461c0-2.5625,1.3584-3.78125,2.85742-3.78125a2.45854,2.45854,0,0,1,2.03125,1.10644v-3.57129h1.98829v10.11328H516.903V225.4425a2.37224,2.37224,0,0,1-2.03125,1.17676C513.3874,226.61926,512.01435,225.40051,512.01435,222.837Zm4.916-.042v-.13964c0-1.2754-.64453-2.0879-1.47071-2.0879s-1.457.8125-1.457,2.0879v.13964c0,1.27442.63086,2.08692,1.457,2.08692S516.93037,224.06946,516.93037,222.795Z"/><path d="M520.17549,222.80969v-.12695c0-2.22656,1.38671-3.85156,3.27832-3.85156,2.14257,0,3.19335,1.751,3.19335,3.99218,0,.11133,0,.34961-.01367.64454h-4.48242a1.60216,1.60216,0,0,0,1.625,1.51171,2.18831,2.18831,0,0,0,1.56836-.74218l1.02246,1.20507a3.46926,3.46926,0,0,1-2.6748,1.20508A3.52916,3.52916,0,0,1,520.17549,222.80969Zm4.55175-.6582c-.084-1.03711-.53125-1.68164-1.27343-1.68164-.72852,0-1.20508.61621-1.31739,1.68164Z"/><path d="M530.45381,221.17l1.19043-2.19824h2.05957l-2.17188,3.65528,2.25586,3.85253h-2.11523l-1.24707-2.33984-1.26075,2.33984H527.0915l2.24121-3.82421-2.15625-3.6836h2.10059Z"/><path d="M9.43818,261.01868h3.68359a3.64871,3.64871,0,0,1,2.66211.93847,3.10512,3.10512,0,0,1,.82618,2.26953v.05567a2.95777,2.95777,0,0,1-1.82032,2.89941l2.08594,3.64258H14.55146l-1.80762-3.22168H11.46943v3.22168H9.43818Zm3.5293,4.791a1.41417,1.41417,0,0,0,1.59765-1.4707v-.01465c0-.98047-.60254-1.4707-1.63867-1.4707h-1.457v2.95605Z"/><path d="M17.60029,267.16809v-.1543a3.58942,3.58942,0,0,1,3.54395-3.83789,3.54826,3.54826,0,0,1,3.51562,3.82422v.1543a3.54164,3.54164,0,1,1-7.05957.01367Zm5.09863-.02832v-.09766c0-1.21875-.61621-2.14355-1.56933-2.14355-.99414,0-1.56836.91113-1.56836,2.12988v.09766c0,1.20508.63086,2.14355,1.583,2.14355C22.1247,269.26965,22.69892,268.35852,22.69892,267.13977Z"/><path d="M25.17451,263.31653h2.00195L28.1999,267.756l1.16211-4.46777h1.69531l1.17578,4.48242,1.03711-4.4541h1.97461L33.22822,270.88h-1.835l-1.19043-4.4541L28.98408,270.88H27.16279Z"/><path d="M39.70576,261.01868H41.737v9.80566H39.70576Z"/><path d="M43.58466,263.31653H45.573v1.00781a2.2963,2.2963,0,0,1,1.93359-1.14844c1.40039,0,2.21289.98047,2.21289,2.53516v5.11328H47.73115v-4.52441c0-.88282-.39258-1.33106-1.06543-1.33106-.6582,0-1.09277.44824-1.09277,1.33106v4.52441H43.58466Z"/><path d="M50.98994,267.18176v-.22363c0-2.56348,1.3584-3.78223,2.85742-3.78223a2.45713,2.45713,0,0,1,2.03125,1.10645v-3.57129h1.98926v10.11328H55.87861v-1.03711a2.371,2.371,0,0,1-2.03125,1.17676C52.362,270.964,50.98994,269.74524,50.98994,267.18176Zm4.917-.042v-.13965c0-1.27441-.64453-2.08691-1.4707-2.08691s-1.457.8125-1.457,2.08691v.13965c0,1.27539.63086,2.08789,1.457,2.08789S55.90693,268.41516,55.90693,267.13977Z"/><path d="M59.15107,267.15442v-.126c0-2.22754,1.38672-3.85254,3.27832-3.85254,2.14356,0,3.19434,1.751,3.19434,3.99219,0,.11231,0,.35059-.01465.64453H61.12666a1.60366,1.60366,0,0,0,1.625,1.5127,2.19243,2.19243,0,0,0,1.56933-.74219l1.02149,1.2041a3.46457,3.46457,0,0,1-2.67481,1.20508A3.5297,3.5297,0,0,1,59.15107,267.15442Zm4.55274-.6582c-.084-1.03711-.53223-1.68164-1.27442-1.68164-.72851,0-1.2041.61621-1.31738,1.68164Z"/><path d="M69.42939,265.51477l1.19043-2.19824h2.05957l-2.1709,3.65527,2.25489,3.85254H70.64814l-1.24707-2.33984-1.25976,2.33984H66.06709l2.24218-3.82422-2.1582-3.68359h2.10156Z"/><rect x="372.40608" y="-12.38807" width="1.49974" height="145.57521" transform="translate(151.75038 366.78662) rotate(-63.3411)"/><polygon points="310.762 24.891 303.297 25.327 307.406 31.575 310.762 24.891"/><rect x="76.75728" y="95.9577" width="103.21629" height="1.50086" transform="translate(-26.3526 53.20551) rotate(-21.28911)"/><polygon points="176.793 81.862 181.471 76.027 174.079 74.893 176.793 81.862"/><rect x="411.33653" y="165.70841" width="1.50019" height="68.15765" transform="translate(-5.73009 387.29594) rotate(-50.03466)"/><polygon points="389.209 175.735 381.843 174.441 384.404 181.467 389.209 175.735"/><rect x="384.76383" y="238.42213" width="55.503" height="1.49974" transform="translate(-59.77725 173.50725) rotate(-22.18938)"/><polygon points="386.424 245.791 381.843 251.702 389.253 252.715 386.424 245.791"/><rect x="430.25402" y="9.48744" width="1.49919" height="95.59762" transform="translate(133.5157 374.37737) rotate(-54.39796)"/><polygon points="395.206 27.056 387.763 26.327 390.852 33.138 395.206 27.056"/><rect x="131.02652" y="82.09586" width="1.50008" height="106.76263" transform="translate(-33.59243 226.97703) rotate(-74.74939)"/><polygon points="181.239 152.839 188.471 150.934 183.206 145.623 181.239 152.839"/><rect x="150.93868" y="62.66334" width="1.49998" height="231.68919" transform="translate(-74.80343 238.30647) rotate(-64.43326)"/><polygon points="253.589 231.403 261.045 230.824 256.817 224.656 253.589 231.403"/><rect x="94.04549" y="263.06246" width="1.49925" height="38.10482" transform="translate(-181.58221 171.70433) rotate(-49.65051)"/><polygon points="106.061 296.592 113.418 297.934 110.903 290.891 106.061 296.592"/><rect x="75.74302" y="250.69483" width="38.10418" height="1.49925" transform="translate(-140.2483 121.19461) rotate(-40.35032)"/><polygon points="110.903 242.668 113.418 235.625 106.061 236.968 110.903 242.668"/><rect x="288.73606" y="277.71081" width="172.99799" height="1.49952" transform="translate(-90.55258 241.26497) rotate(-32.01329)"/><polygon points="300.81 320.518 297.297 327.12 304.771 326.862 300.81 320.518"/></svg>