<svg xmlns="http://www.w3.org/2000/svg" viewBox="0 0 515.73525 522.37355"><defs><style>.a{isolation:isolate;}.b{fill:#ffda00;}.c{fill:#75bbef;}.d{fill:#ea7d7d;}.e{mix-blend-mode:multiply;}.f{fill:#5dc162;}</style></defs><g class="a"><polygon class="b" points="224.248 436.91 189.248 497.532 259.248 497.532 224.248 436.91"/><polygon class="b" points="224.248 359.91 189.248 420.532 259.248 420.532 224.248 359.91"/><polygon class="b" points="224.248 282.91 189.248 343.532 259.248 343.532 224.248 282.91"/><polygon class="b" points="224.248 205.91 189.248 266.532 259.248 266.532 224.248 205.91"/><polygon class="b" points="224.248 128.91 189.248 189.532 259.248 189.532 224.248 128.91"/><polygon class="b" points="224.248 51.91 189.248 112.532 259.248 112.532 224.248 51.91"/><circle class="c" cx="138.81499" cy="82.22127" r="35"/><circle class="c" cx="138.81499" cy="159.22127" r="35"/><circle class="c" cx="138.81499" cy="236.22127" r="35"/><circle class="c" cx="138.81499" cy="313.22127" r="35"/><circle class="c" cx="138.81499" cy="390.22127" r="35"/><circle class="c" cx="138.81499" cy="467.22127" r="35"/><path d="M45.43775,19.33164h1.56836L50.6067,29.193H48.91236l-.8125-2.31054H44.28932l-.8125,2.31054H41.83815ZM47.595,25.43906l-1.40137-3.93555-1.40039,3.93555Z"/><path d="M51.56861,30.63632l.51758-1.24707a4.3369,4.3369,0,0,0,2.22754.63086,1.77157,1.77157,0,0,0,2.0166-1.96191v-.71387a2.62419,2.62419,0,0,1-2.24023,1.30274c-1.48535,0-2.83008-1.19043-2.83008-3.47364v-.05664c0-2.29687,1.35938-3.4873,2.83008-3.4873a2.63591,2.63591,0,0,1,2.22656,1.24609V21.76914h1.583v6.21972a3.33639,3.33639,0,0,1-.84082,2.46485,3.60632,3.60632,0,0,1-2.67578.88281A5.8267,5.8267,0,0,1,51.56861,30.63632ZM56.344,25.15878v-.02734a1.90594,1.90594,0,0,0-1.77832-2.11523c-.96582,0-1.709.79785-1.709,2.11523v.01367c0,1.31641.75684,2.12891,1.709,2.12891A1.914,1.914,0,0,0,56.344,25.15878Z"/><path d="M59.35182,25.565v-.1123c0-2.22656,1.3457-3.82324,3.166-3.82324,2.01758,0,3.082,1.68066,3.082,3.9082,0,.09766,0,.32129-.01464.5459H60.93483a1.90734,1.90734,0,0,0,1.877,1.91894,2.36464,2.36464,0,0,0,1.709-.78417l.82715.98046a3.41775,3.41775,0,0,1-2.60547,1.14844C60.83619,29.34726,59.35182,27.89023,59.35182,25.565Zm4.707-.57421c-.084-1.17676-.61719-2.03125-1.541-2.03125-.86914,0-1.48437.7705-1.59765,2.03125Z"/><path d="M129.69459,19.38828h3.1377c2.14257,0,3.52929,1.23242,3.52929,3.26367v.02734c0,2.17188-1.5957,3.30664-3.62695,3.334h-1.415V29.193h-1.625Zm3.04,5.15429a1.77605,1.77605,0,0,0,1.97461-1.835v-.01367a1.72643,1.72643,0,0,0-1.97461-1.82129h-1.415v3.66992Z"/><path d="M137.26783,25.565v-.1123c0-2.22656,1.34571-3.82324,3.166-3.82324,2.01758,0,3.082,1.68066,3.082,3.9082,0,.09766,0,.32129-.01367.5459h-4.65039a1.90673,1.90673,0,0,0,1.87695,1.91894,2.36462,2.36462,0,0,0,1.709-.78417l.82618.98046a3.41473,3.41473,0,0,1-2.60547,1.14844C138.75318,29.34726,137.26783,27.89023,137.26783,25.565Zm4.707-.57421c-.084-1.17676-.61621-2.03125-1.541-2.03125-.86817,0-1.48438.7705-1.5957,2.03125Z"/><path d="M145.221,27.4V23.12753h-.8125V21.76914h.8125V19.76621h1.582v2.00293h1.668v1.35839h-1.668v3.9502a.71039.71039,0,0,0,.79883.8125,1.78812,1.78812,0,0,0,.85449-.21V28.983a2.68878,2.68878,0,0,1-1.31738.32227A1.691,1.691,0,0,1,145.221,27.4Z"/><path d="M204.67018,19.38828h1.625V29.193h-1.625Z"/><path d="M208.32447,21.76914h1.583v1.09277a2.32483,2.32483,0,0,1,2.03027-1.23242c1.42969,0,2.28321,1.00781,2.28321,2.59082V29.193h-1.582V24.66855c0-1.03613-.49024-1.61035-1.33106-1.61035-.82617,0-1.40039.61621-1.40039,1.63867V29.193h-1.583Z"/><path d="M215.63307,25.57968v-.18261c0-2.50684,1.38672-3.76758,2.88476-3.76758a2.56219,2.56219,0,0,1,2.17188,1.26074V19.07968h1.582V29.193h-1.582V28.00253a2.51107,2.51107,0,0,1-2.17188,1.33106C217.03346,29.33359,215.63307,28.08652,215.63307,25.57968Zm5.084-.02832v-.14062c0-1.45606-.8125-2.38086-1.76465-2.38086-.96679,0-1.72363.89648-1.72363,2.39551v.1123c0,1.48438.77148,2.39453,1.72363,2.39453S220.71705,27.00839,220.71705,25.55136Z"/><path d="M223.72486,25.565v-.126a3.437,3.437,0,1,1,6.835-.01367v.126a3.43571,3.43571,0,1,1-6.835.01367Zm5.252-.02734v-.085c0-1.38672-.76953-2.42285-1.84864-2.42285-1.10644,0-1.82128,1.02246-1.82128,2.40918v.084c0,1.38672.7705,2.4375,1.8496,2.4375C228.262,27.96054,228.97682,26.92441,228.97682,25.53769Z"/><path d="M231.676,25.565v-.126a3.43744,3.43744,0,1,1,6.83593-.01367v.126a3.43615,3.43615,0,1,1-6.83593.01367Zm5.25195-.02734v-.085c0-1.38672-.76953-2.42285-1.84766-2.42285-1.10742,0-1.82226,1.02246-1.82226,2.40918v.084c0,1.38672.77148,2.4375,1.84961,2.4375C236.21412,27.96054,236.928,26.92441,236.928,25.53769Z"/><path d="M239.96412,21.76914h1.583v1.457a2.20638,2.20638,0,0,1,2.22656-1.56934v1.72363h-.06933c-1.28907,0-2.15723.83985-2.15723,2.53516V29.193h-1.583Z"/><rect class="d" x="19.00664" y="47.22127" width="70" height="70"/><path d="M40.70338,90.87558V88.96347l3.07227-.39648V77.40878q-.2549.05714-.666.14161-.41016.085-.85547.15625c-.29883.04687-.58789.08984-.87109.127q-.42481.05714-.709.07129L40.3069,75.441a10.43043,10.43043,0,0,0,1.69921-.49609,14.089,14.089,0,0,0,1.62793-.74317,16.647,16.647,0,0,0,1.458-.87793,14.575,14.575,0,0,0,1.2041-.89941h.01465l2.5625.43945V88.567l2.917.39648v1.91211Z"/><path d="M56.095,94.8541q1.18945-2.32177,2.40723-4.84278,1.21875-2.51952,2.35058-4.96289,1.13234-2.44189,2.124-4.666.99023-2.22217,1.72754-3.9502l-7.71778.11328-1.08984,3.32715-2.77539-.50976.7793-6.627H67.93287l1.01953,1.14746L61.221,96.21347Z"/><path d="M125.87525,83.93613a6.34424,6.34424,0,0,1,.36524-2.22363,4.7716,4.7716,0,0,1,1.02734-1.67481,4.47225,4.47225,0,0,1,1.59571-1.05859A5.56154,5.56154,0,0,1,130.929,78.61a9.9435,9.9435,0,0,1,1.2041.06543c.35742.04394.67187.09668.94531.1582.27148.06152.50391.123.69336.18457.19141.06152.34473.10742.46191.13672l-.08789,3.2168h-1.73144l-.5625-1.59082a1.96958,1.96958,0,0,0-.42188-.64161.84006.84006,0,0,0-.60644-.2373,1.26645,1.26645,0,0,0-.65039.17969,1.53411,1.53411,0,0,0-.54.58886,3.73348,3.73348,0,0,0-.374,1.07715A8.18848,8.18848,0,0,0,129.11842,83.4a9.53089,9.53089,0,0,0,.13574,1.74023,3.18229,3.18229,0,0,0,.42676,1.15137,1.64712,1.64712,0,0,0,.72949.62793,2.61153,2.61153,0,0,0,1.03711.18945,4.35137,4.35137,0,0,0,1.40234-.19824,5.32623,5.32623,0,0,0,.98829-.44336l.501,1.18652a3.23651,3.23651,0,0,1-.501.42188,5.239,5.239,0,0,1-.81739.46972,6.08625,6.08625,0,0,1-1.06738.37793,5.01829,5.01829,0,0,1-1.26172.1543,5.65162,5.65162,0,0,1-2.20605-.38672,3.91725,3.91725,0,0,1-1.49414-1.07226,4.32373,4.32373,0,0,1-.84864-1.63086A7.52974,7.52974,0,0,1,125.87525,83.93613Z"/><path d="M135.27076,86.18613a2.66615,2.66615,0,0,1,.2334-1.14258,2.85662,2.85662,0,0,1,.63672-.88379,3.81771,3.81771,0,0,1,.95312-.65039,6.62863,6.62863,0,0,1,1.1875-.43945,9.4448,9.4448,0,0,1,1.33106-.25489,13.00162,13.00162,0,0,1,1.38867-.09179v-.4043a1.68125,1.68125,0,0,0-.41308-1.2793,1.81147,1.81147,0,0,0-1.26563-.38183,6.54207,6.54207,0,0,0-.95312.07031c-.32032.04688-.626.10547-.919.17578s-.56543.14746-.81738.23242-.46875.16895-.65039.251h-.00879l-.58008-1.35352a4.838,4.838,0,0,1,.6416-.38671,8.13431,8.13431,0,0,1,1.08106-.46192,11.35314,11.35314,0,0,1,1.415-.39062,7.89939,7.89939,0,0,1,1.65235-.167,5.67975,5.67975,0,0,1,1.70117.22364,2.82388,2.82388,0,0,1,1.15527.668,2.63262,2.63262,0,0,1,.65528,1.11621,5.39614,5.39614,0,0,1,.20605,1.56933V87.5748h1.08985v1.19531c-.11133.02344-.251.05274-.417.08789-.168.03516-.35742.06836-.57226.10059q-.31933.04834-.70313.084c-.2539.02344-.52539.03516-.8125.03516a4.91037,4.91037,0,0,1-.59765-.03125.89789.89789,0,0,1-.39063-.127.53833.53833,0,0,1-.21094-.27735,1.398,1.398,0,0,1-.0664-.47851v-.60645a3.71768,3.71768,0,0,1-.43555.51856,3.1106,3.1106,0,0,1-.63672.49218,3.83378,3.83378,0,0,1-.84375.36426,3.59961,3.59961,0,0,1-1.05469.14551,3.90612,3.90612,0,0,1-1.17773-.17187,2.59563,2.59563,0,0,1-.94531-.52247,2.41932,2.41932,0,0,1-.62793-.90136A3.35877,3.35877,0,0,1,135.27076,86.18613Zm4.377,1.01074a1.47511,1.47511,0,0,0,.30371-.04,2.83542,2.83542,0,0,0,.36914-.10937,2.73553,2.73553,0,0,0,.36914-.17188,1.43926,1.43926,0,0,0,.31152-.23242v-2.751a4.621,4.621,0,0,0-1.25293.14453,2.221,2.221,0,0,0-.80371.39161,1.4077,1.4077,0,0,0-.42676.57129,1.88188,1.88188,0,0,0-.12695.68554,1.83736,1.83736,0,0,0,.29883,1.09375A1.09727,1.09727,0,0,0,139.64772,87.19687Z"/><path d="M146.79322,86.652V80.36777h-1.22168V79.28671c.02344-.01171.08887-.0371.19825-.07519.10742-.03809.22265-.082.34179-.13184.1211-.0498.23242-.09472.334-.13574a1.33363,1.33363,0,0,0,.16308-.07031,3.81446,3.81446,0,0,0,.70313-.94922,9.04511,9.04511,0,0,0,.39941-.86621q.208-.50538.35645-.97949h1.80176l.03515,2.68066H152.304v1.6084h-2.39942v4.67578c0,.44531.00781.80078.02149,1.06738a2.20092,2.20092,0,0,0,.10156.61133.44623.44623,0,0,0,.2373.27637,1.1447,1.1447,0,0,0,.43067.0664h.00879a2.46024,2.46024,0,0,0,.40429-.03515c.14063-.02344.27832-.05176.41309-.084s.26172-.06738.38281-.10546c.11914-.03809.21778-.07129.29395-.10059h.00879l.46582,1.125a5.29442,5.29442,0,0,1-.67286.43945,5.70651,5.70651,0,0,1-.86523.39063,6.88561,6.88561,0,0,1-1.01074.27734,5.77166,5.77166,0,0,1-1.11621.10547h-.01758a2.822,2.822,0,0,1-1.06836-.17578,1.63443,1.63443,0,0,1-.67578-.49219,1.85243,1.85243,0,0,1-.35156-.76465A4.46152,4.46152,0,0,1,146.79322,86.652Z"/><path d="M126.42408,166.06894a3.97279,3.97279,0,0,1-1.542-.29492,3.1758,3.1758,0,0,1-1.22168-.90527,4.38874,4.38874,0,0,1-.80469-1.54688,7.53588,7.53588,0,0,1-.28906-2.21875,6.68244,6.68244,0,0,1,.35547-2.23242,4.92356,4.92356,0,0,1,1.02832-1.73633,4.59078,4.59078,0,0,1,1.64355-1.125,5.76557,5.76557,0,0,1,2.21094-.39941,6.00017,6.00017,0,0,1,.6543.03515q.32081.03516.61133.09668v-2.83886l-1.54688-.3252v-1.08984l3.97266-.37793h.043l.61523.46582V164.566h.93164v1.2041q-.4746.09669-1.07226.20215a7.65432,7.65432,0,0,1-1.32618.10547,1.35212,1.35212,0,0,1-.90136-.27246,1.14176,1.14176,0,0,1-.32129-.91406v-.334a3.11313,3.11313,0,0,1-.51367.58887,3.47235,3.47235,0,0,1-.68946.47852,3.80749,3.80749,0,0,1-.84863.32519A3.9629,3.9629,0,0,1,126.42408,166.06894Zm1.27539-1.72266a2.07036,2.07036,0,0,0,.8125-.15429,1.51355,1.51355,0,0,0,.5586-.37305v-6.60937a1.19076,1.19076,0,0,0-.42676-.23731,2.01733,2.01733,0,0,0-.66309-.09668,1.67978,1.67978,0,0,0-.791.19336,1.73073,1.73073,0,0,0-.65039.64551,3.89744,3.89744,0,0,0-.44922,1.2041,9.49715,9.49715,0,0,0-.1836,1.86816,9.83367,9.83367,0,0,0,.10059,1.63477,3.64015,3.64015,0,0,0,.334,1.10254,1.49874,1.49874,0,0,0,.56738.624A1.55452,1.55452,0,0,0,127.69947,164.34628Z"/><path d="M134.1233,160.94492a6.29293,6.29293,0,0,1,.41406-2.39551,4.66259,4.66259,0,0,1,1.11133-1.66113,4.40426,4.40426,0,0,1,1.6211-.9668,6.02889,6.02889,0,0,1,1.94336-.31152,5.83162,5.83162,0,0,1,2.00781.32519,3.95649,3.95649,0,0,1,1.51562.97071,4.31115,4.31115,0,0,1,.959,1.60839,6.7927,6.7927,0,0,1,.334,2.22852,6.48773,6.48773,0,0,1-.41406,2.44726,4.52006,4.52006,0,0,1-1.11133,1.65723,4.30237,4.30237,0,0,1-1.61719.93555,6.307,6.307,0,0,1-1.9375.29492,5.76642,5.76642,0,0,1-2.00879-.33008,4.00533,4.00533,0,0,1-1.5166-.97558,4.35823,4.35823,0,0,1-.96191-1.60352A6.66877,6.66877,0,0,1,134.1233,160.94492Zm5.00195,3.84082a1.25737,1.25737,0,0,0,.71094-.19824,1.42088,1.42088,0,0,0,.49219-.63672,4.25854,4.25854,0,0,0,.28613-1.14258,13.44871,13.44871,0,0,0,.09278-1.71387,18.19914,18.19914,0,0,0-.084-1.88574,5.36035,5.36035,0,0,0-.27734-1.30078,1.68412,1.68412,0,0,0-.50977-.75977,1.22164,1.22164,0,0,0-.77344-.24609,1.2799,1.2799,0,0,0-.71582.19726,1.46309,1.46309,0,0,0-.50488.6377,4.10544,4.10544,0,0,0-.29883,1.1377,12.82383,12.82383,0,0,0-.09765,1.71875,16.46524,16.46524,0,0,0,.09277,1.88476,5.44874,5.44874,0,0,0,.29,1.30078,1.698,1.698,0,0,0,.51855.76074A1.24151,1.24151,0,0,0,139.12525,164.78574Z"/><path d="M149.803,162.50937q-.37792,0-.71582-.02246-.33838-.022-.64551-.06543a1.05666,1.05666,0,0,0-.1582.29,1.08739,1.08739,0,0,0-.0625.37793.91038.91038,0,0,0,.10156.457.65625.65625,0,0,0,.33789.27246,2.22821,2.22821,0,0,0,.625.13184c.25781.02343.57617.03515.957.03515h1.66992a8.83227,8.83227,0,0,1,1.73243.14942,3.40892,3.40892,0,0,1,1.23046.47851,2.06822,2.06822,0,0,1,.73829.85742,3.02,3.02,0,0,1,.24609,1.28321,2.93532,2.93532,0,0,1-.50586,1.6914,4.25673,4.25673,0,0,1-1.33984,1.24805,6.80435,6.80435,0,0,1-1.89844.76953,9.06818,9.06818,0,0,1-2.18945.26367h-.00782a9.26256,9.26256,0,0,1-2.20214-.22461,4.48274,4.48274,0,0,1-1.46778-.61523,2.36594,2.36594,0,0,1-.82226-.92676,2.68662,2.68662,0,0,1-.25391-1.16894,1.79582,1.79582,0,0,1,.14844-.7168,2.2753,2.2753,0,0,1,.40918-.63281,3.0304,3.0304,0,0,1,.59765-.50488,2.79185,2.79185,0,0,1,.71582-.334,2.18309,2.18309,0,0,1-.834-.68555,1.6258,1.6258,0,0,1-.291-.958,1.8157,1.8157,0,0,1,.33887-1.10352,3.26466,3.26466,0,0,1,.86621-.80371,2.76223,2.76223,0,0,1-1.34082-1.165,3.63787,3.63787,0,0,1-.40918-1.7793,2.85793,2.85793,0,0,1,.36133-1.42382,3.46918,3.46918,0,0,1,.98828-1.10352,4.79483,4.79483,0,0,1,1.48535-.71582,6.49141,6.49141,0,0,1,1.8584-.25488h.00977a5.76819,5.76819,0,0,1,3.39257.7998,1.78048,1.78048,0,0,1,.3418-.30762,2.64766,2.64766,0,0,1,.48828-.26855,3.22715,3.22715,0,0,1,.61524-.18848,3.46567,3.46567,0,0,1,.707-.07031h.44922v2.10059h-1.70508a3.96034,3.96034,0,0,1,.17578,1.2041,3.14919,3.14919,0,0,1-.334,1.43652,3.42637,3.42637,0,0,1-.94922,1.15137,4.61469,4.61469,0,0,1-1.49024.76465,6.45852,6.45852,0,0,1-1.95508.27734Zm-.58789,3.51563c-.13477,0-.26758-.00489-.39649-.01368s-.25195-.01855-.36914-.03027a1.60917,1.60917,0,0,0-.31152.44336,1.83611,1.83611,0,0,0-.14551.81348,2.8948,2.8948,0,0,0,.1543,1.01953,1.49284,1.49284,0,0,0,.44336.6416,1.71134,1.71134,0,0,0,.71289.334,4.29714,4.29714,0,0,0,.957.09668h.00977a4.02115,4.02115,0,0,0,.9707-.11914,2.83854,2.83854,0,0,0,.86133-.36426,2.05472,2.05472,0,0,0,.61914-.61132,1.55093,1.55093,0,0,0,.23828-.86524,2.06844,2.06844,0,0,0-.084-.6289.84239.84239,0,0,0-.28515-.417,1.30377,1.30377,0,0,0-.54981-.22851,4.468,4.468,0,0,0-.86621-.07031Zm.79883-4.73731h.00976a1.09428,1.09428,0,0,0,.668-.18945,1.27414,1.27414,0,0,0,.39942-.50488,2.4188,2.4188,0,0,0,.19335-.7295,7.41269,7.41269,0,0,0,.04786-.86133,3.25105,3.25105,0,0,0-.31641-1.66113,1.16866,1.16866,0,0,0-1.07227-.501h-.00781a1.37528,1.37528,0,0,0-.668.14453,1.09064,1.09064,0,0,0-.42187.418,1.90684,1.90684,0,0,0-.22071.668,5.81829,5.81829,0,0,0-.06054.8877,6.16037,6.16037,0,0,0,.07031.98437,2.22536,2.22536,0,0,0,.23633.7295,1.16262,1.16262,0,0,0,.44922.457A1.39484,1.39484,0,0,0,150.01393,161.28769Z"/><path d="M121.06275,242.38242V229.93711l-1.248-.2461v-1.125l3.68359-.457h.03516l.61523.38672v5.15039a3.93736,3.93736,0,0,1,.48242-.39063,3.46486,3.46486,0,0,1,.61133-.334,3.95088,3.95088,0,0,1,.72461-.22852,3.87463,3.87463,0,0,1,.81836-.084,4.33528,4.33528,0,0,1,1.51172.25977,3.00223,3.00223,0,0,1,1.2207.84375,4.2129,4.2129,0,0,1,.82227,1.52929,7.65358,7.65358,0,0,1,.30273,2.31543,6.51626,6.51626,0,0,1-.35547,2.17969,5.10847,5.10847,0,0,1-1.02832,1.75391,4.70965,4.70965,0,0,1-1.64746,1.16406,5.51159,5.51159,0,0,1-2.207.42187,15.8733,15.8733,0,0,1-1.71777-.083q-.76026-.0835-1.30957-.19825a6.75491,6.75491,0,0,1-.87891-.23242A3.16685,3.16685,0,0,1,121.06275,242.38242Zm4.44727-8.042a2.09305,2.09305,0,0,0-.80859.14941,1.41841,1.41841,0,0,0-.55274.37793v6.5918a.85429.85429,0,0,0,.4043.24609,1.99723,1.99723,0,0,0,.668.10547,1.441,1.441,0,0,0,.97949-.34668,2.48033,2.48033,0,0,0,.6416-.90527,5.1823,5.1823,0,0,0,.35156-1.26172,9.208,9.208,0,0,0,.10938-1.42383,11.55953,11.55953,0,0,0-.083-1.4541,3.96763,3.96763,0,0,0-.29-1.11621,1.7178,1.7178,0,0,0-.55371-.71192A1.44291,1.44291,0,0,0,125.51,234.34043Z"/><path d="M131.95338,242.87461v-1.292l1.20312-.18457V234.9205l-1.168-.36035v-1.46777l3.50586-.46582h.04492l.7207.4043V241.398l1.20313.18457v1.292Zm2.44336-11.63672a1.34345,1.34345,0,0,1-.58984-.12305,1.22817,1.22817,0,0,1-.42579-.334,1.46923,1.46923,0,0,1-.25976-.48731,1.92316,1.92316,0,0,1-.08789-.585,2.32712,2.32712,0,0,1,.10156-.69434,1.6204,1.6204,0,0,1,.30273-.5664,1.43856,1.43856,0,0,1,.50586-.38282,1.69129,1.69129,0,0,1,.7168-.14062h.00781a1.68744,1.68744,0,0,1,.67774.12305,1.30138,1.30138,0,0,1,.73828.80859,1.87839,1.87839,0,0,1,.08789.58008,2.40474,2.40474,0,0,1-.10156.708,1.45818,1.45818,0,0,1-.86524.95312,2.06061,2.06061,0,0,1-.80078.14063Z"/><path d="M138.64088,242.87461v-1.292l1.17773-.18457V234.9205l-1.17773-.35156v-1.47656l3.2793-.46582h.05273l.49219.4043V235.36h.043a5.1786,5.1786,0,0,1,.40918-.84375,4.88446,4.88446,0,0,1,.68066-.90039,3.93757,3.93757,0,0,1,.91406-.7168,2.18857,2.18857,0,0,1,1.09961-.29,3.42362,3.42362,0,0,1,.457.02246,1.28355,1.28355,0,0,1,.2461.05664v3.498a1.5596,1.5596,0,0,0-.58008-.17969,6.51294,6.51294,0,0,0-1.14258-.084,4.69651,4.69651,0,0,0-.4707.02636c-.17285.01758-.3418.04-.50586.06641a3.54541,3.54541,0,0,0-.43945.09668,1.07726,1.07726,0,0,0-.27149.10937V241.398l2.0918.23731v1.23926Z"/><path d="M151.06861,243.068a3.9724,3.9724,0,0,1-1.542-.29394,3.17588,3.17588,0,0,1-1.22168-.90527,4.38874,4.38874,0,0,1-.80469-1.54688,7.54314,7.54314,0,0,1-.28906-2.21973,6.68244,6.68244,0,0,1,.35547-2.23242,4.9194,4.9194,0,0,1,1.02832-1.73535,4.59082,4.59082,0,0,1,1.64356-1.125,5.76533,5.76533,0,0,1,2.21093-.40039,5.99765,5.99765,0,0,1,.6543.03516q.32081.03515.61133.09668V229.902l-1.54688-.3252v-1.08984l3.97266-.37793h.043l.61523.46582V241.565h.93164v1.20411q-.4746.09668-1.07226.20214a7.6533,7.6533,0,0,1-1.32617.10547,1.35215,1.35215,0,0,1-.90137-.27246,1.14176,1.14176,0,0,1-.32129-.91406v-.334a3.11338,3.11338,0,0,1-.51367.58886,3.476,3.476,0,0,1-.68946.4795,3.80749,3.80749,0,0,1-.84863.32519A3.96354,3.96354,0,0,1,151.06861,243.068Zm1.27539-1.72265a2.0702,2.0702,0,0,0,.8125-.15332,1.51476,1.51476,0,0,0,.5586-.374v-6.60937a1.19091,1.19091,0,0,0-.42676-.23731,2.01735,2.01735,0,0,0-.66309-.09667,1.67989,1.67989,0,0,0-.791.19335,1.734,1.734,0,0,0-.65039.64649,3.89744,3.89744,0,0,0-.44922,1.2041,9.48575,9.48575,0,0,0-.18359,1.86719,9.83265,9.83265,0,0,0,.10058,1.63476,3.647,3.647,0,0,0,.334,1.10352,1.49874,1.49874,0,0,0,.56738.624A1.55405,1.55405,0,0,0,152.344,241.34531Z"/><path d="M120.18385,319.87461V318.609l1.38086-.27246v-6.8291H120.096v-1.169l1.46875-.43945v-.34277a4.45078,4.45078,0,0,1,.21094-1.39747,4.526,4.526,0,0,1,.57519-1.16894,4.70919,4.70919,0,0,1,.85254-.93555,5.32569,5.32569,0,0,1,1.041-.68554,5.50583,5.50583,0,0,1,1.13867-.42188,4.749,4.749,0,0,1,1.14648-.14551,3.17977,3.17977,0,0,1,.69043.05762c.16113.03809.27442.06836.33887.0918v2.96191a1.76305,1.76305,0,0,0-.374-.29,3.09986,3.09986,0,0,0-.51465-.24609,3.723,3.723,0,0,0-.59766-.167,3.25365,3.25365,0,0,0-.623-.06153.76489.76489,0,0,0-.55859.21094,1.04507,1.04507,0,0,0-.21484.75586l.00781,1.78418h2.19726v1.6084h-2.19726V318.398l1.98633.21094v1.26563Z"/><path d="M127.91822,319.87461v-1.292l1.17774-.18457V311.9205l-1.17774-.35156v-1.47656l3.2793-.46582h.05273l.49219.4043V312.36h.043a5.1786,5.1786,0,0,1,.40918-.84375,4.88446,4.88446,0,0,1,.68066-.90039,3.93762,3.93762,0,0,1,.91407-.7168,2.18854,2.18854,0,0,1,1.09961-.29,3.42372,3.42372,0,0,1,.457.02246,1.28324,1.28324,0,0,1,.24609.05664v3.498a1.5596,1.5596,0,0,0-.58008-.17969,6.51274,6.51274,0,0,0-1.14257-.084,4.69654,4.69654,0,0,0-.47071.02636c-.17285.01758-.34179.04-.50586.06641a3.54582,3.54582,0,0,0-.43945.09668,1.077,1.077,0,0,0-.27148.10937V318.398l2.09179.23731v1.23926Z"/><path d="M136.45338,314.94394a6.28909,6.28909,0,0,1,.41211-2.39453,4.66453,4.66453,0,0,1,1.1123-1.66113,4.40823,4.40823,0,0,1,1.62207-.9668,6.01762,6.01762,0,0,1,1.94141-.3125,5.8371,5.8371,0,0,1,2.00879.3252,3.96208,3.96208,0,0,1,1.5166.97168,4.30756,4.30756,0,0,1,.957,1.60839,6.78632,6.78632,0,0,1,.334,2.22754,6.49485,6.49485,0,0,1-.41211,2.44824,4.51787,4.51787,0,0,1-1.11231,1.65625,4.30457,4.30457,0,0,1-1.61718.93653,6.31292,6.31292,0,0,1-1.93848.29394,5.76107,5.76107,0,0,1-2.00781-.3291,4.00153,4.00153,0,0,1-1.51563-.97558,4.36427,4.36427,0,0,1-.96289-1.6045A6.66976,6.66976,0,0,1,136.45338,314.94394Zm5,3.84082a1.26339,1.26339,0,0,0,.71289-.19726,1.42411,1.42411,0,0,0,.49219-.6377,4.262,4.262,0,0,0,.28515-1.14258,13.46907,13.46907,0,0,0,.0918-1.71386,18.20788,18.20788,0,0,0-.083-1.88477,5.36434,5.36434,0,0,0-.27636-1.30078,1.68756,1.68756,0,0,0-.50977-.76074,1.22159,1.22159,0,0,0-.77344-.2461,1.28366,1.28366,0,0,0-.71679.19824,1.46112,1.46112,0,0,0-.50586.63672,4.11252,4.11252,0,0,0-.29883,1.13868,12.84609,12.84609,0,0,0-.0957,1.71777,16.50716,16.50716,0,0,0,.09179,1.88574,5.44971,5.44971,0,0,0,.29,1.30078,1.69445,1.69445,0,0,0,.51856.75977A1.23868,1.23868,0,0,0,141.45338,318.78476Z"/><path d="M152.13307,316.50839q-.37794,0-.7168-.02148-.33839-.022-.64648-.06641a1.05668,1.05668,0,0,0-.15821.29,1.08851,1.08851,0,0,0-.06054.37793.9107.9107,0,0,0,.10058.457.65882.65882,0,0,0,.33887.27246,2.21241,2.21241,0,0,0,.62305.13184c.25781.02344.57812.03516.959.03516h1.66992a8.81126,8.81126,0,0,1,1.73047.14941,3.40935,3.40935,0,0,1,1.23047.47949,2.0656,2.0656,0,0,1,.73828.85645,3.01992,3.01992,0,0,1,.24609,1.2832,2.93757,2.93757,0,0,1-.50488,1.69238,4.26032,4.26032,0,0,1-1.34082,1.248,6.80326,6.80326,0,0,1-1.89844.76856,9.05216,9.05216,0,0,1-2.1875.26367h-.00976a9.25866,9.25866,0,0,1-2.20117-.22364,4.48274,4.48274,0,0,1-1.46778-.61523,2.3656,2.3656,0,0,1-.82129-.92773,2.688,2.688,0,0,1-.25586-1.16895,1.79344,1.79344,0,0,1,.1504-.71582,2.27173,2.27173,0,0,1,.4082-.63281,3.03478,3.03478,0,0,1,.59765-.50586,2.79833,2.79833,0,0,1,.7168-.334,2.19006,2.19006,0,0,1-.83594-.68554,1.6244,1.6244,0,0,1-.28906-.958,1.81221,1.81221,0,0,1,.33789-1.10254,3.26329,3.26329,0,0,1,.86524-.80469,2.75806,2.75806,0,0,1-1.33985-1.16406,3.64167,3.64167,0,0,1-.4082-1.78027,2.85653,2.85653,0,0,1,.35937-1.42383,3.46938,3.46938,0,0,1,.98926-1.10254,4.79638,4.79638,0,0,1,1.48535-.7168,6.49828,6.49828,0,0,1,1.85938-.25488h.00781a5.7682,5.7682,0,0,1,3.39258.7998,1.79588,1.79588,0,0,1,.34375-.30761,2.63606,2.63606,0,0,1,.4873-.26758,3.22609,3.22609,0,0,1,.61524-.18945,3.47461,3.47461,0,0,1,.708-.07032h.44726v2.10059h-1.70508a3.96038,3.96038,0,0,1,.17579,1.2041,3.1531,3.1531,0,0,1-.334,1.4375,3.42625,3.42625,0,0,1-.94922,1.15137,4.6093,4.6093,0,0,1-1.48926.76465,6.46586,6.46586,0,0,1-1.956.27636Zm-.58985,3.51563c-.13476,0-.26562-.00391-.39453-.0127s-.25195-.01953-.36914-.03125a1.61639,1.61639,0,0,0-.3125.44434,1.833,1.833,0,0,0-.14453.8125,2.8966,2.8966,0,0,0,.15332,1.01953,1.49452,1.49452,0,0,0,.44434.6416,1.70319,1.70319,0,0,0,.71093.334,4.316,4.316,0,0,0,.959.09668h.00781a4.028,4.028,0,0,0,.97168-.11817,2.8403,2.8403,0,0,0,.86133-.36523,2.05513,2.05513,0,0,0,.62012-.61035,1.55325,1.55325,0,0,0,.23632-.86621,2.06433,2.06433,0,0,0-.083-.62793.84679.84679,0,0,0-.28614-.418,1.29923,1.29923,0,0,0-.54882-.22852,4.45815,4.45815,0,0,0-.86524-.07031Zm.80078-4.73731h.00782a1.09408,1.09408,0,0,0,.668-.18847,1.27936,1.27936,0,0,0,.40039-.50586,2.41873,2.41873,0,0,0,.19336-.72949,7.41052,7.41052,0,0,0,.04882-.86133,3.251,3.251,0,0,0-.3164-1.66113,1.16864,1.16864,0,0,0-1.07227-.501h-.00976a1.375,1.375,0,0,0-.668.14551,1.08814,1.08814,0,0,0-.42188.417,1.90683,1.90683,0,0,0-.21875.668,5.80273,5.80273,0,0,0-.0625.88769,6.15934,6.15934,0,0,0,.07032.98438,2.2248,2.2248,0,0,0,.23828.72949,1.15794,1.15794,0,0,0,.44726.457A1.40262,1.40262,0,0,0,152.344,315.28671Z"/><path d="M121.06275,396.38242V383.93711l-1.248-.2461v-1.125l3.68359-.457h.03516l.61523.38672v5.15039a3.93736,3.93736,0,0,1,.48242-.39063,3.46486,3.46486,0,0,1,.61133-.334,3.95088,3.95088,0,0,1,.72461-.22852,3.87463,3.87463,0,0,1,.81836-.084,4.33528,4.33528,0,0,1,1.51172.25977,3.00223,3.00223,0,0,1,1.2207.84375,4.2129,4.2129,0,0,1,.82227,1.52929,7.65358,7.65358,0,0,1,.30273,2.31543,6.51626,6.51626,0,0,1-.35547,2.17969,5.10847,5.10847,0,0,1-1.02832,1.75391,4.70965,4.70965,0,0,1-1.64746,1.16406,5.51159,5.51159,0,0,1-2.207.42187,15.8733,15.8733,0,0,1-1.71777-.083q-.76026-.0835-1.30957-.19825a6.75491,6.75491,0,0,1-.87891-.23242A3.16685,3.16685,0,0,1,121.06275,396.38242Zm4.44727-8.042a2.09305,2.09305,0,0,0-.80859.14941,1.41841,1.41841,0,0,0-.55274.37793v6.5918a.85429.85429,0,0,0,.4043.24609,1.99723,1.99723,0,0,0,.668.10547,1.441,1.441,0,0,0,.97949-.34668,2.48033,2.48033,0,0,0,.6416-.90527,5.1823,5.1823,0,0,0,.35156-1.26172,9.208,9.208,0,0,0,.10938-1.42383,11.55953,11.55953,0,0,0-.083-1.4541,3.96763,3.96763,0,0,0-.29-1.11621,1.7178,1.7178,0,0,0-.55371-.71192A1.44291,1.44291,0,0,0,125.51,388.34043Z"/><path d="M131.95338,396.87461v-1.292l1.20312-.18457V388.9205l-1.168-.36035v-1.46777l3.50586-.46582h.04492l.7207.4043V395.398l1.20313.18457v1.292Zm2.44336-11.63672a1.34345,1.34345,0,0,1-.58984-.123,1.22817,1.22817,0,0,1-.42579-.334,1.46923,1.46923,0,0,1-.25976-.48731,1.92316,1.92316,0,0,1-.08789-.585,2.32712,2.32712,0,0,1,.10156-.69434,1.6204,1.6204,0,0,1,.30273-.5664,1.43856,1.43856,0,0,1,.50586-.38282,1.69129,1.69129,0,0,1,.7168-.14062h.00781a1.68744,1.68744,0,0,1,.67774.123,1.30138,1.30138,0,0,1,.73828.80859,1.87839,1.87839,0,0,1,.08789.58008,2.40474,2.40474,0,0,1-.10156.708,1.45818,1.45818,0,0,1-.86524.95312,2.06061,2.06061,0,0,1-.80078.14063Z"/><path d="M138.64088,396.87461v-1.292l1.17773-.18457V388.9205l-1.17773-.35156v-1.47656l3.2793-.46582h.05273l.49219.4043V389.36h.043a5.1786,5.1786,0,0,1,.40918-.84375,4.88446,4.88446,0,0,1,.68066-.90039,3.93757,3.93757,0,0,1,.91406-.7168,2.18857,2.18857,0,0,1,1.09961-.29,3.42362,3.42362,0,0,1,.457.02246,1.28355,1.28355,0,0,1,.2461.05664v3.498a1.5596,1.5596,0,0,0-.58008-.17969,6.51294,6.51294,0,0,0-1.14258-.084,4.69651,4.69651,0,0,0-.4707.02636c-.17285.01758-.3418.04-.50586.06641a3.54541,3.54541,0,0,0-.43945.09668,1.07726,1.07726,0,0,0-.27149.10937V395.398l2.0918.23731v1.23926Z"/><path d="M151.06861,397.068a3.9724,3.9724,0,0,1-1.542-.29394,3.17588,3.17588,0,0,1-1.22168-.90527,4.38874,4.38874,0,0,1-.80469-1.54688,7.54314,7.54314,0,0,1-.28906-2.21973,6.68244,6.68244,0,0,1,.35547-2.23242,4.9194,4.9194,0,0,1,1.02832-1.73535,4.59082,4.59082,0,0,1,1.64356-1.125,5.76533,5.76533,0,0,1,2.21093-.40039,5.99765,5.99765,0,0,1,.6543.03516q.32081.03515.61133.09668V383.902l-1.54688-.3252v-1.08984l3.97266-.37793h.043l.61523.46582V395.565h.93164v1.20411q-.4746.09668-1.07226.20214a7.6533,7.6533,0,0,1-1.32617.10547,1.35215,1.35215,0,0,1-.90137-.27246,1.14176,1.14176,0,0,1-.32129-.91406v-.334a3.11338,3.11338,0,0,1-.51367.58886,3.476,3.476,0,0,1-.68946.4795,3.80749,3.80749,0,0,1-.84863.32519A3.96354,3.96354,0,0,1,151.06861,397.068Zm1.27539-1.72265a2.0702,2.0702,0,0,0,.8125-.15332,1.51476,1.51476,0,0,0,.5586-.374v-6.60937a1.19091,1.19091,0,0,0-.42676-.23731,2.01735,2.01735,0,0,0-.66309-.09667,1.67989,1.67989,0,0,0-.791.19335,1.734,1.734,0,0,0-.65039.64649,3.89744,3.89744,0,0,0-.44922,1.2041,9.48575,9.48575,0,0,0-.18359,1.86719,9.83265,9.83265,0,0,0,.10058,1.63476,3.647,3.647,0,0,0,.334,1.10352,1.49874,1.49874,0,0,0,.56738.624A1.55405,1.55405,0,0,0,152.344,395.34531Z"/><path d="M125.87525,468.93515a6.34424,6.34424,0,0,1,.36524-2.22363,4.77169,4.77169,0,0,1,1.02734-1.67481,4.47225,4.47225,0,0,1,1.59571-1.05859,5.56174,5.56174,0,0,1,2.06543-.36914,9.9435,9.9435,0,0,1,1.2041.06543c.35742.04395.67187.09668.94531.1582.27148.06153.50391.12305.69336.18457.19141.06153.34473.10743.46191.13672l-.08789,3.2168h-1.73144l-.5625-1.59082a1.96953,1.96953,0,0,0-.42188-.6416.84.84,0,0,0-.60644-.23731,1.26645,1.26645,0,0,0-.65039.17969,1.53421,1.53421,0,0,0-.54.58887,3.73337,3.73337,0,0,0-.374,1.07715,8.18837,8.18837,0,0,0-.14062,1.65234,9.53081,9.53081,0,0,0,.13574,1.74023,3.18229,3.18229,0,0,0,.42676,1.15137,1.64712,1.64712,0,0,0,.72949.62793,2.61136,2.61136,0,0,0,1.03711.18945,4.3511,4.3511,0,0,0,1.40234-.19824,5.32557,5.32557,0,0,0,.98829-.44336l.501,1.18653a3.23655,3.23655,0,0,1-.501.42187,5.23977,5.23977,0,0,1-.81739.46973,6.08706,6.08706,0,0,1-1.06738.37793,5.01829,5.01829,0,0,1-1.26172.15429,5.65144,5.65144,0,0,1-2.20605-.38672,3.91725,3.91725,0,0,1-1.49414-1.07226,4.32366,4.32366,0,0,1-.84864-1.63086A7.52969,7.52969,0,0,1,125.87525,468.93515Z"/><path d="M135.27076,471.18515a2.66621,2.66621,0,0,1,.2334-1.14258,2.85674,2.85674,0,0,1,.63672-.88379,3.818,3.818,0,0,1,.95312-.65039,6.62863,6.62863,0,0,1,1.1875-.43945,9.44338,9.44338,0,0,1,1.33106-.25488,12.999,12.999,0,0,1,1.38867-.0918v-.4043a1.68123,1.68123,0,0,0-.41308-1.27929,1.81143,1.81143,0,0,0-1.26563-.38184,6.54207,6.54207,0,0,0-.95312.07031c-.32032.04688-.626.10547-.919.17579s-.56543.14746-.81738.23242-.46875.16894-.65039.251h-.00879l-.58008-1.35351a4.83674,4.83674,0,0,1,.6416-.38672,8.13438,8.13438,0,0,1,1.08106-.46191,11.35136,11.35136,0,0,1,1.415-.39063,7.8994,7.8994,0,0,1,1.65235-.167,5.68009,5.68009,0,0,1,1.70117.22363,2.824,2.824,0,0,1,1.15527.668,2.63268,2.63268,0,0,1,.65528,1.11621,5.39616,5.39616,0,0,1,.20605,1.56934v5.37011h1.08985v1.19532c-.11133.02343-.251.05273-.417.08789-.168.03515-.35742.06836-.57226.10058q-.31933.04835-.70313.084c-.2539.02343-.52539.03515-.8125.03515a4.91037,4.91037,0,0,1-.59765-.03125.89776.89776,0,0,1-.39063-.127.53831.53831,0,0,1-.21094-.27734,1.39815,1.39815,0,0,1-.0664-.47852v-.60644a3.71764,3.71764,0,0,1-.43555.51855,3.111,3.111,0,0,1-.63672.49219,3.83426,3.83426,0,0,1-.84375.36426,3.59962,3.59962,0,0,1-1.05469.1455,3.90581,3.90581,0,0,1-1.17773-.17187,2.59575,2.59575,0,0,1-.94531-.52246,2.41944,2.41944,0,0,1-.62793-.90137A3.35877,3.35877,0,0,1,135.27076,471.18515Zm4.377,1.01074a1.4757,1.4757,0,0,0,.30371-.04,2.834,2.834,0,0,0,.36914-.10938,2.73424,2.73424,0,0,0,.36914-.17187,1.43962,1.43962,0,0,0,.31152-.23243v-2.751a4.621,4.621,0,0,0-1.25293.14453,2.22113,2.22113,0,0,0-.80371.3916,1.4077,1.4077,0,0,0-.42676.57129,1.88193,1.88193,0,0,0-.12695.68555,1.83736,1.83736,0,0,0,.29883,1.09375A1.09727,1.09727,0,0,0,139.64772,472.19589Z"/><path d="M146.79322,471.651v-6.28418h-1.22168v-1.08105c.02344-.01172.08887-.03711.19825-.0752.10742-.03808.22265-.082.34179-.13183.1211-.04981.23242-.09473.334-.13575a1.33363,1.33363,0,0,0,.16308-.07031,3.81427,3.81427,0,0,0,.70313-.94922,9.044,9.044,0,0,0,.39941-.86621q.208-.50536.35645-.97949h1.80176l.03515,2.68066H152.304v1.6084h-2.39942v4.67578c0,.44532.00781.80079.02149,1.06739a2.20084,2.20084,0,0,0,.10156.61132.4462.4462,0,0,0,.2373.27637,1.14448,1.14448,0,0,0,.43067.06641h.00879a2.46028,2.46028,0,0,0,.40429-.03516c.14063-.02344.27832-.05176.41309-.084s.26172-.06739.38281-.10547c.11914-.03809.21778-.07129.29395-.10059h.00879l.46582,1.125a5.29441,5.29441,0,0,1-.67286.43946,5.70748,5.70748,0,0,1-.86523.39062,6.88561,6.88561,0,0,1-1.01074.27734,5.77087,5.77087,0,0,1-1.11621.10547h-.01758a2.822,2.822,0,0,1-1.06836-.17578,1.63443,1.63443,0,0,1-.67578-.49219,1.85238,1.85238,0,0,1-.35156-.76464A4.46161,4.46161,0,0,1,146.79322,471.651Z"/><path d="M209.94361,96.87558v-.81152l1.53125-.15039V89.55429l-1.36914.124-.41406,2.33105h-1.11133l.15528-3.30859h7.36425l.17676,3.30859h-1.11719l-.41894-2.33105-1.31055-.124v6.35938l1.60547.15039v.81152Z"/><path d="M216.85182,96.87558v-.81152l.86914-.14453V89.66171l-.85352-.17187v-.78906h1.78321c.18261,0,.34472-.00391.48632-.01075.14063-.00781.28321-.01464.42676-.02148.14356-.00781.29785-.01465.46192-.02148.16406-.00782.35742-.01075.58007-.01075a6.22267,6.22267,0,0,1,1.41211.13672,2.46932,2.46932,0,0,1,.92774.40528,1.50577,1.50577,0,0,1,.5039.66894,2.59248,2.59248,0,0,1,.15332.92676,2.89983,2.89983,0,0,1-.08593.6875,2.35123,2.35123,0,0,1-.27442.666,2.02549,2.02549,0,0,1-.48828.54786,1.85541,1.85541,0,0,1-.73047.33789,1.36851,1.36851,0,0,1,.54785.35742,3.16839,3.16839,0,0,1,.4209.56152,5.57321,5.57321,0,0,1,.334.64942c.09765.22558.18945.43359.27343.623a3.90493,3.90493,0,0,0,.25.4834.4582.4582,0,0,0,.26368.23145l.46093.14453v.81152h-2.19629q-.12889,0-.26074-.22851a4.14941,4.14941,0,0,1-.26758-.58008c-.09179-.23438-.1875-.49414-.28515-.77832q-.14794-.42774-.3125-.81934a6.06238,6.06238,0,0,0-.33985-.69824,1.185,1.185,0,0,0-.37109-.42481c-.08984,0-.18164-.001-.27734-.00195-.09375-.00195-.1836-.0039-.26758-.00586s-.1582-.0039-.22266-.00488c-.06445-.002-.11328-.00293-.14551-.00293v2.58887l.89747.14453v.81152Zm2.77636-4.335a.63932.63932,0,0,0,.14551.02441c.06446.00586.13281.00782.207.00782h.38282a1.122,1.122,0,0,0,.92382-.419,2.088,2.088,0,0,0,.33887-1.32129,1.48364,1.48364,0,0,0-.34082-1.0791,1.41524,1.41524,0,0,0-1.04492-.34375,3.66825,3.66825,0,0,0-.41016.01563q-.12744.01611-.20215.03222Z"/><path d="M228.64088,96.96152a3.6203,3.6203,0,0,1-2.57031-.82227,3.37533,3.37533,0,0,1-.87305-2.56738v-3.9043l-.73535-.17773v-.78906h3.71191v.78906l-.94531.17187v4.125a4.42768,4.42768,0,0,0,.09961.98047,2.38254,2.38254,0,0,0,.292.74707,1.395,1.395,0,0,0,.47754.47461,1.27354,1.27354,0,0,0,.65625.167,1.59326,1.59326,0,0,0,1.41406-.74415,2.303,2.303,0,0,0,.31446-.76757,4.07182,4.07182,0,0,0,.09765-.88965V89.66171l-.94043-.17187v-.78906h2.84668v.78906l-.709.17187v4.04981a4.09994,4.09994,0,0,1-.23633,1.47461,2.6868,2.6868,0,0,1-.65527,1.00976,2.57152,2.57152,0,0,1-.99317.58008A4.04921,4.04921,0,0,1,228.64088,96.96152Z"/><path d="M233.02369,96.87558v-.8164l.87012-.14551v-6.2461l-.86426-.17773v-.78906h6.10156l.11719,1.96h-1.041l-.41407-1.06836-1.93945-.12891v2.84668l1.21973-.02148.16113-.91309h1.03125v2.71778h-1.03125l-.16113-.90821-1.21973-.02148v2.81445l2.39648-.12891.67579-1.46582,1.03711.21485-.30079,2.27734Z"/><rect class="d" x="19.00664" y="124.22127" width="70" height="70"/><path d="M47.50025,169.235a5.86485,5.86485,0,0,0,.6875.17675c.25879.05176.53321.09668.82032.13477q.43212.05566.88476.085c.30274.01856.59961.02832.89258.02832a7.2798,7.2798,0,0,0,2.209-.31152,4.87639,4.87639,0,0,0,1.65625-.87793,3.8112,3.8112,0,0,0,1.041-1.35254,4.11205,4.11205,0,0,0,.36133-1.73438,3.8613,3.8613,0,0,0-.17774-1.126,3.04973,3.04973,0,0,0-.58691-1.083,3.42886,3.42886,0,0,0-1.07617-.84277,4.03113,4.03113,0,0,0-1.64258-.40332l-1.91113.31152-.84961-2.23731a6.59927,6.59927,0,0,0,1.25976-.30468q.63722-.21973,1.16114-.418a6.28514,6.28514,0,0,0,1.45215-.793,4.64218,4.64218,0,0,0,.98339-.9834,3.74961,3.74961,0,0,0,.55957-1.13281,4.39971,4.39971,0,0,0,.17676-1.23926,2.78069,2.78069,0,0,0-.21972-1.16113,2.16043,2.16043,0,0,0-.5879-.78613,2.39036,2.39036,0,0,0-.82812-.44629,3.24892,3.24892,0,0,0-.95508-.14161,6.82581,6.82581,0,0,0-2.34375.36133,7.64814,7.64814,0,0,0-1.8623.99805L47.42994,151.86a6.11413,6.11413,0,0,1,1.01953-.77832,10.29964,10.29964,0,0,1,1.53516-.793,12.0968,12.0968,0,0,1,1.91211-.61621,9.23809,9.23809,0,0,1,2.14551-.24805,10.13606,10.13606,0,0,1,2.5205.29785,5.81218,5.81218,0,0,1,2.00391.91309,4.42614,4.42614,0,0,1,1.32422,1.53613,4.6558,4.6558,0,0,1,.48047,2.18066,5.96755,5.96755,0,0,1-1.2461,3.85157,8.68168,8.68168,0,0,1-3.61035,2.5205,7.47723,7.47723,0,0,1,2.542.291,5.17969,5.17969,0,0,1,1.834.97656,4.11231,4.11231,0,0,1,1.11133,1.48731,4.48173,4.48173,0,0,1,.375,1.81933,6.51329,6.51329,0,0,1-.623,2.83887,6.20974,6.20974,0,0,1-1.88281,2.27246,9.56916,9.56916,0,0,1-3.13672,1.51563,15.58844,15.58844,0,0,1-4.38281.55175c-.33008,0-.67774-.01367-1.041-.042s-.7168-.06836-1.0625-.12012c-.34375-.05273-.667-.11328-.96875-.18457a7.50913,7.50913,0,0,1-.7793-.21972Z"/><path d="M209.94361,173.87558v-.81152l1.53125-.15039v-6.35938l-1.36914.124-.41406,2.331h-1.11133l.15528-3.30859h7.36425l.17676,3.30859h-1.11719l-.41894-2.331-1.31055-.124v6.35938l1.60547.15039v.81152Z"/><path d="M216.85182,173.87558v-.81152l.86914-.14453v-6.25782l-.85352-.17187v-.78906h1.78321c.18261,0,.34472-.00391.48632-.01075.14063-.00781.28321-.01464.42676-.02148.14356-.00781.29785-.01465.46192-.02148.16406-.00782.35742-.01075.58007-.01075a6.22267,6.22267,0,0,1,1.41211.13672,2.46932,2.46932,0,0,1,.92774.40528,1.50577,1.50577,0,0,1,.5039.66894,2.59248,2.59248,0,0,1,.15332.92676,2.89983,2.89983,0,0,1-.08593.6875,2.35123,2.35123,0,0,1-.27442.666,2.02549,2.02549,0,0,1-.48828.54786,1.85541,1.85541,0,0,1-.73047.33789,1.36851,1.36851,0,0,1,.54785.35742,3.16839,3.16839,0,0,1,.4209.56152,5.57321,5.57321,0,0,1,.334.64942c.09765.22558.18945.43359.27343.623a3.90493,3.90493,0,0,0,.25.4834.4582.4582,0,0,0,.26368.23145l.46093.14453v.81152h-2.19629q-.12889,0-.26074-.22851a4.14941,4.14941,0,0,1-.26758-.58008c-.09179-.23438-.1875-.49414-.28515-.77832q-.14794-.42774-.3125-.81934a6.06238,6.06238,0,0,0-.33985-.69824,1.185,1.185,0,0,0-.37109-.42481c-.08984,0-.18164-.001-.27734-.00195-.09375-.002-.1836-.0039-.26758-.00586s-.1582-.0039-.22266-.00488c-.06445-.00195-.11328-.00293-.14551-.00293v2.58887l.89747.14453v.81152Zm2.77636-4.335a.63932.63932,0,0,0,.14551.02441c.06446.00586.13281.00782.207.00782h.38282a1.122,1.122,0,0,0,.92382-.41895,2.088,2.088,0,0,0,.33887-1.32129,1.48364,1.48364,0,0,0-.34082-1.0791,1.41524,1.41524,0,0,0-1.04492-.34375,3.66825,3.66825,0,0,0-.41016.01563q-.12744.01611-.20215.03222Z"/><path d="M228.64088,173.96152a3.6203,3.6203,0,0,1-2.57031-.82227,3.37533,3.37533,0,0,1-.87305-2.56738v-3.9043l-.73535-.17773v-.78906h3.71191v.78906l-.94531.17187v4.125a4.42768,4.42768,0,0,0,.09961.98047,2.38254,2.38254,0,0,0,.292.74707,1.395,1.395,0,0,0,.47754.47461,1.27354,1.27354,0,0,0,.65625.167,1.59326,1.59326,0,0,0,1.41406-.74415,2.303,2.303,0,0,0,.31446-.76757,4.07182,4.07182,0,0,0,.09765-.88965v-4.09278l-.94043-.17187v-.78906h2.84668v.78906l-.709.17187v4.04981a4.09994,4.09994,0,0,1-.23633,1.47461,2.6868,2.6868,0,0,1-.65527,1.00976,2.57152,2.57152,0,0,1-.99317.58008A4.04921,4.04921,0,0,1,228.64088,173.96152Z"/><path d="M233.02369,173.87558v-.8164l.87012-.14551v-6.2461l-.86426-.17773v-.78906h6.10156l.11719,1.96h-1.041l-.41407-1.06836-1.93945-.12891v2.84668l1.21973-.02148.16113-.91309h1.03125v2.71778h-1.03125l-.16113-.90821-1.21973-.02148v2.81445l2.39648-.12891.67579-1.46582,1.03711.21485-.30079,2.27734Z"/><rect class="d" x="19.00664" y="201.22127" width="70" height="70"/><path d="M40.92994,244.87558v-1.91211l3.07227-.39648V231.40878q-.25488.05713-.666.14161-.41016.085-.85547.15625c-.29882.04687-.58789.08984-.87109.12695q-.4248.05714-.709.07129l-.36719-2.46387a10.43082,10.43082,0,0,0,1.69922-.49609,14.09051,14.09051,0,0,0,1.62793-.74317,16.64827,16.64827,0,0,0,1.458-.87793,14.577,14.577,0,0,0,1.20411-.89941h.01464l2.5625.43945V242.567l2.917.39648v1.91211Z"/><path d="M53.91432,246.235a5.86382,5.86382,0,0,0,.6875.17675c.25879.05176.5332.09668.82031.13477q.43213.05566.88477.085c.30273.01856.5996.02832.89257.02832a7.2798,7.2798,0,0,0,2.209-.31152,4.87629,4.87629,0,0,0,1.65625-.87793,3.8112,3.8112,0,0,0,1.041-1.35254,4.11205,4.11205,0,0,0,.36133-1.73438,3.86161,3.86161,0,0,0-.17773-1.126,3.04975,3.04975,0,0,0-.58692-1.083,3.42875,3.42875,0,0,0-1.07617-.84277,4.03109,4.03109,0,0,0-1.64258-.40332l-1.91113.31152-.84961-2.23731a6.59954,6.59954,0,0,0,1.25977-.30468q.6372-.21973,1.16113-.418a6.28493,6.28493,0,0,0,1.45215-.793,4.64248,4.64248,0,0,0,.9834-.9834,3.75008,3.75008,0,0,0,.55957-1.13281,4.40006,4.40006,0,0,0,.17675-1.23926,2.78069,2.78069,0,0,0-.21972-1.16113,2.16052,2.16052,0,0,0-.58789-.78613,2.39049,2.39049,0,0,0-.82813-.44629,3.24892,3.24892,0,0,0-.95508-.14161,6.82581,6.82581,0,0,0-2.34375.36133,7.64814,7.64814,0,0,0-1.8623.99805L53.844,228.86a6.11427,6.11427,0,0,1,1.01954-.77832,10.29951,10.29951,0,0,1,1.53515-.793,12.0968,12.0968,0,0,1,1.91211-.61621,9.23809,9.23809,0,0,1,2.14551-.24805,10.1362,10.1362,0,0,1,2.52051.29785,5.81221,5.81221,0,0,1,2.0039.91309,4.426,4.426,0,0,1,1.32422,1.53613,4.6558,4.6558,0,0,1,.48047,2.18066,5.9676,5.9676,0,0,1-1.24609,3.85157,8.68181,8.68181,0,0,1-3.61035,2.5205,7.47714,7.47714,0,0,1,2.542.291,5.17969,5.17969,0,0,1,1.834.97656,4.1122,4.1122,0,0,1,1.11133,1.48731,4.48173,4.48173,0,0,1,.375,1.81933,6.51329,6.51329,0,0,1-.623,2.83887,6.20974,6.20974,0,0,1-1.88281,2.27246,9.56916,9.56916,0,0,1-3.13672,1.51563,15.58839,15.58839,0,0,1-4.38281.55175c-.33008,0-.67773-.01367-1.041-.042s-.71679-.06836-1.0625-.12012c-.34375-.05273-.667-.11328-.96875-.18457a7.50817,7.50817,0,0,1-.77929-.21972Z"/><path d="M206.47486,250.87558v-.81152l.85938-.15039v-6.252l-.876-.17187v-.78906h6.23047l.10742,2.11621h-1.19238l-.44531-1.22461-1.86426-.09668v2.88379l1.18652-.01563.22071-.87011h1.00976v2.78711h-1.00976l-.22071-.94532-1.18652-.02148v2.59961l1.63281.15039v.81152Z"/><path d="M212.721,250.87558l-.00586-.81152.6875-.14453,2.51953-7.23535h1.9873l2.5459,7.22949.78418.15039v.81152h-3.78613v-.81152l.88086-.14453-.34961-1.18164h-2.77734l-.32227,1.18164.88086.14453v.81152Zm3.66308-6.47265-.92871,3.41113h2.25l-1.01562-3.41113-.166-.74122Z"/><path d="M221.261,250.87558v-.81152l.87011-.15039v-6.2461l-.86523-.17773v-.78906H225.176v.78906l-1.10059.17187v6.22559l1.99316-.11816L226.761,247.61l1.21386.13965-.333,3.126Z"/><path d="M231.51979,250.99863a5.76432,5.76432,0,0,1-.94825-.07227c-.292-.04785-.55273-.10156-.78418-.16113-.23046-.05859-.42968-.11328-.5957-.16406a2.09277,2.09277,0,0,0-.38476-.08594l.09179-2.06738h1.085l.24121,1.33691a1.028,1.028,0,0,0,.15918.13477,1.13567,1.13567,0,0,0,.24414.126,1.87729,1.87729,0,0,0,.33594.09375,2.15354,2.15354,0,0,0,.4209.03809,1.76953,1.76953,0,0,0,.60742-.08887,1.04806,1.04806,0,0,0,.38965-.23633.82793.82793,0,0,0,.209-.34668,1.35647,1.35647,0,0,0,.06152-.41308.97459.97459,0,0,0-.12012-.48047,1.53973,1.53973,0,0,0-.34961-.41406,3.6,3.6,0,0,0-.55859-.38672q-.32959-.19043-.749-.40039c-.207-.10352-.42968-.22754-.666-.37305a3.20023,3.20023,0,0,1-.65234-.53125,2.75,2.75,0,0,1-.49707-.73926,2.3286,2.3286,0,0,1-.19825-.99316,1.944,1.944,0,0,1,.71387-1.51758,2.7019,2.7019,0,0,1,.90527-.4834,4.09051,4.09051,0,0,1,1.28125-.17968,5.01432,5.01432,0,0,1,.73243.05371c.24609.03515.47558.07617.69043.12109.21484.04395.40527.08691.56933.12891.16406.041.28809.06836.37109.083l-.07031,1.874h-1.06836l-.19922-1.19727a.485.485,0,0,0-.13476-.09668,1.37446,1.37446,0,0,0-.21485-.08887,1.96018,1.96018,0,0,0-.26562-.06445,1.76249,1.76249,0,0,0-.28711-.02441,1.66223,1.66223,0,0,0-.53125.07519.99012.99012,0,0,0-.35547.19922.73746.73746,0,0,0-.19531.29,1.00966,1.00966,0,0,0-.0625.35449,1.031,1.031,0,0,0,.15039.55274,1.77585,1.77585,0,0,0,.4082.44629,4.21451,4.21451,0,0,0,.60157.38964q.34423.18458.73632.37793c.22266.11133.4502.23926.68457.38477a3.68533,3.68533,0,0,1,.64746.50488,2.47089,2.47089,0,0,1,.4834.65723,1.83114,1.83114,0,0,1,.18848.84375,2.68559,2.68559,0,0,1-.15625.875,2.1689,2.1689,0,0,1-.52148.82227,2.74029,2.74029,0,0,1-.96094.60644A4.03171,4.03171,0,0,1,231.51979,250.99863Z"/><path d="M235.35475,250.87558v-.8164l.87011-.14551v-6.2461l-.86523-.17773v-.78906h6.10156l.11914,1.96h-1.043l-.41308-1.06836-1.93848-.12891v2.84668l1.21875-.02148.16113-.91309h1.03125v2.71778h-1.03125l-.16113-.90821-1.21875-.02148v2.81445l2.39453-.12891.67774-1.46582,1.03613.21485-.30078,2.27734Z"/><rect class="d" x="19.00664" y="278.22127" width="70" height="70"/><path d="M42.89088,321.87558v-1.91211l3.07227-.39648V308.40878c-.16993.03809-.39063.085-.665.14161s-.55957.10839-.85645.15625c-.29785.04687-.58789.08984-.87109.127q-.42481.05714-.708.07129L42.4944,306.441a10.43043,10.43043,0,0,0,1.69921-.49609,14.17974,14.17974,0,0,0,1.62891-.74317,16.64848,16.64848,0,0,0,1.458-.87793,14.74466,14.74466,0,0,0,1.2041-.89941h.01367l2.5625.43945V319.567l2.918.39648v1.91211Z"/><path d="M55.72,321.87558v-1.91211l3.07324-.39648V308.40878c-.16992.03809-.39257.085-.666.14161s-.55957.10839-.85645.15625c-.29785.04687-.58789.08984-.87109.127-.2832.03809-.51856.06152-.708.07129L55.3235,306.441a10.43082,10.43082,0,0,0,1.69922-.49609,14.09051,14.09051,0,0,0,1.62793-.74317,16.52569,16.52569,0,0,0,1.459-.87793,14.55136,14.55136,0,0,0,1.20312-.89941h.01465l2.56348.43945V319.567l2.916.39648v1.91211Z"/><path d="M209.94361,327.87558v-.81152l1.53125-.15039v-6.35938l-1.36914.124-.41406,2.33105h-1.11133l.15528-3.30859h7.36425l.17676,3.30859h-1.11719l-.41894-2.33105-1.31055-.124v6.35938l1.60547.15039v.81152Z"/><path d="M216.85182,327.87558v-.81152l.86914-.14453v-6.25782l-.85352-.17187v-.78906h1.78321c.18261,0,.34472-.00391.48632-.01075.14063-.00781.28321-.01464.42676-.02148.14356-.00781.29785-.01465.46192-.02148.16406-.00782.35742-.01075.58007-.01075a6.22267,6.22267,0,0,1,1.41211.13672,2.46932,2.46932,0,0,1,.92774.40528,1.50577,1.50577,0,0,1,.5039.66894,2.59248,2.59248,0,0,1,.15332.92676,2.89983,2.89983,0,0,1-.08593.6875,2.35123,2.35123,0,0,1-.27442.666,2.02549,2.02549,0,0,1-.48828.54786,1.85541,1.85541,0,0,1-.73047.33789,1.36851,1.36851,0,0,1,.54785.35742,3.16839,3.16839,0,0,1,.4209.56152,5.57321,5.57321,0,0,1,.334.64942c.09765.22558.18945.43359.27343.623a3.90493,3.90493,0,0,0,.25.4834.4582.4582,0,0,0,.26368.23145l.46093.14453v.81152h-2.19629q-.12889,0-.26074-.22851a4.14941,4.14941,0,0,1-.26758-.58008c-.09179-.23438-.1875-.49414-.28515-.77832q-.14794-.42774-.3125-.81934a6.06238,6.06238,0,0,0-.33985-.69824,1.185,1.185,0,0,0-.37109-.42481c-.08984,0-.18164-.001-.27734-.00195-.09375-.002-.1836-.0039-.26758-.00586s-.1582-.0039-.22266-.00488c-.06445-.002-.11328-.00293-.14551-.00293v2.58887l.89747.14453v.81152Zm2.77636-4.335a.63932.63932,0,0,0,.14551.02441c.06446.00586.13281.00782.207.00782h.38282a1.122,1.122,0,0,0,.92382-.41895,2.088,2.088,0,0,0,.33887-1.32129,1.48364,1.48364,0,0,0-.34082-1.0791,1.41524,1.41524,0,0,0-1.04492-.34375,3.66825,3.66825,0,0,0-.41016.01563q-.12744.01611-.20215.03222Z"/><path d="M228.64088,327.96152a3.6203,3.6203,0,0,1-2.57031-.82227,3.37533,3.37533,0,0,1-.87305-2.56738v-3.9043l-.73535-.17773v-.78906h3.71191v.78906l-.94531.17187v4.125a4.42768,4.42768,0,0,0,.09961.98047,2.38254,2.38254,0,0,0,.292.74707,1.395,1.395,0,0,0,.47754.47461,1.27354,1.27354,0,0,0,.65625.167,1.59326,1.59326,0,0,0,1.41406-.74415,2.303,2.303,0,0,0,.31446-.76757,4.07182,4.07182,0,0,0,.09765-.88965v-4.09278l-.94043-.17187v-.78906h2.84668v.78906l-.709.17187v4.04981a4.09994,4.09994,0,0,1-.23633,1.47461,2.6868,2.6868,0,0,1-.65527,1.00976,2.57152,2.57152,0,0,1-.99317.58008A4.04921,4.04921,0,0,1,228.64088,327.96152Z"/><path d="M233.02369,327.87558v-.8164l.87012-.14551v-6.2461l-.86426-.17773v-.78906h6.10156l.11719,1.96h-1.041l-.41407-1.06836-1.93945-.12891v2.84668l1.21973-.02148.16113-.91309h1.03125v2.71778h-1.03125l-.16113-.90821-1.21973-.02148v2.81445l2.39648-.12891.67579-1.46582,1.03711.21485-.30079,2.27734Z"/><rect class="d" x="19.00664" y="355.22127" width="70" height="70"/><path d="M40.37721,398.87558v-1.91211l3.07324-.39648V385.40878q-.25488.05714-.665.14161-.41161.085-.85742.15625c-.29688.04687-.58789.08984-.87109.127q-.42481.05714-.707.07129l-.36914-2.46387a10.43024,10.43024,0,0,0,1.69922-.49609,14.17974,14.17974,0,0,0,1.62891-.74317,16.52424,16.52424,0,0,0,1.459-.87793,14.71753,14.71753,0,0,0,1.20313-.89941h.01367l2.56348.43945V396.567l2.917.39648v1.91211Z"/><path d="M54.18385,401.3248c.27344.01953.5498.0332.82812.043q.419.01318.81446.01367a7.81,7.81,0,0,0,2.67578-.44531,6.87694,6.87694,0,0,0,2.13867-1.21777,5.57555,5.57555,0,0,0,1.416-1.82032,5.07745,5.07745,0,0,0,.50976-2.251,3.32436,3.32436,0,0,0-3.68164-3.82325,8.60184,8.60184,0,0,0-1.01172.06348c-.35547.043-.69922.09961-1.03515.16992q-.501.10694-.9629.24121a7.72084,7.72084,0,0,0-.79882.27539l-1.10547-.80664,1.38867-11.03125h9.459l.29688-.55175h2.082l-.72266,4.70117H58.30494l-.83594,4.87109a13.45821,13.45821,0,0,1,2.09571-.60937,9.99712,9.99712,0,0,1,1.98242-.21192,6.63893,6.63893,0,0,1,4.81445,1.60742,6.34589,6.34589,0,0,1,1.65625,4.76465,6.76674,6.76674,0,0,1-.94824,3.51172,9.01385,9.01385,0,0,1-2.56934,2.75391,12.80272,12.80272,0,0,1-3.76757,1.79883,15.7235,15.7235,0,0,1-4.53809.64355q-.48193,0-1.00488-.042a7.06486,7.06486,0,0,1-1.01953-.15625Z"/><path d="M209.94361,404.87558v-.81152l1.53125-.15039v-6.35938l-1.36914.124-.41406,2.33105h-1.11133l.15528-3.30859h7.36425l.17676,3.30859h-1.11719l-.41894-2.33105-1.31055-.124v6.35938l1.60547.15039v.81152Z"/><path d="M216.85182,404.87558v-.81152l.86914-.14453v-6.25782l-.85352-.17187v-.78906h1.78321c.18261,0,.34472-.00391.48632-.01075.14063-.00781.28321-.01464.42676-.02148.14356-.00781.29785-.01465.46192-.02148.16406-.00782.35742-.01075.58007-.01075a6.22267,6.22267,0,0,1,1.41211.13672,2.46932,2.46932,0,0,1,.92774.40528,1.50577,1.50577,0,0,1,.5039.66894,2.59248,2.59248,0,0,1,.15332.92676,2.89983,2.89983,0,0,1-.08593.6875,2.35123,2.35123,0,0,1-.27442.666,2.02549,2.02549,0,0,1-.48828.54786,1.85541,1.85541,0,0,1-.73047.33789,1.36851,1.36851,0,0,1,.54785.35742,3.16839,3.16839,0,0,1,.4209.56152,5.57321,5.57321,0,0,1,.334.64942c.09765.22558.18945.43359.27343.623a3.90493,3.90493,0,0,0,.25.4834.4582.4582,0,0,0,.26368.23145l.46093.14453v.81152h-2.19629q-.12889,0-.26074-.22851a4.14941,4.14941,0,0,1-.26758-.58008c-.09179-.23438-.1875-.49414-.28515-.77832q-.14794-.42774-.3125-.81934a6.06238,6.06238,0,0,0-.33985-.69824,1.185,1.185,0,0,0-.37109-.42481c-.08984,0-.18164-.001-.27734-.00195-.09375-.002-.1836-.0039-.26758-.00586s-.1582-.0039-.22266-.00488c-.06445-.002-.11328-.00293-.14551-.00293v2.58887l.89747.14453v.81152Zm2.77636-4.335a.63932.63932,0,0,0,.14551.02441c.06446.00586.13281.00782.207.00782h.38282a1.122,1.122,0,0,0,.92382-.41895,2.088,2.088,0,0,0,.33887-1.32129,1.48364,1.48364,0,0,0-.34082-1.0791,1.41524,1.41524,0,0,0-1.04492-.34375,3.66825,3.66825,0,0,0-.41016.01563q-.12744.01611-.20215.03222Z"/><path d="M228.64088,404.96152a3.6203,3.6203,0,0,1-2.57031-.82227,3.37533,3.37533,0,0,1-.87305-2.56738v-3.9043l-.73535-.17773v-.78906h3.71191v.78906l-.94531.17187v4.125a4.42768,4.42768,0,0,0,.09961.98047,2.38254,2.38254,0,0,0,.292.74707,1.395,1.395,0,0,0,.47754.47461,1.27354,1.27354,0,0,0,.65625.167,1.59326,1.59326,0,0,0,1.41406-.74415,2.303,2.303,0,0,0,.31446-.76757,4.07182,4.07182,0,0,0,.09765-.88965v-4.09278l-.94043-.17187v-.78906h2.84668v.78906l-.709.17187v4.04981a4.09994,4.09994,0,0,1-.23633,1.47461,2.6868,2.6868,0,0,1-.65527,1.00976,2.57152,2.57152,0,0,1-.99317.58008A4.04921,4.04921,0,0,1,228.64088,404.96152Z"/><path d="M233.02369,404.87558v-.8164l.87012-.14551v-6.2461l-.86426-.17773v-.78906h6.10156l.11719,1.96h-1.041l-.41407-1.06836-1.93945-.12891v2.84668l1.21973-.02148.16113-.91309h1.03125v2.71778h-1.03125l-.16113-.90821-1.21973-.02148v2.81445l2.39648-.12891.67579-1.46582,1.03711.21485-.30079,2.27734Z"/><rect class="d" x="19.00664" y="432.22127" width="70" height="70"/><path d="M39.97389,475.87558v-1.91211l3.07324-.39648V462.40878c-.16992.03809-.39258.085-.666.14161s-.55957.10839-.85644.15625c-.29785.04687-.58789.08984-.87109.127-.28321.03809-.51856.06152-.708.07129L39.5774,460.441a10.43024,10.43024,0,0,0,1.69922-.49609,14.089,14.089,0,0,0,1.62793-.74317,16.5259,16.5259,0,0,0,1.459-.87793,14.55136,14.55136,0,0,0,1.20312-.89941h.01465l2.56348.43945V473.567l2.916.39648v1.91211Z"/><path d="M60.22291,476.17246A7.01119,7.01119,0,0,1,54.58033,473.9q-1.97607-2.28663-1.97558-6.77539a12.13263,12.13263,0,0,1,.708-4.30469,8.20326,8.20326,0,0,1,1.86915-2.95215,7.30336,7.30336,0,0,1,2.71875-1.69922,9.64284,9.64284,0,0,1,3.24218-.5459,7.08012,7.08012,0,0,1,5.62891,2.22363q1.94825,2.22217,1.94726,6.74024a12.18555,12.18555,0,0,1-.68652,4.31836,8.35982,8.35982,0,0,1-1.84863,2.98144,7.25877,7.25877,0,0,1-2.7041,1.72754A9.49968,9.49968,0,0,1,60.22291,476.17246Zm.50977-2.02442a1.90414,1.90414,0,0,0,1.24609-.418,2.91454,2.91454,0,0,0,.82813-1.28808,9.43763,9.43763,0,0,0,.46093-2.2168,31.31361,31.31361,0,0,0,.14063-3.20019q0-2.09473-.13379-3.51172a9.22224,9.22224,0,0,0-.45313-2.27246,2.46878,2.46878,0,0,0-.84277-1.21778,2.2714,2.2714,0,0,0-1.31641-.36133,1.95014,1.95014,0,0,0-1.2539.41114,2.94124,2.94124,0,0,0-.84961,1.26758,9.03042,9.03042,0,0,0-.48828,2.1875,27.66982,27.66982,0,0,0-.15625,3.15722,34.41736,34.41736,0,0,0,.14941,3.50488,9.46207,9.46207,0,0,0,.48145,2.3086,2.6311,2.6311,0,0,0,.87109,1.2666A2.21233,2.21233,0,0,0,60.73268,474.148Z"/><path d="M206.47486,481.87558v-.81152l.85938-.15039v-6.252l-.876-.17187v-.78906h6.23047l.10742,2.11621h-1.19238l-.44531-1.22461-1.86426-.09668v2.88379l1.18652-.01563.22071-.87011h1.00976v2.78711h-1.00976l-.22071-.94532-1.18652-.02148v2.59961l1.63281.15039v.81152Z"/><path d="M212.721,481.87558l-.00586-.81152.6875-.14453,2.51953-7.23535h1.9873l2.5459,7.22949.78418.15039v.81152h-3.78613v-.81152l.88086-.14453-.34961-1.18164h-2.77734l-.32227,1.18164.88086.14453v.81152Zm3.66308-6.47265-.92871,3.41113h2.25l-1.01562-3.41113-.166-.74122Z"/><path d="M221.261,481.87558v-.81152l.87011-.15039v-6.2461l-.86523-.17773v-.78906H225.176v.78906l-1.10059.17187v6.22559l1.99316-.11816L226.761,478.61l1.21386.13965-.333,3.126Z"/><path d="M231.51979,481.99863a5.76432,5.76432,0,0,1-.94825-.07227c-.292-.04785-.55273-.10156-.78418-.16113-.23046-.05859-.42968-.11328-.5957-.16406a2.09277,2.09277,0,0,0-.38476-.08594l.09179-2.06738h1.085l.24121,1.33691a1.028,1.028,0,0,0,.15918.13477,1.13567,1.13567,0,0,0,.24414.126,1.87729,1.87729,0,0,0,.33594.09375,2.15354,2.15354,0,0,0,.4209.03809,1.76953,1.76953,0,0,0,.60742-.08887,1.04806,1.04806,0,0,0,.38965-.23633.82793.82793,0,0,0,.209-.34668,1.35647,1.35647,0,0,0,.06152-.41308.97459.97459,0,0,0-.12012-.48047,1.53973,1.53973,0,0,0-.34961-.41406,3.6,3.6,0,0,0-.55859-.38672q-.32959-.19042-.749-.40039c-.207-.10352-.42968-.22754-.666-.373a3.20023,3.20023,0,0,1-.65234-.53125,2.75,2.75,0,0,1-.49707-.73926,2.3286,2.3286,0,0,1-.19825-.99316,1.944,1.944,0,0,1,.71387-1.51758,2.7019,2.7019,0,0,1,.90527-.4834,4.09051,4.09051,0,0,1,1.28125-.17968,5.01432,5.01432,0,0,1,.73243.05371c.24609.03515.47558.07617.69043.12109.21484.04395.40527.08691.56933.12891.16406.041.28809.06836.37109.083l-.07031,1.874h-1.06836l-.19922-1.19727a.485.485,0,0,0-.13476-.09668,1.37446,1.37446,0,0,0-.21485-.08887,1.96018,1.96018,0,0,0-.26562-.06445,1.76249,1.76249,0,0,0-.28711-.02441,1.66223,1.66223,0,0,0-.53125.07519.99012.99012,0,0,0-.35547.19922.73746.73746,0,0,0-.19531.29,1.00966,1.00966,0,0,0-.0625.35449,1.031,1.031,0,0,0,.15039.55274,1.77585,1.77585,0,0,0,.4082.44629,4.21451,4.21451,0,0,0,.60157.38964q.34423.18458.73632.37793c.22266.11133.4502.23926.68457.38477a3.68533,3.68533,0,0,1,.64746.50488,2.47089,2.47089,0,0,1,.4834.65723,1.83114,1.83114,0,0,1,.18848.84375,2.68559,2.68559,0,0,1-.15625.875,2.1689,2.1689,0,0,1-.52148.82227,2.74029,2.74029,0,0,1-.96094.60644A4.03171,4.03171,0,0,1,231.51979,481.99863Z"/><path d="M235.35475,481.87558v-.8164l.87011-.14551v-6.2461l-.86523-.17773v-.78906h6.10156l.11914,1.96h-1.043l-.41308-1.06836-1.93848-.12891v2.84668l1.21875-.02148.16113-.91309h1.03125v2.71778h-1.03125l-.16113-.90821-1.21875-.02148v2.81445l2.39453-.12891.67774-1.46582,1.03613.21485-.30078,2.27734Z"/><path d="M87.00709,35.53183h-66a2.50231,2.50231,0,0,1-2.5-2.5v-16.5a2.50232,2.50232,0,0,1,2.5-2.5h66a2.50232,2.50232,0,0,1,2.5,2.5v16.5A2.50231,2.50231,0,0,1,87.00709,35.53183Zm-66-20.5a1.50164,1.50164,0,0,0-1.5,1.5v16.5a1.50164,1.50164,0,0,0,1.5,1.5h66a1.50164,1.50164,0,0,0,1.5-1.5v-16.5a1.50164,1.50164,0,0,0-1.5-1.5Z"/><path d="M172.00709,35.53183h-66a2.50231,2.50231,0,0,1-2.5-2.5v-16.5a2.50232,2.50232,0,0,1,2.5-2.5h66a2.50232,2.50232,0,0,1,2.5,2.5v16.5A2.50231,2.50231,0,0,1,172.00709,35.53183Zm-66-20.5a1.50164,1.50164,0,0,0-1.5,1.5v16.5a1.50164,1.50164,0,0,0,1.5,1.5h66a1.50164,1.50164,0,0,0,1.5-1.5v-16.5a1.50164,1.50164,0,0,0-1.5-1.5Z"/><path d="M257.00709,35.53183h-66a2.50231,2.50231,0,0,1-2.5-2.5v-16.5a2.50232,2.50232,0,0,1,2.5-2.5h66a2.50232,2.50232,0,0,1,2.5,2.5v16.5A2.50231,2.50231,0,0,1,257.00709,35.53183Zm-66-20.5a1.50164,1.50164,0,0,0-1.5,1.5v16.5a1.50164,1.50164,0,0,0,1.5,1.5h66a1.50164,1.50164,0,0,0,1.5-1.5v-16.5a1.50164,1.50164,0,0,0-1.5-1.5Z"/><g class="e"><path class="f" d="M53.81471,510.3414c-1.07129,0-2.15235-.04-3.21192-.12012l.375-4.98632a37.92341,37.92341,0,0,0,11.08692-.80567l1.09765,4.87891A42.68622,42.68622,0,0,1,53.81471,510.3414Zm-15.49512-2.9209a42.34022,42.34022,0,0,1-10.91016-6.30175l3.11524-3.91016a37.32644,37.32644,0,0,0,9.623,5.55762Zm36.584-2.6875-2.49024-4.33593a37.52919,37.52919,0,0,0,8.71191-6.90332l3.6504,3.418A42.55466,42.55466,0,0,1,74.90358,504.733Zm-56.0752-12.832a42.18306,42.18306,0,0,1-5.50195-11.335l4.77343-1.48633a37.2222,37.2222,0,0,0,4.85157,9.99317Zm73.09863-5.3584-4.49218-2.19726a37.0817,37.0817,0,0,0,3.332-10.59375l4.93945.76953A42.10061,42.10061,0,0,1,91.927,486.54257ZM16.41432,468.107h-5V456.03964h5Zm79.80078-5.84571h-5V450.36093h5Zm-79.80078-18.123h-5V432.23691h5Zm79.80078-5.67871h-5V426.5582h5Zm-79.80078-18.124h-5V408.43418h5Zm79.80078-5.67871h-5V402.75546h5Zm-79.80078-18.124h-5V384.63144h5ZM96.2151,390.8541h-5V378.95273h5Zm-79.80078-18.124h-5V360.82871h5Zm79.80078-5.67871h-5V355.15h5Zm-79.80078-18.124h-5V337.026h5Zm79.80078-5.67871h-5V331.34726h5Zm-79.80078-18.124h-5V313.22324h5Zm79.80078-5.67872h-5V307.54453h5Zm-79.80078-18.124h-5V289.4205h5Zm79.80078-5.67871h-5V283.74179h5Zm-79.80078-18.124h-5V265.61777h5Zm79.80078-5.67871h-5V259.93906h5Zm-79.80078-18.124h-5V241.815h5Zm79.80078-5.67871h-5V236.13632h5Zm-79.80078-18.124h-5V218.0123h5ZM96.2151,224.235h-5V212.33359h5Zm-79.80078-18.124h-5V194.20957h5Zm79.80078-5.67871h-5V188.53086h5Zm-79.80078-18.124h-5V170.40683h5Zm79.80078-5.67871h-5V164.72812h5Zm-79.80078-18.124h-5V146.6041h5Zm79.80078-5.67871h-5V140.92539h5Zm-79.80078-18.124h-5V122.80136h5ZM96.2151,129.024h-5V117.12265h5ZM16.41432,110.9h-5V98.99863h5Zm79.80078-5.67872h-5V93.31992h5Zm-79.80078-18.124h-5v-5.5957a42.94615,42.94615,0,0,1,.52051-6.667l4.93945.77929a37.85734,37.85734,0,0,0-.46,5.8877ZM91.2151,81.42343A37.41129,37.41129,0,0,0,89.552,70.43711l4.77735-1.47657A42.4163,42.4163,0,0,1,96.2151,81.41269ZM20.22779,65.027l-4.48632-2.20508a42.41329,42.41329,0,0,1,7.17382-10.35449l3.64258,3.42578A37.43192,37.43192,0,0,0,20.22779,65.027Zm64.49512-4.59277a37.574,37.574,0,0,0-7.55859-8.15137l3.123-3.9043a42.57543,42.57543,0,0,1,8.56446,9.23535ZM35.28346,49.00644,32.803,44.66464a42.19792,42.19792,0,0,1,11.75-4.5498l1.08887,4.88086A37.148,37.148,0,0,0,35.28346,49.00644Zm32.27148-2.30176A37.17971,37.17971,0,0,0,56.73072,44.2125l.38282-4.98438a42.14668,42.14668,0,0,1,12.27929,2.82617Z"/></g><path d="M458.25221,19.33164h1.56836l3.60058,9.86132h-1.69433l-.8125-2.31054h-3.81055l-.8125,2.31054H454.6526Zm2.15722,6.10742-1.40136-3.93555-1.40039,3.93555Z"/><path d="M464.38307,30.63632l.51758-1.24707a4.33686,4.33686,0,0,0,2.22753.63086,1.77158,1.77158,0,0,0,2.01661-1.96191v-.71387a2.62419,2.62419,0,0,1-2.24024,1.30274c-1.48535,0-2.83008-1.19043-2.83008-3.47364v-.05664c0-2.29687,1.35938-3.4873,2.83008-3.4873a2.63591,2.63591,0,0,1,2.22656,1.24609V21.76914h1.583v6.21972a3.33635,3.33635,0,0,1-.84082,2.46485,3.60632,3.60632,0,0,1-2.67578.88281A5.82666,5.82666,0,0,1,464.38307,30.63632Zm4.77539-5.47754v-.02734a1.90594,1.90594,0,0,0-1.77832-2.11523c-.96582,0-1.709.79785-1.709,2.11523v.01367c0,1.31641.75684,2.12891,1.709,2.12891A1.914,1.914,0,0,0,469.15846,25.15878Z"/><path d="M472.16627,25.565v-.1123c0-2.22656,1.3457-3.82324,3.166-3.82324,2.01757,0,3.082,1.68066,3.082,3.9082,0,.09766,0,.32129-.01465.5459h-4.65039a1.90734,1.90734,0,0,0,1.877,1.91894,2.36466,2.36466,0,0,0,1.709-.78417l.82714.98046a3.41774,3.41774,0,0,1-2.60546,1.14844C473.65065,29.34726,472.16627,27.89023,472.16627,25.565Zm4.707-.57421c-.084-1.17676-.61719-2.03125-1.541-2.03125-.86914,0-1.48438.7705-1.59766,2.03125Z"/><rect class="d" x="431.8211" y="47.22127" width="70" height="70"/><path d="M453.51783,90.87558V88.96347l3.07227-.39648V77.40878q-.25488.05714-.666.14161-.41015.085-.85547.15625c-.29882.04687-.58789.08984-.87109.127q-.4248.05714-.709.07129l-.36719-2.46387a10.43082,10.43082,0,0,0,1.69922-.49609,14.09051,14.09051,0,0,0,1.62793-.74317,16.64827,16.64827,0,0,0,1.458-.87793,14.577,14.577,0,0,0,1.20411-.89941h.01464l2.5625.43945V88.567l2.917.39648v1.91211Z"/><path d="M468.90943,94.8541q1.18946-2.32177,2.40723-4.84278,1.21875-2.51952,2.35059-4.96289,1.13232-2.44189,2.124-4.666.99024-2.22217,1.72754-3.9502l-7.71777.11328-1.08985,3.32715-2.77539-.50976.7793-6.627h14.03223l1.01953,1.14746-7.73145,22.33008Z"/><rect class="d" x="431.8211" y="124.22127" width="70" height="70"/><path d="M460.31471,169.235a5.86382,5.86382,0,0,0,.6875.17675c.25879.05176.5332.09668.82031.13477q.43214.05566.88477.085c.30273.01856.59961.02832.89257.02832a7.2798,7.2798,0,0,0,2.209-.31152,4.87629,4.87629,0,0,0,1.65625-.87793,3.8112,3.8112,0,0,0,1.041-1.35254,4.11205,4.11205,0,0,0,.36133-1.73438,3.86161,3.86161,0,0,0-.17773-1.126,3.04975,3.04975,0,0,0-.58692-1.083,3.42875,3.42875,0,0,0-1.07617-.84277,4.03109,4.03109,0,0,0-1.64258-.40332l-1.91113.31152-.84961-2.23731a6.59954,6.59954,0,0,0,1.25977-.30468q.6372-.21973,1.16113-.418a6.28493,6.28493,0,0,0,1.45215-.793,4.64248,4.64248,0,0,0,.9834-.9834,3.75008,3.75008,0,0,0,.55957-1.13281,4.40007,4.40007,0,0,0,.17676-1.23926,2.78068,2.78068,0,0,0-.21973-1.16113,2.16052,2.16052,0,0,0-.58789-.78613,2.39049,2.39049,0,0,0-.82813-.44629,3.24892,3.24892,0,0,0-.95508-.14161,6.82581,6.82581,0,0,0-2.34375.36133,7.64814,7.64814,0,0,0-1.8623.99805l-1.1748-2.0957a6.11371,6.11371,0,0,1,1.01953-.77832,10.29951,10.29951,0,0,1,1.53515-.793,12.0968,12.0968,0,0,1,1.91211-.61621,9.23809,9.23809,0,0,1,2.14551-.24805,10.1362,10.1362,0,0,1,2.52051.29785,5.81213,5.81213,0,0,1,2.0039.91309,4.426,4.426,0,0,1,1.32422,1.53613,4.65568,4.65568,0,0,1,.48047,2.18066,5.9676,5.9676,0,0,1-1.24609,3.85157,8.68181,8.68181,0,0,1-3.61035,2.5205,7.47714,7.47714,0,0,1,2.542.291,5.17969,5.17969,0,0,1,1.834.97656,4.1122,4.1122,0,0,1,1.11133,1.48731,4.48173,4.48173,0,0,1,.375,1.81933,6.51329,6.51329,0,0,1-.62305,2.83887,6.20964,6.20964,0,0,1-1.88281,2.27246,9.56916,9.56916,0,0,1-3.13672,1.51563,15.58839,15.58839,0,0,1-4.38281.55175c-.33008,0-.67773-.01367-1.041-.042s-.71679-.06836-1.0625-.12012c-.34375-.05273-.667-.11328-.96875-.18457a7.50817,7.50817,0,0,1-.77929-.21972Z"/><rect class="d" x="431.8211" y="201.22127" width="70" height="70"/><path d="M453.7444,244.87558v-1.91211l3.07226-.39648V231.40878q-.25488.05713-.666.14161-.41016.085-.85547.15625c-.29883.04687-.58789.08984-.8711.12695q-.4248.05714-.709.07129l-.36719-2.46387a10.43053,10.43053,0,0,0,1.69922-.49609,14.08974,14.08974,0,0,0,1.62793-.74317,16.65,16.65,0,0,0,1.458-.87793,14.5767,14.5767,0,0,0,1.2041-.89941h.01465l2.5625.43945V242.567l2.917.39648v1.91211Z"/><path d="M466.72877,246.235a5.86382,5.86382,0,0,0,.6875.17675c.25879.05176.5332.09668.82031.13477q.43214.05566.88477.085c.30273.01856.59961.02832.89258.02832a7.27974,7.27974,0,0,0,2.209-.31152,4.8762,4.8762,0,0,0,1.65625-.87793,3.81122,3.81122,0,0,0,1.041-1.35254,4.1122,4.1122,0,0,0,.36132-1.73438,3.86161,3.86161,0,0,0-.17773-1.126,3.04988,3.04988,0,0,0-.58691-1.083,3.42891,3.42891,0,0,0-1.07618-.84277,4.03108,4.03108,0,0,0-1.64257-.40332l-1.91114.31152-.84961-2.23731a6.59936,6.59936,0,0,0,1.25977-.30468q.6372-.21973,1.16113-.418a6.28472,6.28472,0,0,0,1.45215-.793,4.64224,4.64224,0,0,0,.9834-.9834,3.74984,3.74984,0,0,0,.55957-1.13281,4.39971,4.39971,0,0,0,.17676-1.23926,2.78052,2.78052,0,0,0-.21973-1.16113,2.16041,2.16041,0,0,0-.58789-.78613,2.39045,2.39045,0,0,0-.82812-.44629,3.249,3.249,0,0,0-.95508-.14161,6.82581,6.82581,0,0,0-2.34375.36133,7.6482,7.6482,0,0,0-1.86231.99805l-1.1748-2.0957a6.11371,6.11371,0,0,1,1.01953-.77832,10.29964,10.29964,0,0,1,1.53516-.793,12.097,12.097,0,0,1,1.9121-.61621,9.23809,9.23809,0,0,1,2.14551-.24805,10.1362,10.1362,0,0,1,2.52051.29785,5.81218,5.81218,0,0,1,2.00391.91309,4.42614,4.42614,0,0,1,1.32422,1.53613,4.6558,4.6558,0,0,1,.48046,2.18066,5.96754,5.96754,0,0,1-1.24609,3.85157,8.68174,8.68174,0,0,1-3.61035,2.5205,7.47714,7.47714,0,0,1,2.542.291,5.17974,5.17974,0,0,1,1.834.97656,4.11229,4.11229,0,0,1,1.11132,1.48731,4.48173,4.48173,0,0,1,.375,1.81933,6.51343,6.51343,0,0,1-.623,2.83887,6.20977,6.20977,0,0,1-1.88282,2.27246,9.5691,9.5691,0,0,1-3.13671,1.51563,15.58851,15.58851,0,0,1-4.38282.55175c-.33008,0-.67773-.01367-1.041-.042s-.7168-.06836-1.0625-.12012c-.34375-.05273-.667-.11328-.96875-.18457a7.50842,7.50842,0,0,1-.7793-.21972Z"/><rect class="d" x="431.8211" y="278.22127" width="70" height="70"/><path d="M455.70533,321.87558v-1.91211l3.07227-.39648V308.40878c-.16992.03809-.39063.085-.665.14161s-.55957.10839-.85645.15625c-.29785.04687-.58789.08984-.87109.127q-.4248.05714-.708.07129l-.36816-2.46387a10.43082,10.43082,0,0,0,1.69922-.49609,14.18036,14.18036,0,0,0,1.6289-.74317,16.647,16.647,0,0,0,1.458-.87793,14.74292,14.74292,0,0,0,1.2041-.89941h.01367l2.5625.43945V319.567l2.918.39648v1.91211Z"/><path d="M468.53443,321.87558v-1.91211l3.07325-.39648V308.40878c-.16993.03809-.39258.085-.666.14161s-.55957.10839-.85644.15625c-.29786.04687-.58789.08984-.8711.127-.2832.03809-.51855.06152-.708.07129L468.138,306.441a10.43053,10.43053,0,0,0,1.69922-.49609,14.08974,14.08974,0,0,0,1.62793-.74317,16.52424,16.52424,0,0,0,1.459-.87793,14.54993,14.54993,0,0,0,1.20313-.89941h.01465l2.56347.43945V319.567l2.916.39648v1.91211Z"/><rect class="d" x="431.8211" y="355.22127" width="70" height="70"/><path d="M453.19166,398.87558v-1.91211l3.07324-.39648V385.40878q-.25488.05714-.665.14161-.41161.085-.85742.15625c-.29687.04687-.58789.08984-.87109.127q-.4248.05714-.707.07129l-.36914-2.46387a10.43082,10.43082,0,0,0,1.69922-.49609,14.18036,14.18036,0,0,0,1.6289-.74317,16.5259,16.5259,0,0,0,1.459-.87793,14.719,14.719,0,0,0,1.20312-.89941h.01367l2.56348.43945V396.567l2.917.39648v1.91211Z"/><path d="M466.9983,401.3248c.27344.01953.54981.0332.82813.043q.41893.01318.81445.01367a7.81,7.81,0,0,0,2.67578-.44531,6.87671,6.87671,0,0,0,2.13867-1.21777,5.57555,5.57555,0,0,0,1.416-1.82032,5.07745,5.07745,0,0,0,.50976-2.251,3.32436,3.32436,0,0,0-3.68164-3.82325,8.60184,8.60184,0,0,0-1.01172.06348c-.35546.043-.69921.09961-1.03515.16992q-.501.10694-.96289.24121a7.72108,7.72108,0,0,0-.79883.27539l-1.10547-.80664,1.38867-11.03125h9.459l.29687-.55175h2.082l-.72265,4.70117H471.1194l-.83594,4.87109a13.4581,13.4581,0,0,1,2.0957-.60937,9.9972,9.9972,0,0,1,1.98242-.21192,6.639,6.639,0,0,1,4.81446,1.60742,6.34593,6.34593,0,0,1,1.65625,4.76465,6.76675,6.76675,0,0,1-.94825,3.51172,9.01369,9.01369,0,0,1-2.56933,2.75391,12.80266,12.80266,0,0,1-3.76758,1.79883,15.7235,15.7235,0,0,1-4.53809.64355q-.48194,0-1.00488-.042a7.06508,7.06508,0,0,1-1.01953-.15625Z"/><rect class="d" x="431.8211" y="432.22127" width="70" height="70"/><path d="M452.78834,475.87558v-1.91211l3.07324-.39648V462.40878c-.16992.03809-.39258.085-.666.14161s-.55957.10839-.85645.15625c-.29785.04687-.58789.08984-.87109.127-.2832.03809-.51856.06152-.708.07129l-.36816-2.46387a10.43082,10.43082,0,0,0,1.69922-.49609,14.08959,14.08959,0,0,0,1.62792-.74317,16.52444,16.52444,0,0,0,1.459-.87793,14.55136,14.55136,0,0,0,1.20312-.89941h.01465l2.56348.43945V473.567l2.916.39648v1.91211Z"/><path d="M473.03736,476.17246A7.01115,7.01115,0,0,1,467.39479,473.9q-1.97608-2.28663-1.97559-6.77539a12.13262,12.13262,0,0,1,.708-4.30469,8.20324,8.20324,0,0,1,1.86914-2.95215,7.30336,7.30336,0,0,1,2.71875-1.69922,9.6429,9.6429,0,0,1,3.24219-.5459,7.08011,7.08011,0,0,1,5.6289,2.22363q1.94825,2.22217,1.94727,6.74024a12.18554,12.18554,0,0,1-.68653,4.31836,8.35954,8.35954,0,0,1-1.84863,2.98144,7.25877,7.25877,0,0,1-2.7041,1.72754A9.49968,9.49968,0,0,1,473.03736,476.17246Zm.50977-2.02442a1.90414,1.90414,0,0,0,1.24609-.418,2.91445,2.91445,0,0,0,.82813-1.28808,9.4381,9.4381,0,0,0,.46094-2.2168,31.31391,31.31391,0,0,0,.14062-3.20019q0-2.09473-.13379-3.51172a9.22276,9.22276,0,0,0-.45312-2.27246,2.46879,2.46879,0,0,0-.84278-1.21778,2.27137,2.27137,0,0,0-1.3164-.36133,1.95019,1.95019,0,0,0-1.25391.41114,2.94132,2.94132,0,0,0-.84961,1.26758,9.03089,9.03089,0,0,0-.48828,2.1875,27.66982,27.66982,0,0,0-.15625,3.15722,34.42027,34.42027,0,0,0,.14941,3.50488,9.46254,9.46254,0,0,0,.48145,2.3086,2.6311,2.6311,0,0,0,.87109,1.2666A2.21233,2.21233,0,0,0,473.54713,474.148Z"/><path d="M499.82154,35.53183h-66a2.50232,2.50232,0,0,1-2.5-2.5v-16.5a2.50232,2.50232,0,0,1,2.5-2.5h66a2.50232,2.50232,0,0,1,2.5,2.5v16.5A2.50231,2.50231,0,0,1,499.82154,35.53183Zm-66-20.5a1.50164,1.50164,0,0,0-1.5,1.5v16.5a1.50164,1.50164,0,0,0,1.5,1.5h66a1.50164,1.50164,0,0,0,1.5-1.5v-16.5a1.50164,1.50164,0,0,0-1.5-1.5Z"/><rect x="301.15846" y="252.37656" width="68.61328" height="12"/><polygon points="363.644 279.319 399.912 258.376 363.644 237.434 363.644 279.319"/></g></svg>