<svg xmlns="http://www.w3.org/2000/svg" viewBox="0 0 682.40248 517.12345"><defs><style>.a{isolation:isolate;}.b{fill:#ffda00;}.c{fill:#75bbef;}.d{fill:#ea7d7d;}.e{mix-blend-mode:multiply;}.f{fill:#5dc162;}</style></defs><g class="a"><polygon class="b" points="221.664 435.346 186.664 495.967 256.664 495.967 221.664 435.346"/><polygon class="b" points="221.664 358.346 186.664 418.967 256.664 418.967 221.664 358.346"/><polygon class="b" points="221.664 281.346 186.664 341.967 256.664 341.967 221.664 281.346"/><polygon class="b" points="221.664 204.346 186.664 264.967 256.664 264.967 221.664 204.346"/><polygon class="b" points="221.664 127.346 186.664 187.967 256.664 187.967 221.664 127.346"/><polygon class="b" points="221.664 50.346 186.664 110.967 256.664 110.967 221.664 50.346"/><circle class="c" cx="136.2315" cy="80.65651" r="35"/><circle class="c" cx="136.2315" cy="157.65651" r="35"/><circle class="c" cx="136.2315" cy="234.65651" r="35"/><circle class="c" cx="136.2315" cy="311.65651" r="35"/><circle class="c" cx="136.2315" cy="388.65651" r="35"/><circle class="c" cx="136.2315" cy="465.65651" r="35"/><path d="M42.854,17.76685h1.56933l3.60059,9.86132H46.32859l-.8125-2.31054H41.70554l-.8125,2.31054H39.25437Zm2.1582,6.10742-1.40137-3.93555-1.40039,3.93555Z"/><path d="M48.98484,29.07153l.51757-1.24707a4.33775,4.33775,0,0,0,2.22852.63086,1.77157,1.77157,0,0,0,2.0166-1.96191v-.71387a2.62709,2.62709,0,0,1-2.24121,1.30274c-1.48437,0-2.83008-1.19043-2.83008-3.47364V23.552c0-2.29687,1.35938-3.4873,2.83008-3.4873a2.63458,2.63458,0,0,1,2.22656,1.24609V20.20435h1.584v6.21972a3.34037,3.34037,0,0,1-.84082,2.46485,3.60933,3.60933,0,0,1-2.67578.88281A5.83047,5.83047,0,0,1,48.98484,29.07153ZM53.7612,23.594v-.02734a1.90594,1.90594,0,0,0-1.77832-2.11523c-.96679,0-1.709.79785-1.709,2.11523v.01367c0,1.31641.75586,2.12891,1.709,2.12891A1.914,1.914,0,0,0,53.7612,23.594Z"/><path d="M56.769,24.00024v-.1123c0-2.22656,1.34472-3.82324,3.165-3.82324,2.01757,0,3.082,1.68066,3.082,3.9082,0,.09766,0,.32129-.01368.5459H58.352a1.90674,1.90674,0,0,0,1.877,1.91894,2.36461,2.36461,0,0,0,1.709-.78418l.82617.98047a3.4147,3.4147,0,0,1-2.60547,1.14844C58.25339,27.78247,56.769,26.32544,56.769,24.00024Zm4.70605-.57421c-.084-1.17676-.61621-2.03125-1.541-2.03125-.86817,0-1.48438.7705-1.59668,2.03125Z"/><path d="M127.11179,17.82349h3.13672c2.14355,0,3.53027,1.23242,3.53027,3.26367v.02734c0,2.17188-1.59668,3.30664-3.62793,3.334h-1.41406v3.17968h-1.625Zm3.03906,5.15429a1.77557,1.77557,0,0,0,1.97461-1.835v-.01367a1.726,1.726,0,0,0-1.97461-1.82129h-1.41406v3.66992Z"/><path d="M134.685,24.00024v-.1123c0-2.22656,1.34473-3.82324,3.166-3.82324,2.0166,0,3.08105,1.68066,3.08105,3.9082,0,.09766,0,.32129-.01367.5459H136.268a1.90734,1.90734,0,0,0,1.87695,1.91894,2.363,2.363,0,0,0,1.709-.78418l.82617.98047a3.41321,3.41321,0,0,1-2.60547,1.14844C136.17038,27.78247,134.685,26.32544,134.685,24.00024Zm4.707-.57421c-.085-1.17676-.61621-2.03125-1.541-2.03125-.86817,0-1.48535.7705-1.59668,2.03125Z"/><path d="M142.63718,25.83521V21.56274h-.8125V20.20435h.8125V18.20142h1.583v2.00293h1.667v1.35839h-1.667v3.9502a.70972.70972,0,0,0,.79785.8125,1.792,1.792,0,0,0,.85547-.21v1.30273a2.69439,2.69439,0,0,1-1.31738.32227A1.69128,1.69128,0,0,1,142.63718,25.83521Z"/><path d="M202.08738,17.82349h1.625v9.80468h-1.625Z"/><path d="M205.7407,20.20435h1.584v1.09277A2.32361,2.32361,0,0,1,209.355,20.0647c1.42871,0,2.28321,1.00781,2.28321,2.59082v4.97265h-1.583V23.10376c0-1.03613-.49024-1.61035-1.33008-1.61035-.82617,0-1.40039.61621-1.40039,1.63867v4.49609h-1.584Z"/><path d="M213.04929,24.01489v-.18261c0-2.50684,1.38672-3.76758,2.88574-3.76758a2.55914,2.55914,0,0,1,2.1709,1.26074V17.51489h1.583V27.62817h-1.583V26.43774a2.50948,2.50948,0,0,1-2.1709,1.33106C214.44968,27.7688,213.04929,26.52173,213.04929,24.01489Zm5.084-.02832v-.14062c0-1.45606-.81152-2.38086-1.76367-2.38086-.96679,0-1.72363.89648-1.72363,2.39551v.1123c0,1.48438.77051,2.39453,1.72363,2.39453C217.32175,26.36743,218.13327,25.4436,218.13327,23.98657Z"/><path d="M221.14109,24.00024v-.126a3.43744,3.43744,0,1,1,6.83593-.01367v.126a3.43615,3.43615,0,1,1-6.83593.01367Zm5.252-.02734v-.085c0-1.38672-.76953-2.42285-1.84766-2.42285-1.10742,0-1.82226,1.02246-1.82226,2.40918v.084c0,1.38672.77148,2.4375,1.84961,2.4375C225.67917,26.39575,226.393,25.35962,226.393,23.9729Z"/><path d="M229.09226,24.00024v-.126a3.43744,3.43744,0,1,1,6.83594-.01367v.126a3.43615,3.43615,0,1,1-6.83594.01367Zm5.25293-.02734v-.085c0-1.38672-.77051-2.42285-1.84863-2.42285-1.10743,0-1.82129,1.02246-1.82129,2.40918v.084c0,1.38672.7705,2.4375,1.84863,2.4375C233.63132,26.39575,234.34519,25.35962,234.34519,23.9729Z"/><path d="M237.38132,20.20435h1.582v1.457a2.20753,2.20753,0,0,1,2.22754-1.56934v1.72363h-.06933c-1.28907,0-2.15821.83985-2.15821,2.53516v3.27734h-1.582Z"/><rect class="d" x="16.42315" y="45.65651" width="70" height="70"/><path d="M38.1196,89.31079V87.39966l3.07227-.39649V75.845c-.16992.03711-.39063.084-.665.14063s-.55957.10937-.85645.15625c-.29785.04687-.58789.08984-.87109.12695-.2832.03808-.51953.0625-.708.07129l-.36816-2.46387a10.43082,10.43082,0,0,0,1.69922-.49609,14.18036,14.18036,0,0,0,1.6289-.74317,16.647,16.647,0,0,0,1.458-.87793,14.97531,14.97531,0,0,0,1.2041-.89843H43.727l2.5625.43847v15.7041l2.918.39649v1.91113Z"/><path d="M53.51218,93.29028q1.18945-2.32323,2.40625-4.84375Q57.13718,85.927,58.27,83.48364q1.13234-2.44189,2.123-4.666.9917-2.22217,1.72852-3.9502l-7.71778.11328L53.313,78.30786l-2.77539-.50976.7793-6.627h14.0332L66.3696,72.3186,58.63718,94.64966Z"/><path d="M123.29148,82.37134a6.36678,6.36678,0,0,1,.36523-2.22363,4.76048,4.76048,0,0,1,1.02832-1.67383,4.4493,4.4493,0,0,1,1.59473-1.05957,5.56675,5.56675,0,0,1,2.0664-.36914,10.13,10.13,0,0,1,1.20313.06543q.53613.06738.94531.1582c.27246.0625.50391.12305.69434.18555.19043.06054.34472.10644.46191.13574l-.08789,3.21679h-1.73242l-.5625-1.59082a1.96948,1.96948,0,0,0-.42188-.6416.83777.83777,0,0,0-.60546-.2373,1.276,1.276,0,0,0-.65039.17969,1.54685,1.54685,0,0,0-.541.58984,3.74647,3.74647,0,0,0-.373,1.07617,8.18848,8.18848,0,0,0-.14062,1.65235,9.44424,9.44424,0,0,0,.13574,1.74023,3.16438,3.16438,0,0,0,.42676,1.15137,1.6387,1.6387,0,0,0,.72851.62793,2.59446,2.59446,0,0,0,1.03711.18945,4.37614,4.37614,0,0,0,1.40235-.19727,5.35955,5.35955,0,0,0,.98828-.44433l.50195,1.18652a3.25294,3.25294,0,0,1-.50195.42188,5.305,5.305,0,0,1-.81641.4707,6.06983,6.06983,0,0,1-1.06836.37695,4.96824,4.96824,0,0,1-1.26172.1543,5.64653,5.64653,0,0,1-2.20507-.38672,3.91736,3.91736,0,0,1-1.49415-1.07226A4.30273,4.30273,0,0,1,123.56,84.4231,7.48617,7.48617,0,0,1,123.29148,82.37134Z"/><path d="M132.688,84.62134a2.6806,2.6806,0,0,1,.23242-1.14258,2.88435,2.88435,0,0,1,.63672-.88379,3.858,3.858,0,0,1,.9541-.65039,6.77061,6.77061,0,0,1,1.18653-.43945,9.4855,9.4855,0,0,1,1.332-.25391,12.75285,12.75285,0,0,1,1.38867-.09277v-.4043a1.6774,1.6774,0,0,0-.41406-1.27832,1.80678,1.80678,0,0,0-1.26563-.38281,6.55224,6.55224,0,0,0-.95312.07031q-.479.07032-.918.17578c-.293.07031-.56641.14844-.81836.23242-.252.08594-.46875.169-.65039.251h-.00781L132.811,78.469a4.81063,4.81063,0,0,1,.64062-.38671,8.28281,8.28281,0,0,1,1.082-.46192,11.504,11.504,0,0,1,1.41407-.39062,7.89922,7.89922,0,0,1,1.65234-.167,5.70689,5.70689,0,0,1,1.70117.22364,2.84316,2.84316,0,0,1,1.15625.668,2.62473,2.62473,0,0,1,.6543,1.11718,5.34966,5.34966,0,0,1,.207,1.56836V86.01h1.08984v1.19531l-.418.08789c-.167.03516-.35743.06934-.57129.10059-.21387.0332-.44825.06055-.70313.084s-.52637.03516-.81347.03516a4.72151,4.72151,0,0,1-.59766-.03125.88964.88964,0,0,1-.39063-.12695.54456.54456,0,0,1-.21093-.27735,1.41837,1.41837,0,0,1-.06641-.47851v-.60645a3.77407,3.77407,0,0,1-.43457.51856,3.14461,3.14461,0,0,1-.6377.49218,3.88175,3.88175,0,0,1-.84375.36524,3.63347,3.63347,0,0,1-1.05468.14453,3.87529,3.87529,0,0,1-1.17774-.17188,2.56923,2.56923,0,0,1-.94433-.52246,2.40055,2.40055,0,0,1-.62793-.90136A3.35539,3.35539,0,0,1,132.688,84.62134Zm4.37695,1.01074a1.51771,1.51771,0,0,0,.30274-.03906,2.90835,2.90835,0,0,0,.36914-.11035,2.73755,2.73755,0,0,0,.36914-.1709,1.45711,1.45711,0,0,0,.3125-.2334v-2.751a4.65518,4.65518,0,0,0-1.25293.14453,2.22886,2.22886,0,0,0-.80371.39161,1.399,1.399,0,0,0-.42676.57128,1.86242,1.86242,0,0,0-.12793.68555,1.8353,1.8353,0,0,0,.29883,1.09375A1.09672,1.09672,0,0,0,137.06491,85.63208Z"/><path d="M144.20945,85.08716V78.803h-1.22071V77.72192c.02344-.01171.08887-.03711.19727-.07421.1084-.03907.22265-.082.34277-.13282.12012-.04883.23145-.09472.334-.13574a1.42668,1.42668,0,0,0,.16308-.07031,3.81446,3.81446,0,0,0,.70313-.94922,9.17407,9.17407,0,0,0,.39941-.86621q.20655-.50391.35645-.97949h1.80078l.03515,2.68066h2.40039V78.803h-2.40039v4.67578c0,.44531.00782.80176.02247,1.06738a2.16423,2.16423,0,0,0,.10058.61133.45209.45209,0,0,0,.23828.27734,1.16122,1.16122,0,0,0,.42969.06543h.00977a2.46024,2.46024,0,0,0,.40429-.03515c.14063-.02344.27735-.05176.41211-.083.13477-.0332.2627-.06836.38281-.10547.12012-.03906.21875-.07226.29493-.10156h.00781l.4668,1.125a5.3648,5.3648,0,0,1-.67286.43945,5.66676,5.66676,0,0,1-.86621.39063,6.75374,6.75374,0,0,1-1.00976.27734,5.78183,5.78183,0,0,1-1.11719.10547h-.01758a2.81322,2.81322,0,0,1-1.06738-.17578,1.63777,1.63777,0,0,1-.67676-.49219,1.87759,1.87759,0,0,1-.35156-.76465A4.52025,4.52025,0,0,1,144.20945,85.08716Z"/><path d="M123.84128,164.50415a3.96928,3.96928,0,0,1-1.542-.29492,3.179,3.179,0,0,1-1.22266-.90527,4.40365,4.40365,0,0,1-.80371-1.54688,7.53378,7.53378,0,0,1-.29-2.21875,6.70711,6.70711,0,0,1,.35547-2.23242,4.92557,4.92557,0,0,1,1.0293-1.73633,4.58688,4.58688,0,0,1,1.64258-1.125,5.769,5.769,0,0,1,2.21093-.39941,5.98439,5.98439,0,0,1,.6543.03515,6.16609,6.16609,0,0,1,.61133.09668v-2.83887l-1.54688-.32519V149.9231l3.97266-.37793h.044l.61523.46582v12.99023h.93164v1.2041q-.4746.09669-1.07226.20215a7.66592,7.66592,0,0,1-1.32715.10547,1.34758,1.34758,0,0,1-.90039-.27246,1.13847,1.13847,0,0,1-.32129-.91406v-.334a3.08492,3.08492,0,0,1-.51465.58887,3.44386,3.44386,0,0,1-.68945.47851,3.8176,3.8176,0,0,1-.84766.3252A3.96856,3.96856,0,0,1,123.84128,164.50415Zm1.27442-1.72266a2.067,2.067,0,0,0,.8125-.15429,1.50551,1.50551,0,0,0,.55859-.373v-6.60937a1.19421,1.19421,0,0,0-.42578-.23731,2.0276,2.0276,0,0,0-.66406-.09668,1.67982,1.67982,0,0,0-.791.19336,1.7308,1.7308,0,0,0-.65039.64551,3.89844,3.89844,0,0,0-.44824,1.2041,9.489,9.489,0,0,0-.18457,1.86816,9.71718,9.71718,0,0,0,.10156,1.63477,3.58623,3.58623,0,0,0,.334,1.10254,1.4906,1.4906,0,0,0,.56641.624A1.55456,1.55456,0,0,0,125.1157,162.78149Z"/><path d="M131.5405,159.38013a6.29362,6.29362,0,0,1,.41309-2.39551,4.6754,4.6754,0,0,1,1.11132-1.66113,4.41613,4.41613,0,0,1,1.62208-.9668,6.02293,6.02293,0,0,1,1.94238-.31152,5.82743,5.82743,0,0,1,2.00781.32519,3.95292,3.95292,0,0,1,1.5166.9707,4.30954,4.30954,0,0,1,.958,1.6084,6.79239,6.79239,0,0,1,.334,2.22852,6.48863,6.48863,0,0,1-.41308,2.44726,4.50993,4.50993,0,0,1-1.11231,1.65723,4.28738,4.28738,0,0,1-1.61718.93555,6.30251,6.30251,0,0,1-1.9375.29492,5.75692,5.75692,0,0,1-2.00782-.33008,3.99788,3.99788,0,0,1-1.5166-.97558,4.34523,4.34523,0,0,1-.96191-1.60352A6.64408,6.64408,0,0,1,131.5405,159.38013Zm5.001,3.84082a1.26062,1.26062,0,0,0,.71191-.19824,1.42088,1.42088,0,0,0,.49219-.63672,4.29584,4.29584,0,0,0,.28613-1.14258,13.65322,13.65322,0,0,0,.0918-1.71387,17.9317,17.9317,0,0,0-.084-1.88574,5.31811,5.31811,0,0,0-.27636-1.30078,1.68406,1.68406,0,0,0-.50977-.75977,1.22164,1.22164,0,0,0-.77344-.24609,1.27767,1.27767,0,0,0-.71582.19726,1.45764,1.45764,0,0,0-.50586.6377,4.10513,4.10513,0,0,0-.29882,1.13769,12.84118,12.84118,0,0,0-.09668,1.71875,16.24389,16.24389,0,0,0,.09277,1.88477,5.45325,5.45325,0,0,0,.28906,1.30078,1.69915,1.69915,0,0,0,.51953.76074A1.23673,1.23673,0,0,0,136.54148,163.22095Z"/><path d="M147.22019,160.94458c-.25195,0-.49121-.00781-.71582-.02246-.22656-.01465-.44141-.03613-.64649-.06543a1.05693,1.05693,0,0,0-.1582.29,1.0878,1.0878,0,0,0-.06152.37793.92121.92121,0,0,0,.10058.457.66285.66285,0,0,0,.33887.27246,2.22048,2.22048,0,0,0,.624.13184q.38673.03515.958.03515h1.66992a8.82173,8.82173,0,0,1,1.73145.14942,3.409,3.409,0,0,1,1.23047.47851,2.0682,2.0682,0,0,1,.73828.85742,3.02,3.02,0,0,1,.24609,1.28321,2.92809,2.92809,0,0,1-.50586,1.6914,4.24625,4.24625,0,0,1-1.33984,1.24805,6.80453,6.80453,0,0,1-1.89844.76953,9.0601,9.0601,0,0,1-2.18847.26367h-.00879a9.24825,9.24825,0,0,1-2.20118-.22461,4.48874,4.48874,0,0,1-1.46875-.61523,2.37081,2.37081,0,0,1-.82128-.92676,2.68724,2.68724,0,0,1-.25489-1.16894,1.79692,1.79692,0,0,1,.14942-.7168,2.25331,2.25331,0,0,1,.40918-.63281,2.97548,2.97548,0,0,1,.59765-.50489,2.777,2.777,0,0,1,.71582-.334,2.18658,2.18658,0,0,1-.835-.68555,1.62509,1.62509,0,0,1-.29-.958,1.80938,1.80938,0,0,1,.33887-1.10352,3.2452,3.2452,0,0,1,.86523-.80371,2.75532,2.75532,0,0,1-1.33984-1.165,3.62707,3.62707,0,0,1-.40918-1.7793,2.85729,2.85729,0,0,1,.36035-1.42383,3.48093,3.48093,0,0,1,.98828-1.10351,4.80053,4.80053,0,0,1,1.48633-.71582,6.48656,6.48656,0,0,1,1.8584-.25488h.00879a5.76823,5.76823,0,0,1,3.39258.7998,1.788,1.788,0,0,1,.34277-.30762,2.67,2.67,0,0,1,.48731-.26855,3.27093,3.27093,0,0,1,.61523-.18848,3.48233,3.48233,0,0,1,.708-.07031h.44824v2.10059h-1.70508a3.96034,3.96034,0,0,1,.17578,1.2041,3.14919,3.14919,0,0,1-.334,1.43652,3.42625,3.42625,0,0,1-.94922,1.15137,4.60467,4.60467,0,0,1-1.49023.76465,6.45412,6.45412,0,0,1-1.95508.27734Zm-.58887,3.51563c-.13476,0-.2666-.00489-.39551-.01368s-.25195-.01855-.36914-.03027a1.58854,1.58854,0,0,0-.31152.44336,1.82233,1.82233,0,0,0-.14551.81348,2.91935,2.91935,0,0,0,.15332,1.01953,1.50293,1.50293,0,0,0,.44434.6416,1.70725,1.70725,0,0,0,.71191.334,4.30628,4.30628,0,0,0,.958.09668h.00879a4.01517,4.01517,0,0,0,.9707-.11914,2.818,2.818,0,0,0,.86133-.36426,2.047,2.047,0,0,0,.62012-.61132,1.55044,1.55044,0,0,0,.2373-.86524,2.03867,2.03867,0,0,0-.084-.6289.83619.83619,0,0,0-.28516-.417,1.30457,1.30457,0,0,0-.54883-.22851,4.475,4.475,0,0,0-.86621-.07031Zm.79981-4.73731h.00878a1.09426,1.09426,0,0,0,.668-.18945,1.28462,1.28462,0,0,0,.40039-.50489,2.47678,2.47678,0,0,0,.19336-.72949,7.63546,7.63546,0,0,0,.04786-.86133,3.25105,3.25105,0,0,0-.31641-1.66113,1.16866,1.16866,0,0,0-1.07227-.501H147.352a1.37523,1.37523,0,0,0-.668.14454,1.09064,1.09064,0,0,0-.42188.418,1.90693,1.90693,0,0,0-.21973.668,5.81055,5.81055,0,0,0-.06152.8877,6.16046,6.16046,0,0,0,.07031.98437,2.22522,2.22522,0,0,0,.23731.7295,1.16037,1.16037,0,0,0,.44824.457A1.39874,1.39874,0,0,0,147.43113,159.7229Z"/><path d="M118.48,240.81763V228.37231l-1.248-.24609v-1.125l3.68261-.457h.03516l.61523.38672v5.15039a3.95017,3.95017,0,0,1,.4834-.39063,3.4902,3.4902,0,0,1,.61035-.334,3.98523,3.98523,0,0,1,.72559-.22852,3.86529,3.86529,0,0,1,.81738-.084,4.33524,4.33524,0,0,1,1.51172.25977,3.00534,3.00534,0,0,1,1.22168.84375,4.19721,4.19721,0,0,1,.82129,1.52929,7.627,7.627,0,0,1,.30371,2.31641,6.49209,6.49209,0,0,1-.35644,2.17969,5.10222,5.10222,0,0,1-1.02735,1.75293,4.72482,4.72482,0,0,1-1.64843,1.165,5.50683,5.50683,0,0,1-2.20606.42188,15.84261,15.84261,0,0,1-1.71777-.084c-.50782-.05567-.94336-.1211-1.31055-.19727a6.82141,6.82141,0,0,1-.87891-.2334A3.19249,3.19249,0,0,1,118.48,240.81763Zm4.44727-8.041a2.093,2.093,0,0,0-.80859.14844,1.42372,1.42372,0,0,0-.55372.37891v6.59179a.85443.85443,0,0,0,.4043.2461,1.99728,1.99728,0,0,0,.668.10546,1.446,1.446,0,0,0,.98047-.34765,2.47833,2.47833,0,0,0,.64062-.90528,5.08864,5.08864,0,0,0,.35157-1.26074,9.08992,9.08992,0,0,0,.11035-1.42383,11.76362,11.76362,0,0,0-.083-1.45507,3.96635,3.96635,0,0,0-.291-1.11621,1.716,1.716,0,0,0-.55273-.71192A1.44456,1.44456,0,0,0,122.92722,232.77661Z"/><path d="M129.3696,241.30981v-1.291l1.2041-.18555v-6.47656l-1.16894-.36133v-1.4668l3.50683-.46679h.044l.7207.40429v8.36719l1.2041.18555v1.291ZM131.813,229.6731a1.33917,1.33917,0,0,1-.58887-.12305,1.24071,1.24071,0,0,1-.42675-.334,1.485,1.485,0,0,1-.25879-.4873,1.92316,1.92316,0,0,1-.08789-.585,2.35233,2.35233,0,0,1,.10058-.69336,1.643,1.643,0,0,1,.30371-.56738,1.44118,1.44118,0,0,1,.50489-.38184,1.69433,1.69433,0,0,1,.71679-.14062h.00879a1.68253,1.68253,0,0,1,.67676.123,1.28805,1.28805,0,0,1,.73828.8086,1.87807,1.87807,0,0,1,.08789.58007,2.3663,2.3663,0,0,1-.10156.707,1.45826,1.45826,0,0,1-.86523.95312,2.05557,2.05557,0,0,1-.79981.14063Z"/><path d="M136.05808,241.30981v-1.291l1.17773-.18555v-6.47656l-1.17773-.35156v-1.47657l3.27832-.46679h.05273l.49219.40429v2.33008h.044a5.09956,5.09956,0,0,1,.40918-.84375,4.84751,4.84751,0,0,1,.68066-.90136,3.93321,3.93321,0,0,1,.91406-.71582,2.186,2.186,0,0,1,1.09864-.291,3.42372,3.42372,0,0,1,.457.02246,1.27615,1.27615,0,0,1,.24609.05762v3.498a1.55453,1.55453,0,0,0-.58008-.18066,6.52418,6.52418,0,0,0-1.14258-.083,4.69013,4.69013,0,0,0-.4707.02539c-.17187.01758-.34082.04-.50488.06641a3.54541,3.54541,0,0,0-.43945.09668,1.08111,1.08111,0,0,0-.27247.11035v5.17578l2.0918.23828v1.23828Z"/><path d="M148.48581,241.50317a3.96889,3.96889,0,0,1-1.542-.29394,3.179,3.179,0,0,1-1.22266-.90527,4.40365,4.40365,0,0,1-.80371-1.54688,7.53378,7.53378,0,0,1-.29-2.21875,6.70736,6.70736,0,0,1,.35547-2.23242,4.92557,4.92557,0,0,1,1.0293-1.73633,4.587,4.587,0,0,1,1.64258-1.125,5.76886,5.76886,0,0,1,2.21094-.40039,5.98432,5.98432,0,0,1,.65429.03516,6.15771,6.15771,0,0,1,.61133.09765v-2.83984l-1.54687-.32422V226.9231l3.97265-.37891h.04395l.61523.4668v12.99023h.93164v1.20313q-.4746.09667-1.07226.20312a7.66592,7.66592,0,0,1-1.32715.10547,1.34777,1.34777,0,0,1-.90039-.27344,1.13847,1.13847,0,0,1-.32129-.91406v-.334a3.08991,3.08991,0,0,1-.51465.58984,3.44386,3.44386,0,0,1-.68945.47851,3.8176,3.8176,0,0,1-.84766.3252A3.96909,3.96909,0,0,1,148.48581,241.50317Zm1.27442-1.72265a2.06681,2.06681,0,0,0,.8125-.15332,1.50659,1.50659,0,0,0,.55859-.374V232.6438a1.19367,1.19367,0,0,0-.42578-.23633,2.02607,2.02607,0,0,0-.66406-.09766,1.68,1.68,0,0,0-.791.19336,1.734,1.734,0,0,0-.65039.64649,3.89844,3.89844,0,0,0-.44824,1.2041,9.489,9.489,0,0,0-.18457,1.86816,9.71718,9.71718,0,0,0,.10156,1.63477,3.58594,3.58594,0,0,0,.334,1.10254,1.49058,1.49058,0,0,0,.5664.624A1.55409,1.55409,0,0,0,149.76023,239.78052Z"/><path d="M117.60105,318.30981v-1.26562l1.37988-.27148v-6.83008h-1.46777v-1.168l1.46777-.43945v-.34375a4.44455,4.44455,0,0,1,.21094-1.39649,4.5036,4.5036,0,0,1,.57617-1.16992,4.70469,4.70469,0,0,1,.85156-.93555,5.36168,5.36168,0,0,1,1.042-.68554,5.51827,5.51827,0,0,1,1.1377-.42188,4.76072,4.76072,0,0,1,1.14746-.14453,3.19724,3.19724,0,0,1,.69043.05664c.16016.03809.27344.06836.33789.0918v2.96289a1.78164,1.78164,0,0,0-.37305-.291,3.13723,3.13723,0,0,0-.51464-.24609,3.72331,3.72331,0,0,0-.59766-.166,3.26665,3.26665,0,0,0-.624-.0625.76642.76642,0,0,0-.5586.21094,1.04953,1.04953,0,0,0-.21484.75586l.00879,1.78516h2.19726v1.60742h-2.19726v6.89062l1.98633.21094v1.26562Z"/><path d="M125.33542,318.30981v-1.291l1.17774-.18555v-6.47656l-1.17774-.35156v-1.47657l3.27832-.46679h.05274l.49218.40429v2.33008h.04395a5.09956,5.09956,0,0,1,.40918-.84375,4.84751,4.84751,0,0,1,.68066-.90136,3.93327,3.93327,0,0,1,.91407-.71582,2.18589,2.18589,0,0,1,1.09863-.291,3.42362,3.42362,0,0,1,.457.02246,1.27615,1.27615,0,0,1,.24609.05762v3.498a1.55453,1.55453,0,0,0-.58007-.18066,6.52426,6.52426,0,0,0-1.14258-.083,4.69017,4.69017,0,0,0-.47071.02539c-.17187.01758-.34082.04-.50488.06641a3.54582,3.54582,0,0,0-.43945.09668,1.08084,1.08084,0,0,0-.27246.11035v5.17578l2.09179.23828v1.23828Z"/><path d="M133.8696,313.38013a6.29362,6.29362,0,0,1,.41309-2.39551,4.6519,4.6519,0,0,1,1.1123-1.66113,4.39642,4.39642,0,0,1,1.6211-.9668,6.02347,6.02347,0,0,1,1.94238-.3125,5.84064,5.84064,0,0,1,2.00879.32617,3.96393,3.96393,0,0,1,1.51562.9707,4.30941,4.30941,0,0,1,.958,1.6084,6.78628,6.78628,0,0,1,.334,2.22754,6.494,6.494,0,0,1-.41309,2.44824,4.532,4.532,0,0,1-1.11133,1.65723,4.31751,4.31751,0,0,1-1.61719.93555,6.31777,6.31777,0,0,1-1.93847.29492,5.77028,5.77028,0,0,1-2.00879-.33008,4.00925,4.00925,0,0,1-1.51563-.97558,4.3775,4.3775,0,0,1-.96289-1.6045A6.68888,6.68888,0,0,1,133.8696,313.38013Zm5.001,3.83984a1.26012,1.26012,0,0,0,.71191-.19726,1.42088,1.42088,0,0,0,.49219-.63672,4.22524,4.22524,0,0,0,.28516-1.14258,13.28845,13.28845,0,0,0,.09277-1.71485,18.48684,18.48684,0,0,0-.083-1.88476,5.40709,5.40709,0,0,0-.27734-1.30078,1.68406,1.68406,0,0,0-.50977-.75977,1.22161,1.22161,0,0,0-.77343-.24609,1.28541,1.28541,0,0,0-.7168.19726,1.46662,1.46662,0,0,0-.50488.63672,4.11253,4.11253,0,0,0-.29883,1.13867,12.84118,12.84118,0,0,0-.09668,1.71875,16.717,16.717,0,0,0,.09179,1.88477,5.44521,5.44521,0,0,0,.291,1.30078,1.69338,1.69338,0,0,0,.51758.75977A1.24348,1.24348,0,0,0,138.87058,317.22Z"/><path d="M149.54929,314.94458c-.252,0-.49023-.00781-.7168-.02246-.22461-.01465-.44043-.03613-.6455-.06543a1.05061,1.05061,0,0,0-.15821.28906,1.09372,1.09372,0,0,0-.06152.37891.90017.90017,0,0,0,.10156.457.65092.65092,0,0,0,.33789.27148,2.21677,2.21677,0,0,0,.624.13282q.38671.03515.958.03515h1.66992a8.82781,8.82781,0,0,1,1.73145.14844,3.40935,3.40935,0,0,1,1.23047.47949,2.0656,2.0656,0,0,1,.73828.85645,3.01989,3.01989,0,0,1,.24609,1.2832,2.94484,2.94484,0,0,1-.50488,1.69238,4.27087,4.27087,0,0,1-1.34082,1.248,6.80356,6.80356,0,0,1-1.89844.76856,9.0601,9.0601,0,0,1-2.18847.26367h-.00879a9.27314,9.27314,0,0,1-2.20215-.22364,4.47687,4.47687,0,0,1-1.4668-.61523,2.35836,2.35836,0,0,1-.82226-.92676,2.69153,2.69153,0,0,1-.25489-1.16992,1.79233,1.79233,0,0,1,.14942-.71582,2.29407,2.29407,0,0,1,.4082-.63281,3.088,3.088,0,0,1,.59766-.50489,2.81345,2.81345,0,0,1,.71679-.334,2.18658,2.18658,0,0,1-.835-.68555,1.62812,1.62812,0,0,1-.29-.959,1.81861,1.81861,0,0,1,.33789-1.10254,3.27943,3.27943,0,0,1,.86622-.80371,2.76654,2.76654,0,0,1-1.34082-1.165,3.65244,3.65244,0,0,1-.40821-1.78027,2.85723,2.85723,0,0,1,.36035-1.42383,3.45779,3.45779,0,0,1,.98926-1.10254,4.78919,4.78919,0,0,1,1.48438-.71582,6.50264,6.50264,0,0,1,1.85937-.25586h.00879a5.76759,5.76759,0,0,1,3.39258.80078,1.79055,1.79055,0,0,1,.34277-.30859,2.61492,2.61492,0,0,1,.48828-.26758,3.18342,3.18342,0,0,1,.61524-.18945,3.45813,3.45813,0,0,1,.707-.07032h.44824v2.10157h-1.70508a3.95394,3.95394,0,0,1,.17578,1.20312,3.15309,3.15309,0,0,1-.334,1.4375,3.42625,3.42625,0,0,1-.94922,1.15137,4.6194,4.6194,0,0,1-1.48926.76465,6.46961,6.46961,0,0,1-1.95605.27734Zm-.58887,3.51563c-.13476,0-.2666-.00489-.39551-.01368s-.25195-.01953-.36914-.03125a1.63766,1.63766,0,0,0-.3125.44434,1.85172,1.85172,0,0,0-.14453.81348,2.87249,2.87249,0,0,0,.1543,1.01953,1.48123,1.48123,0,0,0,.44336.64062,1.70727,1.70727,0,0,0,.71191.334,4.30363,4.30363,0,0,0,.958.09765h.00879a4.035,4.035,0,0,0,.97168-.11914,2.86135,2.86135,0,0,0,.86133-.36523,2.06278,2.06278,0,0,0,.61914-.61035,1.55374,1.55374,0,0,0,.2373-.86621,2.09534,2.09534,0,0,0-.083-.62793.85041.85041,0,0,0-.28614-.417,1.29815,1.29815,0,0,0-.5498-.22851,4.45029,4.45029,0,0,0-.86524-.07031Zm.79981-4.73829h.00879a1.09408,1.09408,0,0,0,.668-.18847,1.26558,1.26558,0,0,0,.39941-.50489,2.369,2.369,0,0,0,.19336-.73046,7.20053,7.20053,0,0,0,.04883-.86133,3.24688,3.24688,0,0,0-.31641-1.66016,1.16923,1.16923,0,0,0-1.07227-.502h-.00878a1.375,1.375,0,0,0-.668.14551,1.08814,1.08814,0,0,0-.42188.417,1.90665,1.90665,0,0,0-.21972.668,5.82236,5.82236,0,0,0-.06153.88867,6.16046,6.16046,0,0,0,.07031.98437,2.21923,2.21923,0,0,0,.23731.72852,1.16031,1.16031,0,0,0,.44824.457A1.39874,1.39874,0,0,0,149.76023,313.72192Z"/><path d="M118.48,394.81763V382.37231l-1.248-.24609v-1.125l3.68261-.457h.03516l.61523.38672v5.15039a3.95017,3.95017,0,0,1,.4834-.39063,3.4902,3.4902,0,0,1,.61035-.334,3.98523,3.98523,0,0,1,.72559-.22852,3.86529,3.86529,0,0,1,.81738-.084,4.33524,4.33524,0,0,1,1.51172.25977,3.00534,3.00534,0,0,1,1.22168.84375,4.19721,4.19721,0,0,1,.82129,1.52929,7.62025,7.62025,0,0,1,.30371,2.31543,6.49209,6.49209,0,0,1-.35644,2.17969,5.10654,5.10654,0,0,1-1.02735,1.75391,4.72248,4.72248,0,0,1-1.64843,1.16406,5.50683,5.50683,0,0,1-2.20606.42187,15.86058,15.86058,0,0,1-1.71777-.083c-.50782-.05567-.94336-.12208-1.31055-.19825a6.84229,6.84229,0,0,1-.87891-.23242A3.19249,3.19249,0,0,1,118.48,394.81763Zm4.44727-8.042a2.09305,2.09305,0,0,0-.80859.14942,1.42235,1.42235,0,0,0-.55372.37793v6.5918a.85435.85435,0,0,0,.4043.24609,1.99727,1.99727,0,0,0,.668.10547,1.44526,1.44526,0,0,0,.98047-.34668,2.47833,2.47833,0,0,0,.64062-.90528,5.0965,5.0965,0,0,0,.35157-1.26171,9.08992,9.08992,0,0,0,.11035-1.42383,11.74716,11.74716,0,0,0-.083-1.4541,3.96635,3.96635,0,0,0-.291-1.11621,1.716,1.716,0,0,0-.55273-.71192A1.445,1.445,0,0,0,122.92722,386.77563Z"/><path d="M129.3696,395.30981v-1.292l1.2041-.18457v-6.47754l-1.16894-.36035v-1.46777l3.50683-.46582h.044l.7207.40429v8.36719l1.2041.18457v1.292ZM131.813,383.6731a1.33917,1.33917,0,0,1-.58887-.123,1.24071,1.24071,0,0,1-.42675-.334,1.485,1.485,0,0,1-.25879-.4873,1.92316,1.92316,0,0,1-.08789-.585,2.35894,2.35894,0,0,1,.10058-.69434,1.63845,1.63845,0,0,1,.30371-.5664,1.44362,1.44362,0,0,1,.50489-.38282,1.69433,1.69433,0,0,1,.71679-.14062h.00879a1.68235,1.68235,0,0,1,.67676.123,1.32868,1.32868,0,0,1,.46582.33007,1.31432,1.31432,0,0,1,.27246.47852,1.87809,1.87809,0,0,1,.08789.58008,2.37282,2.37282,0,0,1-.10156.708,1.45826,1.45826,0,0,1-.86523.95312,2.05557,2.05557,0,0,1-.79981.14063Z"/><path d="M136.05808,395.30981v-1.292l1.17773-.18457v-6.47754l-1.17773-.35156v-1.47656l3.27832-.46582h.05273l.49219.40429v2.32911h.044a5.0988,5.0988,0,0,1,.40918-.84375,4.84129,4.84129,0,0,1,.68066-.90039,3.93757,3.93757,0,0,1,.91406-.7168,2.185,2.185,0,0,1,1.09864-.29,3.42372,3.42372,0,0,1,.457.02246,1.28324,1.28324,0,0,1,.24609.05664v3.498a1.55922,1.55922,0,0,0-.58008-.17969,6.51286,6.51286,0,0,0-1.14258-.084,4.71211,4.71211,0,0,0-.4707.02636c-.17187.01758-.34082.04-.50488.06641a3.54541,3.54541,0,0,0-.43945.09668,1.08788,1.08788,0,0,0-.27247.10937v5.17676l2.0918.23731v1.23925Z"/><path d="M148.48581,395.50317a3.96889,3.96889,0,0,1-1.542-.29394,3.179,3.179,0,0,1-1.22266-.90527,4.40365,4.40365,0,0,1-.80371-1.54688,7.54071,7.54071,0,0,1-.29-2.21973,6.70736,6.70736,0,0,1,.35547-2.23242,4.92127,4.92127,0,0,1,1.0293-1.73535,4.587,4.587,0,0,1,1.64258-1.125,5.76886,5.76886,0,0,1,2.21094-.40039,5.98432,5.98432,0,0,1,.65429.03516,6.16022,6.16022,0,0,1,.61133.09668v-2.83887l-1.54687-.3252v-1.08984l3.97265-.37793h.04395l.61523.46582v12.99023h.93164v1.20411q-.4746.09668-1.07226.20214a7.66493,7.66493,0,0,1-1.32715.10547,1.34758,1.34758,0,0,1-.90039-.27246,1.13847,1.13847,0,0,1-.32129-.91406v-.334a3.08482,3.08482,0,0,1-.51465.58886,3.44742,3.44742,0,0,1-.68945.47949,3.8176,3.8176,0,0,1-.84766.3252A3.96909,3.96909,0,0,1,148.48581,395.50317Zm1.27442-1.72265a2.06681,2.06681,0,0,0,.8125-.15332,1.50659,1.50659,0,0,0,.55859-.374V386.6438a1.19436,1.19436,0,0,0-.42578-.23731,2.0276,2.0276,0,0,0-.66406-.09668,1.68,1.68,0,0,0-.791.19336,1.734,1.734,0,0,0-.65039.64649,3.89844,3.89844,0,0,0-.44824,1.2041,9.47828,9.47828,0,0,0-.18457,1.86719,9.71713,9.71713,0,0,0,.10156,1.63476,3.59275,3.59275,0,0,0,.334,1.10352,1.49058,1.49058,0,0,0,.5664.624A1.55409,1.55409,0,0,0,149.76023,393.78052Z"/><path d="M123.29148,467.37036a6.36678,6.36678,0,0,1,.36523-2.22363,4.78249,4.78249,0,0,1,1.02832-1.67481,4.47263,4.47263,0,0,1,1.59473-1.05859,5.567,5.567,0,0,1,2.0664-.36914,9.71869,9.71869,0,0,1,1.20313.06641,9.16663,9.16663,0,0,1,.94531.1582c.27246.06055.50391.123.69434.18359.19043.0625.34472.10742.46191.13672l-.08789,3.2168h-1.73242l-.5625-1.59082a1.96937,1.96937,0,0,0-.42188-.6416.83774.83774,0,0,0-.60546-.23731,1.25815,1.25815,0,0,0-.65039.18067,1.54,1.54,0,0,0-.541.58789,3.77535,3.77535,0,0,0-.373,1.07714,8.18854,8.18854,0,0,0-.14062,1.65235,9.44416,9.44416,0,0,0,.13574,1.74023,3.16438,3.16438,0,0,0,.42676,1.15137,1.65332,1.65332,0,0,0,.72851.62891,2.62918,2.62918,0,0,0,1.03711.18847,4.32049,4.32049,0,0,0,1.40235-.19824,5.234,5.234,0,0,0,.98828-.44336l.50195,1.18652a3.25238,3.25238,0,0,1-.50195.42188,5.15019,5.15019,0,0,1-.81641.46973,6.06864,6.06864,0,0,1-1.06836.3789,5.05785,5.05785,0,0,1-1.26172.15332,5.64635,5.64635,0,0,1-2.20507-.38672,3.91736,3.91736,0,0,1-1.49415-1.07226,4.313,4.313,0,0,1-.84863-1.62988A7.50351,7.50351,0,0,1,123.29148,467.37036Z"/><path d="M132.688,469.62036a2.68066,2.68066,0,0,1,.23242-1.14258,2.8571,2.8571,0,0,1,.63672-.88281,3.75467,3.75467,0,0,1,.9541-.65039,6.47171,6.47171,0,0,1,1.18653-.43945,9.48375,9.48375,0,0,1,1.332-.25586,13.25955,13.25955,0,0,1,1.38867-.0918v-.4043a1.68279,1.68279,0,0,0-.41406-1.27929,1.81617,1.81617,0,0,0-1.26563-.38184,6.55224,6.55224,0,0,0-.95312.07031q-.479.07032-.918.17578c-.293.07032-.56641.14747-.81836.2334a6.88608,6.88608,0,0,0-.65039.25h-.00781L132.811,463.468a4.81044,4.81044,0,0,1,.64062-.38672,8.03246,8.03246,0,0,1,1.082-.46094,11.1642,11.1642,0,0,1,1.41407-.3916,7.89923,7.89923,0,0,1,1.65234-.167,5.64211,5.64211,0,0,1,1.70117.22461,2.79991,2.79991,0,0,1,1.15625.668,2.61758,2.61758,0,0,1,.6543,1.11523,5.36579,5.36579,0,0,1,.207,1.56934V471.009h1.08984v1.19532l-.418.08789c-.167.03515-.35743.06836-.57129.10156-.21387.03125-.44825.05957-.70313.083s-.52637.03515-.81347.03515a5.14152,5.14152,0,0,1-.59766-.03027.91522.91522,0,0,1-.39063-.12793.55023.55023,0,0,1-.21093-.27637,1.4325,1.4325,0,0,1-.06641-.47949v-.60644a3.774,3.774,0,0,1-.43457.51855,3.145,3.145,0,0,1-.6377.49219,3.78883,3.78883,0,0,1-.84375.36426,3.56741,3.56741,0,0,1-1.05468.1455,3.9367,3.9367,0,0,1-1.17774-.1709,2.59958,2.59958,0,0,1-.94433-.52343,2.41249,2.41249,0,0,1-.62793-.90039A3.36738,3.36738,0,0,1,132.688,469.62036Zm4.37695,1.01074a1.395,1.395,0,0,0,.30274-.04,2.61222,2.61222,0,0,0,.36914-.10937,2.52239,2.52239,0,0,0,.36914-.17188,1.392,1.392,0,0,0,.3125-.23242v-2.751a4.57432,4.57432,0,0,0-1.25293.1455,2.19734,2.19734,0,0,0-.80371.39063,1.399,1.399,0,0,0-.42676.57129,1.86233,1.86233,0,0,0-.12793.68554,1.84259,1.84259,0,0,0,.29883,1.09473A1.101,1.101,0,0,0,137.06491,470.6311Z"/><path d="M144.20945,470.08618V463.802h-1.22071V462.721c.02344-.01172.08887-.03614.19727-.0752.1084-.03711.22265-.082.34277-.13086.12012-.05078.23145-.0957.334-.13672a1.42453,1.42453,0,0,0,.16308-.07031,3.81427,3.81427,0,0,0,.70313-.94922,9.37885,9.37885,0,0,0,.39941-.86523q.20655-.50683.35645-.98047h1.80078l.03515,2.68066h2.40039v1.6084h-2.40039v4.67578c0,.44532.00782.80078.02247,1.06836a2.1694,2.1694,0,0,0,.10058.61035.44486.44486,0,0,0,.23828.27637,1.11985,1.11985,0,0,0,.42969.06641h.00977a2.46028,2.46028,0,0,0,.40429-.03516c.14063-.02344.27735-.05078.41211-.084.13477-.03125.2627-.06641.38281-.10547.12012-.03711.21875-.07129.29493-.10059h.00781l.4668,1.125a5.36479,5.36479,0,0,1-.67286.43946,5.86491,5.86491,0,0,1-.86621.3916,6.99567,6.99567,0,0,1-1.00976.27636,5.781,5.781,0,0,1-1.11719.10547h-.01758a2.81322,2.81322,0,0,1-1.06738-.17578,1.63777,1.63777,0,0,1-.67676-.49219,1.87755,1.87755,0,0,1-.35156-.76464A4.52035,4.52035,0,0,1,144.20945,470.08618Z"/><path d="M207.36081,95.31079v-.81152l1.53028-.15039V87.9895l-1.36914.124-.41407,2.33105h-1.11132l.15625-3.30859h7.36328l.17773,3.30859h-1.11719l-.41992-2.33105-1.31055-.124v6.35938l1.60645.15039v.81152Z"/><path d="M214.268,95.31079v-.81152l.87012-.14453V88.09692l-.8545-.17187V87.136h1.78321c.18359,0,.3457-.00391.48633-.01075.1416-.00683.28418-.01464.42773-.02148.14258-.00684.29688-.01465.46094-.02148q.24756-.01026.58008-.01075a6.23788,6.23788,0,0,1,1.41308.13672,2.44245,2.44245,0,0,1,.92676.40625,1.50711,1.50711,0,0,1,.50488.668,2.6,2.6,0,0,1,.15332.92676,2.9508,2.9508,0,0,1-.08593.6875,2.35123,2.35123,0,0,1-.27442.666,2.03118,2.03118,0,0,1-.48926.54786,1.83554,1.83554,0,0,1-.73047.33789,1.3718,1.3718,0,0,1,.54883.35742,3.16888,3.16888,0,0,1,.4209.56152,5.7275,5.7275,0,0,1,.333.64942c.09863.22656.18945.43359.27441.623a4.003,4.003,0,0,0,.249.48438.46233.46233,0,0,0,.26367.23047l.46191.14453v.81152h-2.19629c-.08593,0-.17382-.07617-.26074-.22851a4.14691,4.14691,0,0,1-.26855-.58008q-.1377-.35157-.28516-.77832c-.09766-.28516-.20215-.5586-.31152-.81934a5.98044,5.98044,0,0,0-.34082-.69824,1.16333,1.16333,0,0,0-.3711-.42383c-.08886,0-.18164-.002-.27636-.00293-.09473-.00195-.18457-.00391-.26856-.00586-.084-.001-.1582-.00293-.22266-.00488s-.11328-.00293-.14453-.00293v2.58887l.89649.14453v.81152Zm2.77734-4.335a.57068.57068,0,0,0,.14453.02441c.06446.00586.13282.00879.207.00879h.38379a1.12532,1.12532,0,0,0,.92382-.41992,2.09106,2.09106,0,0,0,.33887-1.32031,1.48051,1.48051,0,0,0-.3418-1.08008,1.41625,1.41625,0,0,0-1.04492-.34375,3.92808,3.92808,0,0,0-.41015.01563c-.084.01171-.15137.02148-.20118.0332Z"/><path d="M226.0571,95.39673a3.62038,3.62038,0,0,1-2.56933-.82129,3.37921,3.37921,0,0,1-.87305-2.56836v-3.9043l-.73535-.17773V87.136h3.71094v.78906l-.94532.17187v4.125a4.422,4.422,0,0,0,.09961.98047,2.4067,2.4067,0,0,0,.293.74707,1.38965,1.38965,0,0,0,.47754.47559,1.28154,1.28154,0,0,0,.65527.166,1.59337,1.59337,0,0,0,1.415-.74414,2.32366,2.32366,0,0,0,.31446-.76757,4.06919,4.06919,0,0,0,.09668-.88868V88.09692l-.93946-.17187V87.136h2.84571v.78906l-.709.17187v4.05079a4.09412,4.09412,0,0,1-.23633,1.47363,2.67328,2.67328,0,0,1-.65429,1.00976,2.57553,2.57553,0,0,1-.99414.58008A4.04485,4.04485,0,0,1,226.0571,95.39673Z"/><path d="M230.43991,95.31079v-.81641l.8711-.1455v-6.2461l-.86524-.17773V87.136h6.10157l.11816,1.96093h-1.042l-.41406-1.06933-1.93848-.12891v2.84668l1.21973-.02148.16015-.91309h1.03125v2.71777h-1.03125l-.16015-.9082-1.21973-.02148v2.81445l2.39551-.12891.67676-1.46582,1.03613.21485-.30078,2.27734Z"/><rect class="d" x="16.42315" y="122.65651" width="70" height="70"/><path d="M44.91648,167.67017a5.91494,5.91494,0,0,0,.6875.17675q.38964.07911.82129.13477c.28808.03711.583.06641.88476.085s.59961.02832.8916.02832a7.24048,7.24048,0,0,0,2.209-.31152,4.872,4.872,0,0,0,1.65722-.87793,3.8138,3.8138,0,0,0,1.041-1.35254,4.11176,4.11176,0,0,0,.36035-1.73438,3.90211,3.90211,0,0,0-.17676-1.126,3.089,3.089,0,0,0-.58691-1.083,3.43983,3.43983,0,0,0-1.07617-.84277,4.06678,4.06678,0,0,0-1.64258-.40332l-1.91211.31152-.84961-2.23731a6.56439,6.56439,0,0,0,1.25977-.30468q.63867-.21827,1.16211-.417a6.29367,6.29367,0,0,0,1.45117-.793,4.69755,4.69755,0,0,0,.98437-.98438,3.747,3.747,0,0,0,.5586-1.13281,4.36572,4.36572,0,0,0,.17773-1.23926,2.79609,2.79609,0,0,0-.21973-1.16113,2.17978,2.17978,0,0,0-.58789-.78614,2.40684,2.40684,0,0,0-.82812-.44628,3.25963,3.25963,0,0,0-.95606-.14063,6.827,6.827,0,0,0-2.34375.36035,7.61217,7.61217,0,0,0-1.86132.999l-1.17579-2.09571a6.14157,6.14157,0,0,1,1.01954-.77929,10.40609,10.40609,0,0,1,1.53613-.793,12.03152,12.03152,0,0,1,1.91211-.61621,9.23771,9.23771,0,0,1,2.14551-.24707,10.12926,10.12926,0,0,1,2.51953.29687,5.79547,5.79547,0,0,1,2.0039.91309,4.40586,4.40586,0,0,1,1.32422,1.53613,4.65721,4.65721,0,0,1,.48145,2.18164,5.96938,5.96938,0,0,1-1.2461,3.85156,8.70188,8.70188,0,0,1-3.61035,2.51953,7.46805,7.46805,0,0,1,2.541.291,5.16278,5.16278,0,0,1,1.834.97656,4.1122,4.1122,0,0,1,1.11133,1.48731,4.48506,4.48506,0,0,1,.375,1.81933,6.51329,6.51329,0,0,1-.623,2.83887,6.19242,6.19242,0,0,1-1.88281,2.27246,9.54994,9.54994,0,0,1-3.13672,1.51563,15.57667,15.57667,0,0,1-4.38281.55273q-.49512,0-1.04-.043-.54639-.04248-1.0625-.12012c-.34473-.05175-.667-.11328-.96973-.18457a7.85394,7.85394,0,0,1-.77929-.21875Z"/><path d="M207.36081,172.31079v-.81152l1.53028-.15039V164.9895l-1.36914.124-.41407,2.33105h-1.11132l.15625-3.30859h7.36328l.17773,3.30859h-1.11719l-.41992-2.33105-1.31055-.124v6.35938l1.60645.15039v.81152Z"/><path d="M214.268,172.31079v-.81152l.87012-.14453v-6.25782l-.8545-.17187V164.136h1.78321c.18359,0,.3457-.00391.48633-.01075.1416-.00683.28418-.01464.42773-.02148.14258-.00684.29688-.01465.46094-.02148q.24756-.01026.58008-.01075a6.23788,6.23788,0,0,1,1.41308.13672,2.44245,2.44245,0,0,1,.92676.40625,1.50711,1.50711,0,0,1,.50488.668,2.6,2.6,0,0,1,.15332.92676,2.9508,2.9508,0,0,1-.08593.6875,2.35123,2.35123,0,0,1-.27442.666,2.03118,2.03118,0,0,1-.48926.54786,1.83554,1.83554,0,0,1-.73047.33789,1.3718,1.3718,0,0,1,.54883.35742,3.16888,3.16888,0,0,1,.4209.56152,5.7275,5.7275,0,0,1,.333.64942c.09863.22656.18945.43359.27441.623a4.003,4.003,0,0,0,.249.48438.46233.46233,0,0,0,.26367.23047l.46191.14453v.81152h-2.19629c-.08593,0-.17382-.07617-.26074-.22851a4.14691,4.14691,0,0,1-.26855-.58008q-.1377-.35157-.28516-.77832c-.09766-.28516-.20215-.5586-.31152-.81934a5.98044,5.98044,0,0,0-.34082-.69824,1.16333,1.16333,0,0,0-.3711-.42383c-.08886,0-.18164-.00195-.27636-.00293-.09473-.00195-.18457-.00391-.26856-.00586-.084-.001-.1582-.00293-.22266-.00488s-.11328-.00293-.14453-.00293v2.58887l.89649.14453v.81152Zm2.77734-4.335a.57068.57068,0,0,0,.14453.02441c.06446.00586.13282.00879.207.00879h.38379a1.12532,1.12532,0,0,0,.92382-.41992,2.09106,2.09106,0,0,0,.33887-1.32031,1.48051,1.48051,0,0,0-.3418-1.08008,1.41625,1.41625,0,0,0-1.04492-.34375,3.92808,3.92808,0,0,0-.41015.01563c-.084.01171-.15137.02148-.20118.0332Z"/><path d="M226.0571,172.39673a3.62038,3.62038,0,0,1-2.56933-.82129,3.37921,3.37921,0,0,1-.87305-2.56836v-3.9043l-.73535-.17773V164.136h3.71094v.78906l-.94532.17187v4.125a4.422,4.422,0,0,0,.09961.98047,2.4067,2.4067,0,0,0,.293.74707,1.38965,1.38965,0,0,0,.47754.47559,1.28154,1.28154,0,0,0,.65527.166,1.59337,1.59337,0,0,0,1.415-.74414,2.32366,2.32366,0,0,0,.31446-.76757,4.06919,4.06919,0,0,0,.09668-.88868v-4.09375l-.93946-.17187V164.136h2.84571v.78906l-.709.17187v4.05079a4.09412,4.09412,0,0,1-.23633,1.47363,2.67328,2.67328,0,0,1-.65429,1.00976,2.57553,2.57553,0,0,1-.99414.58008A4.04485,4.04485,0,0,1,226.0571,172.39673Z"/><path d="M230.43991,172.31079v-.81641l.8711-.1455v-6.2461l-.86524-.17773V164.136h6.10157l.11816,1.96093h-1.042l-.41406-1.06933-1.93848-.12891v2.84668l1.21973-.02148.16015-.91309h1.03125v2.71777h-1.03125l-.16015-.9082-1.21973-.02148v2.81445l2.39551-.12891.67676-1.46582,1.03613.21485-.30078,2.27734Z"/><rect class="d" x="16.42315" y="199.65651" width="70" height="70"/><path d="M38.34616,243.31079v-1.91113l3.07227-.39649V229.845c-.16992.03711-.39062.084-.665.14063s-.55957.10937-.85644.15625c-.29786.04687-.58789.08984-.8711.12695-.2832.03808-.51953.0625-.708.07129l-.36816-2.46387a10.43053,10.43053,0,0,0,1.69922-.49609,14.18052,14.18052,0,0,0,1.62891-.74317,16.64827,16.64827,0,0,0,1.458-.87793,14.97353,14.97353,0,0,0,1.2041-.89843h.01368l2.5625.43847v15.7041l2.918.39649v1.91113Z"/><path d="M51.33054,244.67017a5.91494,5.91494,0,0,0,.6875.17675q.38966.07911.82129.13477c.28808.03711.583.06641.88476.085s.59961.02832.89161.02832a7.24046,7.24046,0,0,0,2.209-.31152,4.87213,4.87213,0,0,0,1.65723-.87793,3.81389,3.81389,0,0,0,1.041-1.35254,4.11161,4.11161,0,0,0,.36035-1.73438,3.90242,3.90242,0,0,0-.17675-1.126,3.08924,3.08924,0,0,0-.58692-1.083,3.43983,3.43983,0,0,0-1.07617-.84277,4.06678,4.06678,0,0,0-1.64258-.40332l-1.91211.31152-.84961-2.23731a6.56439,6.56439,0,0,0,1.25977-.30468q.63867-.21827,1.16211-.417a6.29367,6.29367,0,0,0,1.45117-.793,4.69761,4.69761,0,0,0,.98438-.98438,3.74718,3.74718,0,0,0,.55859-1.13281,4.36572,4.36572,0,0,0,.17773-1.23926,2.79625,2.79625,0,0,0-.21972-1.16113,2.18,2.18,0,0,0-.58789-.78614,2.407,2.407,0,0,0-.82813-.44628,3.25961,3.25961,0,0,0-.95605-.14063,6.827,6.827,0,0,0-2.34375.36035,7.61223,7.61223,0,0,0-1.86133.999l-1.17578-2.09571a6.14143,6.14143,0,0,1,1.01953-.77929,10.40609,10.40609,0,0,1,1.53613-.793,12.03185,12.03185,0,0,1,1.91211-.61621,9.23771,9.23771,0,0,1,2.14551-.24707,10.12926,10.12926,0,0,1,2.51953.29687,5.79561,5.79561,0,0,1,2.00391.91309,4.40583,4.40583,0,0,1,1.32421,1.53613,4.65709,4.65709,0,0,1,.48145,2.18164,5.96943,5.96943,0,0,1-1.24609,3.85156,8.70191,8.70191,0,0,1-3.61036,2.51953,7.468,7.468,0,0,1,2.541.291,5.16278,5.16278,0,0,1,1.834.97656,4.1122,4.1122,0,0,1,1.11133,1.48731,4.48506,4.48506,0,0,1,.375,1.81933,6.51343,6.51343,0,0,1-.623,2.83887,6.19235,6.19235,0,0,1-1.88282,2.27246,9.54994,9.54994,0,0,1-3.13672,1.51563,15.57662,15.57662,0,0,1-4.38281.55273q-.49512,0-1.04-.043-.54637-.04248-1.0625-.12012c-.34472-.05175-.667-.11328-.96972-.18457a7.85343,7.85343,0,0,1-.7793-.21875Z"/><path d="M203.89109,249.31079v-.81152l.85937-.15039v-6.252l-.875-.17187V241.136h6.23047l.10742,2.11621H209.02l-.44531-1.22461-1.86328-.09668v2.88476l1.18652-.0166.21973-.87011h1.00976v2.7871h-1.00976l-.21973-.94531-1.18652-.02148v2.59961l1.63281.15039v.81152Z"/><path d="M210.13718,249.31079l-.00488-.81152.6875-.14453,2.51855-7.23438h1.98828l2.54493,7.22852.78515.15039v.81152H214.8696v-.81152l.88086-.14453-.34961-1.18164h-2.77636l-.32227,1.18164.88086.14453v.81152Zm3.66406-6.47168-.92968,3.41016h2.25l-1.01465-3.41016-.167-.74219Z"/><path d="M218.6782,249.31079v-.81152l.86914-.15039v-6.2461l-.86426-.17773V241.136h3.91016v.78906l-1.10059.17187v6.22559l1.99219-.11816.69336-2.15918,1.21289.13964-.332,3.126Z"/><path d="M228.936,249.43481a5.73956,5.73956,0,0,1-.94727-.07324c-.292-.04785-.55273-.10156-.78515-.16113-.23047-.05859-.42969-.11328-.59571-.16406a2.0862,2.0862,0,0,0-.38379-.08594l.09082-2.06738h1.08594l.24121,1.33691a1.028,1.028,0,0,0,.15918.13477,1.0727,1.0727,0,0,0,.24414.126,1.93393,1.93393,0,0,0,.33594.09473,2.23552,2.23552,0,0,0,.4209.03711,1.76353,1.76353,0,0,0,.60644-.08887,1.05251,1.05251,0,0,0,.39063-.23633.83788.83788,0,0,0,.209-.34668,1.3823,1.3823,0,0,0,.06153-.41308.97724.97724,0,0,0-.12012-.48047,1.558,1.558,0,0,0-.34961-.41406,3.79043,3.79043,0,0,0-.55859-.38672c-.22071-.127-.47071-.26074-.75-.39942-.207-.10449-.42969-.22851-.666-.374a3.22727,3.22727,0,0,1-.65234-.53125,2.74746,2.74746,0,0,1-.4961-.73926,2.311,2.311,0,0,1-.19921-.99316,1.95289,1.95289,0,0,1,.71484-1.51758,2.6967,2.6967,0,0,1,.9043-.4834,4.12337,4.12337,0,0,1,1.28125-.17969,4.99449,4.99449,0,0,1,.73242.05372q.36914.0542.6914.12109.32227.06591.56836.12891c.165.041.28907.06933.3711.083l-.07032,1.875h-1.06835l-.19922-1.19824a.46384.46384,0,0,0-.13379-.09668,1.41429,1.41429,0,0,0-.21485-.08887,2.01123,2.01123,0,0,0-.2666-.06445,1.74407,1.74407,0,0,0-.28711-.02441,1.6335,1.6335,0,0,0-.53125.07617.96991.96991,0,0,0-.35449.19824.747.747,0,0,0-.19629.29,1.0134,1.0134,0,0,0-.06152.35449,1.02573,1.02573,0,0,0,.15039.55371,1.78892,1.78892,0,0,0,.4082.44532,4.08007,4.08007,0,0,0,.60156.38964q.34425.18458.73536.37793.334.167.68554.38477a3.67884,3.67884,0,0,1,.64649.50488,2.49031,2.49031,0,0,1,.48437.65723,1.849,1.849,0,0,1,.1875.84375,2.65582,2.65582,0,0,1-.15625.875,2.17786,2.17786,0,0,1-.52051.82226,2.7512,2.7512,0,0,1-.96191.60743A4.04507,4.04507,0,0,1,228.936,249.43481Z"/><path d="M232.772,249.31079v-.81641l.86914-.1455v-6.2461l-.86426-.17773V241.136h6.10156l.11817,1.96093h-1.042l-.41308-1.06933-1.93946-.12891v2.84668l1.21875-.02148.16211-.91309h1.03125v2.71777h-1.03125l-.16211-.9082-1.21875-.02148v2.81445l2.39551-.12891.67676-1.46582,1.03711.21485-.30078,2.27734Z"/><rect class="d" x="16.42315" y="276.65651" width="70" height="70"/><path d="M40.3071,320.31079v-1.91113l3.07324-.39649V306.845q-.25488.05566-.665.14063c-.27442.05664-.56055.10937-.85743.15625s-.58789.08984-.87109.127c-.2832.03808-.51855.0625-.707.07129l-.36914-2.46387a10.43082,10.43082,0,0,0,1.69922-.49609,14.18036,14.18036,0,0,0,1.6289-.74317,16.5259,16.5259,0,0,0,1.459-.87793,14.95078,14.95078,0,0,0,1.20312-.89843h.01367l2.56348.43847v15.7041l2.917.39649v1.91113Z"/><path d="M53.13718,320.31079v-1.91113l3.07227-.39649V306.845q-.25489.05566-.666.14063c-.27344.05664-.55859.10937-.85547.15625-.29883.04687-.58789.08984-.87109.127-.28321.03808-.51953.0625-.709.07129l-.36718-2.46387a10.43043,10.43043,0,0,0,1.69921-.49609,14.089,14.089,0,0,0,1.62793-.74317,16.647,16.647,0,0,0,1.458-.87793,14.80207,14.80207,0,0,0,1.2041-.89843h.01465l2.5625.43847v15.7041l2.917.39649v1.91113Z"/><path d="M207.36081,326.31079v-.81152l1.53028-.15039V318.9895l-1.36914.124-.41407,2.331h-1.11132l.15625-3.30859h7.36328l.17773,3.30859h-1.11719l-.41992-2.331-1.31055-.124v6.35938l1.60645.15039v.81152Z"/><path d="M214.268,326.31079v-.81152l.87012-.14453v-6.25782l-.8545-.17187V318.136h1.78321c.18359,0,.3457-.00391.48633-.01075.1416-.00683.28418-.01464.42773-.02148.14258-.00684.29688-.01465.46094-.02148q.24756-.01026.58008-.01075a6.23788,6.23788,0,0,1,1.41308.13672,2.44245,2.44245,0,0,1,.92676.40625,1.50711,1.50711,0,0,1,.50488.668,2.6,2.6,0,0,1,.15332.92676,2.9508,2.9508,0,0,1-.08593.6875,2.35123,2.35123,0,0,1-.27442.666,2.03118,2.03118,0,0,1-.48926.54786,1.83554,1.83554,0,0,1-.73047.33789,1.3718,1.3718,0,0,1,.54883.35742,3.16888,3.16888,0,0,1,.4209.56152,5.7275,5.7275,0,0,1,.333.64942c.09863.22656.18945.43359.27441.623a4.003,4.003,0,0,0,.249.48438.46233.46233,0,0,0,.26367.23047l.46191.14453v.81152h-2.19629c-.08593,0-.17382-.07617-.26074-.22851a4.14691,4.14691,0,0,1-.26855-.58008q-.1377-.35157-.28516-.77832c-.09766-.28516-.20215-.5586-.31152-.81934a5.98044,5.98044,0,0,0-.34082-.69824,1.16333,1.16333,0,0,0-.3711-.42383c-.08886,0-.18164-.00195-.27636-.00293-.09473-.002-.18457-.00391-.26856-.00586-.084-.001-.1582-.00293-.22266-.00488s-.11328-.00293-.14453-.00293v2.58887l.89649.14453v.81152Zm2.77734-4.335a.57068.57068,0,0,0,.14453.02441c.06446.00586.13282.00879.207.00879h.38379a1.12532,1.12532,0,0,0,.92382-.41992,2.09106,2.09106,0,0,0,.33887-1.32031,1.48051,1.48051,0,0,0-.3418-1.08008,1.41625,1.41625,0,0,0-1.04492-.34375,3.92808,3.92808,0,0,0-.41015.01563c-.084.01171-.15137.02148-.20118.0332Z"/><path d="M226.0571,326.39673a3.62038,3.62038,0,0,1-2.56933-.82129,3.37921,3.37921,0,0,1-.87305-2.56836v-3.9043l-.73535-.17773V318.136h3.71094v.78906l-.94532.17187v4.125a4.422,4.422,0,0,0,.09961.98047,2.4067,2.4067,0,0,0,.293.74707,1.38965,1.38965,0,0,0,.47754.47559,1.28154,1.28154,0,0,0,.65527.166,1.59337,1.59337,0,0,0,1.415-.74414,2.32366,2.32366,0,0,0,.31446-.76757,4.06919,4.06919,0,0,0,.09668-.88868v-4.09375l-.93946-.17187V318.136h2.84571v.78906l-.709.17187v4.05079a4.09412,4.09412,0,0,1-.23633,1.47363,2.67328,2.67328,0,0,1-.65429,1.00976,2.57553,2.57553,0,0,1-.99414.58008A4.04485,4.04485,0,0,1,226.0571,326.39673Z"/><path d="M230.43991,326.31079v-.81641l.8711-.1455v-6.2461l-.86524-.17773V318.136h6.10157l.11816,1.96093h-1.042l-.41406-1.06933-1.93848-.12891v2.84668l1.21973-.02148.16015-.91309h1.03125v2.71777h-1.03125l-.16015-.9082-1.21973-.02148v2.81445l2.39551-.12891.67676-1.46582,1.03613.21485-.30078,2.27734Z"/><rect class="d" x="16.42315" y="353.65651" width="70" height="70"/><path d="M37.79441,397.31079v-1.91113l3.07324-.39649V383.845c-.16992.03711-.39258.084-.666.14063s-.55957.10937-.85644.15625c-.29785.04687-.58789.08984-.8711.127-.2832.03808-.51855.0625-.708.07129l-.36817-2.46387a10.43024,10.43024,0,0,0,1.69922-.49609,14.089,14.089,0,0,0,1.62793-.74317,16.5259,16.5259,0,0,0,1.459-.87793,14.77783,14.77783,0,0,0,1.20312-.89843h.01465l2.56348.43847v15.7041l2.916.39649v1.91113Z"/><path d="M51.60007,399.761c.27442.01855.55078.0332.8291.042s.54981.01465.81348.01465a7.81979,7.81979,0,0,0,2.67676-.44629,6.88264,6.88264,0,0,0,2.13769-1.21778,5.56244,5.56244,0,0,0,1.416-1.82031,5.07745,5.07745,0,0,0,.50976-2.251,3.32436,3.32436,0,0,0-3.68164-3.82325,8.60184,8.60184,0,0,0-1.01172.06348q-.53174.06445-1.03418.16992-.50244.10693-.96289.24121a7.98538,7.98538,0,0,0-.7998.27539l-1.10449-.80664,1.38769-11.03125h9.459l.29687-.55176h2.082l-.72265,4.70118H55.72116l-.83593,4.87109a13.37869,13.37869,0,0,1,2.0957-.6084,9.92966,9.92966,0,0,1,1.98242-.21289,6.6374,6.6374,0,0,1,4.81446,1.60742,6.344,6.344,0,0,1,1.65722,4.76465,6.76674,6.76674,0,0,1-.94824,3.51172,9.00717,9.00717,0,0,1-2.57031,2.75391,12.785,12.785,0,0,1-3.7666,1.79882,15.728,15.728,0,0,1-4.53809.64356q-.48193,0-1.00586-.042a7.20172,7.20172,0,0,1-1.01953-.15528Z"/><path d="M207.36081,403.31079v-.81152l1.53028-.15039V395.9895l-1.36914.124-.41407,2.331h-1.11132l.15625-3.30859h7.36328l.17773,3.30859h-1.11719l-.41992-2.331-1.31055-.124v6.35938l1.60645.15039v.81152Z"/><path d="M214.268,403.31079v-.81152l.87012-.14453v-6.25782l-.8545-.17187V395.136h1.78321c.18359,0,.3457-.00391.48633-.01075.1416-.00683.28418-.01464.42773-.02148.14258-.00684.29688-.01465.46094-.02148q.24756-.01026.58008-.01075a6.23788,6.23788,0,0,1,1.41308.13672,2.44245,2.44245,0,0,1,.92676.40625,1.50711,1.50711,0,0,1,.50488.668,2.6,2.6,0,0,1,.15332.92676,2.9508,2.9508,0,0,1-.08593.6875,2.35123,2.35123,0,0,1-.27442.666,2.03118,2.03118,0,0,1-.48926.54786,1.83554,1.83554,0,0,1-.73047.33789,1.3718,1.3718,0,0,1,.54883.35742,3.16888,3.16888,0,0,1,.4209.56152,5.7275,5.7275,0,0,1,.333.64942c.09863.22656.18945.43359.27441.623a4.003,4.003,0,0,0,.249.48438.46233.46233,0,0,0,.26367.23047l.46191.14453v.81152h-2.19629c-.08593,0-.17382-.07617-.26074-.22851a4.14691,4.14691,0,0,1-.26855-.58008q-.1377-.35157-.28516-.77832c-.09766-.28516-.20215-.5586-.31152-.81934a5.98044,5.98044,0,0,0-.34082-.69824,1.16333,1.16333,0,0,0-.3711-.42383c-.08886,0-.18164-.00195-.27636-.00293-.09473-.002-.18457-.00391-.26856-.00586-.084-.001-.1582-.00293-.22266-.00488s-.11328-.00293-.14453-.00293v2.58887l.89649.14453v.81152Zm2.77734-4.335a.57068.57068,0,0,0,.14453.02441c.06446.00586.13282.00879.207.00879h.38379a1.12532,1.12532,0,0,0,.92382-.41992,2.09106,2.09106,0,0,0,.33887-1.32031,1.48051,1.48051,0,0,0-.3418-1.08008,1.41625,1.41625,0,0,0-1.04492-.34375,3.92808,3.92808,0,0,0-.41015.01563c-.084.01171-.15137.02148-.20118.0332Z"/><path d="M226.0571,403.39673a3.62038,3.62038,0,0,1-2.56933-.82129,3.37921,3.37921,0,0,1-.87305-2.56836v-3.9043l-.73535-.17773V395.136h3.71094v.78906l-.94532.17187v4.125a4.422,4.422,0,0,0,.09961.98047,2.4067,2.4067,0,0,0,.293.74707,1.38965,1.38965,0,0,0,.47754.47559,1.28154,1.28154,0,0,0,.65527.166,1.59337,1.59337,0,0,0,1.415-.74414,2.32366,2.32366,0,0,0,.31446-.76757,4.06919,4.06919,0,0,0,.09668-.88868v-4.09375l-.93946-.17187V395.136h2.84571v.78906l-.709.17187v4.05079a4.09412,4.09412,0,0,1-.23633,1.47363,2.67328,2.67328,0,0,1-.65429,1.00976,2.57553,2.57553,0,0,1-.99414.58008A4.04485,4.04485,0,0,1,226.0571,403.39673Z"/><path d="M230.43991,403.31079v-.81641l.8711-.1455v-6.2461l-.86524-.17773V395.136h6.10157l.11816,1.96093h-1.042l-.41406-1.06933-1.93848-.12891v2.84668l1.21973-.02148.16015-.91309h1.03125v2.71777h-1.03125l-.16015-.9082-1.21973-.02148v2.81445l2.39551-.12891.67676-1.46582,1.03613.21485-.30078,2.27734Z"/><rect class="d" x="16.42315" y="430.65651" width="70" height="70"/><path d="M37.39109,474.31079v-1.91113l3.07226-.39649V460.845q-.25488.05566-.666.14063c-.27344.05664-.5586.10937-.85547.15625-.29883.04687-.58789.08984-.8711.127-.2832.03808-.51953.0625-.709.07129l-.36719-2.46387a10.43053,10.43053,0,0,0,1.69922-.49609,14.089,14.089,0,0,0,1.62793-.74317,16.64848,16.64848,0,0,0,1.458-.87793,14.80382,14.80382,0,0,0,1.2041-.89843h.01465l2.5625.43847v15.7041l2.917.39649v1.91113Z"/><path d="M57.63913,474.60864a7.013,7.013,0,0,1-5.64257-2.27343q-1.97462-2.28663-1.97461-6.7754a12.15933,12.15933,0,0,1,.707-4.30468,8.20311,8.20311,0,0,1,1.86914-2.95215,7.319,7.319,0,0,1,2.71875-1.69922,9.64852,9.64852,0,0,1,3.24316-.5459,7.08118,7.08118,0,0,1,5.62793,2.22363q1.94824,2.22217,1.94727,6.74024a12.21808,12.21808,0,0,1-.68555,4.31933,8.37759,8.37759,0,0,1-1.84863,2.98047,7.26658,7.26658,0,0,1-2.7041,1.72754A9.50991,9.50991,0,0,1,57.63913,474.60864Zm.50977-2.02539a1.897,1.897,0,0,0,1.24609-.418,2.906,2.906,0,0,0,.82813-1.28808,9.39012,9.39012,0,0,0,.46094-2.21582,31.31936,31.31936,0,0,0,.1416-3.20117q0-2.09474-.13379-3.51172a9.2684,9.2684,0,0,0-.45313-2.27246,2.46982,2.46982,0,0,0-.84375-1.21778,2.2671,2.2671,0,0,0-1.3164-.36133,1.95393,1.95393,0,0,0-1.25391.41114,2.94737,2.94737,0,0,0-.84961,1.26757,9.13533,9.13533,0,0,0-.48828,2.1875,27.71664,27.71664,0,0,0-.15527,3.15723,34.404,34.404,0,0,0,.14941,3.50488,9.46727,9.46727,0,0,0,.48047,2.3086,2.63292,2.63292,0,0,0,.87109,1.2666A2.20967,2.20967,0,0,0,58.1489,472.58325Z"/><path d="M203.89109,480.31079v-.81152l.85937-.15039v-6.252l-.875-.17187V472.136h6.23047l.10742,2.11621H209.02l-.44531-1.22461-1.86328-.09668v2.88476l1.18652-.0166.21973-.87011h1.00976v2.7871h-1.00976l-.21973-.94531-1.18652-.02148v2.59961l1.63281.15039v.81152Z"/><path d="M210.13718,480.31079l-.00488-.81152.6875-.14453,2.51855-7.23438h1.98828l2.54493,7.22852.78515.15039v.81152H214.8696v-.81152l.88086-.14453-.34961-1.18164h-2.77636l-.32227,1.18164.88086.14453v.81152Zm3.66406-6.47168-.92968,3.41016h2.25l-1.01465-3.41016-.167-.74219Z"/><path d="M218.6782,480.31079v-.81152l.86914-.15039v-6.2461l-.86426-.17773V472.136h3.91016v.78906l-1.10059.17187v6.22559l1.99219-.11816.69336-2.15918,1.21289.13964-.332,3.126Z"/><path d="M228.936,480.43481a5.73956,5.73956,0,0,1-.94727-.07324c-.292-.04785-.55273-.10156-.78515-.16113-.23047-.05859-.42969-.11328-.59571-.16406a2.0862,2.0862,0,0,0-.38379-.08594l.09082-2.06738h1.08594l.24121,1.33691a1.028,1.028,0,0,0,.15918.13477,1.0727,1.0727,0,0,0,.24414.126,1.93393,1.93393,0,0,0,.33594.09473,2.23552,2.23552,0,0,0,.4209.03711,1.76353,1.76353,0,0,0,.60644-.08887,1.05251,1.05251,0,0,0,.39063-.23633.83788.83788,0,0,0,.209-.34668,1.3823,1.3823,0,0,0,.06153-.41308.97724.97724,0,0,0-.12012-.48047,1.558,1.558,0,0,0-.34961-.41406,3.79043,3.79043,0,0,0-.55859-.38672c-.22071-.127-.47071-.26074-.75-.39942-.207-.10449-.42969-.22851-.666-.374a3.22727,3.22727,0,0,1-.65234-.53125,2.74746,2.74746,0,0,1-.4961-.73926,2.311,2.311,0,0,1-.19921-.99316,1.95289,1.95289,0,0,1,.71484-1.51758,2.6967,2.6967,0,0,1,.9043-.4834,4.12337,4.12337,0,0,1,1.28125-.17969,4.99449,4.99449,0,0,1,.73242.05372q.36914.05419.6914.12109.32227.06591.56836.12891c.165.041.28907.06933.3711.083l-.07032,1.875h-1.06835l-.19922-1.19824a.46384.46384,0,0,0-.13379-.09668,1.41429,1.41429,0,0,0-.21485-.08887,2.01123,2.01123,0,0,0-.2666-.06445,1.74407,1.74407,0,0,0-.28711-.02441,1.6335,1.6335,0,0,0-.53125.07617.96991.96991,0,0,0-.35449.19824.747.747,0,0,0-.19629.29,1.0134,1.0134,0,0,0-.06152.35449,1.02573,1.02573,0,0,0,.15039.55371,1.78892,1.78892,0,0,0,.4082.44532,4.08007,4.08007,0,0,0,.60156.38964q.34425.18457.73536.37793.334.167.68554.38477a3.67884,3.67884,0,0,1,.64649.50488,2.49031,2.49031,0,0,1,.48437.65723,1.849,1.849,0,0,1,.1875.84375,2.65582,2.65582,0,0,1-.15625.875,2.17786,2.17786,0,0,1-.52051.82226,2.7512,2.7512,0,0,1-.96191.60743A4.04507,4.04507,0,0,1,228.936,480.43481Z"/><path d="M232.772,480.31079v-.81641l.86914-.1455v-6.2461l-.86426-.17773V472.136h6.10156l.11817,1.96093h-1.042l-.41308-1.06933-1.93946-.12891v2.84668l1.21875-.02148.16211-.91309h1.03125v2.71777h-1.03125l-.16211-.9082-1.21875-.02148v2.81445l2.39551-.12891.67676-1.46582,1.03711.21485-.30078,2.27734Z"/><path d="M84.42331,33.967h-66a2.50232,2.50232,0,0,1-2.5-2.5v-16.5a2.50232,2.50232,0,0,1,2.5-2.5h66a2.50231,2.50231,0,0,1,2.5,2.5v16.5A2.50231,2.50231,0,0,1,84.42331,33.967Zm-66-20.5a1.50164,1.50164,0,0,0-1.5,1.5v16.5a1.50164,1.50164,0,0,0,1.5,1.5h66a1.50164,1.50164,0,0,0,1.5-1.5v-16.5a1.50164,1.50164,0,0,0-1.5-1.5Z"/><path d="M169.42331,33.967h-66a2.50232,2.50232,0,0,1-2.5-2.5v-16.5a2.50232,2.50232,0,0,1,2.5-2.5h66a2.50231,2.50231,0,0,1,2.5,2.5v16.5A2.50231,2.50231,0,0,1,169.42331,33.967Zm-66-20.5a1.50164,1.50164,0,0,0-1.5,1.5v16.5a1.50164,1.50164,0,0,0,1.5,1.5h66a1.50164,1.50164,0,0,0,1.5-1.5v-16.5a1.50164,1.50164,0,0,0-1.5-1.5Z"/><path d="M254.42331,33.967h-66a2.50232,2.50232,0,0,1-2.5-2.5v-16.5a2.50232,2.50232,0,0,1,2.5-2.5h66a2.50231,2.50231,0,0,1,2.5,2.5v16.5A2.50231,2.50231,0,0,1,254.42331,33.967Zm-66-20.5a1.50164,1.50164,0,0,0-1.5,1.5v16.5a1.50164,1.50164,0,0,0,1.5,1.5h66a1.50164,1.50164,0,0,0,1.5-1.5v-16.5a1.50164,1.50164,0,0,0-1.5-1.5Z"/><g class="e"><path class="f" d="M221.82077,275.65649H209.53269v-5h12.28808Zm-24.41992,0H185.269v-5h12.13183Zm-24.26269,0H161.00632v-5h12.13184Zm-24.26367,0H136.74265v-5h12.13184Zm-24.26368,0H112.479v-5h12.13183Zm-24.26367,0H88.21531v-5h12.13183Zm-24.26269,0H63.95261v-5H76.08445Zm-24.26368,0h-.39746a40.99484,40.99484,0,0,1-12.30078-1.87793l1.498-4.76953a36.02892,36.02892,0,0,0,10.80273,1.64746h.39746Zm182.70606-2.05859-1.56836-4.748a35.84553,35.84553,0,0,0,10.03223-5.18652l2.96484,4.02539A40.84232,40.84232,0,0,1,234.52683,273.5979Zm-206.917-5.5625a41.12545,41.12545,0,0,1-9.167-9.01855l4.01954-2.97266a36.14524,36.14524,0,0,0,8.05371,7.92285Zm227.38379-9.49512-4.0625-2.916a35.8221,35.8221,0,0,0,5.0625-10.09375l4.76757,1.50976A40.84915,40.84915,0,0,1,254.99363,258.54028ZM12.50925,247.60083a40.93028,40.93028,0,0,1-2.08594-12.69043l5-.03125a35.93948,35.93948,0,0,0,1.83008,11.14356ZM257.66452,234.3606A35.95,35.95,0,0,0,255.812,223.221l4.74023-1.58789a40.94012,40.94012,0,0,1,2.1123,12.68652ZM17.1157,223.71216,12.352,222.19263a40.856,40.856,0,0,1,5.791-11.48926l4.05664,2.92383A35.847,35.847,0,0,0,17.1157,223.71216Zm233.46582-10.502a36.15084,36.15084,0,0,0-8.07032-7.90723l2.89844-4.07422a41.16346,41.16346,0,0,1,9.18555,8.999Zm-220.42383-7.6045-2.957-4.03125a40.82131,40.82131,0,0,1,11.4414-5.88574l1.55664,4.752A35.84754,35.84754,0,0,0,30.15769,205.60571ZM232.397,200.28247a36.01641,36.01641,0,0,0-10.73243-1.626h-.47558v-5h.47558a41.01772,41.01772,0,0,1,12.22071,1.85254Zm-23.33985-1.626H196.92624v-5H209.0571Zm-24.26269,0H172.66257v-5h12.13184Zm-24.26367,0H148.3989v-5h12.13184Zm-24.26368,0H124.13523v-5h12.13183Zm-24.26367,0H99.87253v-5h12.13086Zm-24.26269,0H75.60886v-5H87.7407Zm-24.26368,0H51.42331l-.07812-5H63.477Z"/></g><g class="e"><path class="f" d="M221.82077,506.65649H209.53269v-5h12.28808Zm-24.41992,0H185.269v-5h12.13183Zm-24.26269,0H161.00632v-5h12.13184Zm-24.26367,0H136.74265v-5h12.13184Zm-24.26368,0H112.479v-5h12.13183Zm-24.26367,0H88.21531v-5h12.13183Zm-24.26269,0H63.95261v-5H76.08445Zm-24.26368,0h-.39746a40.99484,40.99484,0,0,1-12.30078-1.87793l1.498-4.76953a36.02892,36.02892,0,0,0,10.80273,1.64746h.39746Zm182.70606-2.05859-1.56836-4.748a35.84553,35.84553,0,0,0,10.03223-5.18652l2.96484,4.02539A40.84232,40.84232,0,0,1,234.52683,504.5979Zm-206.917-5.5625a41.12545,41.12545,0,0,1-9.167-9.01855l4.01954-2.97266a36.14524,36.14524,0,0,0,8.05371,7.92285Zm227.38379-9.49512-4.0625-2.916a35.8221,35.8221,0,0,0,5.0625-10.09375l4.76757,1.50976A40.84915,40.84915,0,0,1,254.99363,489.54028ZM12.50925,478.60083a40.93028,40.93028,0,0,1-2.08594-12.69043l5-.03125a35.93948,35.93948,0,0,0,1.83008,11.14356ZM257.66452,465.3606A35.95,35.95,0,0,0,255.812,454.221l4.74023-1.58789a40.94012,40.94012,0,0,1,2.1123,12.68652ZM17.1157,454.71216,12.352,453.19263a40.856,40.856,0,0,1,5.791-11.48926l4.05664,2.92383A35.847,35.847,0,0,0,17.1157,454.71216Zm233.46582-10.50195a36.15084,36.15084,0,0,0-8.07032-7.90723l2.89844-4.07422a41.16346,41.16346,0,0,1,9.18555,8.999Zm-220.42383-7.6045-2.957-4.03125a40.82131,40.82131,0,0,1,11.4414-5.88574l1.55664,4.752A35.84754,35.84754,0,0,0,30.15769,436.60571ZM232.397,431.28247a36.01641,36.01641,0,0,0-10.73243-1.626h-.47558v-5h.47558a41.01772,41.01772,0,0,1,12.22071,1.85254Zm-23.33985-1.626H196.92624v-5H209.0571Zm-24.26269,0H172.66257v-5h12.13184Zm-24.26367,0H148.3989v-5h12.13184Zm-24.26368,0H124.13523v-5h12.13183Zm-24.26367,0H99.87253v-5h12.13086Zm-24.26269,0H75.60886v-5H87.7407Zm-24.26368,0H51.42331l-.07812-5H63.477Z"/></g><rect x="298.57468" y="250.81177" width="68.61328" height="12"/><polygon points="361.06 277.754 397.328 256.812 361.06 235.869 361.06 277.754"/><polygon class="b" points="634.479 281.346 599.479 341.967 669.479 341.967 634.479 281.346"/><polygon class="b" points="634.479 204.346 599.479 264.967 669.479 264.967 634.479 204.346"/><circle class="c" cx="549.04641" cy="234.65651" r="35"/><circle class="c" cx="549.04641" cy="311.65651" r="35"/><path d="M531.29538,240.81763V228.37231l-1.248-.24609v-1.125l3.68261-.457h.03516l.61523.38672v5.15039a3.95017,3.95017,0,0,1,.4834-.39063,3.43041,3.43041,0,0,1,.61133-.334,3.92714,3.92714,0,0,1,.72461-.22852,3.86529,3.86529,0,0,1,.81738-.084,4.33524,4.33524,0,0,1,1.51172.25977,3.00534,3.00534,0,0,1,1.22168.84375,4.22782,4.22782,0,0,1,.82227,1.52929,7.69143,7.69143,0,0,1,.30273,2.31641,6.54106,6.54106,0,0,1-.35547,2.17969,5.10656,5.10656,0,0,1-1.02929,1.75293,4.70311,4.70311,0,0,1-1.64746,1.165,5.50683,5.50683,0,0,1-2.20606.42188,15.88745,15.88745,0,0,1-1.71875-.084c-.50586-.05567-.94336-.1211-1.30859-.19727a6.64924,6.64924,0,0,1-.87891-.2334A3.11169,3.11169,0,0,1,531.29538,240.81763Zm4.44727-8.041a2.093,2.093,0,0,0-.80859.14844,1.42372,1.42372,0,0,0-.55372.37891v6.59179a.85443.85443,0,0,0,.4043.2461,1.99728,1.99728,0,0,0,.668.10546,1.43994,1.43994,0,0,0,.97949-.34765,2.48225,2.48225,0,0,0,.64258-.90528,5.26273,5.26273,0,0,0,.35156-1.26074,9.331,9.331,0,0,0,.10938-1.42383,11.38478,11.38478,0,0,0-.084-1.45507,3.96891,3.96891,0,0,0-.28906-1.11621,1.7196,1.7196,0,0,0-.55469-.71192A1.43742,1.43742,0,0,0,535.74265,232.77661Z"/><path d="M542.185,241.30981v-1.291l1.2041-.18555v-6.47656l-1.16894-.36133v-1.4668l3.50683-.46679h.04395l.7207.40429v8.36719l1.2041.18555v1.291Zm2.44336-11.63671a1.33917,1.33917,0,0,1-.58887-.12305,1.21917,1.21917,0,0,1-.42578-.334,1.45146,1.45146,0,0,1-.25976-.4873,1.92316,1.92316,0,0,1-.08789-.585,2.28967,2.28967,0,0,1,.10156-.69336,1.60914,1.60914,0,0,1,.30273-.56738,1.4274,1.4274,0,0,1,.50586-.38184,1.68356,1.68356,0,0,1,.71582-.14062h.00879a1.68253,1.68253,0,0,1,.67676.123,1.28805,1.28805,0,0,1,.73828.8086,1.87807,1.87807,0,0,1,.08789.58007,2.43092,2.43092,0,0,1-.10058.707,1.54048,1.54048,0,0,1-.31641.57128,1.51244,1.51244,0,0,1-.5498.38184,2.05557,2.05557,0,0,1-.79981.14063Z"/><path d="M548.87351,241.30981v-1.291l1.17773-.18555v-6.47656l-1.17773-.35156v-1.47657l3.27832-.46679h.05273l.49219.40429v2.33008h.04395a5.24766,5.24766,0,0,1,.4082-.84375,4.94089,4.94089,0,0,1,.68164-.90136,3.93321,3.93321,0,0,1,.91406-.71582,2.186,2.186,0,0,1,1.09864-.291,3.42372,3.42372,0,0,1,.457.02246,1.27615,1.27615,0,0,1,.24609.05762v3.498a1.55453,1.55453,0,0,0-.58008-.18066,6.52418,6.52418,0,0,0-1.14258-.083,4.64217,4.64217,0,0,0-.46972.02539c-.17383.01758-.3418.04-.50586.06641a3.546,3.546,0,0,0-.43946.09668,1.08117,1.08117,0,0,0-.27246.11035v5.17578l2.0918.23828v1.23828Z"/><path d="M561.30124,241.50317a3.98083,3.98083,0,0,1-1.543-.29394,3.17274,3.17274,0,0,1-1.2207-.90527,4.37282,4.37282,0,0,1-.80469-1.54688,7.53378,7.53378,0,0,1-.29-2.21875,6.65751,6.65751,0,0,1,.35645-2.23242,4.92169,4.92169,0,0,1,1.02734-1.73633,4.59473,4.59473,0,0,1,1.64453-1.125,5.75683,5.75683,0,0,1,2.21-.40039,6.02888,6.02888,0,0,1,.65527.03516c.21289.02343.417.05664.61035.09765v-2.83984l-1.54687-.32422V226.9231l3.97265-.37891h.04395l.61523.4668v12.99023h.93164v1.20313q-.4746.09667-1.07226.20312a7.66592,7.66592,0,0,1-1.32715.10547,1.35411,1.35411,0,0,1-.90137-.27344,1.14485,1.14485,0,0,1-.32031-.91406v-.334a3.15385,3.15385,0,0,1-.51367.58984,3.5082,3.5082,0,0,1-.69043.47851,3.789,3.789,0,0,1-.84864.3252A3.95,3.95,0,0,1,561.30124,241.50317Zm1.27442-1.72265a2.07851,2.07851,0,0,0,.81347-.15332,1.51858,1.51858,0,0,0,.55762-.374V232.6438a1.18174,1.18174,0,0,0-.42676-.23633,2.01165,2.01165,0,0,0-.66308-.09766,1.68,1.68,0,0,0-.791.19336,1.734,1.734,0,0,0-.65039.64649,3.89844,3.89844,0,0,0-.44824,1.2041,9.489,9.489,0,0,0-.18457,1.86816,9.93976,9.93976,0,0,0,.10058,1.63477,3.69635,3.69635,0,0,0,.334,1.10254,1.50522,1.50522,0,0,0,.56738.624A1.55409,1.55409,0,0,0,562.57566,239.78052Z"/><path d="M536.10788,313.37036a6.36716,6.36716,0,0,1,.36426-2.22363,4.78249,4.78249,0,0,1,1.02832-1.67481,4.47659,4.47659,0,0,1,1.5957-1.05859,5.55661,5.55661,0,0,1,2.06446-.36914,9.75189,9.75189,0,0,1,1.20508.06641,9.14436,9.14436,0,0,1,.94433.1582c.27246.06055.50391.123.69434.18359.19043.0625.34375.10742.46094.13672l-.0879,3.2168h-1.73046l-.5625-1.59082a1.96953,1.96953,0,0,0-.42188-.6416.84232.84232,0,0,0-.60742-.23731,1.25818,1.25818,0,0,0-.65039.18067,1.53824,1.53824,0,0,0-.54.58789,3.77378,3.77378,0,0,0-.374,1.07714,8.18846,8.18846,0,0,0-.14063,1.65235,9.435,9.435,0,0,0,.13672,1.74023,3.16456,3.16456,0,0,0,.42578,1.15137,1.658,1.658,0,0,0,.73047.62891,2.62915,2.62915,0,0,0,1.03711.18847,4.31419,4.31419,0,0,0,1.40137-.19824,5.24473,5.24473,0,0,0,.98925-.44336l.5,1.18652a3.21882,3.21882,0,0,1-.5.42188,5.17457,5.17457,0,0,1-.81836.46973,6.05731,6.05731,0,0,1-1.06738.3789,5.05,5.05,0,0,1-1.26074.15332,5.65657,5.65657,0,0,1-2.207-.38672,3.91733,3.91733,0,0,1-1.49414-1.07226,4.31115,4.31115,0,0,1-.84766-1.62988A7.5041,7.5041,0,0,1,536.10788,313.37036Z"/><path d="M545.50241,315.62036a2.6808,2.6808,0,0,1,.2334-1.14258,2.86011,2.86011,0,0,1,.6377-.88281,3.74891,3.74891,0,0,1,.95312-.65039,6.47171,6.47171,0,0,1,1.18653-.43945,9.46978,9.46978,0,0,1,1.33105-.25586,13.25955,13.25955,0,0,1,1.38867-.0918v-.4043a1.68261,1.68261,0,0,0-.41211-1.27929,1.81614,1.81614,0,0,0-1.26562-.38184,6.56546,6.56546,0,0,0-.9541.07031q-.479.07032-.91895.17578c-.293.07032-.56445.14747-.8164.2334a6.885,6.885,0,0,0-.65039.25h-.00977l-.58008-1.35351a4.86318,4.86318,0,0,1,.64258-.38672,7.99744,7.99744,0,0,1,1.08008-.46094,11.19793,11.19793,0,0,1,1.416-.3916,7.8994,7.8994,0,0,1,1.65235-.167,5.63532,5.63532,0,0,1,1.70019.22461,2.7961,2.7961,0,0,1,1.15528.668,2.61928,2.61928,0,0,1,.65527,1.11523,5.36793,5.36793,0,0,1,.20605,1.56934V317.009h1.08985v1.19532l-.417.08789c-.167.03515-.35743.06836-.57129.10156-.21387.03125-.44825.05957-.70313.083s-.52539.03515-.8125.03515a5.14145,5.14145,0,0,1-.59765-.03027.91983.91983,0,0,1-.39161-.12793.55023.55023,0,0,1-.21093-.27637,1.43539,1.43539,0,0,1-.06543-.47949v-.60644a3.78694,3.78694,0,0,1-.43555.51855,3.13818,3.13818,0,0,1-.63672.49219,3.78883,3.78883,0,0,1-.84375.36426,3.56753,3.56753,0,0,1-1.05469.1455,3.93668,3.93668,0,0,1-1.17773-.1709,2.60386,2.60386,0,0,1-.94531-.52343,2.41451,2.41451,0,0,1-.62891-.90039A3.36757,3.36757,0,0,1,545.50241,315.62036Zm4.377,1.01074a1.40284,1.40284,0,0,0,.30371-.04,2.61222,2.61222,0,0,0,.36914-.10937,2.52239,2.52239,0,0,0,.36914-.17188,1.38566,1.38566,0,0,0,.31152-.23242v-2.751a4.56677,4.56677,0,0,0-1.252.1455,2.20244,2.20244,0,0,0-.80469.39063,1.3964,1.3964,0,0,0-.42578.57129,1.86159,1.86159,0,0,0-.12695.68554,1.84259,1.84259,0,0,0,.29883,1.09473A1.09725,1.09725,0,0,0,549.87937,316.6311Z"/><path d="M557.02585,316.08618V309.802H555.8032V308.721c.02343-.01172.08984-.03614.19824-.0752.1084-.03711.22265-.082.34277-.13086.12012-.05078.23145-.0957.334-.13672a1.35674,1.35674,0,0,0,.16211-.07031,3.81427,3.81427,0,0,0,.70312-.94922,9.35978,9.35978,0,0,0,.40039-.86523q.20655-.50683.35547-.98047H560.102l.03516,2.68066h2.39844v1.6084h-2.39844v4.67578c0,.44532.00684.80078.02148,1.06836a2.16379,2.16379,0,0,0,.10157.61035.44243.44243,0,0,0,.23633.27637,1.13071,1.13071,0,0,0,.43164.06641h.00781a2.46049,2.46049,0,0,0,.4043-.03516c.14062-.02344.27929-.05078.41406-.084.13476-.03125.26172-.06641.38183-.10547.12012-.03711.21778-.07129.29395-.10059h.00976l.46485,1.125a5.34839,5.34839,0,0,1-.67188.43946,5.85209,5.85209,0,0,1-.86523.3916,7.02315,7.02315,0,0,1-1.01172.27636,5.76078,5.76078,0,0,1-1.11523.10547h-.01758a2.81855,2.81855,0,0,1-1.06836-.17578,1.63777,1.63777,0,0,1-.67676-.49219,1.87755,1.87755,0,0,1-.35156-.76464A4.52282,4.52282,0,0,1,557.02585,316.08618Z"/><rect class="d" x="429.23806" y="199.65651" width="70" height="70"/><path d="M451.16159,243.31079v-1.91113l3.07325-.39649V229.845c-.16993.03711-.39258.084-.666.14063s-.55957.10937-.85644.15625c-.29786.04687-.58789.08984-.8711.12695-.2832.03808-.51855.0625-.708.07129l-.36816-2.46387a10.43053,10.43053,0,0,0,1.69922-.49609,14.08974,14.08974,0,0,0,1.62793-.74317,16.52424,16.52424,0,0,0,1.459-.87793,14.77636,14.77636,0,0,0,1.20313-.89843h.01465l2.56347.43847v15.7041l2.916.39649v1.91113Z"/><path d="M464.147,244.67017a5.794,5.794,0,0,0,.68652.17675c.25879.05274.5332.09766.82129.13477.28711.03711.582.06641.88476.085s.59961.02832.89258.02832a7.25842,7.25842,0,0,0,2.209-.31152,4.88551,4.88551,0,0,0,1.65625-.87793,3.81389,3.81389,0,0,0,1.041-1.35254,4.11205,4.11205,0,0,0,.36133-1.73438,3.905,3.905,0,0,0-.17773-1.126,3.06067,3.06067,0,0,0-.58789-1.083,3.41761,3.41761,0,0,0-1.07618-.84277,4.05431,4.05431,0,0,0-1.64257-.40332l-1.91114.31152-.84961-2.23731a6.62653,6.62653,0,0,0,1.26075-.30468c.42382-.14551.81152-.28516,1.16015-.417a6.30132,6.30132,0,0,0,1.45215-.793,4.6229,4.6229,0,0,0,.9834-.98438,3.72747,3.72747,0,0,0,.55957-1.13281,4.365,4.365,0,0,0,.17676-1.23926,2.78116,2.78116,0,0,0-.21875-1.16113,2.16894,2.16894,0,0,0-.58789-.78614,2.41588,2.41588,0,0,0-.82813-.44628,3.25,3.25,0,0,0-.95605-.14063,6.827,6.827,0,0,0-2.34375.36035,7.65373,7.65373,0,0,0-1.86231.999l-1.1748-2.09571a6.05912,6.05912,0,0,1,1.01953-.77929,10.45488,10.45488,0,0,1,1.53613-.793,12.03185,12.03185,0,0,1,1.91211-.61621,9.22935,9.22935,0,0,1,2.14453-.24707,10.15085,10.15085,0,0,1,2.52149.29687,5.79892,5.79892,0,0,1,2.00293.91309,4.426,4.426,0,0,1,1.32421,1.53613,4.64531,4.64531,0,0,1,.48145,2.18164,5.975,5.975,0,0,1-1.24609,3.85156,8.69276,8.69276,0,0,1-3.61133,2.51953,7.47387,7.47387,0,0,1,2.542.291,5.17961,5.17961,0,0,1,1.834.97656,4.1011,4.1011,0,0,1,1.11133,1.48731,4.46967,4.46967,0,0,1,.376,1.81933,6.5272,6.5272,0,0,1-.62305,2.83887,6.1952,6.1952,0,0,1-1.88379,2.27246,9.55954,9.55954,0,0,1-3.13672,1.51563,15.58389,15.58389,0,0,1-4.38183.55273q-.49659,0-1.041-.043-.54492-.04248-1.0625-.12012c-.34375-.05175-.668-.11328-.96972-.18457a7.8276,7.8276,0,0,1-.77832-.21875Z"/><path d="M616.70652,249.31079v-.81152l.85937-.15039v-6.252l-.876-.17187V241.136h6.23047l.10743,2.11621H621.8364l-.44629-1.22461-1.86426-.09668v2.88476l1.1875-.0166.22071-.87011h1.00976v2.7871h-1.00976l-.22071-.94531-1.1875-.02148v2.59961l1.63281.15039v.81152Z"/><path d="M622.95359,249.31079l-.00586-.81152.6875-.14453,2.51953-7.23438h1.98633l2.54687,7.22852.7832.15039v.81152H627.685v-.81152l.88086-.14453-.34863-1.18164h-2.77735l-.32226,1.18164.88086.14453v.81152Zm3.66211-6.47168-.92871,3.41016h2.251l-1.01562-3.41016-.166-.74219Z"/><path d="M631.49265,249.31079v-.81152l.87109-.15039v-6.2461l-.86523-.17773V241.136h3.91015v.78906l-1.10156.17187v6.22559l1.99317-.11816.69238-2.15918,1.21484.13964-.334,3.126Z"/><path d="M641.75241,249.43481a5.77221,5.77221,0,0,1-.94921-.07324c-.291-.04785-.55274-.10156-.78321-.16113-.23047-.05859-.42968-.11328-.5957-.16406a2.11,2.11,0,0,0-.38477-.08594l.0918-2.06738h1.084l.24218,1.33691a.97183.97183,0,0,0,.15821.13477,1.13791,1.13791,0,0,0,.24414.126,2.01082,2.01082,0,0,0,.33593.09473,2.23882,2.23882,0,0,0,.42188.03711,1.77339,1.77339,0,0,0,.60742-.08887,1.0437,1.0437,0,0,0,.38867-.23633.82782.82782,0,0,0,.209-.34668,1.35256,1.35256,0,0,0,.0625-.41308.978.978,0,0,0-.1211-.48047,1.52206,1.52206,0,0,0-.34961-.41406,3.73877,3.73877,0,0,0-.55859-.38672c-.21875-.127-.46875-.26074-.748-.39942-.208-.10449-.42968-.22851-.666-.374a3.17462,3.17462,0,0,1-.65235-.53125,2.77589,2.77589,0,0,1-.498-.73926,2.32553,2.32553,0,0,1-.19824-.99316,1.94774,1.94774,0,0,1,.71386-1.51758,2.70706,2.70706,0,0,1,.90625-.4834,4.11255,4.11255,0,0,1,1.28028-.17969,5.03731,5.03731,0,0,1,.73339.05372q.36768.0542.68946.12109.32226.06591.57031.12891c.16406.041.28711.06933.37012.083l-.06934,1.875h-1.06933L643.02,242.092a.50021.50021,0,0,0-.13476-.09668,1.41429,1.41429,0,0,0-.21485-.08887,1.99632,1.99632,0,0,0-.26562-.06445,1.78112,1.78112,0,0,0-.28711-.02441,1.63973,1.63973,0,0,0-.53223.07617.96983.96983,0,0,0-.35449.19824.73416.73416,0,0,0-.19531.29.992.992,0,0,0-.0625.35449,1.03433,1.03433,0,0,0,.15039.55371,1.77057,1.77057,0,0,0,.4082.44532,4.13263,4.13263,0,0,0,.60156.38964c.22852.12305.47461.249.73633.37793q.33252.167.6836.38477a3.69258,3.69258,0,0,1,.64843.50488,2.48344,2.48344,0,0,1,.48243.65723,1.837,1.837,0,0,1,.18847.84375,2.67936,2.67936,0,0,1-.15527.875,2.18065,2.18065,0,0,1-.52149.82226,2.774,2.774,0,0,1-.96093.60743A4.0596,4.0596,0,0,1,641.75241,249.43481Z"/><path d="M645.5864,249.31079v-.81641l.87109-.1455v-6.2461l-.86523-.17773V241.136h6.10156l.11817,1.96093H650.77l-.41406-1.06933-1.93848-.12891v2.84668l1.21973-.02148.16016-.91309h1.03125v2.71777h-1.03125l-.16016-.9082-1.21973-.02148v2.81445l2.39551-.12891.67676-1.46582,1.03613.21485-.30078,2.27734Z"/><rect class="d" x="429.23806" y="276.65651" width="70" height="70"/><path d="M450.20554,320.31079v-1.91113l3.07324-.39649V306.845q-.25488.05566-.665.14063c-.27441.05664-.56054.10937-.85742.15625s-.58789.08984-.87109.127c-.28321.03808-.51856.0625-.707.07129l-.36914-2.46387a10.43043,10.43043,0,0,0,1.69921-.49609,14.17974,14.17974,0,0,0,1.62891-.74317,16.52424,16.52424,0,0,0,1.459-.87793,14.94927,14.94927,0,0,0,1.20313-.89843h.01367l2.56348.43847v15.7041l2.917.39649v1.91113Z"/><path d="M470.45554,320.60864a7.01174,7.01174,0,0,1-5.64258-2.27343q-1.97754-2.28663-1.97656-6.7754a12.15721,12.15721,0,0,1,.709-4.30468,8.17712,8.17712,0,0,1,1.86914-2.95215,7.30352,7.30352,0,0,1,2.71875-1.69922,9.6388,9.6388,0,0,1,3.24219-.5459,7.08469,7.08469,0,0,1,5.62891,2.22363q1.94678,2.22217,1.94726,6.74024a12.19385,12.19385,0,0,1-.6875,4.31933,8.36234,8.36234,0,0,1-1.84765,2.98047,7.25466,7.25466,0,0,1-2.70508,1.72754A9.49877,9.49877,0,0,1,470.45554,320.60864Zm.50977-2.02539a1.89885,1.89885,0,0,0,1.24609-.418,2.92289,2.92289,0,0,0,.82812-1.28808,9.44423,9.44423,0,0,0,.46-2.21582,31.043,31.043,0,0,0,.1416-3.20117q0-2.09474-.13477-3.51172a9.17733,9.17733,0,0,0-.45312-2.27246,2.474,2.474,0,0,0-.8418-1.21778,2.27461,2.27461,0,0,0-1.31738-.36133,1.94556,1.94556,0,0,0-1.25293.41114,2.93032,2.93032,0,0,0-.84961,1.26757,8.99526,8.99526,0,0,0-.48828,2.1875,27.47008,27.47008,0,0,0-.15625,3.15723,34.43852,34.43852,0,0,0,.14843,3.50488,9.50369,9.50369,0,0,0,.48243,2.3086,2.62525,2.62525,0,0,0,.87011,1.2666A2.2086,2.2086,0,0,0,470.96531,318.58325Z"/><path d="M616.70652,326.31079v-.81152l.85937-.15039v-6.252l-.876-.17187V318.136h6.23047l.10743,2.11621H621.8364l-.44629-1.22461-1.86426-.09668v2.88476l1.1875-.0166.22071-.87011h1.00976v2.7871h-1.00976l-.22071-.94531-1.1875-.02148v2.59961l1.63281.15039v.81152Z"/><path d="M622.95359,326.31079l-.00586-.81152.6875-.14453,2.51953-7.23438h1.98633l2.54687,7.22852.7832.15039v.81152H627.685v-.81152l.88086-.14453-.34863-1.18164h-2.77735l-.32226,1.18164.88086.14453v.81152Zm3.66211-6.47168-.92871,3.41016h2.251l-1.01562-3.41016-.166-.74219Z"/><path d="M631.49265,326.31079v-.81152l.87109-.15039v-6.2461l-.86523-.17773V318.136h3.91015v.78906l-1.10156.17187v6.22559l1.99317-.11816.69238-2.15918,1.21484.13964-.334,3.126Z"/><path d="M641.75241,326.43481a5.77221,5.77221,0,0,1-.94921-.07324c-.291-.04785-.55274-.10156-.78321-.16113-.23047-.05859-.42968-.11328-.5957-.16406a2.11,2.11,0,0,0-.38477-.08594l.0918-2.06738h1.084l.24218,1.33691a.97183.97183,0,0,0,.15821.13477,1.13791,1.13791,0,0,0,.24414.126,2.01082,2.01082,0,0,0,.33593.09473,2.23882,2.23882,0,0,0,.42188.03711,1.77339,1.77339,0,0,0,.60742-.08887,1.0437,1.0437,0,0,0,.38867-.23633.82782.82782,0,0,0,.209-.34668,1.35256,1.35256,0,0,0,.0625-.41308.978.978,0,0,0-.1211-.48047,1.52206,1.52206,0,0,0-.34961-.41406,3.73877,3.73877,0,0,0-.55859-.38672c-.21875-.127-.46875-.26074-.748-.39942-.208-.10449-.42968-.22851-.666-.374a3.17462,3.17462,0,0,1-.65235-.53125,2.77589,2.77589,0,0,1-.498-.73926,2.32553,2.32553,0,0,1-.19824-.99316,1.94774,1.94774,0,0,1,.71386-1.51758,2.70706,2.70706,0,0,1,.90625-.4834,4.11255,4.11255,0,0,1,1.28028-.17969,5.03731,5.03731,0,0,1,.73339.05372q.36768.05419.68946.12109.32226.06591.57031.12891c.16406.041.28711.06933.37012.083l-.06934,1.875h-1.06933L643.02,319.092a.50021.50021,0,0,0-.13476-.09668,1.41429,1.41429,0,0,0-.21485-.08887,1.99632,1.99632,0,0,0-.26562-.06445,1.78112,1.78112,0,0,0-.28711-.02441,1.63973,1.63973,0,0,0-.53223.07617.96983.96983,0,0,0-.35449.19824.73416.73416,0,0,0-.19531.29.992.992,0,0,0-.0625.35449,1.03433,1.03433,0,0,0,.15039.55371,1.77057,1.77057,0,0,0,.4082.44532,4.13263,4.13263,0,0,0,.60156.38964c.22852.123.47461.249.73633.37793q.33252.167.6836.38477a3.69258,3.69258,0,0,1,.64843.50488,2.48344,2.48344,0,0,1,.48243.65723,1.837,1.837,0,0,1,.18847.84375,2.67936,2.67936,0,0,1-.15527.875,2.18065,2.18065,0,0,1-.52149.82226,2.774,2.774,0,0,1-.96093.60743A4.0596,4.0596,0,0,1,641.75241,326.43481Z"/><path d="M645.5864,326.31079v-.81641l.87109-.1455v-6.2461l-.86523-.17773V318.136h6.10156l.11817,1.96093H650.77l-.41406-1.06933-1.93848-.12891v2.84668l1.21973-.02148.16016-.91309h1.03125v2.71777h-1.03125l-.16016-.9082-1.21973-.02148v2.81445l2.39551-.12891.67676-1.46582,1.03613.21485-.30078,2.27734Z"/><path d="M455.66843,171.76685h1.56934l3.60058,9.86132H459.143l-.8125-2.31054H454.52l-.8125,2.31054h-1.63867Zm2.1582,6.10742-1.40136-3.93555-1.40039,3.93555Z"/><path d="M461.79929,183.07153l.51758-1.24707a4.33771,4.33771,0,0,0,2.22851.63086,1.77158,1.77158,0,0,0,2.01661-1.96191v-.71387a2.62712,2.62712,0,0,1-2.24122,1.30274c-1.48437,0-2.83007-1.19043-2.83007-3.47364V177.552c0-2.29687,1.35937-3.4873,2.83007-3.4873a2.63461,2.63461,0,0,1,2.22657,1.24609v-1.10644h1.584v6.21972a3.34037,3.34037,0,0,1-.84082,2.46485,3.60931,3.60931,0,0,1-2.67578.88281A5.83047,5.83047,0,0,1,461.79929,183.07153Zm4.77637-5.47754v-.02734a1.90594,1.90594,0,0,0-1.77832-2.11523c-.9668,0-1.709.79785-1.709,2.11523v.01367c0,1.31641.75586,2.12891,1.709,2.12891A1.914,1.914,0,0,0,466.57566,177.594Z"/><path d="M469.58347,178.00024v-.1123c0-2.22656,1.34473-3.82324,3.165-3.82324,2.01758,0,3.082,1.68066,3.082,3.9082,0,.09766,0,.32129-.01367.5459h-4.65039a1.90673,1.90673,0,0,0,1.877,1.91894,2.36459,2.36459,0,0,0,1.709-.78418l.82618.98047a3.41473,3.41473,0,0,1-2.60547,1.14844C471.06784,181.78247,469.58347,180.32544,469.58347,178.00024Zm4.70605-.57421c-.084-1.17676-.61621-2.03125-1.541-2.03125-.86817,0-1.48438.7705-1.59668,2.03125Z"/><path d="M539.92624,171.82349H543.063c2.14356,0,3.53028,1.23242,3.53028,3.26367v.02734c0,2.17188-1.59668,3.30664-3.62793,3.334h-1.41407v3.17968h-1.625Zm3.03907,5.15429a1.77556,1.77556,0,0,0,1.9746-1.835v-.01367a1.726,1.726,0,0,0-1.9746-1.82129h-1.41407v3.66992Z"/><path d="M547.49949,178.00024v-.1123c0-2.22656,1.34472-3.82324,3.166-3.82324,2.0166,0,3.08106,1.68066,3.08106,3.9082,0,.09766,0,.32129-.01368.5459h-4.65039a1.90735,1.90735,0,0,0,1.877,1.91894,2.36291,2.36291,0,0,0,1.709-.78418l.82617.98047a3.41318,3.41318,0,0,1-2.60547,1.14844C548.98484,181.78247,547.49949,180.32544,547.49949,178.00024Zm4.707-.57421c-.085-1.17676-.61621-2.03125-1.541-2.03125-.86816,0-1.48535.7705-1.59668,2.03125Z"/><path d="M555.45163,179.83521v-4.27247h-.8125v-1.35839h.8125v-2.00293h1.583v2.00293h1.667v1.35839h-1.667v3.9502a.70972.70972,0,0,0,.79785.8125,1.79192,1.79192,0,0,0,.85547-.21v1.30273a2.69433,2.69433,0,0,1-1.31738.32227A1.69128,1.69128,0,0,1,555.45163,179.83521Z"/><path d="M614.90183,171.82349h1.625v9.80468h-1.625Z"/><path d="M618.55515,174.20435h1.584v1.09277a2.32364,2.32364,0,0,1,2.03028-1.23242c1.42871,0,2.2832,1.00781,2.2832,2.59082v4.97265h-1.583v-4.52441c0-1.03613-.49023-1.61035-1.33008-1.61035-.82617,0-1.40039.61621-1.40039,1.63867v4.49609h-1.584Z"/><path d="M625.86374,178.01489v-.18261c0-2.50684,1.38672-3.76758,2.88575-3.76758a2.55914,2.55914,0,0,1,2.17089,1.26074v-3.81055h1.583v10.11328h-1.583v-1.19043a2.50947,2.50947,0,0,1-2.17089,1.33106C627.26413,181.7688,625.86374,180.52173,625.86374,178.01489Zm5.084-.02832v-.14062c0-1.45606-.81153-2.38086-1.76367-2.38086-.9668,0-1.72364.89648-1.72364,2.39551v.1123c0,1.48438.77051,2.39453,1.72364,2.39453C630.1362,180.36743,630.94773,179.4436,630.94773,177.98657Z"/><path d="M633.95554,178.00024v-.126a3.43744,3.43744,0,1,1,6.83594-.01367v.126a3.43615,3.43615,0,1,1-6.83594.01367Zm5.25195-.02734v-.085c0-1.38672-.76953-2.42285-1.84765-2.42285-1.10743,0-1.82227,1.02246-1.82227,2.40918v.084c0,1.38672.77149,2.4375,1.84961,2.4375C638.49363,180.39575,639.20749,179.35962,639.20749,177.9729Z"/><path d="M641.90671,178.00024v-.126a3.43744,3.43744,0,1,1,6.83594-.01367v.126a3.43615,3.43615,0,1,1-6.83594.01367Zm5.25293-.02734v-.085c0-1.38672-.77051-2.42285-1.84863-2.42285-1.10742,0-1.82129,1.02246-1.82129,2.40918v.084c0,1.38672.77051,2.4375,1.84863,2.4375C646.44577,180.39575,647.15964,179.35962,647.15964,177.9729Z"/><path d="M650.19577,174.20435h1.582v1.457a2.20752,2.20752,0,0,1,2.22753-1.56934v1.72363H653.936c-1.28906,0-2.1582.83985-2.1582,2.53516v3.27734h-1.582Z"/><path d="M497.23777,187.967h-66a2.50231,2.50231,0,0,1-2.5-2.5v-16.5a2.50231,2.50231,0,0,1,2.5-2.5h66a2.50232,2.50232,0,0,1,2.5,2.5v16.5A2.50232,2.50232,0,0,1,497.23777,187.967Zm-66-20.5a1.50164,1.50164,0,0,0-1.5,1.5v16.5a1.50164,1.50164,0,0,0,1.5,1.5h66a1.50164,1.50164,0,0,0,1.5-1.5v-16.5a1.50164,1.50164,0,0,0-1.5-1.5Z"/><path d="M582.23777,187.967h-66a2.50231,2.50231,0,0,1-2.5-2.5v-16.5a2.50231,2.50231,0,0,1,2.5-2.5h66a2.50232,2.50232,0,0,1,2.5,2.5v16.5A2.50232,2.50232,0,0,1,582.23777,187.967Zm-66-20.5a1.50164,1.50164,0,0,0-1.5,1.5v16.5a1.50164,1.50164,0,0,0,1.5,1.5h66a1.50164,1.50164,0,0,0,1.5-1.5v-16.5a1.50164,1.50164,0,0,0-1.5-1.5Z"/><path d="M667.23777,187.967h-66a2.50231,2.50231,0,0,1-2.5-2.5v-16.5a2.50231,2.50231,0,0,1,2.5-2.5h66a2.50232,2.50232,0,0,1,2.5,2.5v16.5A2.50232,2.50232,0,0,1,667.23777,187.967Zm-66-20.5a1.50164,1.50164,0,0,0-1.5,1.5v16.5a1.50164,1.50164,0,0,0,1.5,1.5h66a1.50164,1.50164,0,0,0,1.5-1.5v-16.5a1.50164,1.50164,0,0,0-1.5-1.5Z"/></g></svg>