<svg xmlns="http://www.w3.org/2000/svg" viewBox="0 0 626.86379 318.01586"><defs><style>.a{fill:#3f3f3f;}.b{fill:#ffda00;}.c{fill:#75bbef;}.d{fill:#ea7d7d;}.e{fill:#5dc162;}.f{fill:#eaeaea;}</style></defs><path class="a" d="M360.6588,76.36693l47.22754,81.79962L360.6588,239.96617H266.20518l-47.22754-81.79962,47.22754-81.79962H360.6588m2.30957-4H263.89561L214.359,158.16655l49.53662,85.79962h99.07276L412.505,158.16655,362.96837,72.36693Z"/><polygon class="b" points="350.79 178.658 335.429 205.264 366.151 205.264 350.79 178.658"/><polygon class="b" points="350.79 144.863 335.429 171.47 366.151 171.47 350.79 144.863"/><polygon class="b" points="350.79 111.069 335.429 137.675 366.151 137.675 350.79 111.069"/><circle class="c" cx="313.29484" cy="124.37226" r="15.36104"/><circle class="c" cx="313.29484" cy="158.16654" r="15.36104"/><circle class="c" cx="313.29484" cy="191.96082" r="15.36104"/><rect class="d" x="260.71254" y="109.01122" width="30.72207" height="30.72207"/><rect class="d" x="260.71254" y="142.8055" width="30.72207" height="30.72207"/><rect class="d" x="260.71254" y="176.59978" width="30.72207" height="30.72207"/><path class="a" d="M154.8795,76.36693,202.107,158.16655,154.8795,239.96617H60.42589L13.19835,158.16655,60.42589,76.36693H154.8795m2.30957-4H58.11632L8.57969,158.16655l49.53663,85.79962h99.07275l49.53662-85.79962L157.18907,72.36693Z"/><rect class="d" x="92.2917" y="92.11409" width="30.72207" height="30.72207"/><rect class="d" x="92.2917" y="125.90836" width="30.72207" height="30.72207"/><rect class="d" x="92.2917" y="159.70264" width="30.72207" height="30.72207"/><rect class="d" x="92.2917" y="193.49692" width="30.72207" height="30.72207"/><path class="a" d="M566.43809,76.36693l47.227,81.79962-47.227,81.79962H471.984l-47.22705-81.79962L471.984,76.36693h94.4541m2.30957-4H469.67442l-49.53613,85.79962,49.53613,85.79962h99.07324l49.53614-85.79962L568.74766,72.36693Z"/><polygon class="e" points="481.99 142.806 465.838 154.54 472.008 173.528 491.972 173.528 498.141 154.54 481.99 142.806"/><polygon class="e" points="519.211 142.806 503.06 154.54 509.229 173.528 529.193 173.528 535.363 154.54 519.211 142.806"/><polygon class="e" points="556.432 142.806 540.281 154.54 546.45 173.528 566.415 173.528 572.584 154.54 556.432 142.806"/><rect class="f" x="88.83556" y="248.96621" width="37.63434" height="19.70286" rx="9.85142"/><path d="M107.339,255.2918l-1.541.46191-.26563-1.40039,2.26953-.75684h1.14844v9.876H107.339Z"/><rect class="f" x="294.61473" y="248.96621" width="37.63434" height="19.70286" rx="9.85142"/><path d="M310.29014,262.1834l2.99707-3.208c1.10645-1.14844,1.5127-1.751,1.5127-2.54883a1.34555,1.34555,0,0,0-1.42871-1.40137c-.77051,0-1.31738.4209-1.96094,1.26075l-1.0791-.99414a3.70354,3.70354,0,0,1,3.17969-1.76465,2.712,2.712,0,0,1,2.9414,2.75879v.02832c0,1.33105-.61523,2.1289-2.04492,3.55761l-1.96094,2.12989h4.04883v1.4707h-6.20508Z"/><rect class="f" x="500.39389" y="248.96621" width="37.63434" height="19.70286" rx="9.85142"/><path d="M515.90147,262.282l1.00781-1.14941a2.73218,2.73218,0,0,0,2.11524,1.02246,1.52341,1.52341,0,0,0,1.61133-1.55469v-.042c0-1.00879-.86914-1.56836-2.22754-1.56836h-.49024l-.21-1.02246,2.38086-2.84375h-3.71191v-1.457h5.74316v1.27441l-2.47949,2.84375a2.71845,2.71845,0,0,1,2.60547,2.71777v.042a3.006,3.006,0,0,1-3.208,3.082A4.10273,4.10273,0,0,1,515.90147,262.282Z"/><path d="M182.921,10.55351h6.31739v1.835h-4.29981v2.11523h3.78125v1.835h-3.78125v2.18555h4.35547v1.835H182.921Z"/><path d="M190.77452,10.2459h1.98926V20.35918h-1.98926Z"/><path d="M194.13389,16.68926v-.126c0-2.22754,1.38672-3.85254,3.27832-3.85254,2.14356,0,3.19434,1.751,3.19434,3.99219,0,.1123,0,.35058-.01465.64453h-4.48242a1.60365,1.60365,0,0,0,1.625,1.51269,2.19246,2.19246,0,0,0,1.56934-.74218l1.02148,1.2041a3.4646,3.4646,0,0,1-2.6748,1.20508A3.52971,3.52971,0,0,1,194.13389,16.68926Zm4.55274-.65821c-.084-1.03711-.53223-1.68164-1.27442-1.68164-.72851,0-1.2041.61621-1.31738,1.68164Z"/><path d="M201.9044,12.85137h1.98926v1.00781a2.29708,2.29708,0,0,1,1.94727-1.14844,1.98035,1.98035,0,0,1,1.84863,1.09277,2.6799,2.6799,0,0,1,2.12988-1.09277c1.33008,0,2.22656.86816,2.22656,2.52149v5.12695h-1.97461V15.83476c0-.86914-.3789-1.331-1.03711-1.331s-1.06445.46191-1.06445,1.331v4.52442h-1.98926V15.83476c0-.86914-.36425-1.331-1.02246-1.331s-1.06445.46191-1.06445,1.331v4.52442H201.9044Z"/><path d="M213.29991,16.68926v-.126c0-2.22754,1.38672-3.85254,3.27832-3.85254,2.14355,0,3.19434,1.751,3.19434,3.99219,0,.1123,0,.35058-.01465.64453H215.2755a1.60364,1.60364,0,0,0,1.625,1.51269,2.19242,2.19242,0,0,0,1.56933-.74218l1.02149,1.2041a3.46461,3.46461,0,0,1-2.67481,1.20508A3.52971,3.52971,0,0,1,213.29991,16.68926Zm4.55273-.65821c-.084-1.03711-.53222-1.68164-1.27441-1.68164-.72852,0-1.2041.61621-1.31738,1.68164Z"/><path d="M221.07042,12.85137h1.98926v1.00781a2.295,2.295,0,0,1,1.93359-1.14844c1.40039,0,2.21289.98047,2.21289,2.53516v5.11328H225.2169V15.83476c0-.88281-.39258-1.331-1.06543-1.331-.6582,0-1.09179.44824-1.09179,1.331v4.52442h-1.98926Z"/><path d="M229.03624,18.48223V14.532h-.75586V12.85137h.75586V10.93144h1.98926v1.91993h1.48535V14.532H231.0255v3.544c0,.43359.19628.64453.61621.64453a1.92494,1.92494,0,0,0,.85449-.21094v1.583a2.88242,2.88242,0,0,1-1.4707.39257C229.87706,20.48515,229.03624,20.03691,229.03624,18.48223Z"/><path d="M233.23546,19.46269l.86914-1.40136a3.50573,3.50573,0,0,0,2.00293.84082c.55957,0,.79785-.2666.79785-.57422v-.02832c0-.4336-.55957-.61621-1.37207-.96582-1.06543-.46289-1.97559-.99512-1.97559-2.26953v-.02832a2.32485,2.32485,0,0,1,2.57813-2.29688,4.42659,4.42659,0,0,1,2.47851.8125l-.79785,1.42871a3.41018,3.41018,0,0,0-1.709-.64453c-.47559,0-.72852.23828-.72852.53223v.02832c0,.3916.56055.61621,1.3584.98047,1.09375.51757,1.99023,1.06445,1.99023,2.25488V18.16c0,1.55469-1.14941,2.33887-2.64843,2.33887A4.54914,4.54914,0,0,1,233.23546,19.46269Z"/><rect x="124.01094" y="63.88026" width="95.92071" height="1.5008" transform="translate(17.57447 164.19406) rotate(-53.41345)"/><polygon points="141.048 100.045 140.194 107.475 147.056 104.501 141.048 100.045"/><rect x="244.21943" y="18.03906" width="1.5008" height="82.01133" transform="translate(13.03738 157.55277) rotate(-36.5637)"/><polygon points="265.742 93.329 272.604 96.303 271.75 88.873 265.742 93.329"/><path d="M389.18272,300.91582v-.168c0-2.94141,1.84961-5.002,4.44141-5.002,2.60547,0,4.42578,2.0459,4.42578,4.97363v.168c0,2.92676-1.84961,5.001-4.44043,5.001C391.004,305.88848,389.18272,303.84355,389.18272,300.91582Zm6.76563-.043v-.09766c0-1.93359-.98047-3.15136-2.33887-3.15136-1.37207,0-2.33887,1.2041-2.33887,3.13769v.09766c0,1.93359.99414,3.15234,2.35352,3.15234C394.98253,304.01152,395.94835,302.80644,395.94835,300.87285Z"/><path d="M399.47374,298.21269H401.462v1.33008a1.97052,1.97052,0,0,1,2.03125-1.457V300.243h-.084c-1.21875,0-1.94726.75683-1.94726,2.32519v3.15235h-1.98828Z"/><path d="M404.20421,302.07793v-.22461c0-2.5625,1.35937-3.78125,2.85742-3.78125a2.45435,2.45435,0,0,1,2.03125,1.10644v-3.57128h1.99023v10.11328h-1.99023V304.6834a2.36968,2.36968,0,0,1-2.03125,1.17675C405.57725,305.86015,404.20421,304.6414,404.20421,302.07793Zm4.917-.042v-.13965c0-1.27539-.64356-2.08789-1.4707-2.08789-.82618,0-1.45606.8125-1.45606,2.08789v.13965c0,1.27441.62988,2.08691,1.45606,2.08691C408.47764,304.12285,409.1212,303.31035,409.1212,302.03594Z"/><path d="M412.36632,302.05058v-.127c0-2.22656,1.38671-3.85156,3.27832-3.85156,2.14355,0,3.19433,1.751,3.19433,3.99219,0,.11132,0,.34961-.01465.64453H414.3419a1.60278,1.60278,0,0,0,1.625,1.51172,2.1887,2.1887,0,0,0,1.56934-.74219l1.02148,1.20508a3.46777,3.46777,0,0,1-2.6748,1.20508A3.52971,3.52971,0,0,1,412.36632,302.05058Zm4.55273-.6582c-.084-1.03711-.53223-1.68164-1.27441-1.68164-.72852,0-1.20411.61621-1.31739,1.68164Z"/><path d="M420.13682,298.21269h1.98926v1.33008a1.9698,1.9698,0,0,1,2.03125-1.457V300.243h-.084c-1.21875,0-1.94727.75683-1.94727,2.32519v3.15235h-1.98926Z"/><path d="M425.30284,295.60723h2.07324v1.80664h-2.07324Zm.042,2.60546h1.98828v7.50782h-1.98828Z"/><path d="M429.0128,298.21269h1.98926v1.00782a2.296,2.296,0,0,1,1.93262-1.14844c1.40039,0,2.21289.98047,2.21289,2.53516v5.11328h-1.98829v-4.52539c0-.88184-.39257-1.33008-1.06445-1.33008-.6582,0-1.09277.44824-1.09277,1.33008v4.52539H429.0128Z"/><path d="M436.72667,307.23223l.61621-1.54a4.41362,4.41362,0,0,0,2.1289.54589c1.24707,0,1.84961-.57421,1.84961-1.77929v-.47559a2.50657,2.50657,0,0,1-2.10156,1.17676c-1.48437,0-2.80078-1.16309-2.80078-3.53027v-.042c0-2.36718,1.33008-3.51562,2.80078-3.51562a2.53357,2.53357,0,0,1,2.08789,1.10644v-.96582H443.296v6.13477a3.59351,3.59351,0,0,1-.85351,2.61914,3.93664,3.93664,0,0,1-2.85742.89648A6.62814,6.62814,0,0,1,436.72667,307.23223Zm4.6084-5.61622v-.01464c0-1.10547-.63086-1.82032-1.47071-1.82032s-1.457.71485-1.457,1.82032v.01464c0,1.13379.61719,1.835,1.457,1.835S441.33507,302.73613,441.33507,301.616Z"/><rect x="444.80985" y="281.34163" width="63.1686" height="1.49994" transform="translate(-77.2406 286.04462) rotate(-31.04053)"/><polygon points="504.455 269.593 508.081 263.052 500.603 263.182 504.455 269.593"/><rect x="355.49867" y="250.5073" width="1.49994" height="63.1686" transform="matrix(0.51505, -0.85716, 0.85716, 0.51505, -69.03539, 442.16114)"/><polygon points="332.04 263.182 324.563 263.052 328.188 269.593 332.04 263.182"/></svg>