<svg xmlns="http://www.w3.org/2000/svg" viewBox="0 0 883.1185 169.93018"><defs><style>.a{fill:#dd5d41;}.b{fill:#a2bed7;}.c{fill:#dd8542;}</style></defs><rect class="a" x="16.20197" y="13.89941" width="175.04724" height="51.26383" rx="5.00135"/><path d="M55.09106,28.32813h3.36425V48.63282H55.09106Z"/><path d="M62.65942,33.25879h3.27832v2.2627a4.81544,4.81544,0,0,1,4.206-2.55274c2.958,0,4.72754,2.08887,4.72754,5.36621V48.63282H71.594V39.26367c0-2.14648-1.01563-3.33593-2.75586-3.33593-1.71094,0-2.90039,1.27636-2.90039,3.39355v9.31153H62.65942Z"/><path d="M78.43578,33.25879h3.27735v2.46582a5.19708,5.19708,0,0,1,4.49609-2.75586c3.0752,0,5.97559,2.582,5.97559,7.77442v.40625c0,5.16308-2.87207,7.77343-5.97559,7.77343a5.23877,5.23877,0,0,1-4.49609-2.61035v6.7002H78.43578Zm10.44239,7.832v-.26074c0-3.07519-1.59571-4.96-3.56836-4.96-1.97168,0-3.6543,1.91406-3.6543,4.93066v.29c0,3.0166,1.68262,4.93164,3.6543,4.93164C87.31176,46.02246,88.87817,44.166,88.87817,41.09082Z"/><path d="M95.10961,43.55664V33.25879h3.27832v9.36914c0,2.14649,1.01465,3.33594,2.72656,3.33594,1.71094,0,2.90039-1.27637,2.90039-3.39355V33.25879h3.30664v15.374h-3.30664v-2.2334a4.74486,4.74486,0,0,1-4.17675,2.52343C96.84985,48.92285,95.10961,46.86328,95.10961,43.55664Z"/><path d="M111.66918,44.91992V36.07324h-1.68262V33.25879h1.68262V29.11133h3.27734v4.14746h3.45215v2.81445h-3.45215v8.17969a1.47022,1.47022,0,0,0,1.65333,1.68262A3.71433,3.71433,0,0,0,118.36938,45.5v2.69727a5.568,5.568,0,0,1-2.72657.668C113.38012,48.86524,111.66918,47.90723,111.66918,44.91992Z"/><path d="M121.12231,40.2793a13.06413,13.06413,0,0,1,7.39648-12.35742l1.30566,2.14648a11.22723,11.22723,0,0,0-5.45312,10.21094,11.2267,11.2267,0,0,0,5.45312,10.21l-1.30566,2.14648C123.61742,50.11231,121.12231,45.90625,121.12231,40.2793Z"/><path d="M131.06957,46.77637l1.53711-2.34961a7.01145,7.01145,0,0,0,4.23535,1.79883c1.36328,0,2.14649-.72559,2.14649-1.68262v-.0293c0-1.10253-1.18946-1.5957-3.0166-2.3789-2.292-.98535-4.20606-2.03028-4.20606-4.55371v-.05762c0-2.75586,2.2041-4.49609,5.07617-4.49609a8.77522,8.77522,0,0,1,4.98926,1.65332l-1.39258,2.40722a6.85569,6.85569,0,0,0-3.65527-1.36328c-1.21777,0-1.94336.667-1.94336,1.50879V37.291c0,1.01562,1.21875,1.53711,3.0166,2.34961,2.37891,1.07324,4.17774,2.17578,4.17774,4.583v.02929c0,3.0166-2.292,4.66992-5.251,4.66992A9.07341,9.07341,0,0,1,131.06957,46.77637Z"/><path d="M143.65551,50.48926a11.26049,11.26049,0,0,0,5.42383-10.21,11.261,11.261,0,0,0-5.42383-10.21094l1.30469-2.14648a13.10942,13.10942,0,0,1,7.39746,12.35742,13.05155,13.05155,0,0,1-7.39746,12.35644Z"/><rect class="b" x="290.63229" y="13.89941" width="301.85406" height="51.26383" rx="5.00135"/><path d="M388.14281,28.32813h12.73438v3.10351h-9.36914v5.71485H399.803v3.07422h-8.29492v8.41211h-3.36524Z"/><path d="M403.54125,43.55664V33.25879h3.27735v9.36914c0,2.14649,1.01562,3.33594,2.72656,3.33594,1.71191,0,2.90136-1.27637,2.90136-3.39355V33.25879h3.30665v15.374h-3.30665v-2.2334a4.74486,4.74486,0,0,1-4.17675,2.52343C405.28149,48.92285,403.54125,46.86328,403.54125,43.55664Z"/><path d="M419.46215,33.25879h3.27832v2.2627a4.81388,4.81388,0,0,1,4.20508-2.55274c2.959,0,4.72851,2.08887,4.72851,5.36621V48.63282h-3.27734V39.26367c0-2.14648-1.01562-3.33593-2.75586-3.33593-1.71094,0-2.90039,1.27636-2.90039,3.39355v9.31153h-3.27832Z"/><path d="M434.54125,41.14942v-.29c0-4.584,2.98828-7.89063,7.02051-7.89063a6.49074,6.49074,0,0,1,4.93066,2.08887l-1.82715,2.40723a4.14088,4.14088,0,0,0-3.10351-1.53711c-2.14649,0-3.71289,2.05957-3.71289,4.96v.14551c0,2.9873,1.5664,4.98925,3.7998,4.98925a4.28154,4.28154,0,0,0,3.13282-1.5664l1.76953,2.1748a6.4308,6.4308,0,0,1-5.10547,2.32129C437.44262,48.95215,434.54125,45.73242,434.54125,41.14942Z"/><path d="M449.76684,44.91992V36.07324h-1.68262V33.25879h1.68262V29.11133h3.27832v4.14746h3.45117v2.81445h-3.45117v8.17969a1.46955,1.46955,0,0,0,1.65234,1.68262A3.71433,3.71433,0,0,0,456.467,45.5v2.69727a5.56792,5.56792,0,0,1-2.72656.668C451.47875,48.86524,449.76684,47.90723,449.76684,44.91992Z"/><path d="M459.51,27.80567h3.48145v3.21972H459.51Zm.11621,5.45312h3.27832v15.374h-3.27832Z"/><path d="M466.092,41.12012v-.26074c0-4.52539,3.01758-7.89063,7.10742-7.89063,4.06055,0,7.04883,3.30664,7.04883,7.86133v.26074c0,4.52539-3.01758,7.86133-7.10742,7.86133C469.08031,48.95215,466.092,45.67383,466.092,41.12012Zm10.87891-.05859V40.8877c0-2.8711-1.5957-5.01758-3.83008-5.01758-2.291,0-3.77051,2.11719-3.77051,4.98926v.17383c0,2.87109,1.59571,5.04687,3.8291,5.04687C475.49047,46.08008,476.97094,43.9336,476.97094,41.06153Z"/><path d="M483.26,33.25879h3.27832v2.2627a4.81669,4.81669,0,0,1,4.20606-2.55274c2.959,0,4.72851,2.08887,4.72851,5.36621V48.63282h-3.27832V39.26367c0-2.14648-1.01465-3.33593-2.75488-3.33593-1.71192,0-2.90137,1.27636-2.90137,3.39355v9.31153H483.26Z"/><rect class="c" x="691.86929" y="13.89941" width="175.04724" height="51.26383" rx="5.00135"/><path d="M718.27367,38.6543v-.29c0-6.0332,3.71289-10.35547,9.02149-10.35547,5.27929,0,8.96289,4.293,8.96289,10.29785v.29c0,6.03321-3.71289,10.35547-9.02051,10.35547C721.95824,48.95215,718.27367,44.65918,718.27367,38.6543Zm14.50391-.05762v-.20312c0-4.35157-2.32031-7.28125-5.54-7.28125-3.19043,0-5.48242,2.87207-5.48242,7.252v.20313c0,4.35058,2.34961,7.28027,5.54,7.28027C730.48656,45.84766,732.77758,42.97657,732.77758,38.59668Z"/><path d="M739.4143,43.55664V33.25879h3.27832v9.36914c0,2.14649,1.01465,3.33594,2.72656,3.33594s2.90137-1.27637,2.90137-3.39355V33.25879h3.30664v15.374h-3.30664v-2.2334a4.74767,4.74767,0,0,1-4.17774,2.52343C741.15453,48.92285,739.4143,46.86328,739.4143,43.55664Z"/><path d="M755.97387,44.91992V36.07324h-1.68262V33.25879h1.68262V29.11133h3.27832v4.14746h3.45117v2.81445h-3.45117v8.17969a1.46955,1.46955,0,0,0,1.65234,1.68262A3.71433,3.71433,0,0,0,762.67406,45.5v2.69727a5.56792,5.56792,0,0,1-2.72656.668C757.68578,48.86524,755.97387,47.90723,755.97387,44.91992Z"/><path d="M765.65942,33.25879h3.27832v2.46582a5.19584,5.19584,0,0,1,4.49609-2.75586c3.07422,0,5.97461,2.582,5.97461,7.77442v.40625c0,5.16308-2.87109,7.77343-5.97461,7.77343a5.23619,5.23619,0,0,1-4.49609-2.61035v6.7002h-3.27832Zm10.44238,7.832v-.26074c0-3.07519-1.5957-4.96-3.56836-4.96-1.97168,0-3.6543,1.91406-3.6543,4.93066v.29c0,3.0166,1.68262,4.93164,3.6543,4.93164C774.53539,46.02246,776.1018,44.166,776.1018,41.09082Z"/><path d="M782.33422,43.55664V33.25879h3.27734v9.36914c0,2.14649,1.01563,3.33594,2.72657,3.33594s2.90039-1.27637,2.90039-3.39355V33.25879h3.30664v15.374h-3.30664v-2.2334a4.74369,4.74369,0,0,1-4.17676,2.52343C784.07445,48.92285,782.33422,46.86328,782.33422,43.55664Z"/><path d="M798.89281,44.91992V36.07324H797.2102V33.25879h1.68261V29.11133h3.27735v4.14746h3.45215v2.81445h-3.45215v8.17969a1.47051,1.47051,0,0,0,1.65429,1.68262A3.72,3.72,0,0,0,805.594,45.5v2.69727a5.57358,5.57358,0,0,1-2.72657.668C800.60375,48.86524,798.89281,47.90723,798.89281,44.91992Z"/><path d="M808.34594,40.2793a13.06415,13.06415,0,0,1,7.39648-12.35742l1.30664,2.14648A11.22805,11.22805,0,0,0,811.595,40.2793a11.22752,11.22752,0,0,0,5.4541,10.21l-1.30664,2.14648C810.84106,50.11231,808.34594,45.90625,808.34594,40.2793Z"/><path d="M818.2932,46.77637l1.53711-2.34961a7.01145,7.01145,0,0,0,4.23536,1.79883c1.36328,0,2.14648-.72559,2.14648-1.68262v-.0293c0-1.10253-1.18945-1.5957-3.0166-2.3789-2.291-.98535-4.20606-2.03028-4.20606-4.55371v-.05762c0-2.75586,2.20411-4.49609,5.07618-4.49609a8.77284,8.77284,0,0,1,4.98925,1.65332l-1.39257,2.40722a6.85563,6.85563,0,0,0-3.6543-1.36328c-1.21875,0-1.94336.667-1.94336,1.50879V37.291c0,1.01562,1.21777,1.53711,3.01562,2.34961,2.37891,1.07324,4.17774,2.17578,4.17774,4.583v.02929c0,3.0166-2.291,4.66992-5.25,4.66992A9.07394,9.07394,0,0,1,818.2932,46.77637Z"/><path d="M830.87914,50.48926a11.26049,11.26049,0,0,0,5.42383-10.21,11.261,11.261,0,0,0-5.42383-10.21094l1.30469-2.14648a13.10942,13.10942,0,0,1,7.39746,12.35742,13.05155,13.05155,0,0,1-7.39746,12.35644Z"/><rect x="201.24926" y="33.53125" width="57.85449" height="12"/><polygon points="254.727 54.49 280.632 39.531 254.727 24.572 254.727 54.49"/><rect x="602.48656" y="33.53125" width="57.85352" height="12"/><polygon points="655.964 54.49 681.869 39.531 655.964 24.572 655.964 54.49"/><rect class="b" x="293.13297" y="104.76693" width="296.85271" height="51.26383" rx="6.47999"/><path d="M324.75121,126.94141H323.0393v-2.72754h1.71191v-1.18848a4.81282,4.81282,0,0,1,1.13184-3.50976,4.46012,4.46012,0,0,1,3.21875-1.10254,7.32252,7.32252,0,0,1,2.32031.31933v2.75489a5.74982,5.74982,0,0,0-1.59473-.26074c-1.18945,0-1.82714.667-1.82714,2.11718v.87012h3.39355v2.72754h-3.36426V139.501h-3.27832Z"/><path d="M333.36352,131.14746A13.06414,13.06414,0,0,1,340.76,118.79l1.30664,2.14649a12.28437,12.28437,0,0,0,0,20.42089L340.76,143.50391C335.85863,140.98047,333.36352,136.77442,333.36352,131.14746Z"/><path d="M345.02172,118.67383h3.48047v3.21973h-3.48047Zm.11523,5.45313h3.27832v15.374H345.137Z"/><path d="M352.301,124.127h3.27734v2.26269a4.81546,4.81546,0,0,1,4.20606-2.55273c2.958,0,4.72753,2.08886,4.72753,5.36621V139.501h-3.27734v-9.36914c0-2.14649-1.01562-3.33594-2.75586-3.33594-1.71094,0-2.90039,1.27637-2.90039,3.39356V139.501H352.301Z"/><path d="M368.07641,124.127h3.27734v2.46582a5.19706,5.19706,0,0,1,4.4961-2.75586c3.07519,0,5.97656,2.582,5.97656,7.77441v.40625c0,5.16309-2.87305,7.77344-5.97656,7.77344a5.24006,5.24006,0,0,1-4.4961-2.61035v6.70019h-3.27734Zm10.44238,7.832v-.26075c0-3.07519-1.59473-4.96-3.56738-4.96s-3.65528,1.91407-3.65528,4.93067v.29c0,3.0166,1.68262,4.93164,3.65528,4.93164C376.95238,136.89063,378.51879,135.03418,378.51879,131.959Z"/><path d="M384.75024,134.42481V124.127h3.27832v9.36914c0,2.14648,1.01464,3.33593,2.72656,3.33593s2.90137-1.27636,2.90137-3.39355V124.127h3.30664v15.374h-3.30664v-2.2334a4.74768,4.74768,0,0,1-4.17774,2.52344C386.49047,139.791,384.75024,137.73145,384.75024,134.42481Z"/><path d="M401.30981,135.78809v-8.84668h-1.68262V124.127h1.68262v-4.14747h3.27832V124.127h3.45117v2.81445h-3.45117v8.17969a1.46954,1.46954,0,0,0,1.65234,1.68261,3.71432,3.71432,0,0,0,1.76953-.43554v2.69726a5.56792,5.56792,0,0,1-2.72656.668C403.02172,139.7334,401.30981,138.77539,401.30981,135.78809Z"/><path d="M410.21215,141.35742a12.32134,12.32134,0,0,0,0-20.42089l1.30566-2.14649a14.02029,14.02029,0,0,1,0,24.71387Z"/><path d="M422.27563,124.44629h12.53125v3.10352H422.27563Zm0,6.585h12.53125v3.10352H422.27563Z"/><path d="M438.48656,118.67383H441.968v3.21973h-3.48145Zm.11621,5.45313h3.27833v15.374h-3.27833Z"/><path d="M445.76586,124.127h3.27734v2.26269a4.81546,4.81546,0,0,1,4.20606-2.55273c2.958,0,4.72754,2.08886,4.72754,5.36621V139.501h-3.27735v-9.36914c0-2.14649-1.01562-3.33594-2.75585-3.33594-1.71094,0-2.9004,1.27637-2.9004,3.39356V139.501h-3.27734Z"/><path d="M461.54125,124.127h3.27735v2.46582a5.19706,5.19706,0,0,1,4.49609-2.75586c3.07519,0,5.97656,2.582,5.97656,7.77441v.40625c0,5.16309-2.873,7.77344-5.97656,7.77344a5.24005,5.24005,0,0,1-4.49609-2.61035v6.70019h-3.27735Zm10.44238,7.832v-.26075c0-3.07519-1.59472-4.96-3.56738-4.96s-3.65527,1.91407-3.65527,4.93067v.29c0,3.0166,1.68262,4.93164,3.65527,4.93164C470.41723,136.89063,471.98363,135.03418,471.98363,131.959Z"/><path d="M478.21508,134.42481V124.127h3.27832v9.36914c0,2.14648,1.01465,3.33593,2.72656,3.33593s2.90137-1.27636,2.90137-3.39355V124.127H490.428v15.374h-3.30664v-2.2334a4.74765,4.74765,0,0,1-4.17773,2.52344C479.95531,139.791,478.21508,137.73145,478.21508,134.42481Z"/><path d="M494.77465,135.78809v-8.84668H493.092V124.127h1.68262v-4.14747H498.053V124.127h3.45117v2.81445H498.053v8.17969a1.46954,1.46954,0,0,0,1.65234,1.68261,3.71436,3.71436,0,0,0,1.76954-.43554v2.69726a5.568,5.568,0,0,1-2.72657.668C496.48656,139.7334,494.77465,138.77539,494.77465,135.78809Z"/><path d="M507.65063,124.73633l-2.69727,2.05957-1.01562-1.74023,3.10351-1.36328-3.10351-1.39258,1.01562-1.74024,2.69727,2.05957-.40625-3.48144h2.002l-.40625,3.48144,2.66894-2.05957,1.04395,1.74024-3.10352,1.39258,3.10352,1.36328L511.509,126.7959l-2.66894-2.05957.40625,3.48047h-2.002Z"/><path d="M515.1311,136.832l6.208-6.64257c2.292-2.37793,3.13282-3.626,3.13282-5.2793a2.78512,2.78512,0,0,0-2.958-2.90039c-1.59571,0-2.72656.87012-4.06153,2.61035l-2.23339-2.05957c1.68164-2.32031,3.65429-3.6543,6.584-3.6543,3.53906,0,6.0918,2.2334,6.0918,5.71387v.05859c0,2.75586-1.27637,4.40918-4.23438,7.36719l-4.06152,4.40918h8.38281v3.0459H515.1311Z"/><path d="M535.89672,130.79883h-4.90234v-3.0166h4.90234v-4.96h3.10352v4.96h4.873v3.0166h-4.873v4.96h-3.10352Z"/><path d="M546.33422,137.03516l2.08887-2.37793a5.66278,5.66278,0,0,0,4.37988,2.11719,3.15373,3.15373,0,0,0,3.33594-3.21973v-.08691c0-2.08887-1.79883-3.249-4.61133-3.249H550.512l-.43554-2.11718,4.93164-5.88868h-7.6875v-3.0166H559.2141v2.63965l-5.13379,5.88867c2.8125.43457,5.39454,2.08789,5.39454,5.627v.08691c0,3.7998-2.75586,6.38184-6.64258,6.38184A8.50231,8.50231,0,0,1,546.33422,137.03516Z"/><rect class="a" x="16.20197" y="104.76693" width="175.04724" height="51.26383" rx="5.00135"/><path d="M96.82055,136.832l6.208-6.64257c2.292-2.37793,3.13281-3.626,3.13281-5.2793a2.78512,2.78512,0,0,0-2.958-2.90039c-1.5957,0-2.72656.87012-4.06152,2.61035l-2.2334-2.05957c1.68164-2.32031,3.6543-3.6543,6.584-3.6543,3.53907,0,6.0918,2.2334,6.0918,5.71387v.05859c0,2.75586-1.27637,4.40918-4.23437,7.36719l-4.06153,4.40918h8.38281v3.0459H96.82055Z"/><rect x="201.24926" y="124.39844" width="57.85449" height="12"/><polygon points="254.727 145.358 280.632 130.399 254.727 115.44 254.727 145.358"/><rect class="c" x="691.86929" y="104.76693" width="175.04724" height="51.26383" rx="5.00135"/><path d="M781.7561,122.27051h-8.84668v-3.07422h12.502v2.52344L777.60863,139.501h-3.65527Z"/><rect x="602.48656" y="124.39844" width="57.85352" height="12"/><polygon points="655.964 145.358 681.869 130.399 655.964 115.44 655.964 145.358"/></svg>