<svg xmlns="http://www.w3.org/2000/svg" viewBox="0 0 897.14223 237.57908"><defs><style>.a{fill:#dd5d41;}.b{fill:#a2bed7;}.c{fill:#dd8542;}</style></defs><rect class="a" x="13.21376" y="10.53611" width="175.04724" height="51.26383" rx="5.00135"/><path d="M52.103,24.96469h3.36426V45.26938H52.103Z"/><path d="M59.67139,29.89536h3.27734v2.26269a4.81828,4.81828,0,0,1,4.207-2.55273c2.958,0,4.72754,2.08886,4.72754,5.36621V45.26938H68.605V35.90024c0-2.14649-1.01465-3.33594-2.75488-3.33594-1.71191,0-2.90137,1.27637-2.90137,3.39356v9.31152H59.67139Z"/><path d="M75.44678,29.89536H78.7251v2.46582a5.19706,5.19706,0,0,1,4.49609-2.75586c3.0752,0,5.97559,2.582,5.97559,7.77441V37.786c0,5.16309-2.87207,7.77344-5.97559,7.77344a5.23878,5.23878,0,0,1-4.49609-2.61035v6.70019H75.44678Zm10.44336,7.832v-.26075c0-3.07519-1.5957-4.96-3.56836-4.96s-3.6543,1.91407-3.6543,4.93067v.29c0,3.0166,1.68164,4.93164,3.6543,4.93164C84.32373,42.659,85.89014,40.80258,85.89014,37.72739Z"/><path d="M92.12158,40.19321V29.89536H95.3999V39.2645c0,2.14648,1.01465,3.33593,2.72657,3.33593,1.71093,0,2.90039-1.27636,2.90039-3.39355V29.89536h3.30664v15.374h-3.30664V43.036a4.74528,4.74528,0,0,1-4.17774,2.52344C93.86182,45.55942,92.12158,43.49985,92.12158,40.19321Z"/><path d="M108.68115,41.55649V32.70981h-1.68359V29.89536h1.68359V25.74789h3.27735v4.14747h3.45117v2.81445H111.9585V40.8895a1.47021,1.47021,0,0,0,1.65332,1.68261,3.71994,3.71994,0,0,0,1.76953-.43554v2.69726a5.57073,5.57073,0,0,1-2.72656.668C110.39209,45.5018,108.68115,44.54379,108.68115,41.55649Z"/><path d="M118.13428,36.91586a13.06257,13.06257,0,0,1,7.39648-12.35742l1.30567,2.14649a11.228,11.228,0,0,0-5.4541,10.21093,11.22749,11.22749,0,0,0,5.4541,10.21l-1.30567,2.14649C120.62842,46.74887,118.13428,42.54282,118.13428,36.91586Z"/><path d="M128.08155,43.41293l1.5371-2.34961a7.009,7.009,0,0,0,4.23438,1.79883c1.36328,0,2.14648-.72558,2.14648-1.68262v-.02929c0-1.10254-1.18945-1.59571-3.01562-2.37891-2.292-.98535-4.207-2.03027-4.207-4.55371V34.16c0-2.75586,2.20508-4.49609,5.07617-4.49609a8.77829,8.77829,0,0,1,4.99023,1.65332l-1.39257,2.40723a6.85853,6.85853,0,0,0-3.65528-1.36328c-1.21777,0-1.94336.667-1.94336,1.50878v.05762c0,1.01563,1.21778,1.53711,3.0166,2.34961,2.37891,1.07324,4.17774,2.17578,4.17774,4.583v.0293c0,3.0166-2.292,4.66992-5.251,4.66992A9.07334,9.07334,0,0,1,128.08155,43.41293Z"/><path d="M140.66748,47.12582a11.26048,11.26048,0,0,0,5.42383-10.21,11.261,11.261,0,0,0-5.42383-10.21093l1.30469-2.14649a13.11018,13.11018,0,0,1,7.39648,12.35742,13.05231,13.05231,0,0,1-7.39648,12.35645Z"/><rect class="b" x="287.64408" y="10.53611" width="301.85406" height="51.26383" rx="5.00135"/><path d="M385.15479,24.96469h12.7334v3.10352h-9.36914v5.71484h8.29687v3.07422h-8.29687v8.41211h-3.36426Z"/><path d="M400.55323,40.19321V29.89536h3.27832V39.2645c0,2.14648,1.01464,3.33593,2.72656,3.33593,1.71094,0,2.90039-1.27636,2.90039-3.39355V29.89536h3.30664v15.374H409.4585V43.036a4.74528,4.74528,0,0,1-4.17774,2.52344C402.29346,45.55942,400.55323,43.49985,400.55323,40.19321Z"/><path d="M416.47412,29.89536h3.27735v2.26269a4.81825,4.81825,0,0,1,4.207-2.55273c2.958,0,4.72754,2.08886,4.72754,5.36621V45.26938h-3.27832V35.90024c0-2.14649-1.01465-3.33594-2.75489-3.33594-1.71191,0-2.90136,1.27637-2.90136,3.39356v9.31152h-3.27735Z"/><path d="M431.5542,37.786v-.29c0-4.584,2.98731-7.89062,7.01953-7.89062a6.496,6.496,0,0,1,4.93164,2.08886l-1.82812,2.40723a4.1409,4.1409,0,0,0-3.10352-1.53711c-2.14648,0-3.71289,2.05957-3.71289,4.96v.14551c0,2.9873,1.56641,4.98926,3.79981,4.98926a4.28153,4.28153,0,0,0,3.13281-1.56641l1.76855,2.17481a6.42732,6.42732,0,0,1-5.10449,2.32128C434.45459,45.58871,431.5542,42.369,431.5542,37.786Z"/><path d="M446.77881,41.55649V32.70981h-1.68262V29.89536h1.68262V25.74789h3.27734v4.14747h3.45215v2.81445h-3.45215V40.8895a1.47051,1.47051,0,0,0,1.6543,1.68261,3.71988,3.71988,0,0,0,1.76953-.43554v2.69726a5.57353,5.57353,0,0,1-2.72656.668C448.48975,45.5018,446.77881,44.54379,446.77881,41.55649Z"/><path d="M456.523,24.44223h3.48047V27.662H456.523Zm.11524,5.45313h3.27734v15.374h-3.27734Z"/><path d="M463.105,37.75668v-.26074c0-4.52539,3.0166-7.89062,7.10645-7.89062,4.06152,0,7.04883,3.30664,7.04883,7.86132v.26075c0,4.52539-3.01661,7.86132-7.10645,7.86132C466.09229,45.58871,463.105,42.31039,463.105,37.75668Zm10.877-.05859v-.17383c0-2.87109-1.59571-5.01758-3.82813-5.01758-2.292,0-3.77148,2.11719-3.77148,4.98926v.17383c0,2.87109,1.5957,5.04687,3.8291,5.04687C472.50342,42.71664,473.98194,40.57016,473.98194,37.69809Z"/><path d="M480.273,29.89536h3.27735v2.26269a4.81543,4.81543,0,0,1,4.20605-2.55273c2.958,0,4.72754,2.08886,4.72754,5.36621V45.26938h-3.27734V35.90024c0-2.14649-1.01563-3.33594-2.75586-3.33594-1.71094,0-2.90039,1.27637-2.90039,3.39356v9.31152H480.273Z"/><rect class="c" x="688.88108" y="10.53611" width="195.0474" height="51.26383" rx="5.00135"/><path d="M725.6792,35.29086v-.29c0-6.0332,3.71289-10.35546,9.02149-10.35546,5.27929,0,8.96289,4.293,8.96289,10.29785v.29c0,6.0332-3.71289,10.35546-9.02051,10.35546C729.36377,45.58871,725.6792,41.29575,725.6792,35.29086Zm14.50391-.05761v-.20313c0-4.35156-2.32031-7.28125-5.54-7.28125-3.19043,0-5.48242,2.87207-5.48242,7.25195V35.204c0,4.35058,2.34961,7.28027,5.54,7.28027C737.89209,42.48422,740.18311,39.61313,740.18311,35.23325Z"/><path d="M746.81983,40.19321V29.89536h3.27832V39.2645c0,2.14648,1.01465,3.33593,2.72656,3.33593s2.90137-1.27636,2.90137-3.39355V29.89536h3.30664v15.374h-3.30664V43.036a4.74768,4.74768,0,0,1-4.17774,2.52344C748.56006,45.55942,746.81983,43.49985,746.81983,40.19321Z"/><path d="M763.3794,41.55649V32.70981h-1.68262V29.89536h1.68262V25.74789h3.27832v4.14747h3.45117v2.81445h-3.45117V40.8895a1.46954,1.46954,0,0,0,1.65234,1.68261,3.71432,3.71432,0,0,0,1.76953-.43554v2.69726a5.56792,5.56792,0,0,1-2.72656.668C765.09131,45.5018,763.3794,44.54379,763.3794,41.55649Z"/><path d="M773.06494,29.89536h3.27832v2.46582a5.19585,5.19585,0,0,1,4.4961-2.75586c3.07422,0,5.97461,2.582,5.97461,7.77441V37.786c0,5.16309-2.8711,7.77344-5.97461,7.77344a5.23622,5.23622,0,0,1-4.4961-2.61035v6.70019h-3.27832Zm10.44239,7.832v-.26075c0-3.07519-1.59571-4.96-3.56836-4.96-1.97168,0-3.6543,1.91407-3.6543,4.93067v.29c0,3.0166,1.68262,4.93164,3.6543,4.93164C781.94092,42.659,783.50733,40.80258,783.50733,37.72739Z"/><path d="M789.73975,40.19321V29.89536h3.27734V39.2645c0,2.14648,1.01563,3.33593,2.72656,3.33593s2.9004-1.27636,2.9004-3.39355V29.89536h3.30664v15.374h-3.30664V43.036a4.74371,4.74371,0,0,1-4.17676,2.52344C791.48,45.55942,789.73975,43.49985,789.73975,40.19321Z"/><path d="M806.29834,41.55649V32.70981h-1.68261V29.89536h1.68261V25.74789h3.27735v4.14747h3.45214v2.81445h-3.45214V40.8895A1.4705,1.4705,0,0,0,811.23,42.57211a3.71988,3.71988,0,0,0,1.76953-.43554v2.69726a5.57353,5.57353,0,0,1-2.72656.668C808.00928,45.5018,806.29834,44.54379,806.29834,41.55649Z"/><path d="M815.75147,36.91586A13.06414,13.06414,0,0,1,823.148,24.55844l1.30664,2.14649a11.228,11.228,0,0,0-5.4541,10.21093,11.22749,11.22749,0,0,0,5.4541,10.21L823.148,49.27231C818.24658,46.74887,815.75147,42.54282,815.75147,36.91586Z"/><path d="M825.69873,43.41293l1.53711-2.34961a7.01145,7.01145,0,0,0,4.23535,1.79883c1.36329,0,2.14649-.72558,2.14649-1.68262v-.02929c0-1.10254-1.18945-1.59571-3.0166-2.37891-2.291-.98535-4.20606-2.03027-4.20606-4.55371V34.16c0-2.75586,2.2041-4.49609,5.07617-4.49609a8.77292,8.77292,0,0,1,4.98926,1.65332l-1.39258,2.40723a6.85549,6.85549,0,0,0-3.65429-1.36328c-1.21875,0-1.94336.667-1.94336,1.50878v.05762c0,1.01563,1.21777,1.53711,3.01562,2.34961,2.37891,1.07324,4.17774,2.17578,4.17774,4.583v.0293c0,3.0166-2.291,4.66992-5.25,4.66992A9.07388,9.07388,0,0,1,825.69873,43.41293Z"/><path d="M838.28467,47.12582a11.26048,11.26048,0,0,0,5.42383-10.21,11.261,11.261,0,0,0-5.42383-10.21093l1.30469-2.14649a13.10943,13.10943,0,0,1,7.39746,12.35742,13.05157,13.05157,0,0,1-7.39746,12.35645Z"/><rect x="198.26123" y="30.16782" width="57.85352" height="12"/><polygon points="251.738 51.127 277.644 36.168 251.738 21.209 251.738 51.127"/><rect x="599.49756" y="30.16782" width="57.85547" height="12"/><polygon points="652.976 51.127 678.881 36.168 652.976 21.209 652.976 51.127"/><rect class="a" x="13.21376" y="101.40363" width="175.04724" height="125.63933" rx="5.00135"/><path d="M52.24756,123.578H50.53662v-2.72754h1.71094V119.662a4.81685,4.81685,0,0,1,1.13086-3.50977,4.46517,4.46517,0,0,1,3.2207-1.10254,7.331,7.331,0,0,1,2.32032.31934v2.75488a5.7628,5.7628,0,0,0-1.59571-.26074c-1.18945,0-1.82812.667-1.82812,2.11719v.87011h3.39453V123.578H55.5249v12.55957H52.24756Z"/><path d="M61.09229,120.76352h3.27832v3.0166c.81152-2.001,2.291-3.36426,4.61133-3.248v3.56739H68.8374c-2.66894,0-4.46679,1.74023-4.46679,5.25v6.78808H61.09229Z"/><path d="M70.34229,128.62485v-.26074c0-4.5254,3.0166-7.89063,7.10644-7.89063,4.06153,0,7.04883,3.30664,7.04883,7.86133v.26074c0,4.52539-3.0166,7.86133-7.10644,7.86133C73.32959,136.45688,70.34229,133.17856,70.34229,128.62485Zm10.87793-.0586v-.17382c0-2.8711-1.59571-5.01758-3.8291-5.01758-2.292,0-3.77051,2.11718-3.77051,4.98926v.17382c0,2.8711,1.59472,5.04688,3.82812,5.04688C79.74073,133.58481,81.22022,131.43832,81.22022,128.56625Z"/><path d="M87.51123,120.76352h3.27735v2.2334a4.75823,4.75823,0,0,1,4.11914-2.52344,4.20414,4.20414,0,0,1,3.97363,2.46582,5.44339,5.44339,0,0,1,4.49609-2.46582c2.84278,0,4.69922,1.88574,4.69922,5.36621v10.29785h-3.27832V126.7977c0-2.20508-.92773-3.36524-2.60937-3.36524-1.59571,0-2.75586,1.21875-2.75586,3.39356v9.31152H96.15479V126.7684c0-2.17578-.957-3.33594-2.58106-3.33594-1.65429,0-2.78515,1.30567-2.78515,3.42286v9.28222H87.51123Z"/><path d="M119.09131,121.08286h12.53125v3.10351H119.09131Zm0,6.585h12.53125v3.10351H119.09131Z"/><path d="M145.27881,119.19711l-3.19141.958-.55078-2.90137,4.69922-1.5664h2.37891v20.45019h-3.33594Z"/><path d="M66.28272,167.22446v-8.84668H64.60108v-2.81446h1.68164v-4.14746H69.561v4.14746h3.45215v2.81446H69.561v8.17968a1.46984,1.46984,0,0,0,1.65332,1.68262,3.71433,3.71433,0,0,0,1.76953-.43555v2.69727a5.57075,5.57075,0,0,1-2.72656.668C67.99463,171.16977,66.28272,170.21176,66.28272,167.22446Z"/><path d="M74.896,163.42465v-.26074c0-4.52539,3.0166-7.89063,7.10742-7.89063,4.06055,0,7.04785,3.30665,7.04785,7.86133v.26075c0,4.52539-3.0166,7.86132-7.10644,7.86132C77.88428,171.25668,74.896,167.97836,74.896,163.42465Zm10.87793-.05859v-.17383c0-2.87109-1.5957-5.01758-3.8291-5.01758-2.291,0-3.77149,2.11719-3.77149,4.98926v.17383c0,2.87109,1.59571,5.04687,3.83008,5.04687C84.29444,168.38461,85.77393,166.23813,85.77393,163.36606Z"/><path d="M99.4585,155.88266h12.53125v3.10352H99.4585Zm0,6.585h12.53125v3.10352H99.4585Z"/><path d="M122.31006,168.704l1.91406-2.49512a6.383,6.383,0,0,0,4.32227,1.94434,3.41085,3.41085,0,0,0,3.626-3.626v-.05859c0-2.14649-1.59473-3.42285-3.74122-3.42285a6.95972,6.95972,0,0,0-3.07519.75488L123.3833,160.495l.55176-9.8623h10.73242v3.07422h-7.89062l-.31836,4.81543a8.04075,8.04075,0,0,1,2.69726-.46387c3.45118,0,6.35254,1.97266,6.35254,6.294v.05859c0,4.17676-2.87207,6.8457-6.93261,6.8457A8.9588,8.9588,0,0,1,122.31006,168.704Z"/><path d="M69.25635,203.41684v2.32031H65.978V184.79379h3.27832V192.829a5.19708,5.19708,0,0,1,4.49609-2.75586c3.0752,0,5.97559,2.582,5.97559,7.77441v.40625c0,5.16309-2.87207,7.77344-5.97559,7.77344A5.23878,5.23878,0,0,1,69.25635,203.41684Zm7.165-5.22168v-.26074c0-3.0752-1.5957-4.96-3.56836-4.96s-3.6543,1.91406-3.6543,4.93066v.29c0,3.0166,1.68164,4.93164,3.6543,4.93164C74.855,203.1268,76.42139,201.27036,76.42139,198.19516Z"/><path d="M91.32666,190.36313h3.39356l-5.22071,15.60644c-1.04492,3.10352-2.291,4.23438-4.55468,4.23438a6.35616,6.35616,0,0,1-3.10352-.81152l.957-2.52442a3.8045,3.8045,0,0,0,1.76953.52246c.8711,0,1.39258-.37695,1.85743-1.624l-5.48243-15.40332h3.48047l3.56836,11.168Z"/><path d="M104.66455,190.68246h12.53028V193.786H104.66455Zm0,6.585h12.53028v3.10351H104.66455Z"/><path d="M130.85108,188.79672l-3.19043.958-.55176-2.90137,4.69922-1.5664h2.3789v20.45019h-3.33593Z"/><rect class="b" x="290.14475" y="138.59138" width="296.85271" height="51.26383" rx="6.47999"/><path d="M332.187,171.4686l1.53711-2.34961a7.01145,7.01145,0,0,0,4.23536,1.79883c1.36328,0,2.14648-.72559,2.14648-1.68262v-.0293c0-1.10254-1.18945-1.5957-3.0166-2.3789-2.291-.98536-4.20606-2.03028-4.20606-4.55372v-.05761c0-2.75586,2.2041-4.4961,5.07618-4.4961a8.77291,8.77291,0,0,1,4.98925,1.65332l-1.39258,2.40723a6.85557,6.85557,0,0,0-3.65429-1.36328c-1.21875,0-1.94336.667-1.94336,1.50879v.05762c0,1.01562,1.21777,1.53711,3.01562,2.34961,2.37891,1.07324,4.17774,2.17578,4.17774,4.583v.0293c0,3.0166-2.291,4.66992-5.25,4.66992A9.07394,9.07394,0,0,1,332.187,171.4686Z"/><path d="M345.353,165.81235v-.23242c0-4.61231,2.78516-7.91895,6.55566-7.91895,4.17676,0,6.38184,3.48145,6.38184,8.09277,0,.20313,0,.668-.0293,1.13184h-9.63086c.291,2.58105,1.88672,3.97363,3.8877,3.97363a4.88794,4.88794,0,0,0,3.53808-1.624l1.71192,2.03027a7.06714,7.06714,0,0,1-5.39551,2.37891C348.42725,173.64438,345.353,170.62778,345.353,165.81235Zm9.74609-1.18946c-.17382-2.43652-1.27539-4.20605-3.19043-4.20605-1.79785,0-3.07519,1.5957-3.30664,4.20605Z"/><path d="M371.07764,170.85922a5.19585,5.19585,0,0,1-4.49609,2.75586c-3.07422,0-5.97461-2.582-5.97461-7.77344v-.37793c0-5.1914,2.87109-7.80273,5.97461-7.80273a5.29735,5.29735,0,0,1,4.49609,2.61133V157.951H374.356v19.75391h-3.27832Zm.05859-5.07617v-.29c0-3.0166-1.68261-4.93066-3.65527-4.93066-2.001,0-3.56738,1.85644-3.56738,4.96v.23144c0,3.0752,1.5957,4.96094,3.56738,4.96094C369.45362,170.71469,371.13623,168.79965,371.13623,165.78305Z"/><path d="M377.83252,164.97153a13.06413,13.06413,0,0,1,7.39649-12.35742l1.30566,2.14648a12.28561,12.28561,0,0,0,0,20.4209L385.229,177.328C380.32764,174.80453,377.83252,170.59848,377.83252,164.97153Z"/><path d="M390.12842,160.76547h-1.71094v-2.72754h1.71094v-1.18847a4.81685,4.81685,0,0,1,1.13086-3.50977,4.46515,4.46515,0,0,1,3.2207-1.10254,7.32665,7.32665,0,0,1,2.32032.31934v2.75488a5.76286,5.76286,0,0,0-1.59571-.26074c-1.18945,0-1.82812.667-1.82812,2.11719v.87011H396.771v2.72754h-3.36524V173.325h-3.27734Z"/><path d="M398.97315,157.951h3.27832v3.0166c.81152-2.001,2.291-3.36426,4.61133-3.24805V161.287h-.14454c-2.66894,0-4.46679,1.74023-4.46679,5.25V173.325h-3.27832Z"/><path d="M408.22412,165.81235v-.26074c0-4.5254,3.01563-7.89063,7.10645-7.89063,4.06152,0,7.04785,3.30664,7.04785,7.86133v.26074c0,4.52539-3.01562,7.86133-7.10547,7.86133C411.21143,173.64438,408.22412,170.36606,408.22412,165.81235Zm10.877-.0586v-.17382c0-2.8711-1.59571-5.01758-3.82813-5.01758-2.292,0-3.77148,2.11718-3.77148,4.98926v.17382c0,2.8711,1.5957,5.04688,3.8291,5.04688C417.62256,170.77231,419.10108,168.62582,419.10108,165.75375Z"/><path d="M425.39209,157.951h3.27735v2.2334a4.757,4.757,0,0,1,4.11914-2.52344,4.20414,4.20414,0,0,1,3.97363,2.46582,5.44337,5.44337,0,0,1,4.49609-2.46582c2.84278,0,4.69922,1.88574,4.69922,5.36621V173.325H442.6792V163.9852c0-2.20508-.92773-3.36524-2.60937-3.36524-1.59571,0-2.75586,1.21875-2.75586,3.39356V173.325h-3.27832V163.9559c0-2.17578-.957-3.33594-2.58106-3.33594-1.65429,0-2.78515,1.30567-2.78515,3.42286V173.325h-3.27735Z"/><path d="M448.562,176.1102c1.79883-.34863,2.52344-1.36426,2.37891-2.78516h-1.47949v-3.8584h3.71289v3.249c0,3.07519-1.4502,4.49609-4.23535,4.81543Z"/><path d="M464.88916,169.61215v-8.84668h-1.68261V157.951h1.68261v-4.14746h3.27832V157.951h3.45117v2.81445h-3.45117v8.17969a1.46955,1.46955,0,0,0,1.65235,1.68262,3.71433,3.71433,0,0,0,1.76953-.43555v2.69727a5.568,5.568,0,0,1-2.72656.668C466.60108,173.55746,464.88916,172.59946,464.88916,169.61215Z"/><path d="M473.50147,165.81235v-.26074c0-4.5254,3.01758-7.89063,7.10742-7.89063,4.06055,0,7.04883,3.30664,7.04883,7.86133v.26074c0,4.52539-3.01758,7.86133-7.10742,7.86133C476.48975,173.64438,473.50147,170.36606,473.50147,165.81235Zm10.8789-.0586v-.17382c0-2.8711-1.5957-5.01758-3.83007-5.01758-2.291,0-3.77051,2.11718-3.77051,4.98926v.17382c0,2.8711,1.59472,5.04688,3.8291,5.04688C482.8999,170.77231,484.38037,168.62582,484.38037,165.75375Z"/><path d="M489.22022,176.1102c1.79785-.34863,2.52343-1.36426,2.37793-2.78516h-1.4795v-3.8584h3.7129v3.249c0,3.07519-1.4502,4.49609-4.23438,4.81543Z"/><path d="M508.186,171.00473V173.325h-3.27832V152.38168H508.186v8.03516a5.19708,5.19708,0,0,1,4.49609-2.75586c3.0752,0,5.97559,2.582,5.97559,7.77441v.40625c0,5.16309-2.87207,7.77344-5.97559,7.77344A5.23877,5.23877,0,0,1,508.186,171.00473Zm7.165-5.22168v-.26074c0-3.0752-1.59571-4.96-3.56836-4.96s-3.6543,1.91406-3.6543,4.93066v.29c0,3.0166,1.68164,4.93164,3.6543,4.93164C513.78467,170.71469,515.35108,168.85825,515.35108,165.78305Z"/><path d="M530.25635,157.951h3.39355l-5.2207,15.60644c-1.04492,3.10352-2.291,4.23438-4.55469,4.23438a6.35612,6.35612,0,0,1-3.10351-.81152l.957-2.52442a3.8045,3.8045,0,0,0,1.76953.52246c.87109,0,1.39258-.377,1.85742-1.624L519.87256,157.951H523.353l3.56836,11.168Z"/><path d="M535.2417,175.18149a12.32134,12.32134,0,0,0,0-20.4209l1.30567-2.14648a14.01942,14.01942,0,0,1,0,24.71386Z"/><rect x="198.26123" y="158.22348" width="57.85352" height="12"/><polygon points="251.738 179.182 277.644 164.223 251.738 149.264 251.738 179.182"/><rect class="c" x="688.88108" y="138.59138" width="195.0474" height="51.26383" rx="5.00135"/><path d="M710.74561,153.02036h7.832v2.52343h-4.72852v19.02832h4.72852v2.52344h-7.832Z"/><path d="M724.43408,156.38461l-3.19043.958-.55175-2.90137,4.69922-1.5664h2.37793V173.325h-3.335Z"/><path d="M731.103,176.1102c1.79883-.34863,2.52344-1.36426,2.37891-2.78516h-1.4795v-3.8584h3.71289v3.249c0,3.07519-1.45019,4.49609-4.23535,4.81543Z"/><path d="M746.18311,170.6561l6.207-6.64258c2.292-2.37793,3.13281-3.626,3.13281-5.2793a2.78487,2.78487,0,0,0-2.959-2.90039c-1.59473,0-2.72657.87012-4.06055,2.61035l-2.2334-2.05957c1.68262-2.32031,3.65528-3.65429,6.585-3.65429,3.53809,0,6.09082,2.23339,6.09082,5.71386v.0586c0,2.75586-1.27636,4.40918-4.23535,7.36718l-4.06055,4.40918h8.38282v3.0459H746.18311Z"/><path d="M761.29151,176.1102c1.79785-.34863,2.52343-1.36426,2.37793-2.78516h-1.47852v-3.8584h3.71289v3.249c0,3.07519-1.45117,4.49609-4.23535,4.81543Z"/><path d="M775.99365,170.85922l2.0879-2.37793a5.66629,5.66629,0,0,0,4.38085,2.11719,3.15426,3.15426,0,0,0,3.33594-3.21973v-.08691c0-2.08887-1.79883-3.249-4.6123-3.249h-1.01465l-.43555-2.11719,4.93164-5.88867H776.98v-3.0166h11.89258V155.66l-5.13379,5.88868c2.81348.43457,5.39551,2.08789,5.39551,5.627v.08691c0,3.79981-2.75586,6.38184-6.64258,6.38184A8.49926,8.49926,0,0,1,775.99365,170.85922Z"/><path d="M791.42139,176.1102c1.79883-.34863,2.52344-1.36426,2.37891-2.78516h-1.48047v-3.8584h3.71289v3.249c0,3.07519-1.44922,4.49609-4.23438,4.81543Z"/><path d="M815.58057,168.91586h-8.99219l-.46387-2.43652,9.65821-13.5752H818.771v13.19825h2.52344v2.81347H818.771V173.325h-3.19043Zm0-2.81347V157.951l-5.74317,8.15137Z"/><path d="M823.29151,176.1102c1.79785-.34863,2.52343-1.36426,2.37793-2.78516h-1.47852v-3.8584h3.71289v3.249c0,3.07519-1.45117,4.49609-4.23535,4.81543Z"/><path d="M838.19678,171.09164l1.915-2.49511a6.38146,6.38146,0,0,0,4.32129,1.94336,3.41084,3.41084,0,0,0,3.62695-3.625v-.0586c0-2.14648-1.5957-3.42285-3.74219-3.42285a6.95193,6.95193,0,0,0-3.07422.75488l-1.97265-1.30566.55078-9.8623H850.5542v3.07421h-7.88965l-.31933,4.81543a8.04531,8.04531,0,0,1,2.69726-.46386c3.45215,0,6.35352,1.97265,6.35352,6.29394v.0586c0,4.17675-2.87207,6.8457-6.9336,6.8457A8.96055,8.96055,0,0,1,838.19678,171.09164Z"/><path d="M854.23389,174.57211h4.72851V155.54379h-4.72851v-2.52343h7.832v24.07519h-7.832Z"/><rect x="599.49756" y="158.22348" width="57.85547" height="12"/><polygon points="652.976 179.182 678.881 164.223 652.976 149.264 652.976 179.182"/></svg>