<svg xmlns="http://www.w3.org/2000/svg" viewBox="0 0 504.75403 805.99053"><defs><style>.a{fill:#75bbef;}.b{fill:#ea7d7d;}</style></defs><path d="M341.514,32.43384a11.13748,11.13748,0,0,1-1.80957-.13868c-.55761-.09179-1.05664-.19531-1.49707-.30664q-.6621-.16992-1.13867-.31347a3.82388,3.82388,0,0,0-.7334-.16406l.17481-3.94825h2.07129l.46093,2.55371a1.90012,1.90012,0,0,0,.30274.25684,2.25523,2.25523,0,0,0,.4668.24023,3.74688,3.74688,0,0,0,.64062.17969,4.16306,4.16306,0,0,0,.80469.07227,3.39074,3.39074,0,0,0,1.15918-.16992,2.01592,2.01592,0,0,0,.74316-.45118,1.59649,1.59649,0,0,0,.40039-.66113,2.66305,2.66305,0,0,0,.11719-.79,1.85719,1.85719,0,0,0-.23047-.918,2.95629,2.95629,0,0,0-.666-.78906,7.16139,7.16139,0,0,0-1.06641-.73828q-.63135-.36329-1.43066-.76367-.59474-.29736-1.27149-.71289a6.1605,6.1605,0,0,1-1.24609-1.01563,5.27075,5.27075,0,0,1-.94825-1.40918,4.43376,4.43376,0,0,1-.37988-1.89746,3.72146,3.72146,0,0,1,1.36426-2.89648,5.14634,5.14634,0,0,1,1.72754-.92188,7.80252,7.80252,0,0,1,2.44531-.34375,9.69067,9.69067,0,0,1,1.40039.10156c.46778.06836.90723.14649,1.31738.23047q.61524.12891,1.08692.2461c.31445.08007.5498.13281.707.16015l-.13281,3.57813h-2.041l-.3789-2.28711a.92247.92247,0,0,0-.25684-.1836,2.47385,2.47385,0,0,0-.41016-.16992,3.70168,3.70168,0,0,0-.50683-.123,3.22734,3.22734,0,0,0-.54883-.0459,3.1625,3.1625,0,0,0-1.01563.14355,1.8996,1.8996,0,0,0-.67675.37891,1.408,1.408,0,0,0-.374.55469,1.91372,1.91372,0,0,0-.11816.67578,1.95914,1.95914,0,0,0,.28711,1.05664,3.35566,3.35566,0,0,0,.7793.85156,7.72461,7.72461,0,0,0,1.14843.74219q.65625.3545,1.40528.72363.63573.31786,1.30761.7334a7.24864,7.24864,0,0,1,1.23536.96289,4.743,4.743,0,0,1,.92285,1.25684,3.51113,3.51113,0,0,1,.3584,1.61035,5.10932,5.10932,0,0,1-.29688,1.6709,4.16776,4.16776,0,0,1-.99512,1.56933,5.26258,5.26258,0,0,1-1.835,1.1582A7.7227,7.7227,0,0,1,341.514,32.43384Z"/><path d="M358.556,32.43384a1.51885,1.51885,0,0,1-1.15332-.37891,1.43,1.43,0,0,1-.3545-1.01562v-.34864a3.53766,3.53766,0,0,1-.62988.65137,5.25073,5.25073,0,0,1-.84668.55859,4.8267,4.8267,0,0,1-.97363.38965,3.78752,3.78752,0,0,1-1.02539.14356,5.84427,5.84427,0,0,1-1.76856-.23633,2.69861,2.69861,0,0,1-1.2207-.76367,3.27179,3.27179,0,0,1-.70215-1.36914,7.96992,7.96992,0,0,1-.22558-2.04V22.17993l-.95411-.34863V20.52954l4.06055-.28711h.01074l.47168.28711V28.178a2.88885,2.88885,0,0,0,.36426,1.666,1.42827,1.42827,0,0,0,1.23535.498,2.687,2.687,0,0,0,.65137-.07227,2.89149,2.89149,0,0,0,.51758-.17382,2.43486,2.43486,0,0,0,.38476-.21485,2.0483,2.0483,0,0,0,.24024-.19531V22.17993L355.2435,21.801v-1.3125l4.40918-.24609h.0205l.55371.28711V30.69067h1.09766v1.38379c-.12988.02735-.291.06445-.48242.10742-.19141.04493-.40625.084-.64551.11914-.23926.03321-.49707.06446-.77441.0918Q359.00766,32.43383,358.556,32.43384Z"/><path d="M362.82162,32.19751V30.7522l1.27149-.26661V22.91821l-1.36426-.41015V20.7854l3.97851-.543h.05176l.584.4707v.71875l-.00977.48145a4.34628,4.34628,0,0,1,.84082-.62012,7.93136,7.93136,0,0,1,1.07129-.51758,7.736,7.736,0,0,1,1.16894-.35937,5.23124,5.23124,0,0,1,1.13282-.13281,4.03045,4.03045,0,0,1,1.89746.3789,2.38055,2.38055,0,0,1,1.0664,1.24024,4.89563,4.89563,0,0,1,.74317-.54883,7.76244,7.76244,0,0,1,1.01562-.52149,7.44767,7.44767,0,0,1,1.1836-.3955,5.26671,5.26671,0,0,1,1.26172-.15332,4.62214,4.62214,0,0,1,1.584.23535,2.19748,2.19748,0,0,1,1.03613.77441,3.54015,3.54015,0,0,1,.56836,1.4043,11.00432,11.00432,0,0,1,.17481,2.12793v5.66015l1.4248.26661v1.44531h-6.00879V30.7522l.98438-.26661V24.928a7.71038,7.71038,0,0,0-.08692-1.27149,2.25251,2.25251,0,0,0-.27636-.80468,1.04657,1.04657,0,0,0-.48731-.42579,1.909,1.909,0,0,0-.72851-.123,2.18667,2.18667,0,0,0-.502.0664,5.27306,5.27306,0,0,0-.55859.16993c-.18848.06835-.373.14257-.55371.2246a4.66649,4.66649,0,0,0-.47754.2461,11.93655,11.93655,0,0,1,.123,1.83594v5.63964l1.292.26661v1.44531h-6.03906V30.7522l1.14843-.25586V24.78442a6.51617,6.51617,0,0,0-.082-1.11816,2.05082,2.05082,0,0,0-.27148-.75391,1.12134,1.12134,0,0,0-.49805-.4248,1.90882,1.90882,0,0,0-.75879-.13379,2.50558,2.50558,0,0,0-.5791.07226,5.556,5.556,0,0,0-.58984.17383,3.8825,3.8825,0,0,0-.51758.22656,2.88153,2.88153,0,0,0-.35352.21485v7.43359l1.374.27735v1.44531Z"/><path d="M384.66244,32.19751V30.7522l1.27149-.26661V22.91821l-1.36426-.41015V20.7854l3.97851-.543h.05176l.584.4707v.71875l-.00977.48145a4.34628,4.34628,0,0,1,.84082-.62012,7.93136,7.93136,0,0,1,1.07129-.51758,7.736,7.736,0,0,1,1.16894-.35937,5.23124,5.23124,0,0,1,1.13282-.13281,4.03045,4.03045,0,0,1,1.89746.3789,2.38055,2.38055,0,0,1,1.0664,1.24024,4.89563,4.89563,0,0,1,.74317-.54883,7.76244,7.76244,0,0,1,1.01562-.52149,7.448,7.448,0,0,1,1.1836-.3955,5.26671,5.26671,0,0,1,1.26172-.15332,4.62214,4.62214,0,0,1,1.584.23535,2.19748,2.19748,0,0,1,1.03613.77441,3.54015,3.54015,0,0,1,.56836,1.4043,11.00432,11.00432,0,0,1,.17481,2.12793v5.66015l1.4248.26661v1.44531h-6.00879V30.7522l.98438-.26661V24.928a7.71038,7.71038,0,0,0-.08692-1.27149,2.25251,2.25251,0,0,0-.27636-.80468,1.04657,1.04657,0,0,0-.48731-.42579,1.909,1.909,0,0,0-.72851-.123,2.18667,2.18667,0,0,0-.502.0664,5.27306,5.27306,0,0,0-.55859.16993c-.18848.06835-.37305.14257-.55371.2246a4.66649,4.66649,0,0,0-.47754.2461,11.93655,11.93655,0,0,1,.123,1.83594v5.63964l1.292.26661v1.44531h-6.03906V30.7522l1.14843-.25586V24.78442a6.51617,6.51617,0,0,0-.082-1.11816,2.05082,2.05082,0,0,0-.27148-.75391,1.12134,1.12134,0,0,0-.498-.4248,1.90882,1.90882,0,0,0-.75879-.13379,2.50558,2.50558,0,0,0-.5791.07226,5.556,5.556,0,0,0-.58984.17383,3.8825,3.8825,0,0,0-.51758.22656,2.88153,2.88153,0,0,0-.35352.21485v7.43359l1.374.27735v1.44531Z"/><path d="M406.12338,29.06079a3.12469,3.12469,0,0,1,.27246-1.334,3.34235,3.34235,0,0,1,.74316-1.0293,4.40372,4.40372,0,0,1,1.11231-.75977,7.69815,7.69815,0,0,1,1.38476-.51172,11.0335,11.0335,0,0,1,1.55274-.29882,15.55975,15.55975,0,0,1,1.62012-.10743v-.4707a1.95987,1.95987,0,0,0-.48145-1.49219,2.11578,2.11578,0,0,0-1.47656-.44629,7.64269,7.64269,0,0,0-1.11231.082q-.55956.082-1.07226.20507t-.95313.27246q-.44091.148-.75879.291h-.01074l-.67676-1.57812a5.45026,5.45026,0,0,1,.749-.45118,9.29214,9.29214,0,0,1,1.26074-.53906,13.33518,13.33518,0,0,1,1.65137-.45605,9.21586,9.21586,0,0,1,1.92773-.19434,6.573,6.573,0,0,1,1.98438.26172,3.27891,3.27891,0,0,1,1.34765.7793,3.06558,3.06558,0,0,1,.76465,1.30078,6.27706,6.27706,0,0,1,.24023,1.831v6.26465h1.27149v1.39453c-.12988.02735-.292.0625-.48633.10352q-.293.06151-.667.11718c-.25.03711-.52246.07032-.82031.09766q-.44532.041-.94825.041a5.85994,5.85994,0,0,1-.69726-.03516,1.07144,1.07144,0,0,1-.45606-.14941.632.632,0,0,1-.24609-.32325,1.64818,1.64818,0,0,1-.07715-.55859v-.707a4.44619,4.44619,0,0,1-.50781.60449,3.677,3.677,0,0,1-.74316.57422,4.40431,4.40431,0,0,1-.98438.4248,4.1829,4.1829,0,0,1-1.23047.16993,4.57251,4.57251,0,0,1-1.374-.19922,3.03853,3.03853,0,0,1-1.10254-.61133,2.79894,2.79894,0,0,1-.7334-1.05078A3.91967,3.91967,0,0,1,406.12338,29.06079Zm5.10644,1.17871a1.67591,1.67591,0,0,0,.3545-.0459,3.336,3.336,0,0,0,.43066-.1289,3.16768,3.16768,0,0,0,.43066-.19922,1.67918,1.67918,0,0,0,.36329-.27149v-3.21a5.35615,5.35615,0,0,0-1.46094.169,2.5901,2.5901,0,0,0-.93848.457,1.62429,1.62429,0,0,0-.49707.666,2.39692,2.39692,0,0,0,.2002,2.07618A1.27783,1.27783,0,0,0,411.22982,30.2395Z"/><path d="M418.58236,32.19751V30.69067l1.374-.21582V22.91821l-1.374-.41015V20.7854l3.82422-.543h.06153l.57421.4707v2.71778h.05176a5.9909,5.9909,0,0,1,.47656-.98438,5.70667,5.70667,0,0,1,.79493-1.05176,4.62805,4.62805,0,0,1,1.0664-.835,2.54789,2.54789,0,0,1,1.28125-.33886,4.29917,4.29917,0,0,1,.53321.02539,1.52491,1.52491,0,0,1,.28711.06738v4.08105a1.84142,1.84142,0,0,0-.67676-.21093,7.66027,7.66027,0,0,0-1.333-.09668c-.16406,0-.34668.01074-.54883.03027-.20117.02148-.39746.04688-.58887.07813a4.14951,4.14951,0,0,0-.51269.11132,1.2843,1.2843,0,0,0-.31836.12891v6.03906l2.44043.27735v1.44531Z"/><path d="M428.79525,32.19751V30.69067l1.4043-.21582V22.91821l-1.36328-.41992V20.7854l4.09082-.543h.05176l.84082.4707v9.76172l1.40429.21582v1.50684Zm2.85059-13.57617a1.56438,1.56438,0,0,1-.6875-.14258,1.432,1.432,0,0,1-.49707-.39063,1.70809,1.70809,0,0,1-.30273-.56836,2.24092,2.24092,0,0,1-.10254-.68164,2.70242,2.70242,0,0,1,.11816-.81054,1.902,1.902,0,0,1,.35352-.66211,1.67521,1.67521,0,0,1,.58984-.44532,1.97014,1.97014,0,0,1,.83594-.16406h.00976a1.96524,1.96524,0,0,1,.79.14356,1.50519,1.50519,0,0,1,.86133.94336,2.19127,2.19127,0,0,1,.10254.67675,2.8298,2.8298,0,0,1-.11817.82618,1.70059,1.70059,0,0,1-1.00976,1.11132,2.4006,2.4006,0,0,1-.93359.16407Z"/><path d="M436.1058,31.12134l5.34277-7.69043,1.333-1.50684-3.292.16406-.47168,1.958h-1.9375V20.39575h9.49512l.50195,1.01465L441.93,29.17309l-1.292,1.51758,3.82519-.24609.8711-2.25586,1.8457.16406-.30762,3.84473H436.64975Z"/><path d="M453.97885,32.43384a6.6678,6.6678,0,0,1-2.58985-.45118,4.57535,4.57535,0,0,1-1.75293-1.25585,5.03327,5.03327,0,0,1-.99511-1.91211,8.9437,8.9437,0,0,1-.3125-2.43067,7.8926,7.8926,0,0,1,.40039-2.61035,5.31754,5.31754,0,0,1,1.14258-1.92773,4.89707,4.89707,0,0,1,1.79492-1.19336,6.4265,6.4265,0,0,1,2.35351-.41016,4.84813,4.84813,0,0,1,3.35743,1.01953,4.3152,4.3152,0,0,1,1.22558,3.12305q.03077.73828,0,1.332a7.12553,7.12553,0,0,1-.1123,1.00586H452.0101a6.36882,6.36882,0,0,0,.27636,1.57812,2.94562,2.94562,0,0,0,.585,1.05664,2.14961,2.14961,0,0,0,.88183.59473,3.40276,3.40276,0,0,0,1.1582.18457,6.06329,6.06329,0,0,0,1.00489-.07617,6.33881,6.33881,0,0,0,.82031-.19531,4.7598,4.7598,0,0,0,.66113-.26172c.19532-.0957.3711-.1875.52832-.27735l.585,1.35352a3.77881,3.77881,0,0,1-.69238.55859,7.008,7.008,0,0,1-1.06152.57032,8.23821,8.23821,0,0,1-1.31738.44531A5.9859,5.9859,0,0,1,453.97885,32.43384ZM453.7015,21.678a1.54829,1.54829,0,0,0-.62011.12695,1.21367,1.21367,0,0,0-.52344.51367,3.6131,3.6131,0,0,0-.37891,1.08594,10.615,10.615,0,0,0-.17968,1.85156h3.11718c0-.02051.002-.05859.00489-.11328.0039-.05469.00586-.11328.00586-.17969v-.28125q0-.51268-.04688-1.041a4.1627,4.1627,0,0,0-.19434-.96875,1.79563,1.79563,0,0,0-.43066-.71778A1.03023,1.03023,0,0,0,453.7015,21.678Z"/><path d="M465.25814,32.19751l-.01074-1.54785,1.3125-.27637,4.80957-13.8125h3.79395l4.86035,13.80176,1.49707.28711v1.54785h-7.22949V30.64966l1.68164-.27637-.666-2.25586h-5.30176L469.39,30.37329l1.68164.27637v1.54785ZM472.25131,19.842l-1.77442,6.51172h4.29688L472.83529,19.842l-.31738-1.415Z"/><path d="M481.27475,32.19751V30.69067l1.374-.21582V17.10376l-1.44629-.28711v-1.3125l4.29688-.5332h.041l.707.54394v14.96l1.43555.21582v1.50684Z"/><path d="M488.63705,32.19751V30.69067l1.374-.21582V17.10376l-1.44628-.28711v-1.3125l4.29687-.5332h.041l.707.54394v14.96l1.43554.21582v1.50684Z"/><path d="M26.15365,79.68286v-.1123c0-2.88477,1.86328-5,4.49707-5A4.46577,4.46577,0,0,1,33.7601,75.676l-.9668,1.28907a3.00773,3.00773,0,0,0-2.1709-.88282c-1.59668,0-2.78711,1.44336-2.78711,3.47461v.084c0,2.21289,1.2041,3.52929,2.8711,3.52929a3.03661,3.03661,0,0,0,1.7373-.51757V80.49536H30.38412V79.06665h3.60059v4.39844a5.34393,5.34393,0,0,1-3.34864,1.19043C27.97494,84.65552,26.15365,82.69458,26.15365,79.68286Z"/><path d="M35.72982,77.092h1.583v1.45605a2.20785,2.20785,0,0,1,2.22754-1.56933v1.72363h-.07031c-1.28906,0-2.15723.84082-2.15723,2.53516v3.27832h-1.583Z"/><path d="M40.19564,80.887v-.125a3.43749,3.43749,0,1,1,6.83594-.01465v.126a3.43624,3.43624,0,1,1-6.83594.01367Zm5.25293-.02734v-.084c0-1.38672-.7705-2.42382-1.84863-2.42382-1.10742,0-1.82129,1.02343-1.82129,2.41015v.084c0,1.38671.77051,2.4375,1.84864,2.4375C44.73373,83.28345,45.44857,82.24634,45.44857,80.85962Z"/><path d="M48.41439,82.0647V77.092h1.582v4.52344c0,1.03711.49023,1.61133,1.31738,1.61133.82617,0,1.40039-.61719,1.40039-1.63868V77.092h1.59668v7.42383H52.7142v-1.0791a2.29133,2.29133,0,0,1-2.0166,1.21875C49.25424,84.65552,48.41439,83.6604,48.41439,82.0647Z"/><path d="M56.09994,77.092h1.583v1.18945a2.50934,2.50934,0,0,1,2.1709-1.33008c1.48437,0,2.88574,1.2461,2.88574,3.75391v.19629c0,2.49316-1.38672,3.75391-2.88574,3.75391a2.52868,2.52868,0,0,1-2.1709-1.26075V86.6311h-1.583Zm5.043,3.78125v-.126c0-1.48535-.77051-2.3955-1.72363-2.3955-.95215,0-1.76465.9248-1.76465,2.38085v.14063c0,1.457.8125,2.38086,1.76465,2.38086C60.38607,83.25415,61.14291,82.35766,61.14291,80.87329Z"/><path d="M104.65854,74.7102h1.76464l2.40918,7.40918,2.40918-7.40918h1.709l-3.38965,9.86133h-1.499Z"/><path d="M113.016,82.387v-.07031c0-1.59766,1.06543-2.38184,2.63379-2.38184a5.05365,5.05365,0,0,1,1.709.29395v-.3086a1.40373,1.40373,0,0,0-1.59668-1.51171,4.22771,4.22771,0,0,0-1.793.44726l-.44824-1.25976a5.2728,5.2728,0,0,1,2.45117-.58789,2.62061,2.62061,0,0,1,2.92774,2.89843v4.60938h-1.55469v-.91113a2.36266,2.36266,0,0,1-2.05957,1.05078A2.16845,2.16845,0,0,1,113.016,82.387Zm4.35644-.36523v-.74219a3.56557,3.56557,0,0,0-1.37207-.26563c-.91113,0-1.44336.46192-1.44336,1.2461v.02832a1.13247,1.13247,0,0,0,1.20508,1.17676A1.48532,1.48532,0,0,0,117.3724,82.02173Z"/><path d="M120.60482,77.092h1.583v1.45605a2.20669,2.20669,0,0,1,2.22656-1.56933v1.72363h-.06933c-1.28906,0-2.15723.84082-2.15723,2.53516v3.27832h-1.583Z"/><path d="M125.67221,74.45727h1.68066v1.55567h-1.68066Zm.05566,2.63477h1.583v7.42383h-1.583Z"/><path d="M128.766,82.387v-.07031c0-1.59766,1.06445-2.38184,2.63379-2.38184a5.05807,5.05807,0,0,1,1.709.29395v-.3086a1.40447,1.40447,0,0,0-1.59766-1.51171,4.23145,4.23145,0,0,0-1.793.44726l-.44825-1.25976a5.27585,5.27585,0,0,1,2.45118-.58789,2.62061,2.62061,0,0,1,2.92773,2.89843v4.60938h-1.55469v-.91113a2.3609,2.3609,0,0,1-2.05859,1.05078A2.16792,2.16792,0,0,1,128.766,82.387Zm4.35644-.36523v-.74219a3.57078,3.57078,0,0,0-1.373-.26563c-.91016,0-1.44239.46192-1.44239,1.2461v.02832a1.13169,1.13169,0,0,0,1.2041,1.17676A1.48563,1.48563,0,0,0,133.1224,82.02173Z"/><path d="M137.93686,83.39477v1.1211h-1.583V74.40259h1.583v3.8789a2.50934,2.50934,0,0,1,2.17089-1.33008c1.48536,0,2.88575,1.2461,2.88575,3.75391v.19629c0,2.49316-1.38672,3.75391-2.88575,3.75391A2.53,2.53,0,0,1,137.93686,83.39477Zm3.46-2.52148v-.126c0-1.48535-.77051-2.3955-1.72266-2.3955-.95312,0-1.76562.9248-1.76562,2.38085v.14063c0,1.457.8125,2.38086,1.76562,2.38086C140.64,83.25415,141.39682,82.35766,141.39682,80.87329Z"/><path d="M144.558,74.40259h1.583V84.51587h-1.583Z"/><path d="M147.68,80.887v-.11133c0-2.22754,1.34473-3.82422,3.165-3.82422,2.01758,0,3.082,1.68067,3.082,3.90821,0,.09765,0,.32226-.01465.5459H149.262a1.908,1.908,0,0,0,1.877,1.91894,2.36293,2.36293,0,0,0,1.709-.78418l.82715.98047a3.417,3.417,0,0,1-2.60547,1.14941C149.16439,84.67016,147.68,83.21313,147.68,80.887Zm4.706-.57422c-.084-1.17578-.61621-2.03125-1.541-2.03125-.86817,0-1.48438.77149-1.59668,2.03125Z"/><circle class="a" cx="44.58027" cy="137.54304" r="35"/><path d="M37.16537,145.19751l-.00976-1.47461,1.25-.26367,4.58007-13.1543H46.599l4.62891,13.14453,1.42578.27344v1.47461H45.76889V143.7229l1.60156-.26367-.63477-2.14844H41.68686l-.58594,2.14844,1.60156.26367v1.47461Zm6.66016-11.76758-1.68946,6.20117h4.0918l-1.8457-6.20117-.30274-1.34766Z"/><circle class="a" cx="44.58027" cy="214.54304" r="35"/><path d="M37.16537,222.19751l-.00976-1.47461,1.25-.26367,4.58007-13.1543H46.599l4.62891,13.14453,1.42578.27344v1.47461H45.76889V220.7229l1.60156-.26367-.63477-2.14844H41.68686l-.58594,2.14844,1.60156.26367v1.47461Zm6.66016-11.76758-1.68946,6.20117h4.0918l-1.8457-6.20117-.30274-1.34766Z"/><circle class="a" cx="44.58027" cy="368.54304" r="35"/><path d="M38.41537,376.19751V374.7229l1.582-.27344V363.08227l-1.57226-.3125v-1.43554h3.28125c.34472,0,.65332-.00586.92285-.01953q.40429-.019.7666-.03907c.24121-.01269.47949-.02539.71777-.03906.23828-.01269.49317-.01953.7666-.01953a14.22551,14.22551,0,0,1,2.48536.19043,5.40732,5.40732,0,0,1,1.75781.5957,2.66664,2.66664,0,0,1,1.04,1.04,3.20053,3.20053,0,0,1,.34179,1.5332,4.16188,4.16188,0,0,1-.26367,1.543,3.28432,3.28432,0,0,1-.71289,1.11817,3.4308,3.4308,0,0,1-1.0498.72265,4.522,4.522,0,0,1-1.27442.35645,6.41305,6.41305,0,0,1,1.65528.26855,4.69737,4.69737,0,0,1,1.38672.67383,3.29564,3.29564,0,0,1,.95214,1.05957,2.83867,2.83867,0,0,1,.35157,1.416,5.36652,5.36652,0,0,1-.27832,1.71875,3.44352,3.44352,0,0,1-.97657,1.46484,5.05184,5.05184,0,0,1-1.87988,1.01563,9.90442,9.90442,0,0,1-2.98828.38086c-.27344,0-.53809-.00586-.7959-.01954q-.38672-.019-.82031-.03906-.43359-.019-.94238-.03906-.5083-.019-1.16211-.01953Zm5.08789-13.48633V367.721a1.67851,1.67851,0,0,0,.32227.03906c.13672.00683.28222.01367.43457.01953.15234.00684.30469.00977.4541.00977h.38086a2.09631,2.09631,0,0,0,.93262-.18067,1.42661,1.42661,0,0,0,.58593-.52734,2.32291,2.32291,0,0,0,.30762-.85938,7.09253,7.09253,0,0,0,.08789-1.18652,4.16787,4.16787,0,0,0-.12207-1.0791,1.75154,1.75154,0,0,0-.40039-.752,1.65683,1.65683,0,0,0-.73242-.43945,3.78145,3.78145,0,0,0-1.1084-.1416c-.085,0-.18457.00391-.29785.00977-.11328.00683-.22656.01367-.33692.01953-.11035.00683-.21191.01465-.30273.02441A1.3706,1.3706,0,0,0,43.50326,362.71118Zm0,6.51367v5.46875a1.01325,1.01325,0,0,0,.23438.07324c.10449.02344.21777.043.34179.0586.124.0166.25391.02832.39063.03418.13672.00683.2666.00976.39062.00976a4.28018,4.28018,0,0,0,1.38184-.19531,2.3527,2.3527,0,0,0,.93262-.56152,2.20794,2.20794,0,0,0,.53222-.90821,4.08875,4.08875,0,0,0,.1709-1.22558,4.55781,4.55781,0,0,0-.16113-1.30371,1.86951,1.86951,0,0,0-1.36719-1.34278,4.69041,4.69041,0,0,0-1.25488-.14648h-.376c-.16015,0-.32226.002-.48828.00488q-.249.00586-.4541.01465C43.64,369.21216,43.54916,369.219,43.50326,369.22485Z"/><circle class="a" cx="44.58027" cy="445.54304" r="35"/><path d="M38.41537,453.19751V451.7229l1.582-.27344V440.08227l-1.57226-.3125v-1.43554h3.28125c.34472,0,.65332-.00586.92285-.01953s.52539-.02539.7666-.03907.47949-.02539.71777-.03906.49317-.01953.7666-.01953a14.22551,14.22551,0,0,1,2.48536.19043,5.38428,5.38428,0,0,1,1.75781.5957,2.66026,2.66026,0,0,1,1.04,1.04,3.19785,3.19785,0,0,1,.34179,1.5332,4.1655,4.1655,0,0,1-.26367,1.543,3.28432,3.28432,0,0,1-.71289,1.11817,3.4308,3.4308,0,0,1-1.0498.72265,4.55478,4.55478,0,0,1-1.27442.35645,6.41305,6.41305,0,0,1,1.65528.26855,4.64984,4.64984,0,0,1,1.38672.67383,3.29564,3.29564,0,0,1,.95214,1.05957,2.83608,2.83608,0,0,1,.35157,1.416,5.37092,5.37092,0,0,1-.27832,1.71875,3.45534,3.45534,0,0,1-.97657,1.46484,5.05184,5.05184,0,0,1-1.87988,1.01563,9.90442,9.90442,0,0,1-2.98828.38086c-.27344,0-.53809-.00586-.7959-.01954s-.53125-.02539-.82031-.03906-.60352-.02539-.94238-.03906-.72559-.01953-1.16211-.01953Zm5.08789-13.48633V444.721a1.67851,1.67851,0,0,0,.32227.03906c.13672.00586.28222.01367.43457.01953s.30469.00977.4541.00977h.38086a2.11,2.11,0,0,0,.93262-.18067,1.42661,1.42661,0,0,0,.58593-.52734,2.32939,2.32939,0,0,0,.30762-.85938,7.09253,7.09253,0,0,0,.08789-1.18652,4.16787,4.16787,0,0,0-.12207-1.0791,1.74593,1.74593,0,0,0-.40039-.752,1.65683,1.65683,0,0,0-.73242-.43945,3.74873,3.74873,0,0,0-1.1084-.1416c-.085,0-.18457.00391-.29785.00977s-.22656.01367-.33692.01953-.21191.01465-.30273.02441A1.25324,1.25324,0,0,0,43.50326,439.71118Zm0,6.51367v5.46875a1.06375,1.06375,0,0,0,.23438.07324c.10449.02247.21777.042.34179.0586s.25391.02832.39063.03418.2666.00976.39062.00976a4.28018,4.28018,0,0,0,1.38184-.19531,2.364,2.364,0,0,0,.93262-.56152,2.20794,2.20794,0,0,0,.53222-.90821,4.09329,4.09329,0,0,0,.1709-1.22558,4.5531,4.5531,0,0,0-.16113-1.30371,1.86951,1.86951,0,0,0-1.36719-1.34278,4.69041,4.69041,0,0,0-1.25488-.14648h-.376c-.16015,0-.32226.002-.48828.00488s-.31738.00879-.4541.01465S43.54916,446.219,43.50326,446.22485Z"/><circle class="a" cx="44.58027" cy="599.54304" r="35"/><path d="M45.75912,607.42212a8.12168,8.12168,0,0,1-3.0957-.54688,6.03093,6.03093,0,0,1-2.23633-1.543,6.55143,6.55143,0,0,1-1.35254-2.38281,9.7756,9.7756,0,0,1-.4541-3.05664,8.15592,8.15592,0,0,1,.60059-3.19336,7.15406,7.15406,0,0,1,1.65527-2.43164A7.27844,7.27844,0,0,1,43.38119,592.72a8.9263,8.9263,0,0,1,3.14942-.542,10.6003,10.6003,0,0,1,1.35742.083q.63427.08349,1.18164.19042.54639.10841,1.001.21a7.15674,7.15674,0,0,0,.81543.1416l-.23437,4.11133H48.33725l-.58594-2.73438a2.10659,2.10659,0,0,0-.2002-.21,1.07139,1.07139,0,0,0-.28808-.18066,2.05654,2.05654,0,0,0-.42969-.127,3.471,3.471,0,0,0-.63477-.04883,3.17389,3.17389,0,0,0-1.47949.34668,3.14135,3.14135,0,0,0-1.15234,1.06446,5.55884,5.55884,0,0,0-.74707,1.8164,11.31669,11.31669,0,0,0-.26367,2.61231,13.67982,13.67982,0,0,0,.21484,2.46582,8.0442,8.0442,0,0,0,.64941,2.07031,4.08759,4.08759,0,0,0,1.09375,1.42578,2.38553,2.38553,0,0,0,1.54786.53223,4.99847,4.99847,0,0,0,.791-.05371,2.80727,2.80727,0,0,0,.56152-.1416,1.72662,1.72662,0,0,0,.38086-.19532,1.1699,1.1699,0,0,0,.23926-.21484l.86914-2.28516,1.96289.04883-.11718,3.54492a4.55612,4.55612,0,0,0-.87891.15137q-.44972.123-1.02539.26367-.57568.1421-1.32324.249A12.47254,12.47254,0,0,1,45.75912,607.42212Z"/><circle class="a" cx="44.58027" cy="676.54304" r="35"/><path d="M45.75912,684.42212a8.12168,8.12168,0,0,1-3.0957-.54688,6.04239,6.04239,0,0,1-2.23633-1.543,6.55954,6.55954,0,0,1-1.35254-2.38281,9.7756,9.7756,0,0,1-.4541-3.05664,8.15592,8.15592,0,0,1,.60059-3.19336,7.13507,7.13507,0,0,1,1.65527-2.43164A7.27844,7.27844,0,0,1,43.38119,669.72a8.9263,8.9263,0,0,1,3.14942-.542,10.42536,10.42536,0,0,1,1.35742.083c.42285.05566.81738.11816,1.18164.19042s.69824.14161,1.001.21a7.15674,7.15674,0,0,0,.81543.1416l-.23437,4.11133H48.33725l-.58594-2.73438a2.00526,2.00526,0,0,0-.2002-.21,1.07139,1.07139,0,0,0-.28808-.18066,1.99915,1.99915,0,0,0-.42969-.127,3.38578,3.38578,0,0,0-.63477-.04883,3.0283,3.0283,0,0,0-2.63183,1.41114,5.55884,5.55884,0,0,0-.74707,1.8164,11.31077,11.31077,0,0,0-.26367,2.61231,13.67982,13.67982,0,0,0,.21484,2.46582,8.05629,8.05629,0,0,0,.64941,2.07031,4.08759,4.08759,0,0,0,1.09375,1.42578,2.39092,2.39092,0,0,0,1.54786.53223,4.99847,4.99847,0,0,0,.791-.05371,2.87565,2.87565,0,0,0,.56152-.1416,1.72662,1.72662,0,0,0,.38086-.19532,1.19876,1.19876,0,0,0,.23926-.21484l.86914-2.28516,1.96289.04883-.11718,3.54492a4.55612,4.55612,0,0,0-.87891.15137q-.44972.12159-1.02539.26367c-.38379.09473-.8252.17676-1.32324.249A12.47254,12.47254,0,0,1,45.75912,684.42212Z"/><path d="M77.26791,90.85376h-66a2.50232,2.50232,0,0,1-2.5-2.5v-16.5a2.50231,2.50231,0,0,1,2.5-2.5h66a2.50231,2.50231,0,0,1,2.5,2.5v16.5A2.50232,2.50232,0,0,1,77.26791,90.85376Zm-66-20.5a1.50164,1.50164,0,0,0-1.5,1.5v16.5a1.50164,1.50164,0,0,0,1.5,1.5h66a1.50164,1.50164,0,0,0,1.5-1.5v-16.5a1.50164,1.50164,0,0,0-1.5-1.5Z"/><path d="M162.26791,90.85376h-66a2.50232,2.50232,0,0,1-2.5-2.5v-16.5a2.50231,2.50231,0,0,1,2.5-2.5h66a2.50231,2.50231,0,0,1,2.5,2.5v16.5A2.50232,2.50232,0,0,1,162.26791,90.85376Zm-66-20.5a1.50164,1.50164,0,0,0-1.5,1.5v16.5a1.50164,1.50164,0,0,0,1.5,1.5h66a1.50164,1.50164,0,0,0,1.5-1.5v-16.5a1.50164,1.50164,0,0,0-1.5-1.5Z"/><rect class="b" x="94.26801" y="102.54304" width="70" height="70"/><path d="M111.07943,144.08813q.4673-.86426,1.14649-2.25879.67968-1.396,1.46582-3.06543.78516-1.67138,1.61426-3.49121.82762-1.81933,1.60742-3.53222.77783-1.71387,1.43652-3.19336.65917-1.4795,1.09766-2.47071h.60937l4.2334,2.08106-6.99512,12.63086-1.72754,2.69043,5.76368-.38281.18359-4.502,4.27637-.29785v4.50293l3.45508-.24023v3.63867h-3.45508v5.32422h-4.48828v-5.32422h-8.86426Z"/><path d="M134.99545,151.0686l-.96289-1.85547a10.11435,10.11435,0,0,0,2.71875-1.20312,10.603,10.603,0,0,0,2.16015-1.81934,11.35759,11.35759,0,0,0,1.60645-2.29394,14.28636,14.28636,0,0,0,1.07617-2.627,6.14749,6.14749,0,0,1-.67187.4961,4.595,4.595,0,0,1-.86426.42383,6.39857,6.39857,0,0,1-1.09766.29785,7.48144,7.48144,0,0,1-1.35937.11328,6.82984,6.82984,0,0,1-2.59082-.48828,6.13083,6.13083,0,0,1-2.08887-1.3877,6.49873,6.49873,0,0,1-1.39453-2.17383,7.64223,7.64223,0,0,1-.50977-2.86035,8.996,8.996,0,0,1,.50977-3.04394,7.29162,7.29162,0,0,1,1.51465-2.52149,7.169,7.169,0,0,1,2.5-1.72656,8.74127,8.74127,0,0,1,3.46191-.63769,8.985,8.985,0,0,1,3.582.665,6.88972,6.88972,0,0,1,2.57032,1.877,8.1405,8.1405,0,0,1,1.55078,2.917,12.88922,12.88922,0,0,1,.52343,3.78809,13.24318,13.24318,0,0,1-.49511,3.63867,14.55954,14.55954,0,0,1-1.35938,3.25,15.11119,15.11119,0,0,1-4.55957,4.9414,13.88032,13.88032,0,0,1-2.84668,1.501A11.56782,11.56782,0,0,1,134.99545,151.0686Zm3.65332-11.14453a5.58274,5.58274,0,0,0,1.16113-.11328,5.77192,5.77192,0,0,0,.97754-.29,4.08016,4.08016,0,0,0,.77832-.41016,4.15347,4.15347,0,0,0,.58106-.4746c.03711-.33106.06836-.66114.09179-.99122s.03516-.66015.03516-.99121a20.07888,20.07888,0,0,0-.16211-2.91015,7.59153,7.59153,0,0,0-.58105-2.1377,3.17129,3.17129,0,0,0-1.04786-1.31738,2.66026,2.66026,0,0,0-1.55078-.44629,2.09558,2.09558,0,0,0-1.29492.43262,3.77649,3.77649,0,0,0-.97754,1.11816,5.98572,5.98572,0,0,0-.62305,1.53711,6.70148,6.70148,0,0,0-.21972,1.68457,11.8699,11.8699,0,0,0,.206,2.37207,5.56034,5.56034,0,0,0,.58008,1.64942,2.65918,2.65918,0,0,0,.89258.96972A2.14621,2.14621,0,0,0,138.64877,139.92407Z"/><rect class="b" x="94.26801" y="179.54304" width="70" height="70"/><path d="M114.03939,224.55688a5.65934,5.65934,0,0,0,.68653.17676q.38964.07764.82129.13477c.28808.03808.583.06543.88476.085.30274.01953.59961.02832.89258.02832a7.27948,7.27948,0,0,0,2.209-.31153,4.84269,4.84269,0,0,0,1.65625-.87792,3.82242,3.82242,0,0,0,1.041-1.35254,4.10889,4.10889,0,0,0,.36133-1.73438,3.89454,3.89454,0,0,0-.17774-1.126,3.0649,3.0649,0,0,0-.58691-1.083,3.45422,3.45422,0,0,0-1.07617-.84278,4.03129,4.03129,0,0,0-1.64258-.40332l-1.91211.31153-.84961-2.23731a6.59019,6.59019,0,0,0,1.26074-.30469q.63722-.21972,1.16114-.418a6.25743,6.25743,0,0,0,1.45117-.793,4.62526,4.62526,0,0,0,.98437-.9834,3.71351,3.71351,0,0,0,.5586-1.13281,4.36577,4.36577,0,0,0,.17773-1.23926,2.78378,2.78378,0,0,0-.21972-1.16113,2.16055,2.16055,0,0,0-.5879-.78614,2.3723,2.3723,0,0,0-.82812-.44531,3.21921,3.21921,0,0,0-.95606-.14258,6.82581,6.82581,0,0,0-2.34375.36133,7.69348,7.69348,0,0,0-1.86132.99805l-1.17578-2.09571a6.19767,6.19767,0,0,1,1.01953-.77832,10.36258,10.36258,0,0,1,1.53613-.793,12.23568,12.23568,0,0,1,1.91211-.61621,9.23809,9.23809,0,0,1,2.14551-.248,10.14169,10.14169,0,0,1,2.5205.29785,5.79892,5.79892,0,0,1,2.00293.91308,4.40052,4.40052,0,0,1,1.32422,1.53711,4.63715,4.63715,0,0,1,.48145,2.17969,5.9675,5.9675,0,0,1-1.2461,3.85156,8.69831,8.69831,0,0,1-3.61035,2.52149,7.44494,7.44494,0,0,1,2.541.29,5.17816,5.17816,0,0,1,1.834.97656,4.10952,4.10952,0,0,1,1.11133,1.4873,4.46975,4.46975,0,0,1,.376,1.81934,6.5272,6.5272,0,0,1-.623,2.83887,6.21374,6.21374,0,0,1-1.88379,2.27343,9.568,9.568,0,0,1-3.13672,1.51465,15.576,15.576,0,0,1-4.38183.55176q-.49659,0-1.041-.042-.54492-.04248-1.0625-.12012c-.34375-.05273-.667-.11328-.96973-.18457a7.55225,7.55225,0,0,1-.77832-.21973Z"/><path d="M130.19564,221.25806a30.002,30.002,0,0,0,3.54786-2.35157,19.90152,19.90152,0,0,0,2.76074-2.55566,11.45684,11.45684,0,0,0,1.791-2.65527,6.17747,6.17747,0,0,0,.6377-2.66211,3.12907,3.12907,0,0,0-.21289-1.16016,2.59776,2.59776,0,0,0-.61524-.92773,2.94488,2.94488,0,0,0-.98437-.61622,3.59744,3.59744,0,0,0-1.31738-.22656,5.15974,5.15974,0,0,0-1.42286.18457,6.75025,6.75025,0,0,0-1.168.44531,6.25426,6.25426,0,0,0-.93457.56641q-.41163.30469-.72266.54492l-1.23145-1.89648a5.401,5.401,0,0,1,1.11817-1.10547,9.39644,9.39644,0,0,1,1.71387-1.02637,11.97013,11.97013,0,0,1,2.13085-.75683,9.47845,9.47845,0,0,1,2.38575-.29785,8.56046,8.56046,0,0,1,2.81836.41113,5.51565,5.51565,0,0,1,1.93261,1.10351,4.32468,4.32468,0,0,1,1.11914,1.60743,5.22393,5.22393,0,0,1,.36036,1.93359,6.15181,6.15181,0,0,1-.72852,2.85254,12.2051,12.2051,0,0,1-1.97559,2.7334,22.26257,22.26257,0,0,1-2.88183,2.54882,35.85934,35.85934,0,0,1-3.46192,2.28711l7.68848-.86425,1.11914-2.02442,2.166.42383-.835,5.42383H130.9183Z"/><rect class="b" x="94.26801" y="333.54304" width="70" height="70"/><path d="M114.10287,379.64673c.27344.01953.54981.0332.82813.043s.5498.01367.81445.01367a7.814,7.814,0,0,0,2.67578-.44531,6.87986,6.87986,0,0,0,2.13867-1.21778,5.5821,5.5821,0,0,0,1.416-1.81933,5.08165,5.08165,0,0,0,.50976-2.252,3.32539,3.32539,0,0,0-3.68164-3.82324,8.60479,8.60479,0,0,0-1.01269.06348c-.35449.043-.69824.09961-1.03418.16992q-.50244.10694-.96289.24121a7.50608,7.50608,0,0,0-.79981.27637l-1.10449-.80762,1.3877-11.03027h9.459l.29785-.55274h2.08106l-.72168,4.70117H118.223l-.835,4.8711a13.64343,13.64343,0,0,1,2.0957-.60938,10.06385,10.06385,0,0,1,1.98242-.21191,6.64473,6.64473,0,0,1,4.81446,1.60742,6.34593,6.34593,0,0,1,1.65625,4.76465,6.76427,6.76427,0,0,1-.94825,3.51172,9.01721,9.01721,0,0,1-2.57031,2.7539,12.78477,12.78477,0,0,1-3.7666,1.79883,15.69486,15.69486,0,0,1-4.53809.64453q-.48193,0-1.00586-.043a7.10571,7.10571,0,0,1-1.01953-.15625Z"/><path d="M131.95834,379.64673c.27441.01953.5498.0332.8291.043.27832.00976.54981.01367.81348.01367a7.81964,7.81964,0,0,0,2.67676-.44531,6.86373,6.86373,0,0,0,2.13769-1.21778,5.56909,5.56909,0,0,0,1.416-1.81933,5.08165,5.08165,0,0,0,.50976-2.252,3.32435,3.32435,0,0,0-3.68164-3.82324,8.60184,8.60184,0,0,0-1.01172.06348q-.53173.06446-1.03418.16992-.50244.10694-.96289.24121a7.50506,7.50506,0,0,0-.7998.27637l-1.10449-.80762,1.38769-11.03027h9.459l.29687-.55274h2.082l-.72265,4.70117h-8.16993l-.83593,4.8711a13.70706,13.70706,0,0,1,2.0957-.60938,10.07144,10.07144,0,0,1,1.98242-.21191,6.64311,6.64311,0,0,1,4.81445,1.60742,6.34623,6.34623,0,0,1,1.65723,4.76465,6.75594,6.75594,0,0,1-.94922,3.51172,9.0139,9.0139,0,0,1-2.56933,2.7539,12.785,12.785,0,0,1-3.76661,1.79883,15.69665,15.69665,0,0,1-4.53906.64453c-.32031,0-.65625-.01464-1.00488-.043a7.06369,7.06369,0,0,1-1.01953-.15625Z"/><rect class="b" x="94.26801" y="410.54304" width="70" height="70"/><path d="M115.40561,452.25806a29.98869,29.98869,0,0,0,3.54687-2.35157,19.84586,19.84586,0,0,0,2.76074-2.55566,11.46239,11.46239,0,0,0,1.792-2.65527,6.17587,6.17587,0,0,0,.63672-2.66211,3.12864,3.12864,0,0,0-.21191-1.16016,2.60022,2.60022,0,0,0-.61621-.92773,2.93513,2.93513,0,0,0-.98438-.61622,3.59208,3.59208,0,0,0-1.3164-.22656,5.16191,5.16191,0,0,0-1.42383.18457,6.81188,6.81188,0,0,0-1.168.44531,6.35574,6.35574,0,0,0-.93457.56641q-.41016.3047-.72168.54492l-1.23242-1.89648a5.3841,5.3841,0,0,1,1.11914-1.10547,9.35359,9.35359,0,0,1,1.71289-1.02637,11.99788,11.99788,0,0,1,2.13086-.75683,9.486,9.486,0,0,1,2.38672-.29785,8.5543,8.5543,0,0,1,2.81738.41113,5.50686,5.50686,0,0,1,1.93262,1.10351,4.31349,4.31349,0,0,1,1.11914,1.60743,5.22483,5.22483,0,0,1,.36133,1.93359,6.14129,6.14129,0,0,1-.7295,2.85254,12.17422,12.17422,0,0,1-1.97558,2.7334,22.19843,22.19843,0,0,1-2.88184,2.54882,35.85919,35.85919,0,0,1-3.46191,2.28711l7.68945-.86425,1.11817-2.02442,2.167.42383-.83594,5.42383H116.12729Z"/><path d="M133.28939,454.19751V452.2854l3.07325-.39649v-11.1582q-.25489.05714-.666.14258c-.27344.05664-.55957.10742-.85644.15527-.29786.04785-.58789.08985-.8711.12793-.2832.03711-.51855.06055-.708.07032l-.36816-2.46387a10.52312,10.52312,0,0,0,1.69922-.49512,14.18361,14.18361,0,0,0,1.62891-.74414,16.41123,16.41123,0,0,0,1.458-.87793,14.74119,14.74119,0,0,0,1.2041-.89941h.01368l2.56347.43945v15.70312l2.917.39649v1.91211Z"/><rect class="b" x="94.26801" y="564.54304" width="70" height="70"/><path d="M120.40365,608.509a8.40928,8.40928,0,0,1-3.56836-.71484,7.30627,7.30627,0,0,1-2.584-1.96875A8.56707,8.56707,0,0,1,112.68,602.887a12.02726,12.02726,0,0,1-.53125-3.63867,12.80973,12.80973,0,0,1,.50977-3.63184,14.40464,14.40464,0,0,1,1.39453-3.24316,14.72257,14.72257,0,0,1,2.08886-2.76074,15.74949,15.74949,0,0,1,2.584-2.18067,14.26688,14.26688,0,0,1,2.88183-1.501,11.75381,11.75381,0,0,1,2.98731-.7295l.96289,1.86915a10.77839,10.77839,0,0,0-5.06934,3.08691,11.62468,11.62468,0,0,0-1.6709,2.34375,13.82489,13.82489,0,0,0-1.10449,2.68262,6.55718,6.55718,0,0,1,.7793-.55176,5.90154,5.90154,0,0,1,1.00488-.48145,7.35224,7.35224,0,0,1,1.27442-.33984,8.82267,8.82267,0,0,1,1.55761-.12695,6.67219,6.67219,0,0,1,2.5.44531,5.10988,5.10988,0,0,1,1.88965,1.2959,5.86859,5.86859,0,0,1,1.2041,2.07422,8.4689,8.4689,0,0,1,.42481,2.78222,9.624,9.624,0,0,1-.50293,3.10157,7.66,7.66,0,0,1-1.501,2.62695,7.26529,7.26529,0,0,1-2.48535,1.81933A8.23451,8.23451,0,0,1,120.40365,608.509Zm.32617-12.14941a5.61692,5.61692,0,0,0-1.24609.127,4.79591,4.79591,0,0,0-.99121.33984,4.05073,4.05073,0,0,0-.75781.46778,4.41427,4.41427,0,0,0-.54492.50976,14.46716,14.46716,0,0,0-.085,1.57129,19.30314,19.30314,0,0,0,.17676,2.94532,8.43558,8.43558,0,0,0,.60156,2.21679,3.52949,3.52949,0,0,0,1.05567,1.40137,2.46475,2.46475,0,0,0,1.53613.48926,2.04352,2.04352,0,0,0,1.28809-.43946,3.77205,3.77205,0,0,0,.96289-1.13281,6.02772,6.02772,0,0,0,.60937-1.55078,7.06068,7.06068,0,0,0,.21192-1.70605,7.87984,7.87984,0,0,0-.77149-3.96485A2.31956,2.31956,0,0,0,120.72982,596.35962Z"/><path d="M138.515,608.49438a7.01113,7.01113,0,0,1-5.64258-2.27246q-1.97607-2.28661-1.97558-6.77539a12.13267,12.13267,0,0,1,.708-4.30469,8.19414,8.19414,0,0,1,1.86914-2.95214,7.30339,7.30339,0,0,1,2.71875-1.69922,9.66264,9.66264,0,0,1,3.24219-.54492,7.07957,7.07957,0,0,1,5.62891,2.22265q1.94678,2.22363,1.94726,6.74024a12.20769,12.20769,0,0,1-.68652,4.31836,8.35991,8.35991,0,0,1-1.84863,2.98144,7.2589,7.2589,0,0,1-2.7041,1.72754A9.48442,9.48442,0,0,1,138.515,608.49438Zm.50977-2.02441a1.90414,1.90414,0,0,0,1.24609-.418,2.91448,2.91448,0,0,0,.82812-1.28809,9.39233,9.39233,0,0,0,.46-2.21679,31.00248,31.00248,0,0,0,.1416-3.19922q0-2.09619-.13379-3.51172a9.222,9.222,0,0,0-.45313-2.27344,2.47954,2.47954,0,0,0-.84277-1.21777,2.2722,2.2722,0,0,0-1.31738-.36035,1.95426,1.95426,0,0,0-1.25293.41015,2.9244,2.9244,0,0,0-.84961,1.26758,9.04135,9.04135,0,0,0-.48828,2.1875,27.45246,27.45246,0,0,0-.15625,3.15821,34.41012,34.41012,0,0,0,.14941,3.5039,9.45194,9.45194,0,0,0,.48145,2.3086,2.64468,2.64468,0,0,0,.87011,1.26757A2.2238,2.2238,0,0,0,139.02475,606.47Z"/><rect class="b" x="94.26801" y="641.54304" width="70" height="70"/><path d="M111.596,683.08813q.46728-.86425,1.14746-2.25879.67968-1.396,1.46582-3.06543.78514-1.67138,1.61425-3.49121.82764-1.81934,1.60645-3.53222.7793-1.71387,1.4375-3.19336.65918-1.47949,1.09766-2.47071h.60839l4.23438,2.08106-6.99512,12.63086-1.72754,2.69043,5.7627-.38281.18457-4.502,4.27637-.29785v4.50293l3.45507-.24023v3.63867h-3.45507v5.32422h-4.48926v-5.32422h-8.86426Z"/><path d="M132.62436,687.64673c.27343.01953.5498.0332.82812.043s.54981.01367.81445.01367a7.81394,7.81394,0,0,0,2.67578-.44531,6.88,6.88,0,0,0,2.13868-1.21778,5.58207,5.58207,0,0,0,1.416-1.81933,5.08152,5.08152,0,0,0,.50977-2.252,3.32539,3.32539,0,0,0-3.68164-3.82324,8.60508,8.60508,0,0,0-1.0127.06348c-.35449.043-.69824.09961-1.03418.16992q-.50244.10694-.96289.24121a7.50506,7.50506,0,0,0-.7998.27637l-1.1045-.80762,1.3877-11.03027h9.459l.29786-.55274h2.081l-.72168,4.70117h-8.1709l-.835,4.8711a13.64376,13.64376,0,0,1,2.0957-.60938,10.06394,10.06394,0,0,1,1.98243-.21191,6.64469,6.64469,0,0,1,4.81445,1.60742,6.34593,6.34593,0,0,1,1.65625,4.76465,6.76436,6.76436,0,0,1-.94824,3.51172,9.01734,9.01734,0,0,1-2.57031,2.7539,12.785,12.785,0,0,1-3.76661,1.79883,15.69484,15.69484,0,0,1-4.53808.64453q-.48193,0-1.00586-.043a7.1055,7.1055,0,0,1-1.01953-.15625Z"/><circle class="a" cx="44.58027" cy="291.54304" r="35"/><path d="M37.16537,299.19751l-.00976-1.47461,1.25-.26367,4.58007-13.1543H46.599l4.62891,13.14453,1.42578.27344v1.47461H45.76889V297.7229l1.60156-.26367-.63477-2.14844H41.68686l-.58594,2.14844,1.60156.26367v1.47461Zm6.66016-11.76758-1.68946,6.20117h4.0918l-1.8457-6.20117-.30274-1.34766Z"/><rect class="b" x="94.26801" y="256.54304" width="70" height="70"/><path d="M112.94857,301.55688a5.65934,5.65934,0,0,0,.68653.17676q.38964.07764.82129.13477c.28808.03808.583.06543.88476.085.30274.01953.59961.02832.89258.02832a7.27937,7.27937,0,0,0,2.209-.31153,4.84251,4.84251,0,0,0,1.65625-.87792,3.82233,3.82233,0,0,0,1.041-1.35254,4.109,4.109,0,0,0,.36133-1.73438,3.89454,3.89454,0,0,0-.17774-1.126,3.0649,3.0649,0,0,0-.58691-1.083,3.45422,3.45422,0,0,0-1.07617-.84278,4.03129,4.03129,0,0,0-1.64258-.40332l-1.91211.31153-.84961-2.23731a6.59019,6.59019,0,0,0,1.26074-.30469q.63721-.21972,1.16114-.418a6.25743,6.25743,0,0,0,1.45117-.793,4.62526,4.62526,0,0,0,.98437-.9834,3.71351,3.71351,0,0,0,.5586-1.13281,4.36577,4.36577,0,0,0,.17773-1.23926,2.78361,2.78361,0,0,0-.21973-1.16113,2.16042,2.16042,0,0,0-.58789-.78614,2.3723,2.3723,0,0,0-.82812-.44531,3.21921,3.21921,0,0,0-.95606-.14258,6.82581,6.82581,0,0,0-2.34375.36133,7.69348,7.69348,0,0,0-1.86132.998l-1.17578-2.09571a6.19767,6.19767,0,0,1,1.01953-.77832,10.36258,10.36258,0,0,1,1.53613-.793,12.23568,12.23568,0,0,1,1.91211-.61621,9.23809,9.23809,0,0,1,2.14551-.248,10.14169,10.14169,0,0,1,2.5205.29785,5.79892,5.79892,0,0,1,2.00293.91308,4.40052,4.40052,0,0,1,1.32422,1.53711,4.63715,4.63715,0,0,1,.48145,2.17969,5.9675,5.9675,0,0,1-1.2461,3.85156,8.69831,8.69831,0,0,1-3.61035,2.52149,7.44494,7.44494,0,0,1,2.541.29,5.17816,5.17816,0,0,1,1.834.97656,4.10952,4.10952,0,0,1,1.11133,1.4873,4.46975,4.46975,0,0,1,.376,1.81934,6.5272,6.5272,0,0,1-.62305,2.83887,6.21384,6.21384,0,0,1-1.88379,2.27343,9.568,9.568,0,0,1-3.13672,1.51465,15.576,15.576,0,0,1-4.38183.55176q-.49659,0-1.041-.042-.54492-.04248-1.0625-.12012c-.34375-.05273-.667-.11328-.96973-.18457a7.55225,7.55225,0,0,1-.77832-.21973Z"/><path d="M129.77084,294.74634a5.1762,5.1762,0,0,1,.99121-3.03809,7.34166,7.34166,0,0,1,3.12891-2.35742,11.51145,11.51145,0,0,1-1.22461-1.04785,6.51532,6.51532,0,0,1-.99805-1.26758,6.42661,6.42661,0,0,1-.67285-1.55762,6.84974,6.84974,0,0,1-.24805-1.90429,4.7093,4.7093,0,0,1,.62305-2.4502,5.56912,5.56912,0,0,1,1.63574-1.748,7.37186,7.37186,0,0,1,2.29395-1.04785,9.95,9.95,0,0,1,2.6123-.34668,11.83617,11.83617,0,0,1,3.13672.36035,6.01689,6.01689,0,0,1,2.11719,1.00586,3.84039,3.84039,0,0,1,1.19629,1.52246,4.77354,4.77354,0,0,1,.375,1.89649,5.89711,5.89711,0,0,1-.72852,2.84668,6.61558,6.61558,0,0,1-2.415,2.39355,19.68715,19.68715,0,0,1,1.73535,1.09668,8.35769,8.35769,0,0,1,1.46485,1.31738,5.90053,5.90053,0,0,1,1.01269,1.63477,5.29094,5.29094,0,0,1,.375,2.03906,5.54249,5.54249,0,0,1-.62988,2.66211,5.81311,5.81311,0,0,1-1.7627,1.99024,8.40333,8.40333,0,0,1-2.71191,1.24609,13.87206,13.87206,0,0,1-6.35742.12012,8.00752,8.00752,0,0,1-2.50684-.99121,5.4033,5.4033,0,0,1-1.76953-1.7627A4.84933,4.84933,0,0,1,129.77084,294.74634Zm11.38477.73632a2.73089,2.73089,0,0,0-.48145-1.60742,5.50961,5.50961,0,0,0-1.26074-1.26074,13.232,13.232,0,0,0-1.7627-1.083q-.98437-.50976-2.0039-1.07617a4.72834,4.72834,0,0,0-1.168,1.5293,4.5867,4.5867,0,0,0-.43164,2.02539,7.60159,7.60159,0,0,0,.20508,1.8125,3.91174,3.91174,0,0,0,.6582,1.43652,3.08137,3.08137,0,0,0,1.18262.94238,4.15159,4.15159,0,0,0,1.76269.33985,3.96739,3.96739,0,0,0,1.21777-.19141,3.13754,3.13754,0,0,0,1.05567-.57422,2.885,2.885,0,0,0,.74316-.95507A2.99212,2.99212,0,0,0,141.15561,295.48266Zm-6.0752-13.042a2.696,2.696,0,0,0,.376,1.40918,4.72877,4.72877,0,0,0,1.00488,1.168,9.38569,9.38569,0,0,0,1.45117,1.00586q.82177.46582,1.72754.93359a4.663,4.663,0,0,0,1.03418-1.57812,4.81582,4.81582,0,0,0,.33984-1.76367,4.35452,4.35452,0,0,0-.82129-2.84571,2.89931,2.89931,0,0,0-2.36523-.99121,3.31515,3.31515,0,0,0-1.04785.16309,2.52241,2.52241,0,0,0-.87793.49512,2.32921,2.32921,0,0,0-.60156.8291A2.87929,2.87929,0,0,0,135.08041,282.44067Z"/><circle class="a" cx="44.58027" cy="753.54304" r="35"/><path d="M45.75912,761.42212a8.12168,8.12168,0,0,1-3.0957-.54688,6.04239,6.04239,0,0,1-2.23633-1.543,6.55954,6.55954,0,0,1-1.35254-2.38281,9.7756,9.7756,0,0,1-.4541-3.05664,8.15592,8.15592,0,0,1,.60059-3.19336,7.13507,7.13507,0,0,1,1.65527-2.43164A7.27844,7.27844,0,0,1,43.38119,746.72a8.9263,8.9263,0,0,1,3.14942-.542,10.42536,10.42536,0,0,1,1.35742.083c.42285.05566.81738.11816,1.18164.19042s.69824.14161,1.001.21a7.15674,7.15674,0,0,0,.81543.1416l-.23437,4.11133H48.33725l-.58594-2.73438a2.00526,2.00526,0,0,0-.2002-.21,1.07139,1.07139,0,0,0-.28808-.18066,1.99915,1.99915,0,0,0-.42969-.127,3.38578,3.38578,0,0,0-.63477-.04883,3.0283,3.0283,0,0,0-2.63183,1.41114,5.55884,5.55884,0,0,0-.74707,1.8164,11.31077,11.31077,0,0,0-.26367,2.61231,13.67982,13.67982,0,0,0,.21484,2.46582,8.05629,8.05629,0,0,0,.64941,2.07031,4.08759,4.08759,0,0,0,1.09375,1.42578,2.39092,2.39092,0,0,0,1.54786.53223,4.99847,4.99847,0,0,0,.791-.05371,2.87565,2.87565,0,0,0,.56152-.1416,1.72662,1.72662,0,0,0,.38086-.19532,1.19876,1.19876,0,0,0,.23926-.21484l.86914-2.28516,1.96289.04883-.11718,3.54492a4.55612,4.55612,0,0,0-.87891.15137q-.44972.12159-1.02539.26367c-.38379.09473-.8252.17676-1.32324.249A12.47254,12.47254,0,0,1,45.75912,761.42212Z"/><rect class="b" x="94.26801" y="718.54304" width="70" height="70"/><path d="M111.80209,760.08813q.46728-.86425,1.14648-2.25879.67969-1.396,1.46582-3.06543.78516-1.67138,1.61426-3.49121.82764-1.81934,1.60742-3.53222.77784-1.71387,1.43653-3.19336.65918-1.47949,1.09765-2.47071h.60938l4.2334,2.08106-6.99512,12.63086-1.72754,2.69043,5.76367-.38281.1836-4.502,4.27636-.29785v4.50293l3.45508-.24023v3.63867H126.514v5.32422h-4.48828v-5.32422h-8.86426Z"/><path d="M131.41342,760.25806a30.00269,30.00269,0,0,0,3.54785-2.35157,19.90152,19.90152,0,0,0,2.76074-2.55566,11.45721,11.45721,0,0,0,1.791-2.65527,6.17759,6.17759,0,0,0,.63769-2.66211,3.12907,3.12907,0,0,0-.21289-1.16016,2.59786,2.59786,0,0,0-.61523-.92773,2.94493,2.94493,0,0,0-.98438-.61622,3.5974,3.5974,0,0,0-1.31738-.22656,5.15972,5.15972,0,0,0-1.42285.18457,6.75005,6.75005,0,0,0-1.168.44531,6.25477,6.25477,0,0,0-.93457.56641q-.41162.3047-.72266.54492l-1.23144-1.89648a5.401,5.401,0,0,1,1.11816-1.10547,9.39644,9.39644,0,0,1,1.71387-1.02637,11.97052,11.97052,0,0,1,2.13086-.75683A9.47832,9.47832,0,0,1,138.89,743.761a8.56046,8.56046,0,0,1,2.81836.41113,5.51579,5.51579,0,0,1,1.93262,1.10351,4.3248,4.3248,0,0,1,1.11914,1.60743,5.22413,5.22413,0,0,1,.36035,1.93359,6.15169,6.15169,0,0,1-.72852,2.85254,12.20473,12.20473,0,0,1-1.97558,2.7334,22.26334,22.26334,0,0,1-2.88184,2.54882,35.85919,35.85919,0,0,1-3.46191,2.28711l7.68847-.86425,1.11914-2.02442,2.166.42383-.835,5.42383h-14.0752Z"/><circle class="a" cx="44.58027" cy="522.54304" r="35"/><path d="M38.41537,530.19751V528.7229l1.582-.27344V517.08227l-1.57226-.3125v-1.43554h3.28125c.34472,0,.65332-.00586.92285-.01953s.52539-.02539.7666-.03907.47949-.02539.71777-.03906.49317-.01953.7666-.01953a14.22551,14.22551,0,0,1,2.48536.19043,5.38428,5.38428,0,0,1,1.75781.5957,2.66026,2.66026,0,0,1,1.04,1.04,3.19785,3.19785,0,0,1,.34179,1.5332,4.1655,4.1655,0,0,1-.26367,1.543,3.28432,3.28432,0,0,1-.71289,1.11817,3.4308,3.4308,0,0,1-1.0498.72265,4.55478,4.55478,0,0,1-1.27442.35645,6.41305,6.41305,0,0,1,1.65528.26855,4.64984,4.64984,0,0,1,1.38672.67383,3.29564,3.29564,0,0,1,.95214,1.05957,2.83608,2.83608,0,0,1,.35157,1.416,5.37092,5.37092,0,0,1-.27832,1.71875,3.45534,3.45534,0,0,1-.97657,1.46484,5.05184,5.05184,0,0,1-1.87988,1.01563,9.90442,9.90442,0,0,1-2.98828.38086c-.27344,0-.53809-.00586-.7959-.01954s-.53125-.02539-.82031-.03906-.60352-.02539-.94238-.03906-.72559-.01953-1.16211-.01953Zm5.08789-13.48633V521.721a1.67851,1.67851,0,0,0,.32227.03906c.13672.00586.28222.01367.43457.01953s.30469.00977.4541.00977h.38086a2.11,2.11,0,0,0,.93262-.18067,1.42661,1.42661,0,0,0,.58593-.52734,2.32939,2.32939,0,0,0,.30762-.85938,7.09253,7.09253,0,0,0,.08789-1.18652,4.16787,4.16787,0,0,0-.12207-1.0791,1.74593,1.74593,0,0,0-.40039-.752,1.65683,1.65683,0,0,0-.73242-.43945,3.74873,3.74873,0,0,0-1.1084-.1416c-.085,0-.18457.00391-.29785.00977s-.22656.01367-.33692.01953-.21191.01465-.30273.02441A1.25324,1.25324,0,0,0,43.50326,516.71118Zm0,6.51367v5.46875a1.06375,1.06375,0,0,0,.23438.07324c.10449.02247.21777.042.34179.0586s.25391.02832.39063.03418.2666.00976.39062.00976a4.28018,4.28018,0,0,0,1.38184-.19531,2.364,2.364,0,0,0,.93262-.56152,2.20794,2.20794,0,0,0,.53222-.90821,4.09329,4.09329,0,0,0,.1709-1.22558,4.5531,4.5531,0,0,0-.16113-1.30371,1.86951,1.86951,0,0,0-1.36719-1.34278,4.69041,4.69041,0,0,0-1.25488-.14648h-.376c-.16015,0-.32226.00195-.48828.00488s-.31738.00879-.4541.01465S43.54916,523.219,43.50326,523.22485Z"/><rect class="b" x="94.26801" y="487.54304" width="70" height="70"/><path d="M112.14877,529.08813q.46728-.86425,1.14648-2.25879.67969-1.396,1.46582-3.06543.78516-1.67138,1.61426-3.49121.82764-1.81934,1.60742-3.53222.77784-1.71387,1.43653-3.19336.65917-1.47949,1.09765-2.47071h.60938l4.2334,2.08106-6.99512,12.63086-1.72754,2.69043,5.76367-.38281.1836-4.502,4.27636-.29785v4.50293l3.45508-.24023v3.63867h-3.45508v5.32422H122.3724v-5.32422h-8.86426Z"/><path d="M132.35482,532.55688a5.67853,5.67853,0,0,0,.6875.17676c.25879.05176.53321.09668.82129.13477.28711.03808.582.06543.88477.085.30176.01953.59961.02832.8916.02832a7.27937,7.27937,0,0,0,2.209-.31153,4.84739,4.84739,0,0,0,1.65723-.87792,3.82233,3.82233,0,0,0,1.041-1.35254,4.10861,4.10861,0,0,0,.36035-1.73438,3.89239,3.89239,0,0,0-.17676-1.126,3.06762,3.06762,0,0,0-.58789-1.083,3.43187,3.43187,0,0,0-1.07617-.84278,4.0272,4.0272,0,0,0-1.64258-.40332l-1.91113.31153-.84961-2.23731a6.59856,6.59856,0,0,0,1.25976-.30469q.63722-.21972,1.16114-.418a6.26494,6.26494,0,0,0,1.45214-.793,4.64224,4.64224,0,0,0,.9834-.9834,3.73858,3.73858,0,0,0,.55957-1.13281,4.36464,4.36464,0,0,0,.17676-1.23926,2.79969,2.79969,0,0,0-.21875-1.16113,2.17139,2.17139,0,0,0-.58789-.78614,2.38093,2.38093,0,0,0-.82812-.44531,3.22876,3.22876,0,0,0-.95606-.14258,6.82581,6.82581,0,0,0-2.34375.36133,7.69935,7.69935,0,0,0-1.8623.99805l-1.17481-2.09571a6.11467,6.11467,0,0,1,1.01953-.77832,10.31478,10.31478,0,0,1,1.53614-.793,12.23568,12.23568,0,0,1,1.91211-.61621,9.22966,9.22966,0,0,1,2.14453-.248,10.13606,10.13606,0,0,1,2.5205.29785,5.79561,5.79561,0,0,1,2.00391.91308,4.42074,4.42074,0,0,1,1.32422,1.53711,4.649,4.649,0,0,1,.48144,2.17969,5.973,5.973,0,0,1-1.24609,3.85156,8.702,8.702,0,0,1-3.61133,2.52149,7.45071,7.45071,0,0,1,2.542.29,5.19514,5.19514,0,0,1,1.834.97656,4.12066,4.12066,0,0,1,1.11133,1.4873,4.48515,4.48515,0,0,1,.375,1.81934,6.51329,6.51329,0,0,1-.623,2.83887,6.211,6.211,0,0,1-1.88281,2.27343,9.57763,9.57763,0,0,1-3.13672,1.51465,15.588,15.588,0,0,1-4.38281.55176q-.49512,0-1.04-.042-.54639-.04248-1.0625-.12012c-.34473-.05273-.668-.11328-.96973-.18457a7.57689,7.57689,0,0,1-.7793-.21973Z"/><path d="M359.87631,76.11938h1.45117l2.15918,3.86231,2.14648-3.86231h1.4629v8.39649h-1.37891v-5.9375l-2.23047,3.88672h-.03613l-2.21875-3.86231v5.91309h-1.35547Z"/><path d="M368.4808,81.40845v-.09571c0-1.90625,1.15137-3.27343,2.71094-3.27343,1.72656,0,2.63769,1.43945,2.63769,3.3457,0,.084,0,.27539-.01172.46777h-3.98144a1.63357,1.63357,0,0,0,1.60644,1.64356,2.02111,2.02111,0,0,0,1.46387-.67188l.707.83985a2.94923,2.94923,0,0,1-5.13281-2.25586Zm4.03027-.49121c-.07226-1.00684-.52832-1.73926-1.31933-1.73926-.74414,0-1.27149.66015-1.36719,1.73926Z"/><path d="M374.69662,82.69165v-.05859c0-1.36719.91113-2.03907,2.25488-2.03907a4.30713,4.30713,0,0,1,1.46289.252v-.26368a1.20308,1.20308,0,0,0-1.36718-1.29589,3.62426,3.62426,0,0,0-1.53516.38378l-.38379-1.08007a4.53,4.53,0,0,1,2.09863-.50391,2.24583,2.24583,0,0,1,2.50684,2.4834v3.94629h-1.33105v-.78028a2.02111,2.02111,0,0,1-1.76368.89942A1.85588,1.85588,0,0,1,374.69662,82.69165Zm3.72949-.31055v-.63672a3.07749,3.07749,0,0,0-1.1748-.22754c-.78027,0-1.23535.39551-1.23535,1.06739v.02441a.96844.96844,0,0,0,1.03125,1.00684A1.27144,1.27144,0,0,0,378.42611,82.3811Z"/><path d="M381.20053,78.15845H382.556V79.094a1.98949,1.98949,0,0,1,1.73828-1.05468c1.22363,0,1.95508.86328,1.95508,2.21875v4.25781h-1.35547v-3.875c0-.88672-.41895-1.37891-1.13868-1.37891-.708,0-1.19921.52735-1.19921,1.40332v3.85059h-1.35547Z"/><path d="M440.305,78.68774l.62988-.7832a2.44974,2.44974,0,0,0,1.65723.74609c.60254,0,.99023-.332.99023-.80078v-.00879c0-.39648-.207-.65722-1.207-1.02636-1.19726-.4502-1.81836-.89161-1.81836-1.90039v-.01758a1.81517,1.81517,0,0,1,1.999-1.76367,2.92767,2.92767,0,0,1,1.98046.73828l-.59472.80078a2.28769,2.28769,0,0,0-1.41309-.59375c-.56738,0-.918.31445-.918.72851v.00977c0,.44043.2334.67383,1.30469,1.08887,1.1709.45019,1.71094.93652,1.71094,1.85449v.01758a1.84858,1.84858,0,0,1-2.04395,1.81836A3.29255,3.29255,0,0,1,440.305,78.68774Z"/><path d="M445.75912,78.36352V75.61743h-.52246v-.873h.52246V73.45727h1.01758v1.28711H447.848v.873H446.7767v2.53906a.4554.4554,0,0,0,.51269.52149,1.1594,1.1594,0,0,0,.54981-.13477v.83692a1.73345,1.73345,0,0,1-.84668.208A1.08756,1.08756,0,0,1,445.75912,78.36352Z"/><path d="M448.49545,78.14673v-.04492c0-1.02637.68359-1.53028,1.69238-1.53028a3.26417,3.26417,0,0,1,1.09863.18848v-.19727a.90313.90313,0,0,0-1.02636-.97265,2.7152,2.7152,0,0,0-1.15235.28808l-.28808-.80957a3.38335,3.38335,0,0,1,1.57519-.3789A1.68559,1.68559,0,0,1,452.2767,76.553v2.96289h-1v-.58594a1.51612,1.51612,0,0,1-1.32324.67578A1.39327,1.39327,0,0,1,448.49545,78.14673Zm2.7998-.23438v-.47656a2.28673,2.28673,0,0,0-.88281-.1709c-.585,0-.92676.29688-.92676.80176v.01758a.72757.72757,0,0,0,.77442.75586A.95389.95389,0,0,0,451.29525,77.91235Z"/><path d="M453.37338,74.74438H454.39v.70118a1.49673,1.49673,0,0,1,1.30566-.791c.91895,0,1.46778.64746,1.46778,1.665v3.19629h-1.01758V76.60766c0-.666-.31543-1.03515-.85547-1.03515-.53125,0-.90039.39648-.90039,1.05273v2.89063h-1.0166Z"/><path d="M458.07064,77.19263v-.11719c0-1.61133.89161-2.4209,1.8545-2.4209a1.64444,1.64444,0,0,1,1.3955.80957V73.01587h1.01758v6.5h-1.01758v-.76563a1.61279,1.61279,0,0,1-1.3955.85547C458.971,79.60571,458.07064,78.804,458.07064,77.19263Zm3.26758-.01856v-.08984c0-.93555-.52148-1.5293-1.13379-1.5293-.62109,0-1.10742.57617-1.10742,1.53906v.07227c0,.95312.49512,1.53906,1.10742,1.53906S461.33822,78.11157,461.33822,77.17407Z"/><path d="M463.21908,78.14673v-.04492c0-1.02637.6836-1.53028,1.69238-1.53028a3.26428,3.26428,0,0,1,1.09864.18848v-.19727a.90314.90314,0,0,0-1.02637-.97265,2.71511,2.71511,0,0,0-1.15234.28808l-.28809-.80957a3.38342,3.38342,0,0,1,1.5752-.3789,1.68559,1.68559,0,0,1,1.88183,1.86328v2.96289h-1v-.58594a1.51612,1.51612,0,0,1-1.32324.67578A1.39327,1.39327,0,0,1,463.21908,78.14673Zm2.79981-.23438v-.47656a2.28678,2.28678,0,0,0-.88282-.1709c-.585,0-.92675.29688-.92675.80176v.01758a.72756.72756,0,0,0,.77441.75586A.9539.9539,0,0,0,466.01889,77.91235Z"/><path d="M468.097,74.74438h1.0166v.93555a1.41866,1.41866,0,0,1,1.43164-1.00781v1.10742h-.04492c-.82812,0-1.38672.54-1.38672,1.62891v2.10742H468.097Z"/><path d="M471.01205,77.19263v-.11719c0-1.61133.8916-2.4209,1.85547-2.4209a1.64408,1.64408,0,0,1,1.39453.80957V73.01587h1.01758v6.5h-1.01758v-.76563a1.61245,1.61245,0,0,1-1.39453.85547C471.91244,79.60571,471.01205,78.804,471.01205,77.19263Zm3.26856-.01856v-.08984c0-.93555-.52247-1.5293-1.13477-1.5293-.62109,0-1.10742.57617-1.10742,1.53906v.07227c0,.95312.49512,1.53906,1.10742,1.53906S474.28061,78.11157,474.28061,77.17407Z"/><path d="M439.85482,81.21313h1.92676a2.88665,2.88665,0,0,1,2.98926,3.10645v.07129a2.90172,2.90172,0,0,1-2.98926,3.125h-1.92676Zm1.04493.94532v4.41211h.873a1.91617,1.91617,0,0,0,1.918-2.16993V84.346a1.92626,1.92626,0,0,0-1.918-2.1875Z"/><path d="M445.57943,85.18384v-.07227a2.20063,2.20063,0,0,1,2.03418-2.457c1.2959,0,1.98047,1.08008,1.98047,2.51172,0,.0625,0,.207-.00879.35058H446.596a1.22555,1.22555,0,0,0,1.207,1.2334,1.51839,1.51839,0,0,0,1.09765-.5039l.53125.62988a2.21309,2.21309,0,0,1-3.85254-1.69238Zm3.02442-.36914c-.05371-.75586-.39649-1.30567-.99024-1.30567-.55859,0-.9541.49512-1.02636,1.30567Z"/><path d="M449.95248,82.74438h1.07129l1.07129,3.47461,1.08105-3.47461h1.05274l-1.665,4.80664h-.94531Z"/><path d="M455.01986,81.051h1.08008v1h-1.08008Zm.03614,1.69336h1.01757v4.77149H455.056Z"/><path d="M457.00912,86.14673v-.04492c0-1.02637.68359-1.53028,1.69238-1.53028a3.26428,3.26428,0,0,1,1.09864.18848v-.19727a.90314.90314,0,0,0-1.02637-.97265,2.71511,2.71511,0,0,0-1.15234.28808l-.28809-.80957a3.38339,3.38339,0,0,1,1.5752-.3789,1.68559,1.68559,0,0,1,1.88183,1.86328v2.96289h-1v-.58594a1.51612,1.51612,0,0,1-1.32324.67578A1.39327,1.39327,0,0,1,457.00912,86.14673Zm2.79981-.23438v-.47656a2.28678,2.28678,0,0,0-.88282-.1709c-.585,0-.92675.29688-.92675.80176v.01758a.72756.72756,0,0,0,.77441.75586A.9539.9539,0,0,0,459.80893,85.91235Z"/><path d="M462.04037,86.36352V83.61743h-.52246v-.873h.52246V81.45727h1.0166v1.28711h1.07129v.873H463.057v2.53906a.45607.45607,0,0,0,.51367.52149,1.15273,1.15273,0,0,0,.54883-.13477v.83692a1.72946,1.72946,0,0,1-.8457.208A1.08719,1.08719,0,0,1,462.04037,86.36352Z"/><path d="M465.06381,81.051h1.08008v1h-1.08008Zm.03613,1.69336h1.01758v4.77149h-1.01758Z"/><path d="M467.10678,85.18384v-.08106a2.20927,2.20927,0,1,1,4.39355-.00879v.08008a2.20849,2.20849,0,1,1-4.39355.00977Zm3.376-.01758v-.05469c0-.89062-.49511-1.55664-1.18847-1.55664-.71094,0-1.16992.65625-1.16992,1.54785v.05371c0,.8916.49511,1.56641,1.18847,1.56641C470.02377,86.7229,470.48275,86.05688,470.48275,85.16626Z"/><path d="M472.4349,82.74438h1.0166v.70118a1.49673,1.49673,0,0,1,1.30567-.791c.91894,0,1.46777.64746,1.46777,1.665v3.19629h-1.01758V84.60766c0-.666-.31543-1.03515-.85547-1.03515-.53125,0-.90039.39648-.90039,1.05273v2.89063h-1.0166Z"/><path d="M405.84213,90.85376h-66a2.50232,2.50232,0,0,1-2.5-2.5v-16.5a2.50231,2.50231,0,0,1,2.5-2.5h66a2.50231,2.50231,0,0,1,2.5,2.5v16.5A2.50232,2.50232,0,0,1,405.84213,90.85376Zm-66-20.5a1.50164,1.50164,0,0,0-1.5,1.5v16.5a1.50164,1.50164,0,0,0,1.5,1.5h66a1.50164,1.50164,0,0,0,1.5-1.5v-16.5a1.50164,1.50164,0,0,0-1.5-1.5Z"/><path d="M490.84213,90.85376h-66a2.50232,2.50232,0,0,1-2.5-2.5v-16.5a2.50231,2.50231,0,0,1,2.5-2.5h66a2.50231,2.50231,0,0,1,2.5,2.5v16.5A2.50232,2.50232,0,0,1,490.84213,90.85376Zm-66-20.5a1.50164,1.50164,0,0,0-1.5,1.5v16.5a1.50164,1.50164,0,0,0,1.5,1.5h66a1.50164,1.50164,0,0,0,1.5-1.5v-16.5a1.50164,1.50164,0,0,0-1.5-1.5Z"/><rect class="b" x="337.96281" y="102.54304" width="70" height="70"/><path d="M340.57162,144.08813q.46728-.86426,1.14746-2.25879.67969-1.396,1.46582-3.06543.78516-1.67138,1.61426-3.49121.82764-1.81933,1.60645-3.53222.77929-1.71387,1.4375-3.19336.65917-1.4795,1.09765-2.47071h.6084l4.23438,2.08106-6.99512,12.63086-1.72754,2.69043,5.76269-.38281.18457-4.502,4.27637-.29785v4.50293l3.45508-.24023v3.63867h-3.45508v5.32422h-4.48926v-5.32422H341.931Z"/><path d="M360.18393,144.25806a29.98869,29.98869,0,0,0,3.54687-2.35157,19.84586,19.84586,0,0,0,2.76074-2.55566,11.46276,11.46276,0,0,0,1.792-2.65527,6.176,6.176,0,0,0,.63671-2.66211,3.12864,3.12864,0,0,0-.21191-1.16016,2.60022,2.60022,0,0,0-.61621-.92773,2.93513,2.93513,0,0,0-.98438-.61622,3.592,3.592,0,0,0-1.3164-.22656,5.16191,5.16191,0,0,0-1.42383.18457,6.81188,6.81188,0,0,0-1.168.44531,6.35574,6.35574,0,0,0-.93457.56641q-.41016.30469-.72168.54492l-1.23242-1.89648A5.3841,5.3841,0,0,1,361.43,129.842a9.35359,9.35359,0,0,1,1.71289-1.02637,11.99788,11.99788,0,0,1,2.13086-.75683,9.486,9.486,0,0,1,2.38672-.29785,8.5543,8.5543,0,0,1,2.81738.41113,5.50686,5.50686,0,0,1,1.93262,1.10351,4.31349,4.31349,0,0,1,1.11914,1.60743,5.22483,5.22483,0,0,1,.36133,1.93359,6.14129,6.14129,0,0,1-.7295,2.85254,12.17422,12.17422,0,0,1-1.97558,2.7334,22.19843,22.19843,0,0,1-2.88184,2.54882,35.85919,35.85919,0,0,1-3.46191,2.28711l7.68945-.86425,1.11817-2.02442,2.167.42383-.83594,5.42383H360.90561Z"/><path d="M381.43783,146.4104a3.14929,3.14929,0,0,1-1.041-.16992,2.75277,2.75277,0,0,1-.86328-.48242,2.25883,2.25883,0,0,1-.59473-.76368,2.31041,2.31041,0,0,1-.21973-1.01953,2.7496,2.7496,0,0,1,.24121-1.15429,2.80014,2.80014,0,0,1,.665-.9209,3.19888,3.19888,0,0,1,1.00586-.61621,3.44637,3.44637,0,0,1,1.25977-.22657,3.7081,3.7081,0,0,1,1.2959.19922,2.37263,2.37263,0,0,1,.86328.53028,1.949,1.949,0,0,1,.48144.77929,2.93837,2.93837,0,0,1,.14942.94141,2.98615,2.98615,0,0,1-.23438,1.2041,2.56612,2.56612,0,0,1-.6582.91309,2.98219,2.98219,0,0,1-1.02637.58007A4.05849,4.05849,0,0,1,381.43783,146.4104Z"/><path d="M388.51791,140.74634a5.183,5.183,0,0,1,.99121-3.03809,7.34515,7.34515,0,0,1,3.12988-2.35742,11.4267,11.4267,0,0,1-1.22558-1.04785,6.40243,6.40243,0,0,1-1.6709-2.8252,6.85082,6.85082,0,0,1-.24707-1.90429,4.7,4.7,0,0,1,.623-2.4502,5.55493,5.55493,0,0,1,1.63476-1.748,7.39238,7.39238,0,0,1,2.29395-1.04785,9.95187,9.95187,0,0,1,2.61328-.34668,11.83348,11.83348,0,0,1,3.13574.36035,6.00865,6.00865,0,0,1,2.11719,1.00586,3.83171,3.83171,0,0,1,1.19629,1.52246,4.75729,4.75729,0,0,1,.376,1.89649,5.88721,5.88721,0,0,1-.72949,2.84668,6.61986,6.61986,0,0,1-2.41406,2.39355,19.81537,19.81537,0,0,1,1.73437,1.09668,8.364,8.364,0,0,1,1.46582,1.31738,5.89728,5.89728,0,0,1,1.01172,1.63477,5.27273,5.27273,0,0,1,.376,2.03906,5.5318,5.5318,0,0,1-.63086,2.66211,5.8031,5.8031,0,0,1-1.7627,1.99024,8.39368,8.39368,0,0,1-2.71191,1.24609,13.87217,13.87217,0,0,1-6.35742.12012,8.01689,8.01689,0,0,1-2.50684-.99121,5.4033,5.4033,0,0,1-1.76953-1.7627A4.858,4.858,0,0,1,388.51791,140.74634Zm11.38477.73632a2.724,2.724,0,0,0-.48145-1.60742,5.50427,5.50427,0,0,0-1.25977-1.26074,13.30817,13.30817,0,0,0-1.76367-1.083q-.9829-.50976-2.00293-1.07617a4.71763,4.71763,0,0,0-1.16894,1.5293,4.6003,4.6003,0,0,0-.43164,2.02539,7.60159,7.60159,0,0,0,.20508,1.8125,3.913,3.913,0,0,0,.65918,1.43652,3.07806,3.07806,0,0,0,1.18164.94238,4.15316,4.15316,0,0,0,1.76367.33985,3.972,3.972,0,0,0,1.21777-.19141,3.12364,3.12364,0,0,0,1.05469-.57422,2.87232,2.87232,0,0,0,.74316-.95507A2.979,2.979,0,0,0,399.90268,141.48266Zm-6.07422-13.042a2.70451,2.70451,0,0,0,.375,1.40918,4.72877,4.72877,0,0,0,1.00488,1.168,9.39631,9.39631,0,0,0,1.45215,1.00586q.82031.46582,1.72754.93359a4.67472,4.67472,0,0,0,1.0332-1.57812,4.81582,4.81582,0,0,0,.33984-1.76367,4.349,4.349,0,0,0-.82128-2.84571,2.89732,2.89732,0,0,0-2.36426-.99121,3.31071,3.31071,0,0,0-1.04785.16309,2.51364,2.51364,0,0,0-.87793.49512,2.3314,2.3314,0,0,0-.60254.8291A2.896,2.896,0,0,0,393.82846,128.44067Z"/><rect class="b" x="422.60075" y="102.54304" width="70" height="70"/><path d="M432.77084,146.19751V144.2854l3.07324-.39649v-11.1582c-.16992.03809-.39258.08594-.666.14258s-.55957.10742-.85645.15527c-.29785.04785-.58789.08985-.87109.12793-.28321.03711-.51856.06055-.708.07032l-.36816-2.46387a10.523,10.523,0,0,0,1.69921-.49512,14.092,14.092,0,0,0,1.62793-.74414,16.29108,16.29108,0,0,0,1.459-.87793,14.55136,14.55136,0,0,0,1.20312-.89941h.01465l2.56348.43945v15.70312l2.916.39649v1.91211Z"/><path d="M445.59994,146.19751V144.2854l3.07227-.39649v-11.1582c-.16992.03809-.39063.08594-.665.14258s-.55957.10742-.85645.15527c-.29785.04785-.58789.08985-.87109.12793q-.4248.05567-.708.07032l-.36816-2.46387a10.52341,10.52341,0,0,0,1.69922-.49512,14.18346,14.18346,0,0,0,1.6289-.74414,16.41143,16.41143,0,0,0,1.458-.87793,14.74466,14.74466,0,0,0,1.2041-.89941h.01367l2.5625.43945v15.70312l2.918.39649v1.91211Z"/><path d="M461.79916,146.4104a3.14939,3.14939,0,0,1-1.041-.16992,2.75288,2.75288,0,0,1-.86328-.48242,2.24669,2.24669,0,0,1-.59472-.76368,2.31041,2.31041,0,0,1-.21973-1.01953,2.76422,2.76422,0,0,1,.24023-1.15429,2.817,2.817,0,0,1,.666-.9209,3.19865,3.19865,0,0,1,1.00586-.61621,3.44637,3.44637,0,0,1,1.25977-.22657,3.708,3.708,0,0,1,1.29589.19922,2.37246,2.37246,0,0,1,.86328.53028,1.95984,1.95984,0,0,1,.48145.77929,2.93794,2.93794,0,0,1,.14844.94141,2.986,2.986,0,0,1-.2334,1.2041,2.56612,2.56612,0,0,1-.6582.91309,2.9913,2.9913,0,0,1-1.02637.58007A4.05849,4.05849,0,0,1,461.79916,146.4104Z"/><path d="M471.21518,150.176q1.18944-2.32177,2.4082-4.84179,1.21728-2.521,2.34961-4.96387,1.13379-2.44189,2.125-4.665.99023-2.22363,1.72656-3.95117l-7.7168.11328-1.08984,3.32813-2.77539-.50977.77832-6.62695h14.03223l1.01953,1.14648-7.73047,22.33008Z"/><rect x="206.45443" y="131.54321" width="68.61328" height="12"/><polygon points="268.94 158.486 305.208 137.543 268.94 116.6 268.94 158.486"/><polygon points="90.32 103.49 88.82 103.49 88.82 98.24 94.07 98.24 94.07 99.74 90.32 99.74 90.32 103.49"/><path d="M90.31967,778.71216h-1.5v-8.88477h1.5Zm0-17.76953h-1.5v-8.88379h1.5Zm0-17.76856h-1.5v-8.88476h1.5Zm0-17.76855h-1.5v-8.88477h1.5Zm0-17.76953h-1.5v-8.88477h1.5Zm0-17.76856h-1.5v-8.88477h1.5Zm0-17.76953h-1.5v-8.88379h1.5Zm0-17.76856h-1.5v-8.88476h1.5Zm0-17.76953h-1.5V627.676h1.5Zm0-17.76855h-1.5v-8.88477h1.5Zm0-17.76953h-1.5v-8.88379h1.5Zm0-17.76856h-1.5v-8.88476h1.5Zm0-17.76855h-1.5v-8.88477h1.5Zm0-17.76953h-1.5v-8.88477h1.5Zm0-17.76856h-1.5v-8.88476h1.5Zm0-17.76953h-1.5v-8.88379h1.5Zm0-17.76855h-1.5v-8.88477h1.5Zm0-17.76954h-1.5v-8.88378h1.5Zm0-17.76855h-1.5v-8.88477h1.5Zm0-17.76855h-1.5V432.217h1.5Zm0-17.76954h-1.5v-8.88476h1.5Zm0-17.76855h-1.5V396.679h1.5Zm0-17.76953h-1.5V378.9104h1.5Zm0-17.76856h-1.5v-8.88476h1.5Zm0-17.76953h-1.5v-8.88379h1.5Zm0-17.76855h-1.5v-8.88477h1.5Zm0-17.76856h-1.5v-8.88476h1.5Zm0-17.76953h-1.5V290.0647h1.5Zm0-17.76855h-1.5v-8.88477h1.5Zm0-17.76953h-1.5v-8.88477h1.5Zm0-17.76856h-1.5v-8.88476h1.5Zm0-17.76953h-1.5V218.9895h1.5Zm0-17.76855h-1.5V201.22h1.5Zm0-17.76954h-1.5v-8.88379h1.5Zm0-17.76855h-1.5v-8.88477h1.5Zm0-17.76856h-1.5v-8.88476h1.5Zm0-17.76953h-1.5V130.1438h1.5Zm0-17.76855h-1.5v-8.88477h1.5Z"/><polygon points="94.07 792.846 88.82 792.846 88.82 787.596 90.32 787.596 90.32 791.346 94.07 791.346 94.07 792.846"/><path d="M154.61654,792.846H144.52475v-1.5h10.09179Zm-20.18261,0H124.34311v-1.5h10.09082Zm-20.18262,0H104.16049v-1.5h10.09082Z"/><polygon points="169.957 792.846 164.707 792.846 164.707 791.346 168.457 791.346 168.457 787.596 169.957 787.596 169.957 792.846"/><path d="M169.95736,778.71118h-1.5v-8.88477h1.5Zm0-17.76855h-1.5v-8.88477h1.5Zm0-17.76954h-1.5v-8.88476h1.5Zm0-17.76855h-1.5v-8.88477h1.5Zm0-17.76953h-1.5v-8.88379h1.5Zm0-17.76856h-1.5v-8.88476h1.5Zm0-17.76953h-1.5v-8.88379h1.5Zm0-17.76855h-1.5V645.4436h1.5Zm0-17.76856h-1.5v-8.88476h1.5Zm0-17.76953h-1.5v-8.88476h1.5Zm0-17.76855h-1.5V592.137h1.5Zm0-17.76953h-1.5v-8.88477h1.5Zm0-17.76856h-1.5v-8.88476h1.5Zm0-17.76953h-1.5v-8.88379h1.5Zm0-17.76855h-1.5v-8.88477h1.5Zm0-17.76954h-1.5v-8.88378h1.5Zm0-17.76855h-1.5V485.5227h1.5Zm0-17.76856h-1.5v-8.88476h1.5Zm0-17.76953h-1.5v-8.88476h1.5Zm0-17.76855h-1.5v-8.88477h1.5Zm0-17.76953h-1.5v-8.88379h1.5Zm0-17.76856h-1.5V396.678h1.5Zm0-17.76953h-1.5v-8.88379h1.5Zm0-17.76855h-1.5v-8.88477h1.5Zm0-17.76856h-1.5v-8.88476h1.5Zm0-17.76953h-1.5v-8.88476h1.5Zm0-17.76855h-1.5v-8.88477h1.5Zm0-17.76953h-1.5V290.0647h1.5Zm0-17.76856h-1.5v-8.88477h1.5Zm0-17.76953h-1.5v-8.88379h1.5Zm0-17.76856h-1.5v-8.88476h1.5Zm0-17.76953h-1.5v-8.88379h1.5Zm0-17.76855h-1.5V201.219h1.5Zm0-17.76856h-1.5v-8.88476h1.5Zm0-17.76953h-1.5v-8.88476h1.5Zm0-17.76855h-1.5v-8.88477h1.5Zm0-17.76953h-1.5V130.1438h1.5Zm0-17.76856h-1.5v-8.88476h1.5Z"/><polygon points="169.957 103.49 168.457 103.49 168.457 99.74 164.707 99.74 164.707 98.24 169.957 98.24 169.957 103.49"/><path d="M154.61654,99.74048H144.52572v-1.5h10.09082Zm-20.18261,0H124.34311v-1.5h10.09082Zm-20.18164,0h-10.0918v-1.5h10.0918Z"/><rect x="366.92316" y="162.78323" width="4.50005" height="1.50043" transform="translate(7.14478 342.32791) rotate(-50.17533)"/><path d="M178.59213,393.45044l-1.15234-.96094,5.92871-7.11621,1.15234.96094ZM190.44955,379.218l-1.15234-.96094,5.92871-7.11524,1.15234.96094ZM202.307,364.98657l-1.15234-.96094,5.92871-7.11523,1.15234.96094Zm11.85742-14.23144-1.15234-.96094,5.92871-7.11621,1.15235.96093Zm11.85743-14.23145-1.15235-.96094,5.92871-7.11621,1.15235.96094Zm11.85742-14.23242-1.15235-.96094,5.92872-7.11523,1.15234.96093Zm11.85644-14.23145-1.15234-.96093,5.92871-7.11622,1.15234.96094Zm11.85743-14.23144-1.15235-.96094,5.92871-7.11621,1.15235.96094Zm11.85742-14.23145-1.15235-.96093,5.92871-7.11622,1.15235.96094ZM285.308,265.3645l-1.15234-.96094,5.92871-7.11523,1.15234.96094Zm11.85742-14.23144-1.15234-.96094,5.92871-7.11621,1.15234.96093Zm11.85742-14.23145-1.15234-.96094,5.92871-7.11621,1.15234.96094Zm11.85742-14.23242-1.15234-.96094,5.92774-7.11523,1.15234.96093Zm11.85645-14.23145-1.15234-.96093,5.92871-7.11524,1.15234.96094Zm11.85742-14.23144-1.15234-.96094,5.92871-7.11621,1.15234.96094Zm11.85742-14.23145-1.15234-.96094,5.92871-7.11621,1.15234.96094Z"/><rect x="168.39777" y="401.06448" width="4.50005" height="1.50043" transform="translate(-247.23879 275.53516) rotate(-50.17533)"/><polygon points="367.04 160.252 374.059 157.67 372.786 165.04 367.04 160.252"/><rect x="446.4173" y="161.90314" width="4.50005" height="1.49987" transform="translate(2.51846 332.09209) rotate(-40.72268)"/><path d="M179.79818,395.40552l-.97851-1.13672,6.6914-5.76758.97852,1.13672ZM193.182,383.87036l-.98047-1.13672,6.69043-5.76855.9795,1.13672Zm13.38086-11.53613-.97851-1.13672,6.6914-5.76758.97852,1.13672Zm13.38281-11.53614-.97851-1.13671,6.69141-5.76758.97851,1.13672Zm13.38282-11.53515-.97852-1.13672,6.69141-5.76856.97851,1.13672Zm13.38281-11.53613-.97852-1.13672,6.69141-5.76758.97852,1.13672Zm13.38281-11.53614-.97851-1.13672,6.6914-5.76757.97852,1.13671Zm13.38281-11.53515-.97851-1.13672,6.69141-5.76758.97851,1.13672Zm13.38282-11.53614-.97852-1.13672,6.69141-5.76757.97851,1.13672Zm13.38281-11.53515-.97852-1.13672,6.69141-5.76856.97852,1.13672Zm13.38281-11.53614-.97851-1.13671,6.6914-5.76758.97852,1.13672ZM327.00814,268.512l-.97851-1.13672,6.69141-5.76758.97851,1.13672ZM340.391,256.97681l-.97852-1.13672,6.69141-5.76856.97851,1.13672Zm13.38281-11.53614-.97852-1.13672,6.69043-5.76757.97852,1.13671Zm13.38184-11.53613-.97852-1.13672,6.69141-5.76758.97851,1.13672Zm13.38281-11.53516-.97852-1.13672,6.69141-5.76757.97851,1.13672Zm13.38281-11.53613-.97852-1.13672,6.69141-5.76758.97852,1.13672ZM407.304,199.29809l-.97851-1.13671,6.6914-5.76856.97852,1.13672ZM420.68686,187.762l-.97852-1.13672,6.69141-5.76758.97851,1.13672Zm13.38281-11.53613-.97852-1.13672,6.69141-5.76758.97851,1.13672Z"/><rect x="168.66253" y="401.32404" width="4.50079" height="1.49987" transform="translate(-220.93035 208.85506) rotate(-40.72268)"/><polygon points="447.101 159.066 454.448 157.67 451.985 164.731 447.101 159.066"/></svg>