<svg xmlns="http://www.w3.org/2000/svg" viewBox="0 0 593.68254 805.99053"><defs><style>.a{fill:#75bbef;}.b{fill:#ea7d7d;}</style></defs><polygon points="173.123 806.74 167.873 806.74 167.873 805.24 171.623 805.24 171.623 801.49 173.123 801.49 173.123 806.74"/><path d="M157.78209,806.74048H147.69078v-1.5h10.09131Zm-20.18213,0H127.50865v-1.5H137.6Zm-20.18262,0H107.32652v-1.5h10.09082Z"/><polygon points="97.235 806.74 91.985 806.74 91.985 801.49 93.485 801.49 93.485 805.24 97.235 805.24 97.235 806.74"/><path d="M93.48521,792.60571h-1.5v-8.88379h1.5Zm0-17.76855h-1.5v-8.88379h1.5Zm0-17.76856h-1.5v-8.88379h1.5Zm0-17.76855h-1.5v-8.88379h1.5Zm0-17.76856h-1.5V712.6477h1.5Zm0-17.76855h-1.5v-8.88379h1.5Zm0-17.76758h-1.5v-8.88477h1.5Zm0-17.76855h-1.5V659.342h1.5Zm0-17.76856h-1.5v-8.88476h1.5Zm0-17.76855h-1.5v-8.88477h1.5Zm0-17.76856h-1.5v-8.88379h1.5Zm0-17.76855h-1.5V588.2688h1.5Z"/><polygon points="93.485 579.385 91.985 579.385 91.985 574.135 97.235 574.135 97.235 575.635 93.485 575.635 93.485 579.385"/><path d="M157.78209,575.635H147.69127v-1.5h10.09082Zm-20.18213,0H127.50865v-1.5H137.6Zm-20.18213,0H107.32652v-1.5h10.09131Z"/><polygon points="173.123 579.385 171.623 579.385 171.623 575.635 167.873 575.635 167.873 574.135 173.123 574.135 173.123 579.385"/><path d="M173.1234,792.60571h-1.5v-8.88379h1.5Zm0-17.76855h-1.5v-8.88379h1.5Zm0-17.76758h-1.5v-8.88477h1.5Zm0-17.76856h-1.5v-8.88476h1.5Zm0-17.76855h-1.5V712.6477h1.5Zm0-17.76856h-1.5v-8.88476h1.5Zm0-17.76855h-1.5v-8.88379h1.5Zm0-17.76855h-1.5V659.343h1.5Zm0-17.76856h-1.5v-8.88379h1.5Zm0-17.76855h-1.5v-8.88379h1.5Zm0-17.76856h-1.5v-8.88379h1.5Zm0-17.76855h-1.5V588.2688h1.5Z"/><path d="M29.44029,93.57739v-.1123c0-2.88477,1.86328-5,4.49707-5a4.46638,4.46638,0,0,1,3.10938,1.10644l-.9668,1.28809a3.00715,3.00715,0,0,0-2.1709-.88184c-1.59668,0-2.78711,1.44238-2.78711,3.47363v.084c0,2.21289,1.2041,3.53027,2.8711,3.53027a3.03693,3.03693,0,0,0,1.7373-.51855V94.38989H33.67076V92.96118h3.60059v4.39844a5.34393,5.34393,0,0,1-3.34864,1.19043C31.26158,98.55005,29.44029,96.58911,29.44029,93.57739Z"/><path d="M39.01646,90.98657h1.583v1.45606A2.206,2.206,0,0,1,42.827,90.87427v1.72265H42.7567c-1.28906,0-2.15723.84082-2.15723,2.53516V98.4104h-1.583Z"/><path d="M43.48228,94.78247v-.126a3.43749,3.43749,0,1,1,6.83594-.01465v.126a3.4362,3.4362,0,1,1-6.83594.01465Zm5.25293-.02832v-.084c0-1.38671-.7705-2.42285-1.84863-2.42285-1.10742,0-1.82129,1.02246-1.82129,2.40918v.084c0,1.38672.77051,2.4375,1.84863,2.4375C48.02037,97.178,48.73521,96.14087,48.73521,94.75415Z"/><path d="M51.701,95.95923V90.98657h1.582V95.511c0,1.03613.49023,1.61035,1.31738,1.61035.82617,0,1.40039-.61621,1.40039-1.63868V90.98657h1.59668V98.4104H56.00084V97.3313a2.29133,2.29133,0,0,1-2.0166,1.21875C52.54088,98.55005,51.701,97.55591,51.701,95.95923Z"/><path d="M59.38658,90.98657h1.583V92.177a2.50825,2.50825,0,0,1,2.1709-1.33105c1.48437,0,2.88574,1.24707,2.88574,3.7539v.19629c0,2.49317-1.38672,3.75391-2.88574,3.75391a2.52869,2.52869,0,0,1-2.1709-1.26074v3.23632h-1.583Zm5.043,3.78125v-.126c0-1.48437-.77051-2.39453-1.72363-2.39453-.95215,0-1.76465.92383-1.76465,2.38086v.13965c0,1.457.8125,2.38184,1.76465,2.38184C63.67271,97.14966,64.42955,96.25317,64.42955,94.76782Z"/><path d="M107.94517,88.60474h1.76465l2.40918,7.41015,2.40918-7.41015h1.709l-3.38965,9.86132h-1.499Z"/><path d="M116.3026,96.28149v-.07031c0-1.59668,1.06543-2.38184,2.63379-2.38184a5.02836,5.02836,0,0,1,1.709.29493v-.3086a1.40442,1.40442,0,0,0-1.59668-1.51269,4.2132,4.2132,0,0,0-1.793.44824l-.44824-1.26074a5.2728,5.2728,0,0,1,2.45117-.58789,2.62077,2.62077,0,0,1,2.92774,2.89941v4.6084H120.6317v-.91113a2.36047,2.36047,0,0,1-2.05957,1.05078A2.1679,2.1679,0,0,1,116.3026,96.28149Zm4.35644-.36425v-.74317a3.584,3.584,0,0,0-1.37207-.26562c-.91113,0-1.44336.46191-1.44336,1.24609v.02832a1.13246,1.13246,0,0,0,1.20508,1.17676A1.48516,1.48516,0,0,0,120.659,95.91724Z"/><path d="M123.89146,90.98657h1.583v1.45606a2.20478,2.20478,0,0,1,2.22656-1.56836v1.72265h-.06933c-1.28906,0-2.15723.84082-2.15723,2.53516V98.4104h-1.583Z"/><path d="M128.95885,88.35278h1.68066v1.55469h-1.68066Zm.05566,2.63379h1.583V98.4104h-1.583Z"/><path d="M132.0526,96.28149v-.07031c0-1.59668,1.06445-2.38184,2.63379-2.38184a5.03274,5.03274,0,0,1,1.709.29493v-.3086a1.40516,1.40516,0,0,0-1.59766-1.51269,4.217,4.217,0,0,0-1.793.44824l-.44824-1.26074a5.27584,5.27584,0,0,1,2.45117-.58789,2.62077,2.62077,0,0,1,2.92774,2.89941v4.6084h-1.55469v-.91113a2.3587,2.3587,0,0,1-2.05859,1.05078A2.16738,2.16738,0,0,1,132.0526,96.28149Zm4.35644-.36425v-.74317a3.58922,3.58922,0,0,0-1.37305-.26562c-.91015,0-1.44238.46191-1.44238,1.24609v.02832a1.13168,1.13168,0,0,0,1.2041,1.17676A1.48548,1.48548,0,0,0,136.409,95.91724Z"/><path d="M141.22349,97.28931V98.4104h-1.583V88.29712h1.583V92.177a2.50827,2.50827,0,0,1,2.1709-1.33105c1.48535,0,2.88575,1.24707,2.88575,3.7539v.19629c0,2.49317-1.38672,3.75391-2.88575,3.75391A2.53,2.53,0,0,1,141.22349,97.28931Zm3.46-2.52149v-.126c0-1.48437-.77051-2.39453-1.72266-2.39453-.95313,0-1.76563.92383-1.76563,2.38086v.13965c0,1.457.8125,2.38184,1.76563,2.38184C143.92662,97.14966,144.68346,96.25317,144.68346,94.76782Z"/><path d="M147.84459,88.29712h1.583V98.4104h-1.583Z"/><path d="M150.96666,94.78247v-.11231c0-2.22753,1.34473-3.82421,3.165-3.82421,2.01758,0,3.082,1.68066,3.082,3.9082,0,.09766,0,.32226-.01465.5459h-4.65039A1.90886,1.90886,0,0,0,154.42564,97.22a2.36022,2.36022,0,0,0,1.709-.78516l.82715.98047a3.4137,3.4137,0,0,1-2.60547,1.14942C152.451,98.5647,150.96666,97.10766,150.96666,94.78247Zm4.70605-.57422c-.084-1.17676-.61621-2.03125-1.541-2.03125-.86817,0-1.48438.77051-1.59668,2.03125Z"/><circle class="a" cx="47.86646" cy="151.43768" r="35"/><path d="M40.452,159.092l-.00977-1.47461,1.25-.26367,4.58008-13.1543H49.8856L54.51451,157.344l1.42578.27344V159.092H49.05553v-1.47461l1.60156-.26367-.63477-2.14844H44.97349l-.58593,2.14844,1.60156.26367V159.092Zm6.66016-11.76758-1.68946,6.20117h4.0918l-1.8457-6.20117-.30274-1.34765Z"/><circle class="a" cx="47.86646" cy="228.43768" r="35"/><path d="M40.452,236.092l-.00977-1.47461,1.25-.26367,4.58008-13.1543H49.8856L54.51451,234.344l1.42578.27344V236.092H49.05553v-1.47461l1.60156-.26367-.63477-2.14844H44.97349l-.58593,2.14844,1.60156.26367V236.092Zm6.66016-11.76758-1.68946,6.20117h4.0918l-1.8457-6.20117-.30274-1.34765Z"/><circle class="a" cx="47.86646" cy="382.43768" r="35"/><path d="M41.702,390.092v-1.47461l1.582-.27344V376.97681l-1.57226-.3125v-1.43555H44.993c.34472,0,.65234-.00586.92285-.01953q.40429-.019.7666-.03907.36035-.019.71777-.03906.356-.019.7666-.01953a14.21661,14.21661,0,0,1,2.48536.19141,5.40053,5.40053,0,0,1,1.75781.5957,2.66453,2.66453,0,0,1,1.04,1.03906,3.20054,3.20054,0,0,1,.34179,1.53321,4.16186,4.16186,0,0,1-.26367,1.543,3.30353,3.30353,0,0,1-.71289,1.11915,3.448,3.448,0,0,1-1.0498.72265,4.55334,4.55334,0,0,1-1.27442.35547,6.37914,6.37914,0,0,1,1.65528.26953,4.65,4.65,0,0,1,1.38672.67383,3.28233,3.28233,0,0,1,.95214,1.05859,2.83872,2.83872,0,0,1,.35157,1.416,5.36652,5.36652,0,0,1-.27832,1.71875,3.44352,3.44352,0,0,1-.97657,1.46484,5.06748,5.06748,0,0,1-1.87988,1.01563,9.90446,9.90446,0,0,1-2.98828.38086c-.27344,0-.53906-.00586-.7959-.01953q-.38672-.019-.82031-.03907-.43506-.019-.94238-.03906-.5083-.019-1.16211-.01953Zm5.08789-13.48633v5.00977a1.67851,1.67851,0,0,0,.32227.03906c.13672.00684.28125.01367.43457.01953.15234.00684.30371.00977.4541.00977h.38086a2.11363,2.11363,0,0,0,.93262-.17969,1.44017,1.44017,0,0,0,.58593-.52734,2.32939,2.32939,0,0,0,.30762-.85938,7.105,7.105,0,0,0,.08789-1.1875,4.203,4.203,0,0,0-.12207-1.07812,1.74587,1.74587,0,0,0-.40039-.752,1.6391,1.6391,0,0,0-.73242-.43945,3.75062,3.75062,0,0,0-1.1084-.14258c-.085,0-.18457.00391-.29785.00977-.11426.00683-.22656.01367-.33692.01953-.11132.00683-.21191.01562-.30273.02539A1.34962,1.34962,0,0,0,46.7899,376.60571Zm0,6.51367v5.46875a1.05577,1.05577,0,0,0,.23438.07422c.10351.02246.21777.042.34179.0586.123.01562.25391.02734.39063.0332.13672.00684.2666.00976.39062.00976a4.28018,4.28018,0,0,0,1.38184-.19531,2.35115,2.35115,0,0,0,.93262-.56054,2.22952,2.22952,0,0,0,.53222-.90821,4.09546,4.09546,0,0,0,.1709-1.22656,4.54588,4.54588,0,0,0-.16113-1.30273,1.8686,1.8686,0,0,0-1.36719-1.34375,4.695,4.695,0,0,0-1.25488-.14649h-.376c-.16015,0-.32226.002-.48828.00586-.166.00293-.31738.00781-.4541.01367C46.92662,383.10669,46.83482,383.11352,46.7899,383.11938Z"/><circle class="a" cx="47.86646" cy="459.43768" r="35"/><path d="M41.702,467.092v-1.47461l1.582-.27344V453.97681l-1.57226-.3125v-1.43555H44.993c.34472,0,.65234-.00586.92285-.01953q.40429-.019.7666-.03907.36035-.019.71777-.03906.356-.019.7666-.01953a14.22559,14.22559,0,0,1,2.48536.19043,5.4237,5.4237,0,0,1,1.75781.5957,2.67316,2.67316,0,0,1,1.04,1.04,3.20054,3.20054,0,0,1,.34179,1.53321,4.16186,4.16186,0,0,1-.26367,1.543,3.29909,3.29909,0,0,1-.71289,1.11817,3.431,3.431,0,0,1-1.0498.72266,4.52234,4.52234,0,0,1-1.27442.35644,6.42,6.42,0,0,1,1.65528.26856,4.69723,4.69723,0,0,1,1.38672.67382,3.29564,3.29564,0,0,1,.95214,1.05957,2.83872,2.83872,0,0,1,.35157,1.416,5.36652,5.36652,0,0,1-.27832,1.71875,3.44352,3.44352,0,0,1-.97657,1.46484,5.06748,5.06748,0,0,1-1.87988,1.01563,9.90446,9.90446,0,0,1-2.98828.38086c-.27344,0-.53906-.00586-.7959-.01953q-.38672-.019-.82031-.03907-.43506-.019-.94238-.03906-.5083-.019-1.16211-.01953Zm5.08789-13.48633v5.00977a1.67851,1.67851,0,0,0,.32227.03906c.13672.00684.28125.01367.43457.01953.15234.00684.30371.00977.4541.00977h.38086a2.09924,2.09924,0,0,0,.93262-.18067,1.42654,1.42654,0,0,0,.58593-.52734,2.32291,2.32291,0,0,0,.30762-.85938,7.09253,7.09253,0,0,0,.08789-1.18652,4.211,4.211,0,0,0-.12207-1.0791,1.75144,1.75144,0,0,0-.40039-.75195,1.65675,1.65675,0,0,0-.73242-.43946,3.786,3.786,0,0,0-1.1084-.1416c-.085,0-.18457.00391-.29785.00977-.11426.00683-.22656.01367-.33692.01953-.11132.00683-.21191.01465-.30273.02441A1.326,1.326,0,0,0,46.7899,453.60571Zm0,6.51367v5.46875a1.01367,1.01367,0,0,0,.23438.07325c.10351.02343.21777.043.34179.05859.123.0166.25391.02832.39063.03418.13672.00684.2666.00976.39062.00976a4.28018,4.28018,0,0,0,1.38184-.19531,2.3527,2.3527,0,0,0,.93262-.56152,2.22948,2.22948,0,0,0,.53222-.9082,4.08886,4.08886,0,0,0,.1709-1.22559,4.55781,4.55781,0,0,0-.16113-1.30371,1.86947,1.86947,0,0,0-1.36719-1.34277,4.695,4.695,0,0,0-1.25488-.14649h-.376c-.16015,0-.32226.002-.48828.00488q-.249.00587-.4541.01465C46.92662,460.10669,46.83482,460.11352,46.7899,460.11938Z"/><circle class="a" cx="47.86646" cy="613.43768" r="35"/><path d="M49.04576,621.31665a8.12168,8.12168,0,0,1-3.0957-.54688,6.02307,6.02307,0,0,1-2.23633-1.543,6.53734,6.53734,0,0,1-1.35254-2.38282,9.7756,9.7756,0,0,1-.4541-3.05664,8.1561,8.1561,0,0,1,.60058-3.19336,7.15423,7.15423,0,0,1,1.65528-2.43164,7.27623,7.27623,0,0,1,2.50488-1.54687,8.92651,8.92651,0,0,1,3.14941-.543,10.43218,10.43218,0,0,1,1.35743.084q.63428.082,1.18164.18946.54639.10839,1.001.21093a7.13632,7.13632,0,0,0,.81543.14063l-.23437,4.11133H51.62389l-.58594-2.73438a2.0995,2.0995,0,0,0-.2002-.209,1.08831,1.08831,0,0,0-.28808-.18164,2.05672,2.05672,0,0,0-.42969-.127,3.4785,3.4785,0,0,0-.63477-.04882,3.15978,3.15978,0,0,0-1.47949.34765,3.12559,3.12559,0,0,0-1.15234,1.06445,5.559,5.559,0,0,0-.74707,1.81641,11.30768,11.30768,0,0,0-.26367,2.61133,13.69779,13.69779,0,0,0,.21484,2.4668,7.98109,7.98109,0,0,0,.64941,2.07031,4.09666,4.09666,0,0,0,1.09375,1.42578,2.3901,2.3901,0,0,0,1.54785.53125,5.12971,5.12971,0,0,0,.791-.05273,2.90767,2.90767,0,0,0,.56152-.14258,1.72662,1.72662,0,0,0,.38086-.19532,1.19624,1.19624,0,0,0,.23926-.21484l.86914-2.28516,1.96289.04883-.11719,3.54492a4.46207,4.46207,0,0,0-.8789.15235q-.44971.12158-1.02539.26367-.57716.14063-1.32324.24805A12.47254,12.47254,0,0,1,49.04576,621.31665Z"/><circle class="a" cx="47.86646" cy="690.43768" r="35"/><path d="M49.04576,698.31665a8.12168,8.12168,0,0,1-3.0957-.54688,6.02307,6.02307,0,0,1-2.23633-1.543,6.53734,6.53734,0,0,1-1.35254-2.38282,9.7756,9.7756,0,0,1-.4541-3.05664,8.1561,8.1561,0,0,1,.60058-3.19336,7.15423,7.15423,0,0,1,1.65528-2.43164,7.27844,7.27844,0,0,1,2.50488-1.54785,8.92629,8.92629,0,0,1,3.14941-.542,10.61158,10.61158,0,0,1,1.35743.083q.63428.08349,1.18164.19043.54639.10839,1.001.21a7.15674,7.15674,0,0,0,.81543.1416l-.23437,4.11133H51.62389l-.58594-2.73438a2.10659,2.10659,0,0,0-.2002-.21,1.087,1.087,0,0,0-.28808-.18066,2.05672,2.05672,0,0,0-.42969-.127,3.4785,3.4785,0,0,0-.63477-.04882,3.17092,3.17092,0,0,0-1.47949.34668,3.13369,3.13369,0,0,0-1.15234,1.06445,5.55884,5.55884,0,0,0-.74707,1.8164,11.31669,11.31669,0,0,0-.26367,2.61231,13.67891,13.67891,0,0,0,.21484,2.46582,7.9691,7.9691,0,0,0,.64941,2.07031,4.0875,4.0875,0,0,0,1.09375,1.42578,2.38552,2.38552,0,0,0,1.54785.53223,4.99852,4.99852,0,0,0,.791-.05371,2.84251,2.84251,0,0,0,.56152-.1416,1.72662,1.72662,0,0,0,.38086-.19532,1.19624,1.19624,0,0,0,.23926-.21484l.86914-2.28516,1.96289.04883-.11719,3.54492a4.53173,4.53173,0,0,0-.8789.15137q-.44971.123-1.02539.26367-.57716.1421-1.32324.249A12.47254,12.47254,0,0,1,49.04576,698.31665Z"/><path d="M80.55406,104.74829h-66a2.50263,2.50263,0,0,1-2.5-2.5v-16.5a2.50263,2.50263,0,0,1,2.5-2.5h66a2.50263,2.50263,0,0,1,2.5,2.5v16.5A2.50263,2.50263,0,0,1,80.55406,104.74829Zm-66-20.5a1.50164,1.50164,0,0,0-1.5,1.5v16.5a1.50164,1.50164,0,0,0,1.5,1.5h66a1.50164,1.50164,0,0,0,1.5-1.5v-16.5a1.50164,1.50164,0,0,0-1.5-1.5Z"/><path d="M165.55406,104.74829h-66a2.50263,2.50263,0,0,1-2.5-2.5v-16.5a2.50263,2.50263,0,0,1,2.5-2.5h66a2.50263,2.50263,0,0,1,2.5,2.5v16.5A2.50263,2.50263,0,0,1,165.55406,104.74829Zm-66-20.5a1.50164,1.50164,0,0,0-1.5,1.5v16.5a1.50164,1.50164,0,0,0,1.5,1.5h66a1.50164,1.50164,0,0,0,1.5-1.5v-16.5a1.50164,1.50164,0,0,0-1.5-1.5Z"/><rect class="b" x="97.5542" y="116.43768" width="70" height="70"/><path d="M114.36607,157.98266q.4673-.86426,1.14649-2.25878.67968-1.39454,1.46582-3.06543.78516-1.67139,1.61426-3.49121.82762-1.81935,1.60742-3.53223.77783-1.71387,1.43652-3.19336.65918-1.4795,1.09766-2.4707h.60937l4.2334,2.08105-6.99512,12.63086-1.72754,2.69043,5.76368-.38184.18359-4.50293,4.27637-.29785v4.50293l3.45508-.24023V160.092H129.078v5.32422h-4.48828V160.092h-8.86426Z"/><path d="M138.28209,164.96313l-.96289-1.85449a10.11653,10.11653,0,0,0,2.71875-1.2041,10.57211,10.57211,0,0,0,2.16015-1.81934,11.35759,11.35759,0,0,0,1.60645-2.29394,14.28655,14.28655,0,0,0,1.07617-2.62695,6.14876,6.14876,0,0,1-.67187.49609,4.65511,4.65511,0,0,1-.86426.4248,6.49062,6.49062,0,0,1-1.09766.29688,7.39471,7.39471,0,0,1-1.35937.11328,6.8298,6.8298,0,0,1-2.59082-.48828,6.13083,6.13083,0,0,1-2.08887-1.3877,6.49879,6.49879,0,0,1-1.39453-2.17382,7.64208,7.64208,0,0,1-.50977-2.86036,8.99578,8.99578,0,0,1,.50977-3.04394,7.2784,7.2784,0,0,1,1.51465-2.52051,7.17119,7.17119,0,0,1,2.5-1.72754,8.7586,8.7586,0,0,1,3.46191-.63769,8.96787,8.96787,0,0,1,3.582.666,6.87679,6.87679,0,0,1,2.57031,1.876,8.14045,8.14045,0,0,1,1.55079,2.917,12.894,12.894,0,0,1,.52343,3.78809,13.24345,13.24345,0,0,1-.49511,3.63867,14.55954,14.55954,0,0,1-1.35938,3.25,15.11147,15.11147,0,0,1-4.55957,4.9414,13.87934,13.87934,0,0,1-2.84668,1.501A11.56782,11.56782,0,0,1,138.28209,164.96313Zm3.65332-11.14355a5.65012,5.65012,0,0,0,1.16113-.11328,5.85981,5.85981,0,0,0,.97754-.291,4.02658,4.02658,0,0,0,.77832-.41015,4.15349,4.15349,0,0,0,.58106-.47461c.03711-.33008.06836-.66016.09179-.99121q.03516-.49512.03516-.99122a20.08869,20.08869,0,0,0-.16211-2.91015,7.59118,7.59118,0,0,0-.58106-2.1377,3.17119,3.17119,0,0,0-1.04785-1.31738,2.65982,2.65982,0,0,0-1.55078-.44531,2.09467,2.09467,0,0,0-1.29492.43164,3.77649,3.77649,0,0,0-.97754,1.11816,5.98587,5.98587,0,0,0-.623,1.53711,6.70726,6.70726,0,0,0-.21972,1.68457,11.863,11.863,0,0,0,.20605,2.37207,5.55028,5.55028,0,0,0,.58008,1.64942,2.65918,2.65918,0,0,0,.89258.96972A2.147,2.147,0,0,0,141.93541,153.81958Z"/><rect class="b" x="97.5542" y="193.43768" width="70" height="70"/><path d="M117.326,238.45141a5.65934,5.65934,0,0,0,.68653.17676q.38964.07911.82129.13477.43212.05712.88476.085c.30274.01953.59961.02832.89258.02832a7.24964,7.24964,0,0,0,2.209-.31152,4.84252,4.84252,0,0,0,1.65625-.87793,3.8138,3.8138,0,0,0,1.041-1.35254,4.109,4.109,0,0,0,.36133-1.73438,3.90456,3.90456,0,0,0-.17774-1.126,3.07325,3.07325,0,0,0-.58691-1.083,3.45422,3.45422,0,0,0-1.07617-.84278,4.063,4.063,0,0,0-1.64258-.40332l-1.91211.31153-.84961-2.23731a6.5909,6.5909,0,0,0,1.26074-.30468q.63721-.21827,1.16114-.417a6.29331,6.29331,0,0,0,1.45117-.793,4.65088,4.65088,0,0,0,.98437-.98437,3.71351,3.71351,0,0,0,.5586-1.13281,4.36577,4.36577,0,0,0,.17773-1.23926,2.78365,2.78365,0,0,0-.21973-1.16113,2.16863,2.16863,0,0,0-.58789-.78614,2.3884,2.3884,0,0,0-.82812-.44531,3.21859,3.21859,0,0,0-.95606-.1416,6.827,6.827,0,0,0-2.34375.36035,7.66375,7.66375,0,0,0-1.86132.999l-1.17579-2.0957a6.14209,6.14209,0,0,1,1.01954-.7793,10.45586,10.45586,0,0,1,1.53613-.793,12.23462,12.23462,0,0,1,1.91211-.61622,9.23825,9.23825,0,0,1,2.14551-.24707,10.14271,10.14271,0,0,1,2.5205.29688,5.79875,5.79875,0,0,1,2.00293.91309,4.4004,4.4004,0,0,1,1.32422,1.5371,4.63851,4.63851,0,0,1,.48145,2.18067,5.96938,5.96938,0,0,1-1.2461,3.85156,8.70577,8.70577,0,0,1-3.61035,2.52051,7.44494,7.44494,0,0,1,2.541.29,5.17816,5.17816,0,0,1,1.834.97656,4.10947,4.10947,0,0,1,1.11133,1.48731,4.473,4.473,0,0,1,.376,1.81933,6.5272,6.5272,0,0,1-.62305,2.83887,6.20606,6.20606,0,0,1-1.88379,2.27344,9.56819,9.56819,0,0,1-3.13672,1.51464,15.57391,15.57391,0,0,1-4.38183.55274q-.49659,0-1.041-.043-.54492-.04248-1.0625-.12012-.51562-.07762-.96973-.18457a7.82915,7.82915,0,0,1-.77832-.21875Z"/><path d="M133.48228,235.15259a30.11989,30.11989,0,0,0,3.54786-2.35059,19.96551,19.96551,0,0,0,2.76074-2.55664,11.47261,11.47261,0,0,0,1.791-2.6543,6.18393,6.18393,0,0,0,.6377-2.66211,3.13051,3.13051,0,0,0-.21289-1.16113,2.59784,2.59784,0,0,0-.61524-.92773,2.9447,2.9447,0,0,0-.98437-.61621,3.6178,3.6178,0,0,0-1.31738-.22657,5.15974,5.15974,0,0,0-1.42286.18457,6.74944,6.74944,0,0,0-1.168.44532,6.33545,6.33545,0,0,0-.93457.5664q-.41163.30469-.72266.5459l-1.23145-1.89746a5.375,5.375,0,0,1,1.11817-1.10449,9.34367,9.34367,0,0,1,1.71386-1.02735,12.04812,12.04812,0,0,1,2.13086-.75683,9.52346,9.52346,0,0,1,2.38575-.29785,8.56073,8.56073,0,0,1,2.81836.41113,5.50194,5.50194,0,0,1,1.93261,1.10449,4.31355,4.31355,0,0,1,1.11914,1.60645,5.22393,5.22393,0,0,1,.36036,1.93359,6.15181,6.15181,0,0,1-.72852,2.85254,12.20487,12.20487,0,0,1-1.97559,2.7334,22.26336,22.26336,0,0,1-2.88183,2.54883,35.68125,35.68125,0,0,1-3.46192,2.28711l7.68848-.86426,1.11914-2.02442,2.166.42481-.835,5.42285h-14.0752Z"/><rect class="b" x="97.5542" y="347.43768" width="70" height="70"/><path d="M117.38951,393.54224c.27344.01855.54981.0332.82813.042q.41748.01464.81445.01465a7.81413,7.81413,0,0,0,2.67578-.44629,6.87966,6.87966,0,0,0,2.13867-1.21778,5.5821,5.5821,0,0,0,1.416-1.81933,5.08165,5.08165,0,0,0,.50976-2.252,3.32539,3.32539,0,0,0-3.68164-3.82324,8.60479,8.60479,0,0,0-1.01269.06348c-.3545.043-.69825.09961-1.03418.16992q-.50244.10693-.96289.24121a7.73061,7.73061,0,0,0-.79981.27637l-1.10449-.80762,1.3877-11.03027h9.459l.29785-.55274h2.08106l-.72168,4.70118h-8.1709l-.835,4.87109a13.52946,13.52946,0,0,1,2.0957-.6084,9.99458,9.99458,0,0,1,1.98242-.21289,6.64469,6.64469,0,0,1,4.81445,1.60742,6.34738,6.34738,0,0,1,1.65625,4.76465,6.76426,6.76426,0,0,1-.94824,3.51172,8.99538,8.99538,0,0,1-2.57031,2.75391,12.78475,12.78475,0,0,1-3.7666,1.79882,15.69491,15.69491,0,0,1-4.53809.64453q-.48194,0-1.00586-.043a7.24516,7.24516,0,0,1-1.01953-.15528Z"/><path d="M135.245,393.54224c.27441.01855.5498.0332.8291.042q.41748.01464.81348.01465a7.81979,7.81979,0,0,0,2.67676-.44629,6.86364,6.86364,0,0,0,2.13769-1.21778,5.56909,5.56909,0,0,0,1.416-1.81933,5.08165,5.08165,0,0,0,.50976-2.252,3.32435,3.32435,0,0,0-3.68164-3.82324,8.60184,8.60184,0,0,0-1.01172.06348q-.53173.06445-1.03418.16992-.50244.10693-.96289.24121a7.73037,7.73037,0,0,0-.7998.27637l-1.10449-.80762,1.38769-11.03027h9.459l.29688-.55274h2.082l-.72266,4.70118h-8.16992l-.83593,4.87109a13.59194,13.59194,0,0,1,2.0957-.6084,10.00218,10.00218,0,0,1,1.98242-.21289,6.64311,6.64311,0,0,1,4.81445,1.60742,6.34773,6.34773,0,0,1,1.65723,4.76465,6.75594,6.75594,0,0,1-.94922,3.51172,8.992,8.992,0,0,1-2.56933,2.75391,12.78493,12.78493,0,0,1-3.76661,1.79882,15.6967,15.6967,0,0,1-4.53906.64453c-.32031,0-.65625-.01464-1.00488-.043a7.20172,7.20172,0,0,1-1.01953-.15528Z"/><rect class="b" x="97.5542" y="424.43768" width="70" height="70"/><path d="M118.69224,466.15259a30.10581,30.10581,0,0,0,3.54688-2.35059,19.90893,19.90893,0,0,0,2.76074-2.55664,11.47819,11.47819,0,0,0,1.792-2.6543,6.18232,6.18232,0,0,0,.63672-2.66211,3.1301,3.1301,0,0,0-.21191-1.16113,2.60031,2.60031,0,0,0-.61621-.92773,2.935,2.935,0,0,0-.98438-.61621,3.61241,3.61241,0,0,0-1.3164-.22657,5.16191,5.16191,0,0,0-1.42383.18457,6.81105,6.81105,0,0,0-1.168.44532,6.43961,6.43961,0,0,0-.93457.5664q-.41016.30469-.72168.5459L118.8192,452.842a5.35826,5.35826,0,0,1,1.11914-1.10449,9.301,9.301,0,0,1,1.71289-1.02735,12.07585,12.07585,0,0,1,2.13086-.75683,9.53106,9.53106,0,0,1,2.38672-.29785,8.55456,8.55456,0,0,1,2.81738.41113,5.49329,5.49329,0,0,1,1.93262,1.10449,4.30242,4.30242,0,0,1,1.11914,1.60645,5.22483,5.22483,0,0,1,.36133,1.93359,6.14129,6.14129,0,0,1-.7295,2.85254,12.174,12.174,0,0,1-1.97558,2.7334,22.19922,22.19922,0,0,1-2.88184,2.54883,35.68109,35.68109,0,0,1-3.46191,2.28711l7.68945-.86426,1.11817-2.02442,2.167.42481-.83594,5.42285h-14.0752Z"/><path d="M136.576,468.092v-1.91113l3.07325-.39649v-11.1582c-.16993.03711-.39161.085-.666.1416-.27344.05664-.55957.1084-.85644.15527-.29786.04786-.5879.08985-.8711.12793-.2832.03711-.51855.06153-.708.07032l-.36816-2.46387a10.52312,10.52312,0,0,0,1.69922-.49512,14.18346,14.18346,0,0,0,1.6289-.74414,16.41,16.41,0,0,0,1.458-.87793,14.9729,14.9729,0,0,0,1.2041-.89844h.01368l2.56347.43848v15.7041l2.917.39649V468.092Z"/><rect class="b" x="97.5542" y="578.43768" width="70" height="70"/><path d="M123.69029,622.40356a8.40928,8.40928,0,0,1-3.56836-.71484,7.29492,7.29492,0,0,1-2.584-1.96875,8.57124,8.57124,0,0,1-1.57129-2.9375,12.03822,12.03822,0,0,1-.53125-3.63965,12.815,12.815,0,0,1,.50976-3.63183,14.42419,14.42419,0,0,1,1.39454-3.24317,14.72257,14.72257,0,0,1,2.08886-2.76074,15.74949,15.74949,0,0,1,2.584-2.18067,14.31687,14.31687,0,0,1,2.88183-1.501,11.79515,11.79515,0,0,1,2.98731-.72949l.96289,1.86914a10.77839,10.77839,0,0,0-5.06934,3.08691,11.62429,11.62429,0,0,0-1.6709,2.34375,13.80852,13.80852,0,0,0-1.10449,2.68359,6.55955,6.55955,0,0,1,.7793-.55273,5.90154,5.90154,0,0,1,1.00488-.48145,7.35224,7.35224,0,0,1,1.27442-.33984,8.82267,8.82267,0,0,1,1.55761-.127,6.67239,6.67239,0,0,1,2.5.44531,5.10988,5.10988,0,0,1,1.88965,1.2959,5.86868,5.86868,0,0,1,1.2041,2.07422,8.4708,8.4708,0,0,1,.42481,2.7832,9.618,9.618,0,0,1-.50293,3.10059,7.66,7.66,0,0,1-1.501,2.62695,7.26531,7.26531,0,0,1-2.48535,1.81934A8.23467,8.23467,0,0,1,123.69029,622.40356Zm.32617-12.14941a5.55614,5.55614,0,0,0-1.24609.12793,4.68317,4.68317,0,0,0-.99121.33984,3.99851,3.99851,0,0,0-.75781.4668,4.4144,4.4144,0,0,0-.54493.50977,14.48742,14.48742,0,0,0-.085,1.57226,19.319,19.319,0,0,0,.17676,2.94531,8.43832,8.43832,0,0,0,.60156,2.21582,3.52941,3.52941,0,0,0,1.05567,1.40137,2.46475,2.46475,0,0,0,1.53613.48926,2.04357,2.04357,0,0,0,1.28809-.43945,3.76039,3.76039,0,0,0,.96289-1.13282,6.01375,6.01375,0,0,0,.60937-1.55078,7.06068,7.06068,0,0,0,.21192-1.70605,7.88234,7.88234,0,0,0-.77149-3.96485A2.31956,2.31956,0,0,0,124.01646,610.25415Z"/><path d="M141.80162,622.38989a7.01174,7.01174,0,0,1-5.64258-2.27344q-1.97607-2.28661-1.97558-6.77539a12.13619,12.13619,0,0,1,.708-4.30468,8.194,8.194,0,0,1,1.86914-2.95215,7.30352,7.30352,0,0,1,2.71875-1.69922,9.66259,9.66259,0,0,1,3.24219-.54492,7.08277,7.08277,0,0,1,5.62891,2.22265q1.94678,2.22363,1.94726,6.74024a12.217,12.217,0,0,1-.68652,4.31933,8.364,8.364,0,0,1-1.84863,2.98047,7.2589,7.2589,0,0,1-2.7041,1.72754A9.485,9.485,0,0,1,141.80162,622.38989Zm.50977-2.02539a1.89885,1.89885,0,0,0,1.24609-.418,2.9145,2.9145,0,0,0,.82812-1.28808,9.39458,9.39458,0,0,0,.46-2.21582,31.03619,31.03619,0,0,0,.1416-3.2002q0-2.09619-.13379-3.51172a9.22211,9.22211,0,0,0-.45313-2.27344,2.47954,2.47954,0,0,0-.84277-1.21777,2.2722,2.2722,0,0,0-1.31738-.36035,1.95421,1.95421,0,0,0-1.25293.41016,2.93025,2.93025,0,0,0-.84961,1.26757,9.0523,9.0523,0,0,0-.48828,2.1875,27.47631,27.47631,0,0,0-.15625,3.15821,34.39664,34.39664,0,0,0,.14941,3.5039,9.45194,9.45194,0,0,0,.48145,2.3086,2.63985,2.63985,0,0,0,.87011,1.26757A2.217,2.217,0,0,0,142.31139,620.3645Z"/><rect class="b" x="97.5542" y="655.43768" width="70" height="70"/><path d="M114.88267,696.98266q.46729-.86426,1.14747-2.25878.67968-1.39454,1.46582-3.06543.78515-1.67139,1.61425-3.49121.82764-1.81935,1.60645-3.53223.77929-1.71387,1.4375-3.19336.65917-1.47949,1.09766-2.4707h.60839l4.23438,2.08105-6.99512,12.63086-1.72754,2.69043,5.7627-.38184.18457-4.50293,4.27637-.29785v4.50293l3.45507-.24023V699.092h-3.45507v5.32422h-4.48926V699.092h-8.86426Z"/><path d="M135.911,701.54224c.27344.01855.54981.0332.82813.042q.41748.01464.81445.01465a7.81408,7.81408,0,0,0,2.67578-.44629,6.87983,6.87983,0,0,0,2.13868-1.21778,5.58207,5.58207,0,0,0,1.416-1.81933,5.08152,5.08152,0,0,0,.50977-2.252,3.32539,3.32539,0,0,0-3.68164-3.82324,8.60508,8.60508,0,0,0-1.0127.06348c-.35449.043-.69824.09961-1.03418.16992q-.50244.10694-.96289.24121a7.73037,7.73037,0,0,0-.7998.27637l-1.1045-.80762,1.3877-11.03027h9.459l.29786-.55274h2.08105l-.72168,4.70118h-8.1709l-.835,4.87109a13.52978,13.52978,0,0,1,2.0957-.6084,9.99475,9.99475,0,0,1,1.98243-.21289,6.64469,6.64469,0,0,1,4.81445,1.60742,6.34742,6.34742,0,0,1,1.65625,4.76465,6.76436,6.76436,0,0,1-.94824,3.51172,8.99542,8.99542,0,0,1-2.57032,2.75391,12.78475,12.78475,0,0,1-3.7666,1.79882,15.69484,15.69484,0,0,1-4.53808.64453q-.48194,0-1.00586-.043a7.24471,7.24471,0,0,1-1.01953-.15528Z"/><circle class="a" cx="47.86646" cy="305.43768" r="35"/><path d="M40.452,313.092l-.00977-1.47461,1.25-.26367,4.58008-13.1543H49.8856L54.51451,311.344l1.42578.27344V313.092H49.05553v-1.47461l1.60156-.26367-.63477-2.14844H44.97349l-.58593,2.14844,1.60156.26367V313.092Zm6.66016-11.76758-1.68946,6.20117h4.0918l-1.8457-6.20117-.30274-1.34765Z"/><rect class="b" x="97.5542" y="270.43768" width="70" height="70"/><path d="M116.23521,315.45141a5.65934,5.65934,0,0,0,.68653.17676q.38964.07911.82129.13477.43212.05712.88476.085c.30274.01953.59961.02832.89258.02832a7.24964,7.24964,0,0,0,2.209-.31152,4.84252,4.84252,0,0,0,1.65625-.87793,3.8138,3.8138,0,0,0,1.041-1.35254,4.109,4.109,0,0,0,.36133-1.73438,3.90456,3.90456,0,0,0-.17774-1.126,3.07325,3.07325,0,0,0-.58691-1.083,3.45422,3.45422,0,0,0-1.07617-.84278,4.063,4.063,0,0,0-1.64258-.40332l-1.91211.31153-.84961-2.23731a6.5909,6.5909,0,0,0,1.26074-.30468q.63722-.21826,1.16114-.417a6.29331,6.29331,0,0,0,1.45117-.793,4.65112,4.65112,0,0,0,.98437-.98437,3.71351,3.71351,0,0,0,.5586-1.13281,4.36577,4.36577,0,0,0,.17773-1.23926,2.78365,2.78365,0,0,0-.21973-1.16113,2.16863,2.16863,0,0,0-.58789-.78614,2.3884,2.3884,0,0,0-.82812-.44531,3.21859,3.21859,0,0,0-.95606-.1416,6.827,6.827,0,0,0-2.34375.36035,7.66375,7.66375,0,0,0-1.86132.999l-1.17579-2.0957a6.14209,6.14209,0,0,1,1.01954-.7793,10.45586,10.45586,0,0,1,1.53613-.793,12.23462,12.23462,0,0,1,1.91211-.61622,9.23825,9.23825,0,0,1,2.14551-.24707,10.14271,10.14271,0,0,1,2.5205.29688,5.79875,5.79875,0,0,1,2.00293.91309,4.4004,4.4004,0,0,1,1.32422,1.5371,4.63851,4.63851,0,0,1,.48145,2.18067,5.96938,5.96938,0,0,1-1.2461,3.85156,8.70577,8.70577,0,0,1-3.61035,2.52051,7.44494,7.44494,0,0,1,2.541.29,5.17816,5.17816,0,0,1,1.834.97656,4.10947,4.10947,0,0,1,1.11133,1.48731,4.473,4.473,0,0,1,.376,1.81933,6.5272,6.5272,0,0,1-.623,2.83887,6.20606,6.20606,0,0,1-1.88379,2.27344,9.56819,9.56819,0,0,1-3.13672,1.51464,15.57391,15.57391,0,0,1-4.38183.55274q-.49659,0-1.041-.043-.54492-.04248-1.0625-.12012-.51562-.07763-.96973-.18457a7.82915,7.82915,0,0,1-.77832-.21875Z"/><path d="M133.05748,308.64087a5.17623,5.17623,0,0,1,.99121-3.03809,7.34947,7.34947,0,0,1,3.12891-2.35742,11.2888,11.2888,0,0,1-1.22461-1.04785,6.515,6.515,0,0,1-.99805-1.26758,6.42661,6.42661,0,0,1-.67285-1.55762,6.8398,6.8398,0,0,1-.24805-1.90429,4.70326,4.70326,0,0,1,.62305-2.44922,5.56191,5.56191,0,0,1,1.63574-1.749,7.37186,7.37186,0,0,1,2.29395-1.04785,9.95,9.95,0,0,1,2.6123-.34668,11.83617,11.83617,0,0,1,3.13672.36035,6.01706,6.01706,0,0,1,2.11719,1.00586,3.84716,3.84716,0,0,1,1.19629,1.52246,4.77836,4.77836,0,0,1,.375,1.89747,5.89338,5.89338,0,0,1-.72852,2.8457,6.61566,6.61566,0,0,1-2.415,2.39355,19.68715,19.68715,0,0,1,1.73535,1.09668,8.39641,8.39641,0,0,1,1.46485,1.31739,5.89135,5.89135,0,0,1,1.01269,1.63574,5.28394,5.28394,0,0,1,.375,2.03906,5.548,5.548,0,0,1-.62988,2.66211,5.819,5.819,0,0,1-1.7627,1.98926,8.40322,8.40322,0,0,1-2.71191,1.24609,13.87206,13.87206,0,0,1-6.35742.12012,7.98391,7.98391,0,0,1-2.50684-.99121,5.4033,5.4033,0,0,1-1.76953-1.7627A4.84933,4.84933,0,0,1,133.05748,308.64087Zm11.38476.73633a2.733,2.733,0,0,0-.48144-1.60743,5.50961,5.50961,0,0,0-1.26074-1.26074,13.23306,13.23306,0,0,0-1.7627-1.083q-.98437-.50976-2.0039-1.07617a4.72834,4.72834,0,0,0-1.168,1.5293,4.58673,4.58673,0,0,0-.43164,2.02539,7.59624,7.59624,0,0,0,.20507,1.8125,3.90453,3.90453,0,0,0,.65821,1.43652,3.08153,3.08153,0,0,0,1.18261.94239,4.15183,4.15183,0,0,0,1.7627.33984,3.96739,3.96739,0,0,0,1.21777-.19141,3.15255,3.15255,0,0,0,1.05567-.57324,2.89887,2.89887,0,0,0,.74316-.95605A2.99211,2.99211,0,0,0,144.44224,309.3772Zm-6.07519-13.042a2.69356,2.69356,0,0,0,.376,1.40918,4.71122,4.71122,0,0,0,1.00488,1.168,9.31843,9.31843,0,0,0,1.45117,1.00586q.82177.46729,1.72754.93457a4.67625,4.67625,0,0,0,1.03418-1.5791,4.81458,4.81458,0,0,0,.33984-1.76269,4.3574,4.3574,0,0,0-.82129-2.84668,2.89929,2.89929,0,0,0-2.36523-.99122,3.34323,3.34323,0,0,0-1.04785.16309,2.52241,2.52241,0,0,0-.87793.49512,2.3378,2.3378,0,0,0-.60156.8291A2.87929,2.87929,0,0,0,138.36705,296.3352Z"/><circle class="a" cx="47.86646" cy="767.43768" r="35"/><path d="M49.04576,775.31665a8.12168,8.12168,0,0,1-3.0957-.54688,6.02307,6.02307,0,0,1-2.23633-1.543,6.53734,6.53734,0,0,1-1.35254-2.38282,9.7756,9.7756,0,0,1-.4541-3.05664,8.1561,8.1561,0,0,1,.60058-3.19336,7.15423,7.15423,0,0,1,1.65528-2.43164,7.27844,7.27844,0,0,1,2.50488-1.54785,8.92629,8.92629,0,0,1,3.14941-.542,10.61158,10.61158,0,0,1,1.35743.083q.63428.08349,1.18164.19043.54639.10839,1.001.21a7.15674,7.15674,0,0,0,.81543.1416l-.23437,4.11133H51.62389l-.58594-2.73438a2.10659,2.10659,0,0,0-.2002-.21,1.087,1.087,0,0,0-.28808-.18066,2.05672,2.05672,0,0,0-.42969-.127,3.4785,3.4785,0,0,0-.63477-.04882,3.17092,3.17092,0,0,0-1.47949.34668,3.13369,3.13369,0,0,0-1.15234,1.06445,5.55884,5.55884,0,0,0-.74707,1.8164,11.31669,11.31669,0,0,0-.26367,2.61231,13.67891,13.67891,0,0,0,.21484,2.46582,7.9691,7.9691,0,0,0,.64941,2.07031,4.0875,4.0875,0,0,0,1.09375,1.42578,2.38552,2.38552,0,0,0,1.54785.53223,4.99852,4.99852,0,0,0,.791-.05371,2.84251,2.84251,0,0,0,.56152-.1416,1.72662,1.72662,0,0,0,.38086-.19532,1.19624,1.19624,0,0,0,.23926-.21484l.86914-2.28516,1.96289.04883-.11719,3.54492a4.53173,4.53173,0,0,0-.8789.15137q-.44971.123-1.02539.26367-.57716.1421-1.32324.249A12.47254,12.47254,0,0,1,49.04576,775.31665Z"/><rect class="b" x="97.5542" y="732.43768" width="70" height="70"/><path d="M115.08873,773.98266q.46728-.86426,1.14648-2.25878.6797-1.39454,1.46582-3.06543.78516-1.67139,1.61426-3.49121.82764-1.81935,1.60742-3.53223.77784-1.71387,1.43653-3.19336.65917-1.47949,1.09765-2.4707h.60938l4.2334,2.08105-6.99512,12.63086-1.72754,2.69043,5.76367-.38184.1836-4.50293,4.27636-.29785v4.50293l3.45508-.24023V776.092h-3.45508v5.32422h-4.48828V776.092H116.4481Z"/><path d="M134.70006,774.15259a30.12057,30.12057,0,0,0,3.54785-2.35059,19.96493,19.96493,0,0,0,2.76074-2.55664,11.473,11.473,0,0,0,1.791-2.6543,6.18406,6.18406,0,0,0,.63769-2.66211,3.13051,3.13051,0,0,0-.21289-1.16113,2.598,2.598,0,0,0-.61523-.92773,2.94475,2.94475,0,0,0-.98438-.61621,3.61776,3.61776,0,0,0-1.31738-.22657,5.15967,5.15967,0,0,0-1.42285.18457,6.74924,6.74924,0,0,0-1.168.44532,6.336,6.336,0,0,0-.93457.5664q-.41163.3047-.72266.5459L134.828,760.842a5.375,5.375,0,0,1,1.11816-1.10449A9.34343,9.34343,0,0,1,137.66,758.7102a12.04812,12.04812,0,0,1,2.13086-.75683,9.52332,9.52332,0,0,1,2.38574-.29785,8.56073,8.56073,0,0,1,2.81836.41113,5.50208,5.50208,0,0,1,1.93262,1.10449,4.31367,4.31367,0,0,1,1.11914,1.60645,5.22413,5.22413,0,0,1,.36035,1.93359,6.15181,6.15181,0,0,1-.72852,2.85254,12.20482,12.20482,0,0,1-1.97558,2.7334,22.26414,22.26414,0,0,1-2.88184,2.54883,35.68109,35.68109,0,0,1-3.46191,2.28711l7.68847-.86426,1.11914-2.02442,2.166.42481-.835,5.42285h-14.0752Z"/><circle class="a" cx="47.86646" cy="536.43768" r="35"/><path d="M41.702,544.092v-1.47461l1.582-.27344V530.97681l-1.57226-.3125v-1.43555H44.993c.34472,0,.65234-.00586.92285-.01953q.40429-.019.7666-.03907.36035-.019.71777-.03906.356-.019.7666-.01953a14.22559,14.22559,0,0,1,2.48536.19043,5.4237,5.4237,0,0,1,1.75781.5957,2.67316,2.67316,0,0,1,1.04,1.04,3.20054,3.20054,0,0,1,.34179,1.53321,4.16186,4.16186,0,0,1-.26367,1.543,3.29909,3.29909,0,0,1-.71289,1.11817,3.431,3.431,0,0,1-1.0498.72266,4.52234,4.52234,0,0,1-1.27442.35644,6.42,6.42,0,0,1,1.65528.26856,4.69723,4.69723,0,0,1,1.38672.67382,3.29564,3.29564,0,0,1,.95214,1.05957,2.83872,2.83872,0,0,1,.35157,1.416,5.36652,5.36652,0,0,1-.27832,1.71875,3.44352,3.44352,0,0,1-.97657,1.46484,5.06748,5.06748,0,0,1-1.87988,1.01563,9.90446,9.90446,0,0,1-2.98828.38086c-.27344,0-.53906-.00586-.7959-.01953q-.38672-.019-.82031-.03907-.43506-.019-.94238-.03906-.5083-.019-1.16211-.01953Zm5.08789-13.48633v5.00977a1.67851,1.67851,0,0,0,.32227.03906c.13672.00684.28125.01367.43457.01953.15234.00684.30371.00977.4541.00977h.38086a2.09924,2.09924,0,0,0,.93262-.18067,1.42654,1.42654,0,0,0,.58593-.52734,2.32291,2.32291,0,0,0,.30762-.85938,7.09253,7.09253,0,0,0,.08789-1.18652,4.211,4.211,0,0,0-.12207-1.0791,1.75144,1.75144,0,0,0-.40039-.75195,1.65675,1.65675,0,0,0-.73242-.43946,3.786,3.786,0,0,0-1.1084-.1416c-.085,0-.18457.00391-.29785.00977-.11426.00683-.22656.01367-.33692.01953-.11132.00683-.21191.01465-.30273.02441A1.326,1.326,0,0,0,46.7899,530.60571Zm0,6.51367v5.46875a1.01367,1.01367,0,0,0,.23438.07325c.10351.02343.21777.043.34179.05859.123.0166.25391.02832.39063.03418.13672.00684.2666.00976.39062.00976a4.28018,4.28018,0,0,0,1.38184-.19531,2.3527,2.3527,0,0,0,.93262-.56152,2.22948,2.22948,0,0,0,.53222-.9082,4.08886,4.08886,0,0,0,.1709-1.22559,4.55781,4.55781,0,0,0-.16113-1.30371,1.86947,1.86947,0,0,0-1.36719-1.34277,4.695,4.695,0,0,0-1.25488-.14649h-.376c-.16015,0-.32226.00195-.48828.00488q-.249.00587-.4541.01465C46.92662,537.10669,46.83482,537.11352,46.7899,537.11938Z"/><rect class="b" x="97.5542" y="501.43768" width="70" height="70"/><path d="M115.43541,542.98266q.46728-.86426,1.14648-2.25878.67969-1.39454,1.46582-3.06543.78516-1.67139,1.61426-3.49121.82764-1.81935,1.60742-3.53223.77784-1.71387,1.43653-3.19336.65917-1.47949,1.09765-2.4707h.60938l4.2334,2.08105-6.99512,12.63086-1.72754,2.69043,5.76367-.38184.1836-4.50293,4.27636-.29785v4.50293l3.45508-.24023V545.092h-3.45508v5.32422H125.659V545.092h-8.86426Z"/><path d="M135.64146,546.45141a5.67853,5.67853,0,0,0,.6875.17676c.25879.05274.53321.09766.82129.13477q.43067.05712.88477.085c.30176.01953.59961.02832.8916.02832a7.24964,7.24964,0,0,0,2.209-.31152,4.84741,4.84741,0,0,0,1.65723-.87793,3.8138,3.8138,0,0,0,1.041-1.35254,4.10861,4.10861,0,0,0,.36035-1.73438,3.90234,3.90234,0,0,0-.17676-1.126,3.076,3.076,0,0,0-.58789-1.083,3.43187,3.43187,0,0,0-1.07617-.84278,4.05879,4.05879,0,0,0-1.64258-.40332l-1.91113.31153-.84961-2.23731a6.59927,6.59927,0,0,0,1.25976-.30468q.63721-.21826,1.16114-.417a6.30087,6.30087,0,0,0,1.45214-.793,4.6683,4.6683,0,0,0,.9834-.98437,3.73858,3.73858,0,0,0,.55957-1.13281,4.36464,4.36464,0,0,0,.17676-1.23926,2.79972,2.79972,0,0,0-.21875-1.16113,2.1797,2.1797,0,0,0-.58789-.78614,2.39716,2.39716,0,0,0-.82812-.44531,3.22808,3.22808,0,0,0-.95606-.1416,6.827,6.827,0,0,0-2.34375.36035,7.6696,7.6696,0,0,0-1.8623.999l-1.17481-2.0957a6.06,6.06,0,0,1,1.01953-.7793,10.40719,10.40719,0,0,1,1.53614-.793,12.23483,12.23483,0,0,1,1.9121-.61622,9.23,9.23,0,0,1,2.14454-.24707,10.1371,10.1371,0,0,1,2.5205.29688,5.79543,5.79543,0,0,1,2.00391.91309,4.42062,4.42062,0,0,1,1.32422,1.5371,4.65038,4.65038,0,0,1,.48144,2.18067,5.97491,5.97491,0,0,1-1.24609,3.85156,8.70944,8.70944,0,0,1-3.61133,2.52051,7.45071,7.45071,0,0,1,2.542.29,5.19514,5.19514,0,0,1,1.834.97656,4.12061,4.12061,0,0,1,1.11133,1.48731,4.48841,4.48841,0,0,1,.375,1.81933,6.51329,6.51329,0,0,1-.623,2.83887,6.20317,6.20317,0,0,1-1.88281,2.27344,9.57782,9.57782,0,0,1-3.13672,1.51464,15.586,15.586,0,0,1-4.38281.55274q-.49512,0-1.04-.043-.54639-.04248-1.0625-.12012-.51709-.07763-.96973-.18457a7.855,7.855,0,0,1-.7793-.21875Z"/><path d="M352.702,46.32837a11.14173,11.14173,0,0,1-1.80957-.1377q-.83643-.13915-1.49707-.30761-.66212-.16993-1.13867-.31348a3.82147,3.82147,0,0,0-.73291-.16406l.17431-3.94727h2.07129l.46143,2.55274a1.86594,1.86594,0,0,0,.30225.25683,2.22012,2.22012,0,0,0,.46679.24121,3.85578,3.85578,0,0,0,.64063.17871,4.17182,4.17182,0,0,0,.80517.07227,3.41351,3.41351,0,0,0,1.15869-.169,2.02479,2.02479,0,0,0,.74317-.45117,1.601,1.601,0,0,0,.40039-.66211,2.6572,2.6572,0,0,0,.11767-.78906,1.855,1.855,0,0,0-.231-.918,2.92633,2.92633,0,0,0-.666-.78906,7.01727,7.01727,0,0,0-1.0664-.73828q-.63135-.36476-1.43067-.76465-.59472-.29736-1.27148-.71192a6.16043,6.16043,0,0,1-1.2461-1.01562,5.29188,5.29188,0,0,1-.94824-1.41016,4.4291,4.4291,0,0,1-.37939-1.89648,3.71514,3.71514,0,0,1,1.36377-2.89649,5.13522,5.13522,0,0,1,1.72754-.92285,7.80781,7.80781,0,0,1,2.4458-.34375,9.68593,9.68593,0,0,1,1.3999.10254q.70166.10254,1.31738.23047.61524.12891,1.08692.24609.47167.11867.70752.15918l-.13331,3.57813h-2.04052l-.3794-2.28613a.91886.91886,0,0,0-.25635-.18457,2.56219,2.56219,0,0,0-.41015-.169,3.44372,3.44372,0,0,0-.50733-.123,3.22813,3.22813,0,0,0-.54882-.04687,3.15924,3.15924,0,0,0-1.01514.14355,1.886,1.886,0,0,0-.67676.37989,1.41088,1.41088,0,0,0-.37451.55371,1.93,1.93,0,0,0-.11768.67676,1.95583,1.95583,0,0,0,.28711,1.05566,3.35586,3.35586,0,0,0,.7793.85156,7.80585,7.80585,0,0,0,1.14844.74317q.65625.35448,1.40478.72265.63574.31788,1.30762.7334a7.25316,7.25316,0,0,1,1.23535.96387,4.72209,4.72209,0,0,1,.92285,1.25586,3.51121,3.51121,0,0,1,.35889,1.61035,5.10589,5.10589,0,0,1-.29736,1.6709,4.15911,4.15911,0,0,1-.99463,1.56933,5.25108,5.25108,0,0,1-1.83545,1.15821A7.72292,7.72292,0,0,1,352.702,46.32837Z"/><path d="M369.744,46.32837a1.515,1.515,0,0,1-1.15332-.37891,1.4281,1.4281,0,0,1-.354-1.01562V44.5852a3.51109,3.51109,0,0,1-.63037.65137,5.2459,5.2459,0,0,1-.84619.55859,4.831,4.831,0,0,1-.97413.38965,3.78741,3.78741,0,0,1-1.02539.14356,5.87725,5.87725,0,0,1-1.76855-.23535,2.71516,2.71516,0,0,1-1.2207-.76368,3.27748,3.27748,0,0,1-.70215-1.36914,7.97785,7.97785,0,0,1-.22559-2.041V36.07446l-.95361-.34863V34.42407l4.06055-.28711h.01025l.47168.28711v7.64942a2.89088,2.89088,0,0,0,.36426,1.666,1.42783,1.42783,0,0,0,1.23535.49707,2.73867,2.73867,0,0,0,.65137-.07129,2.96967,2.96967,0,0,0,.51757-.1748,2.35992,2.35992,0,0,0,.38477-.21485,1.96371,1.96371,0,0,0,.24072-.19531V36.07446l-1.39453-.3789v-1.3125l4.40918-.2461h.02051l.55371.28711V44.5852h1.09717V45.97c-.12989.02734-.29053.06348-.48194.10742s-.40673.084-.646.11817-.49707.06445-.77442.09179Q370.19567,46.32838,369.744,46.32837Z"/><path d="M374.00963,46.093V44.64673l1.27148-.2666V36.81274l-1.36377-.41015V34.67993l3.97852-.543h.05127l.58447.47168v.71777l-.01025.48145a4.34638,4.34638,0,0,1,.84082-.62012,8.05147,8.05147,0,0,1,1.07129-.51758,7.736,7.736,0,0,1,1.16894-.35937,5.23537,5.23537,0,0,1,1.1333-.13281,4.0283,4.0283,0,0,1,1.897.3789,2.38293,2.38293,0,0,1,1.06641,1.24121,4.85575,4.85575,0,0,1,.74316-.54882,7.79286,7.79286,0,0,1,1.01563-.52246,7.45275,7.45275,0,0,1,1.18408-.39551,5.2627,5.2627,0,0,1,1.26123-.15332,4.62026,4.62026,0,0,1,1.584.23535,2.2015,2.2015,0,0,1,1.03613.77441,3.53917,3.53917,0,0,1,.56885,1.40528,10.99065,10.99065,0,0,1,.17431,2.127v5.66016l1.4253.2666V46.093H388.683V44.64673l.98437-.2666V38.82251a7.65025,7.65025,0,0,0-.0874-1.27149,2.2499,2.2499,0,0,0-.27637-.80468,1.04642,1.04642,0,0,0-.4873-.42578,1.90625,1.90625,0,0,0-.728-.123,2.14281,2.14281,0,0,0-.50244.06738,5.04517,5.04517,0,0,0-.55859.16895q-.28272.10254-.55372.22558a4.65315,4.65315,0,0,0-.47705.2461,11.92185,11.92185,0,0,1,.123,1.835v5.63965l1.292.2666V46.093h-6.03955V44.64673l1.14844-.25586V38.679a6.496,6.496,0,0,0-.082-1.11718,2.044,2.044,0,0,0-.27149-.75391,1.11626,1.11626,0,0,0-.49755-.42578,1.90972,1.90972,0,0,0-.75879-.13281,2.50924,2.50924,0,0,0-.57959.07129,5.5833,5.5833,0,0,0-.58936.1748,3.89034,3.89034,0,0,0-.51807.22559,2.88017,2.88017,0,0,0-.35351.21484v7.43457l1.374.27637V46.093Z"/><path d="M395.85045,46.093V44.64673l1.27148-.2666V36.81274l-1.36377-.41015V34.67993l3.97852-.543h.05127l.58447.47168v.71777l-.01025.48145a4.34638,4.34638,0,0,1,.84082-.62012,8.05147,8.05147,0,0,1,1.07129-.51758,7.736,7.736,0,0,1,1.16894-.35937,5.23537,5.23537,0,0,1,1.1333-.13281,4.02827,4.02827,0,0,1,1.897.3789,2.38293,2.38293,0,0,1,1.06641,1.24121,4.85539,4.85539,0,0,1,.74317-.54882,7.79208,7.79208,0,0,1,1.01562-.52246,7.45275,7.45275,0,0,1,1.18408-.39551A5.2627,5.2627,0,0,1,411.744,34.178a4.62026,4.62026,0,0,1,1.584.23535,2.2015,2.2015,0,0,1,1.03613.77441A3.539,3.539,0,0,1,414.933,36.593a10.99065,10.99065,0,0,1,.17431,2.127v5.66016l1.4253.2666V46.093h-6.00879V44.64673l.98437-.2666V38.82251a7.65025,7.65025,0,0,0-.0874-1.27149,2.2497,2.2497,0,0,0-.27637-.80468,1.04642,1.04642,0,0,0-.4873-.42578,1.90625,1.90625,0,0,0-.728-.123,2.14281,2.14281,0,0,0-.50244.06738,5.04517,5.04517,0,0,0-.55859.16895q-.28272.10254-.55371.22558a4.65234,4.65234,0,0,0-.47706.2461,11.92185,11.92185,0,0,1,.123,1.835v5.63965l1.292.2666V46.093h-6.03955V44.64673l1.14844-.25586V38.679a6.496,6.496,0,0,0-.082-1.11718,2.044,2.044,0,0,0-.27149-.75391,1.11626,1.11626,0,0,0-.49755-.42578,1.90972,1.90972,0,0,0-.75879-.13281,2.50924,2.50924,0,0,0-.57959.07129,5.5833,5.5833,0,0,0-.58936.1748,3.88962,3.88962,0,0,0-.51806.22559,2.87964,2.87964,0,0,0-.35352.21484v7.43457l1.374.27637V46.093Z"/><path d="M417.31187,42.95532a3.12019,3.12019,0,0,1,.272-1.333A3.335,3.335,0,0,1,418.327,40.592a4.40951,4.40951,0,0,1,1.11231-.75879,7.6386,7.6386,0,0,1,1.38476-.51269,11.04051,11.04051,0,0,1,1.55322-.29786,15.2981,15.2981,0,0,1,1.62012-.10742V38.4436a1.96138,1.96138,0,0,0-.48193-1.49219,2.11579,2.11579,0,0,0-1.47657-.44628,7.64253,7.64253,0,0,0-1.1123.082q-.55958.082-1.07178.20508-.51268.123-.95361.27246-.44092.14795-.75879.292h-.01025l-.67676-1.5791a5.64428,5.64428,0,0,1,.74853-.45118,9.433,9.433,0,0,1,1.26123-.53808,13.15167,13.15167,0,0,1,1.65088-.457,9.216,9.216,0,0,1,1.92774-.19434,6.604,6.604,0,0,1,1.98437.26172,3.28088,3.28088,0,0,1,1.34815.7793,3.06254,3.06254,0,0,1,.76416,1.30176,6.26954,6.26954,0,0,1,.24072,1.83007v6.26563h1.27148V45.97c-.12988.02734-.29248.06152-.48681.10254q-.293.06151-.667.11816-.37428.05567-.82032.09668-.4453.041-.94824.041a5.85982,5.85982,0,0,1-.69726-.03516,1.05819,1.05819,0,0,1-.45606-.14941.63356.63356,0,0,1-.24609-.32227,1.65829,1.65829,0,0,1-.07715-.55957v-.707a4.4114,4.4114,0,0,1-.50781.60449,3.66318,3.66318,0,0,1-.74317.57422,4.45072,4.45072,0,0,1-.98437.42578,4.184,4.184,0,0,1-1.23047.169,4.57258,4.57258,0,0,1-1.374-.19922,3.02622,3.02622,0,0,1-1.10253-.61035,2.81118,2.81118,0,0,1-.73291-1.05078A3.92463,3.92463,0,0,1,417.31187,42.95532Zm5.10645,1.17871a1.6718,1.6718,0,0,0,.354-.0459,3.178,3.178,0,0,0,.43067-.12793,3.05877,3.05877,0,0,0,.43066-.20019,1.65147,1.65147,0,0,0,.36377-.27149v-3.21a5.35841,5.35841,0,0,0-1.46143.16993,2.57538,2.57538,0,0,0-.938.456,1.62989,1.62989,0,0,0-.49756.666,2.17215,2.17215,0,0,0-.14844.7998,2.14884,2.14884,0,0,0,.34863,1.27734A1.28064,1.28064,0,0,0,422.41832,44.134Z"/><path d="M429.77037,46.093V44.5852l1.374-.21484V36.81274l-1.374-.41015V34.67993l3.82471-.543h.06152l.57422.47168v2.7168h.05127a5.99771,5.99771,0,0,1,.47705-.98438,5.69723,5.69723,0,0,1,.79443-1.05078,4.60576,4.60576,0,0,1,1.06641-.83594,2.54873,2.54873,0,0,1,1.28174-.33789,4.11367,4.11367,0,0,1,.5332.02539,1.53313,1.53313,0,0,1,.28711.06641v4.08106a1.827,1.827,0,0,0-.67676-.21,7.6497,7.6497,0,0,0-1.333-.09765,5.48052,5.48052,0,0,0-.54882.03125q-.30249.03077-.58936.07715a4.14157,4.14157,0,0,0-.51269.1123,1.28563,1.28563,0,0,0-.31788.12793v6.04l2.44043.27637V46.093Z"/><path d="M439.98326,46.093V44.5852l1.40479-.21484V36.81274l-1.36377-.41992V34.67993l4.0913-.543h.05127l.84082.47168v9.76172l1.40479.21484V46.093Zm2.85059-13.57618a1.56237,1.56237,0,0,1-.687-.14355,1.42964,1.42964,0,0,1-.49707-.38965,1.70377,1.70377,0,0,1-.30273-.56933,2.23643,2.23643,0,0,1-.10254-.68165,2.70215,2.70215,0,0,1,.11817-.81054,1.88866,1.88866,0,0,1,.35351-.66113,1.67765,1.67765,0,0,1,.58984-.44629,1.96771,1.96771,0,0,1,.83545-.16407h.01026a1.963,1.963,0,0,1,.78955.14356,1.55567,1.55567,0,0,1,.54346.38476,1.53891,1.53891,0,0,1,.31787.5586,2.19129,2.19129,0,0,1,.10254.67676,2.82533,2.82533,0,0,1-.11768.82617,1.777,1.777,0,0,1-.36914.666,1.75357,1.75357,0,0,1-.64111.44629,2.39806,2.39806,0,0,1-.93311.16406Z"/><path d="M447.2943,45.01587l5.34228-7.69043,1.333-1.50684-3.29151.16406-.47167,1.958h-1.938V34.29028h9.49511l.50245,1.01563-5.14747,7.76172-1.292,1.51757,3.82471-.24609.87158-2.25586,1.8457.16406L458.0609,46.093H447.83775Z"/><path d="M465.16685,46.32837a6.66366,6.66366,0,0,1-2.58935-.45117,4.5715,4.5715,0,0,1-1.75293-1.25586,5.01933,5.01933,0,0,1-.99512-1.91211,8.92492,8.92492,0,0,1-.3125-2.43067,7.88286,7.88286,0,0,1,.3999-2.60937,5.312,5.312,0,0,1,1.14307-1.92774,4.88346,4.88346,0,0,1,1.79492-1.19433,6.42393,6.42393,0,0,1,2.353-.41016,4.84481,4.84481,0,0,1,3.35791,1.02051,4.31275,4.31275,0,0,1,1.22559,3.12207q.03075.73829,0,1.333a7.10052,7.10052,0,0,1-.1128,1.00488H463.1981a6.37605,6.37605,0,0,0,.27686,1.5791,2.9487,2.9487,0,0,0,.58447,1.05567,2.14968,2.14968,0,0,0,.88184.59472,3.40566,3.40566,0,0,0,1.15869.18457,5.86081,5.86081,0,0,0,1.8252-.27148,4.7603,4.7603,0,0,0,.66113-.26172q.293-.14355.52832-.27637l.58447,1.35352a3.81471,3.81471,0,0,1-.69189.55859,7.09647,7.09647,0,0,1-1.06153.56934,8.33652,8.33652,0,0,1-1.31738.44629A5.98911,5.98911,0,0,1,465.16685,46.32837ZM464.89,35.57251a1.53264,1.53264,0,0,0-.62012.12793,1.21086,1.21086,0,0,0-.52344.51269,3.62019,3.62019,0,0,0-.3789,1.08692,10.60317,10.60317,0,0,0-.17969,1.85058H466.305c0-.0205.00146-.05761.00488-.1123s.00537-.11426.00537-.17969v-.28223q0-.51269-.04638-1.04a4.1619,4.1619,0,0,0-.19434-.96973,1.79559,1.79559,0,0,0-.43066-.71777A1.03025,1.03025,0,0,0,464.89,35.57251Z"/><path d="M478.52769,45.5188V30.99927l-1.45605-.28711v-1.3125l4.29639-.53321h.041l.71778.45118v6.00878a4.56434,4.56434,0,0,1,.564-.45605,3.97194,3.97194,0,0,1,.7124-.38965,4.54329,4.54329,0,0,1,.84619-.2666,4.47789,4.47789,0,0,1,.95362-.09766,5.04668,5.04668,0,0,1,1.76367.30274,3.497,3.497,0,0,1,1.42529.98437,4.899,4.899,0,0,1,.9585,1.78418,8.90836,8.90836,0,0,1,.354,2.70117,7.59015,7.59015,0,0,1-.41553,2.543,5.95284,5.95284,0,0,1-1.19921,2.0459,5.49662,5.49662,0,0,1-1.92286,1.3584,6.42441,6.42441,0,0,1-2.57373.49219,18.64689,18.64689,0,0,1-2.00439-.09668q-.8877-.09815-1.52832-.23145a7.81585,7.81585,0,0,1-1.02539-.27148A3.66327,3.66327,0,0,1,478.52769,45.5188Zm5.18848-9.38281a2.442,2.442,0,0,0-.94336.1748,1.6588,1.6588,0,0,0-.646.44043v7.69043a.9967.9967,0,0,0,.47167.28711,2.33013,2.33013,0,0,0,.7793.123,1.68641,1.68641,0,0,0,1.14356-.4043,2.90041,2.90041,0,0,0,.748-1.05664,6.03719,6.03719,0,0,0,.41016-1.47168,10.74413,10.74413,0,0,0,.12842-1.66113,13.56877,13.56877,0,0,0-.09717-1.69629,4.64888,4.64888,0,0,0-.33887-1.30274,2.00556,2.00556,0,0,0-.64551-.83008A1.68013,1.68013,0,0,0,483.71617,36.136Z"/><path d="M494.00084,51.32251c-.15723,0-.33154-.00391-.52295-.01074s-.37793-.01661-.55859-.03028c-.18164-.01367-.34375-.02929-.48731-.0459a1.77373,1.77373,0,0,1-.30762-.05664V48.34888a3.79925,3.79925,0,0,0,.67188.20507,5.37168,5.37168,0,0,0,1.2456.123,3.49537,3.49537,0,0,0,.646-.06641,1.87485,1.87485,0,0,0,.71777-.32812,3.36326,3.36326,0,0,0,.74317-.7793,6.45588,6.45588,0,0,0,.72314-1.41015h-2.13281l-3.61963-10.08985-.89209-.28711V34.29028h6.32666v1.42578l-1.50732.29688,1.88672,5.96777.73828,2.65625.646-2.65625,1.43555-5.96777-1.30225-.29688V34.29028h4.65528v1.42578l-.88184.29688q-.18457.61523-.48193,1.56933-.29736.95363-.63086,2.0459-.33326,1.09131-.68164,2.21485-.34863,1.12206-.65137,2.081-.30249.95948-.52783,1.65137-.22558.69141-.31787.90722a9.33823,9.33823,0,0,1-2.06641,3.584A3.94772,3.94772,0,0,1,494.00084,51.32251Z"/><path d="M518.09752,46.32837a8.8175,8.8175,0,0,1-3.30664-.5791,6.64316,6.64316,0,0,1-3.917-4.08594,9.40464,9.40464,0,0,1-.50782-3.1582,9.00508,9.00508,0,0,1,.63086-3.46582,7.33479,7.33479,0,0,1,1.75293-2.584,7.63589,7.63589,0,0,1,2.67139-1.61523,9.94271,9.94271,0,0,1,3.394-.5586q.86133,0,1.7124.07715.85109.07617,1.58936.18457.73829.10694,1.30225.21973t.84082.1748l-.25635,4.15235h-2.584l-.61523-2.707a1.82585,1.82585,0,0,0-.251-.20508,1.76823,1.76823,0,0,0-.38965-.18946,3.412,3.412,0,0,0-.59472-.14355,5.77212,5.77212,0,0,0-.877-.05664,3.81967,3.81967,0,0,0-1.707.375,3.43821,3.43821,0,0,0-1.30273,1.13769,5.75877,5.75877,0,0,0-.83008,1.93848,11.55671,11.55671,0,0,0-.29248,2.77344,13.92936,13.92936,0,0,0,.231,2.58887,7.87825,7.87825,0,0,0,.707,2.15332,4.19964,4.19964,0,0,0,1.21,1.47656,2.81724,2.81724,0,0,0,1.73828.54883,4.36731,4.36731,0,0,0,1.42529-.19532,1.8772,1.8772,0,0,0,.78955-.46093V39.95044l-1.75341-.22559v-1.835h6.52148v1.835l-1.01514.18457V45.2522a5.2967,5.2967,0,0,0-1.0664.18945q-.63575.16992-1.44043.36914-.80566.20069-1.769.35937A12.596,12.596,0,0,1,518.09752,46.32837Z"/><path d="M526.61851,46.093V44.5852l1.374-.21484V36.81274l-1.374-.41015V34.67993l3.82471-.543h.06152l.57422.47168v2.7168h.05127a5.99771,5.99771,0,0,1,.477-.98438,5.69729,5.69729,0,0,1,.79444-1.05078,4.60571,4.60571,0,0,1,1.0664-.83594,2.54876,2.54876,0,0,1,1.28174-.33789,4.114,4.114,0,0,1,.53321.02539,1.53281,1.53281,0,0,1,.2871.06641v4.08106a1.827,1.827,0,0,0-.67675-.21,7.64978,7.64978,0,0,0-1.333-.09765,5.48071,5.48071,0,0,0-.54883.03125q-.30249.03077-.58935.07715a4.14175,4.14175,0,0,0-.5127.1123,1.28552,1.28552,0,0,0-.31787.12793v6.04l2.44043.27637V46.093Z"/><path d="M536.57506,40.34009a7.33991,7.33991,0,0,1,.48193-2.79395,5.433,5.433,0,0,1,1.29736-1.9375,5.12268,5.12268,0,0,1,1.89161-1.12793,7.01414,7.01414,0,0,1,2.26611-.36426,6.81028,6.81028,0,0,1,2.34326.37891,4.618,4.618,0,0,1,1.76856,1.13379,5.02555,5.02555,0,0,1,1.11767,1.876,7.92442,7.92442,0,0,1,.38965,2.59961,7.5701,7.5701,0,0,1-.48193,2.85546,5.27259,5.27259,0,0,1-1.29688,1.93262,5.03641,5.03641,0,0,1-1.88672,1.09277,7.3798,7.3798,0,0,1-2.26123.34278,6.73748,6.73748,0,0,1-2.34326-.38379,4.67076,4.67076,0,0,1-1.76855-1.13867,5.08329,5.08329,0,0,1-1.123-1.8711A7.78424,7.78424,0,0,1,536.57506,40.34009Zm5.83447,4.48144a1.47414,1.47414,0,0,0,.83057-.23047,1.66469,1.66469,0,0,0,.57422-.74414,4.95273,4.95273,0,0,0,.333-1.333,15.59961,15.59961,0,0,0,.10791-1.999,21.374,21.374,0,0,0-.09716-2.19922,6.26784,6.26784,0,0,0-.32325-1.51758,1.96676,1.96676,0,0,0-.59472-.88769,1.42523,1.42523,0,0,0-.90235-.28711,1.49372,1.49372,0,0,0-.83593.23145,1.70508,1.70508,0,0,0-.58936.74316,4.79069,4.79069,0,0,0-.34863,1.32812,14.95566,14.95566,0,0,0-.1128,2.00391,19.37124,19.37124,0,0,0,.10743,2.2002,6.36658,6.36658,0,0,0,.33886,1.51757,1.97624,1.97624,0,0,0,.6045.88672A1.44747,1.44747,0,0,0,542.40953,44.82153Z"/><path d="M559.26695,46.32837a1.515,1.515,0,0,1-1.15332-.37891,1.4281,1.4281,0,0,1-.354-1.01562V44.5852a3.51109,3.51109,0,0,1-.63037.65137,5.2459,5.2459,0,0,1-.84619.55859,4.831,4.831,0,0,1-.97413.38965,3.78741,3.78741,0,0,1-1.02539.14356A5.87725,5.87725,0,0,1,552.515,46.093a2.71516,2.71516,0,0,1-1.2207-.76368,3.27748,3.27748,0,0,1-.70215-1.36914,7.97785,7.97785,0,0,1-.22559-2.041V36.07446l-.95361-.34863V34.42407l4.06054-.28711h.01026l.47168.28711v7.64942a2.89088,2.89088,0,0,0,.36426,1.666,1.42783,1.42783,0,0,0,1.23535.49707,2.73867,2.73867,0,0,0,.65137-.07129,2.96967,2.96967,0,0,0,.51757-.1748,2.35992,2.35992,0,0,0,.38477-.21485,1.96371,1.96371,0,0,0,.24072-.19531V36.07446l-1.39453-.3789v-1.3125l4.40918-.2461h.02051l.55371.28711V44.5852h1.09717V45.97c-.12989.02734-.29053.06348-.48194.10742s-.40674.084-.646.11817-.49707.06445-.77442.09179Q559.71862,46.32838,559.26695,46.32837Z"/><path d="M563.23521,49.77368l1.52784-.2666V36.81274l-1.36377-.41015V34.67993l4.05029-.543h.05127l.54346.47168v1.07617a4.17618,4.17618,0,0,1,.58984-.59472,4.01146,4.01146,0,0,1,.76855-.502,4.523,4.523,0,0,1,.9336-.34375,4.46879,4.46879,0,0,1,1.09179-.12793,5.05324,5.05324,0,0,1,1.79981.3125,3.51793,3.51793,0,0,1,1.4248,1.00489,4.89506,4.89506,0,0,1,.93848,1.78906,9.13278,9.13278,0,0,1,.33838,2.666,7.59015,7.59015,0,0,1-.41553,2.543,5.989,5.989,0,0,1-1.19433,2.0459,5.46192,5.46192,0,0,1-1.90723,1.3584,6.35077,6.35077,0,0,1-2.56348.49219,6.43315,6.43315,0,0,1-.959-.06641c-.29053-.04492-.48682-.08008-.58936-.10742l.06153,1.68164v1.6709l1.979.2666V51.179h-7.106ZM569.95152,36.136a2.4977,2.4977,0,0,0-.94336.16992,1.6697,1.6697,0,0,0-.646.4248v7.73145a1.576,1.576,0,0,0,.49218.27246,2.23137,2.23137,0,0,0,.769.11719,1.95985,1.95985,0,0,0,.92285-.22559,2.00061,2.00061,0,0,0,.75879-.76367,4.78225,4.78225,0,0,0,.52832-1.41992,10.89466,10.89466,0,0,0,.22021-2.18457,10.56805,10.56805,0,0,0-.11279-1.92188,4.06749,4.06749,0,0,0-.40527-1.27734,1.72048,1.72048,0,0,0-.666-.707A1.889,1.889,0,0,0,569.95152,36.136Z"/><circle class="a" cx="375.88694" cy="151.43768" r="35"/><path d="M368.472,159.092l-.00977-1.47461,1.25-.26367,4.58008-13.1543h3.61328l4.62891,13.14453,1.42578.27344V159.092h-6.88476v-1.47461l1.60156-.26367-.63477-2.14844h-5.04883l-.58593,2.14844,1.60156.26367V159.092Zm6.66016-11.76758-1.68946,6.20117h4.0918l-1.8457-6.20117-.30274-1.34765Z"/><circle class="a" cx="375.88694" cy="228.43768" r="35"/><path d="M369.722,236.092v-1.47461l1.582-.27344V222.97681l-1.57226-.3125v-1.43555h3.28125c.34521,0,.65283-.00586.92285-.01953q.405-.019.7666-.03907.36108-.019.71777-.03906.3567-.019.7666-.01953a14.2177,14.2177,0,0,1,2.48536.19043,5.4155,5.4155,0,0,1,1.75781.5957,2.66664,2.66664,0,0,1,1.04,1.04,3.195,3.195,0,0,1,.34179,1.53321,4.16186,4.16186,0,0,1-.26367,1.543,3.29169,3.29169,0,0,1-.71289,1.11817,3.42524,3.42524,0,0,1-1.0498.72266,4.52234,4.52234,0,0,1-1.27442.35644,6.41313,6.41313,0,0,1,1.65528.26856,4.69116,4.69116,0,0,1,1.38671.67382,3.29555,3.29555,0,0,1,.95215,1.05957,2.83872,2.83872,0,0,1,.35157,1.416,5.36652,5.36652,0,0,1-.27832,1.71875,3.43915,3.43915,0,0,1-.97657,1.46484,5.05965,5.05965,0,0,1-1.87988,1.01563,9.9,9.9,0,0,1-2.98828.38086c-.27344,0-.53858-.00586-.7959-.01953q-.386-.019-.82031-.03907-.43433-.019-.94238-.03906-.50757-.019-1.16211-.01953Zm5.08789-13.48633v5.00977a1.67851,1.67851,0,0,0,.32227.03906c.13672.00684.28173.01367.43457.01953.15283.00684.3042.00977.4541.00977h.38086a2.09771,2.09771,0,0,0,.93261-.18067,1.4265,1.4265,0,0,0,.58594-.52734,2.32291,2.32291,0,0,0,.30762-.85938,7.09253,7.09253,0,0,0,.08789-1.18652,4.18931,4.18931,0,0,0-.12207-1.0791,1.74623,1.74623,0,0,0-.40039-.75195,1.65675,1.65675,0,0,0-.73242-.43946,3.78376,3.78376,0,0,0-1.1084-.1416c-.08447,0-.18408.00391-.29785.00977-.11377.00683-.22608.01367-.33692.01953-.11084.00683-.21142.01465-.30273.02441A1.348,1.348,0,0,0,374.80992,222.60571Zm0,6.51367v5.46875a1.02991,1.02991,0,0,0,.23438.07325c.104.02343.21826.043.34179.05859.12354.0166.25391.02832.39063.03418.13672.00684.26709.00976.39062.00976a4.27811,4.27811,0,0,0,1.38184-.19531,2.34931,2.34931,0,0,0,.93262-.56152,2.21867,2.21867,0,0,0,.53222-.9082,4.07328,4.07328,0,0,0,.1709-1.22559,4.55781,4.55781,0,0,0-.16113-1.30371,1.86947,1.86947,0,0,0-1.36719-1.34277,4.6925,4.6925,0,0,0-1.25488-.14649h-.376c-.15967,0-.32226.00195-.48828.00488q-.249.00587-.4541.01465C374.94664,229.10669,374.85533,229.11352,374.80992,229.11938Z"/><circle class="a" cx="375.88694" cy="305.43768" r="35"/><path d="M377.06578,313.31665a8.12343,8.12343,0,0,1-3.0957-.54688,6.031,6.031,0,0,1-2.23633-1.543,6.54437,6.54437,0,0,1-1.35254-2.38282,9.7756,9.7756,0,0,1-.4541-3.05664,8.1561,8.1561,0,0,1,.60058-3.19336,7.15408,7.15408,0,0,1,1.65528-2.43164,7.27844,7.27844,0,0,1,2.50488-1.54785,8.92629,8.92629,0,0,1,3.14941-.542,10.60034,10.60034,0,0,1,1.35743.083q.635.08349,1.18164.19043.54711.10839,1.001.21a7.17523,7.17523,0,0,0,.81543.1416l-.23437,4.11133h-2.31445l-.58594-2.73438a2.052,2.052,0,0,0-.2002-.21,1.079,1.079,0,0,0-.28808-.18066,2.04777,2.04777,0,0,0-.42969-.127,3.47474,3.47474,0,0,0-.63477-.04882,3.17377,3.17377,0,0,0-1.47949.34668,3.13746,3.13746,0,0,0-1.15234,1.06445,5.55884,5.55884,0,0,0-.74707,1.8164,11.31669,11.31669,0,0,0-.26367,2.61231,13.72352,13.72352,0,0,0,.21484,2.46582,8.0066,8.0066,0,0,0,.64941,2.07031,4.09317,4.09317,0,0,0,1.09375,1.42578,2.38646,2.38646,0,0,0,1.54785.53223,4.98989,4.98989,0,0,0,.791-.05371,2.82479,2.82479,0,0,0,.56152-.1416,1.70485,1.70485,0,0,0,.38086-.19532,1.18278,1.18278,0,0,0,.23926-.21484l.86914-2.28516,1.96289.04883-.11719,3.54492a4.54416,4.54416,0,0,0-.8789.15137q-.449.123-1.02539.26367-.57642.1421-1.32324.249A12.46769,12.46769,0,0,1,377.06578,313.31665Z"/><path d="M358.01451,93.57739v-.1123c0-2.88477,1.86328-5,4.49658-5a4.46763,4.46763,0,0,1,3.10987,1.10644l-.9668,1.28809a3.00888,3.00888,0,0,0-2.1709-.88184c-1.59717,0-2.7876,1.44238-2.7876,3.47363v.084c0,2.21289,1.20459,3.53027,2.87158,3.53027a3.03531,3.03531,0,0,0,1.73682-.51855V94.38989H362.245V92.96118h3.6001v4.39844a5.34141,5.34141,0,0,1-3.34815,1.19043C359.8358,98.55005,358.01451,96.58911,358.01451,93.57739Z"/><path d="M367.59068,90.98657h1.583v1.45606a2.20537,2.20537,0,0,1,2.227-1.56836v1.72265h-.06982c-1.28907,0-2.15723.84082-2.15723,2.53516V98.4104h-1.583Z"/><path d="M372.056,94.78247v-.126a3.43749,3.43749,0,1,1,6.83594-.01465v.126a3.4362,3.4362,0,1,1-6.83594.01465Zm5.25293-.02832v-.084c0-1.38671-.7705-2.42285-1.84863-2.42285-1.10693,0-1.82129,1.02246-1.82129,2.40918v.084c0,1.38672.77051,2.4375,1.84912,2.4375C376.59459,97.178,377.30894,96.14087,377.30894,94.75415Z"/><path d="M380.27476,95.95923V90.98657h1.58252V95.511c0,1.03613.49024,1.61035,1.3169,1.61035.82617,0,1.40088-.61621,1.40088-1.63868V90.98657h1.59668V98.4104h-1.59668V97.3313a2.29213,2.29213,0,0,1-2.01709,1.21875C381.1151,98.55005,380.27476,97.55591,380.27476,95.95923Z"/><path d="M387.96031,90.98657h1.583V92.177a2.50825,2.50825,0,0,1,2.1709-1.33105c1.48486,0,2.88574,1.24707,2.88574,3.7539v.19629c0,2.49317-1.38672,3.75391-2.88574,3.75391a2.52932,2.52932,0,0,1-2.1709-1.26074v3.23632h-1.583Zm5.043,3.78125v-.126c0-1.48437-.77051-2.39453-1.72314-2.39453s-1.76514.92383-1.76514,2.38086v.13965c0,1.457.8125,2.38184,1.76514,2.38184C392.24644,97.14966,393.00328,96.25317,393.00328,94.76782Z"/><path d="M448.163,90.01489h1.45117l2.15869,3.86133,2.147-3.86133h1.46289V98.4104h-1.3789V92.47388l-2.231,3.88574h-.03613l-2.21875-3.86231V98.4104h-1.355Z"/><path d="M456.767,95.304v-.0957c0-1.90723,1.15137-3.27441,2.71094-3.27441,1.72705,0,2.63818,1.43945,2.63818,3.3457,0,.084,0,.27637-.01172.46777h-3.98193a1.634,1.634,0,0,0,1.60693,1.64356,2.02085,2.02085,0,0,0,1.46338-.67188l.70752.83985A2.949,2.949,0,0,1,456.767,95.304Zm4.03028-.49218c-.07227-1.00684-.52784-1.73828-1.31934-1.73828-.74365,0-1.27148.65917-1.36719,1.73828Z"/><path d="M462.98277,96.58716v-.05957c0-1.36719.91162-2.03907,2.25489-2.03907a4.30742,4.30742,0,0,1,1.46289.252v-.26367a1.20288,1.20288,0,0,0-1.36719-1.2959,3.62411,3.62411,0,0,0-1.53516.38379l-.38379-1.07911a4.52171,4.52171,0,0,1,2.09912-.5039,2.24392,2.24392,0,0,1,2.50635,2.48242V98.4104h-1.33105v-.78027a2.02155,2.02155,0,0,1-1.76319.90039A1.85655,1.85655,0,0,1,462.98277,96.58716Zm3.73-.31153v-.63574a3.061,3.061,0,0,0-1.17529-.22851c-.77979,0-1.23535.39648-1.23535,1.06738v.02441a.97.97,0,0,0,1.03125,1.00782A1.27175,1.27175,0,0,0,466.71275,96.27563Z"/><path d="M469.48668,92.054h1.35547v.93555a1.98921,1.98921,0,0,1,1.73877-1.05566c1.22314,0,1.95507.86328,1.95507,2.21875V98.4104h-1.35546v-3.874c0-.8877-.41944-1.37891-1.13916-1.37891-.70752,0-1.19922.52734-1.19922,1.40234V98.4104h-1.35547Z"/><path d="M528.59068,92.58227l.63086-.7832a2.44412,2.44412,0,0,0,1.65625.74707c.60352,0,.99024-.333.99024-.80176v-.00879c0-.39648-.207-.65722-1.20606-1.02636-1.19726-.4502-1.81836-.8916-1.81836-1.89942v-.01757a1.815,1.815,0,0,1,1.99805-1.76465,2.926,2.926,0,0,1,1.98047.73828l-.59375.80078a2.29573,2.29573,0,0,0-1.41406-.59375c-.56641,0-.918.31445-.918.72851v.00977c0,.44043.23437.67481,1.30566,1.08887,1.16992.45019,1.71.93652,1.71,1.85449v.01855a1.84879,1.84879,0,0,1-2.043,1.81836A3.28984,3.28984,0,0,1,528.59068,92.58227Z"/><path d="M534.04576,92.25806V89.512h-.52246v-.87305h.52246v-1.2871h1.0166v1.2871h1.07129V89.512h-1.07129V92.051a.45607.45607,0,0,0,.51367.52149,1.15273,1.15273,0,0,0,.54883-.13477v.83692a1.71881,1.71881,0,0,1-.8457.208A1.08718,1.08718,0,0,1,534.04576,92.25806Z"/><path d="M536.78111,92.04224v-.0459c0-1.02637.68457-1.53028,1.69238-1.53028a3.23881,3.23881,0,0,1,1.09864.18946v-.19825a.90272.90272,0,0,0-1.02637-.97265,2.72277,2.72277,0,0,0-1.15234.28808l-.28809-.80957a3.38637,3.38637,0,0,1,1.5752-.37793,1.68449,1.68449,0,0,1,1.88183,1.86329V93.4104h-.999v-.585a1.51882,1.51882,0,0,1-1.32324.6748A1.39327,1.39327,0,0,1,536.78111,92.04224Zm2.79981-.23438v-.47754a2.29985,2.29985,0,0,0-.88184-.1709c-.585,0-.92773.29688-.92773.80176v.01758a.727.727,0,0,0,.77441.75586A.95374.95374,0,0,0,539.58092,91.80786Z"/><path d="M541.659,88.63891h1.01758v.70215a1.49565,1.49565,0,0,1,1.30566-.792c.918,0,1.4668.64746,1.4668,1.665V93.4104h-1.0166V90.5022c0-.666-.31543-1.03516-.85547-1.03516-.53125,0-.90039.39648-.90039,1.05371V93.4104H541.659Z"/><path d="M546.35631,91.08716V90.97c0-1.61133.8916-2.4209,1.85449-2.4209a1.64447,1.64447,0,0,1,1.39551.80957V86.9104h1.01758v6.5h-1.01758v-.76563a1.61281,1.61281,0,0,1-1.39551.85547C547.2567,93.50024,546.35631,92.69849,546.35631,91.08716Zm3.26855-.01758v-.08984c0-.93653-.52246-1.53028-1.13476-1.53028-.6211,0-1.10743.57617-1.10743,1.53906v.07227c0,.9541.49512,1.53906,1.10743,1.53906S549.62486,92.0061,549.62486,91.06958Z"/><path d="M551.50474,92.04224v-.0459c0-1.02637.68458-1.53028,1.69239-1.53028a3.23879,3.23879,0,0,1,1.09863.18946v-.19825a.90272.90272,0,0,0-1.02637-.97265,2.72277,2.72277,0,0,0-1.15234.28808l-.28809-.80957a3.3864,3.3864,0,0,1,1.5752-.37793,1.68448,1.68448,0,0,1,1.88183,1.86329V93.4104h-.999v-.585a1.51882,1.51882,0,0,1-1.32324.6748A1.39327,1.39327,0,0,1,551.50474,92.04224Zm2.79981-.23438v-.47754a2.29985,2.29985,0,0,0-.88184-.1709c-.585,0-.92773.29688-.92773.80176v.01758a.727.727,0,0,0,.77441.75586A.95374.95374,0,0,0,554.30455,91.80786Z"/><path d="M556.38267,88.63891h1.01758v.93653a1.41681,1.41681,0,0,1,1.43164-1.00879v1.10742H558.787c-.82812,0-1.38672.54-1.38672,1.62988V93.4104h-1.01758Z"/><path d="M559.29869,91.08716V90.97c0-1.61133.8916-2.4209,1.85449-2.4209a1.64447,1.64447,0,0,1,1.39551.80957V86.9104h1.01758v6.5h-1.01758v-.76563a1.6128,1.6128,0,0,1-1.39551.85547C560.19908,93.50024,559.29869,92.69849,559.29869,91.08716Zm3.26758-.01758v-.08984c0-.93653-.52149-1.53028-1.13379-1.53028-.62109,0-1.10742.57617-1.10742,1.53906v.07227c0,.9541.49511,1.53906,1.10742,1.53906S562.56627,92.0061,562.56627,91.06958Z"/><path d="M528.14146,95.10864h1.92676a2.88562,2.88562,0,0,1,2.98828,3.10547v.07227a2.90069,2.90069,0,0,1-2.98828,3.124h-1.92676Zm1.04395.94531v4.41114h.873a1.91568,1.91568,0,0,0,1.918-2.16993v-.05371a1.92626,1.92626,0,0,0-1.918-2.1875Z"/><path d="M533.8651,99.07837V99.0061a2.20118,2.20118,0,0,1,2.03418-2.457c1.29687,0,1.98144,1.08008,1.98144,2.51172,0,.0625,0,.207-.00976.35059h-2.98829a1.22539,1.22539,0,0,0,1.20606,1.23339,1.52055,1.52055,0,0,0,1.09863-.5039l.53125.62988a2.21372,2.21372,0,0,1-3.85351-1.69238Zm3.02441-.36914c-.05371-.75586-.39551-1.30567-.99023-1.30567-.55762,0-.95411.49512-1.02637,1.30567Z"/><path d="M538.23912,96.63891h1.07129l1.07129,3.47461,1.08008-3.47461h1.05371l-1.666,4.80762h-.94531Z"/><path d="M543.3065,94.94653h1.08008v.999H543.3065Zm.03614,1.69238h1.0166v4.77149h-1.0166Z"/><path d="M545.29478,100.04224v-.0459c0-1.02637.68457-1.53028,1.69239-1.53028a3.23879,3.23879,0,0,1,1.09863.18946v-.19825a.90272.90272,0,0,0-1.02637-.97265,2.72277,2.72277,0,0,0-1.15234.28808l-.28809-.80957a3.3864,3.3864,0,0,1,1.5752-.37793,1.68449,1.68449,0,0,1,1.88183,1.86329v2.96191h-.999v-.585a1.51882,1.51882,0,0,1-1.32324.6748A1.39327,1.39327,0,0,1,545.29478,100.04224Zm2.79981-.23438v-.47754a2.29985,2.29985,0,0,0-.88184-.1709c-.585,0-.92773.29688-.92773.80176v.01758a.727.727,0,0,0,.77441.75586A.95374.95374,0,0,0,548.09459,99.80786Z"/><path d="M550.326,100.25806V97.512h-.52246v-.87305h.52246v-1.2871h1.01758v1.2871h1.07129V97.512h-1.07129V100.051a.4554.4554,0,0,0,.5127.52149,1.15936,1.15936,0,0,0,.5498-.13477v.83692a1.72274,1.72274,0,0,1-.84668.208A1.08755,1.08755,0,0,1,550.326,100.25806Z"/><path d="M553.35045,94.94653h1.08008v.999h-1.08008Zm.03613,1.69238h1.0166v4.77149h-1.0166Z"/><path d="M555.39244,99.07837v-.08106a2.20927,2.20927,0,1,1,4.39355-.00879v.08106a2.20844,2.20844,0,1,1-4.39355.00879Zm3.377-.01758V99.0061c0-.89062-.49609-1.55664-1.18847-1.55664-.71192,0-1.1709.65625-1.1709,1.54785V99.051c0,.89161.49512,1.56739,1.18847,1.56739C558.30943,100.61841,558.76939,99.95141,558.76939,99.06079Z"/><path d="M560.72057,96.63891h1.01757v.70215a1.49565,1.49565,0,0,1,1.30567-.792c.918,0,1.46679.64746,1.46679,1.665v3.19629H563.494V98.5022c0-.666-.31543-1.03516-.85547-1.03516-.53125,0-.90039.39648-.90039,1.05371v2.88965h-1.01757Z"/><path d="M409.12828,104.74829h-66a2.50263,2.50263,0,0,1-2.5-2.5v-16.5a2.50263,2.50263,0,0,1,2.5-2.5h66a2.50263,2.50263,0,0,1,2.5,2.5v16.5A2.50263,2.50263,0,0,1,409.12828,104.74829Zm-66-20.5a1.50164,1.50164,0,0,0-1.5,1.5v16.5a1.50164,1.50164,0,0,0,1.5,1.5h66a1.50164,1.50164,0,0,0,1.5-1.5v-16.5a1.50164,1.50164,0,0,0-1.5-1.5Z"/><path d="M494.12828,104.74829h-66a2.50263,2.50263,0,0,1-2.5-2.5v-16.5a2.50263,2.50263,0,0,1,2.5-2.5h66a2.50263,2.50263,0,0,1,2.5,2.5v16.5A2.50263,2.50263,0,0,1,494.12828,104.74829Zm-66-20.5a1.50164,1.50164,0,0,0-1.5,1.5v16.5a1.50164,1.50164,0,0,0,1.5,1.5h66a1.50164,1.50164,0,0,0,1.5-1.5v-16.5a1.50164,1.50164,0,0,0-1.5-1.5Z"/><path d="M579.12828,104.74829h-66a2.50263,2.50263,0,0,1-2.5-2.5v-16.5a2.50263,2.50263,0,0,1,2.5-2.5h66a2.50263,2.50263,0,0,1,2.5,2.5v16.5A2.50263,2.50263,0,0,1,579.12828,104.74829Zm-66-20.5a1.50164,1.50164,0,0,0-1.5,1.5v16.5a1.50164,1.50164,0,0,0,1.5,1.5h66a1.50164,1.50164,0,0,0,1.5-1.5v-16.5a1.50164,1.50164,0,0,0-1.5-1.5Z"/><rect class="b" x="426.249" y="116.43768" width="70" height="70"/><path d="M431.58385,161.45141a5.66811,5.66811,0,0,0,.687.17676q.38892.07911.82129.13477.43139.05712.88476.085c.30225.01953.59961.02832.89209.02832a7.24975,7.24975,0,0,0,2.209-.31152,4.84515,4.84515,0,0,0,1.65674-.87793,3.81389,3.81389,0,0,0,1.041-1.35254,4.10867,4.10867,0,0,0,.36084-1.73438,3.90328,3.90328,0,0,0-.17725-1.126,3.07454,3.07454,0,0,0-.5874-1.083,3.44289,3.44289,0,0,0-1.07617-.84278,4.06087,4.06087,0,0,0-1.64258-.40332l-1.91162.31153L433.892,152.219a6.59535,6.59535,0,0,0,1.26026-.30468q.6372-.21827,1.16113-.417a6.29723,6.29723,0,0,0,1.45166-.793,4.65983,4.65983,0,0,0,.98389-.98437,3.72633,3.72633,0,0,0,.55908-1.13281,4.36538,4.36538,0,0,0,.17724-1.23926,2.79182,2.79182,0,0,0-.21923-1.16113,2.17429,2.17429,0,0,0-.5879-.78614,2.39277,2.39277,0,0,0-.82812-.44531,3.22331,3.22331,0,0,0-.95605-.1416,6.827,6.827,0,0,0-2.34375.36035,7.66664,7.66664,0,0,0-1.86182.999l-1.17529-2.0957a6.10052,6.10052,0,0,1,1.01953-.7793,10.43115,10.43115,0,0,1,1.53613-.793,12.23462,12.23462,0,0,1,1.91211-.61622,9.23407,9.23407,0,0,1,2.145-.24707,10.14,10.14,0,0,1,2.52051.29688,5.79712,5.79712,0,0,1,2.00341.91309,4.41038,4.41038,0,0,1,1.32422,1.5371,4.64444,4.64444,0,0,1,.48145,2.18067,5.97215,5.97215,0,0,1-1.2461,3.85156,8.70754,8.70754,0,0,1-3.61084,2.52051,7.44784,7.44784,0,0,1,2.54151.29,5.18665,5.18665,0,0,1,1.834.97656,4.11492,4.11492,0,0,1,1.11133,1.48731,4.48068,4.48068,0,0,1,.37549,1.81933,6.52024,6.52024,0,0,1-.623,2.83887,6.20452,6.20452,0,0,1-1.8833,2.27344,9.573,9.573,0,0,1-3.13672,1.51464,15.57989,15.57989,0,0,1-4.38232.55274q-.49585,0-1.04053-.043-.54565-.04248-1.0625-.12012-.51636-.07762-.96972-.18457a7.84051,7.84051,0,0,1-.77881-.21875Z"/><path d="M452.04527,164.96313l-.96289-1.85449a10.12992,10.12992,0,0,0,2.71875-1.2041,10.58237,10.58237,0,0,0,2.15967-1.81934,11.35975,11.35975,0,0,0,1.60693-2.29394,14.3553,14.3553,0,0,0,1.07618-2.62695,6.15775,6.15775,0,0,1-.67237.49609,4.63967,4.63967,0,0,1-.86426.4248,6.49676,6.49676,0,0,1-1.09716.29688,7.40236,7.40236,0,0,1-1.35938.11328,6.83239,6.83239,0,0,1-2.59131-.48828,6.14034,6.14034,0,0,1-2.08886-1.3877,6.49881,6.49881,0,0,1-1.39454-2.17382,7.64228,7.64228,0,0,1-.50976-2.86036,8.996,8.996,0,0,1,.50976-3.04394,7.27226,7.27226,0,0,1,1.51514-2.52051,7.16474,7.16474,0,0,1,2.49951-1.72754,8.762,8.762,0,0,1,3.46192-.63769,8.972,8.972,0,0,1,3.58252.666,6.87511,6.87511,0,0,1,2.56982,1.876,8.133,8.133,0,0,1,1.55078,2.917,12.87729,12.87729,0,0,1,.52393,3.78809,13.22462,13.22462,0,0,1-.49561,3.63867,14.51386,14.51386,0,0,1-1.35937,3.25,15.11147,15.11147,0,0,1-4.55957,4.9414,13.87575,13.87575,0,0,1-2.84619,1.501A11.568,11.568,0,0,1,452.04527,164.96313Zm3.65332-11.14355a5.657,5.657,0,0,0,1.16114-.11328,5.854,5.854,0,0,0,.977-.291,4.01679,4.01679,0,0,0,.7788-.41015,4.118,4.118,0,0,0,.58057-.47461q.0564-.49512.0918-.99121.03588-.49512.03564-.99122a20.08189,20.08189,0,0,0-.1626-2.91015,7.59153,7.59153,0,0,0-.58105-2.1377,3.17119,3.17119,0,0,0-1.04785-1.31738,2.65827,2.65827,0,0,0-1.55029-.44531,2.096,2.096,0,0,0-1.29541.43164,3.77635,3.77635,0,0,0-.97754,1.11816,5.98515,5.98515,0,0,0-.623,1.53711,6.72847,6.72847,0,0,0-.21924,1.68457,11.9018,11.9018,0,0,0,.20557,2.37207,5.55028,5.55028,0,0,0,.58008,1.64942,2.66332,2.66332,0,0,0,.89257.96972A2.1499,2.1499,0,0,0,455.69859,153.81958Z"/><path d="M470.43932,160.30493a3.1493,3.1493,0,0,1-1.041-.16992,2.76984,2.76984,0,0,1-.86328-.48145,2.25972,2.25972,0,0,1-.59473-.76465,2.31054,2.31054,0,0,1-.21972-1.01953,2.75673,2.75673,0,0,1,.24072-1.15429,2.80826,2.80826,0,0,1,.66553-.9209,3.18187,3.18187,0,0,1,1.00537-.61524,3.43069,3.43069,0,0,1,1.26025-.22656,3.70947,3.70947,0,0,1,1.2959.19824,2.37263,2.37263,0,0,1,.86328.53028,1.96117,1.96117,0,0,1,.48145.77929,2.94278,2.94278,0,0,1,.14892.94141,2.986,2.986,0,0,1-.23389,1.2041,2.55751,2.55751,0,0,1-.6582.91309,2.98683,2.98683,0,0,1-1.02637.58008A4.05869,4.05869,0,0,1,470.43932,160.30493Z"/><path d="M479.85582,164.07153q1.18946-2.32325,2.40723-4.84277,1.218-2.521,2.35058-4.96387,1.13306-2.4419,2.124-4.665.991-2.22363,1.72753-3.95117l-7.71728.11328-1.09033,3.32813-2.77539-.50977.7788-6.62695h14.03272l1.01953,1.14648-7.73144,22.33106Z"/><rect class="b" x="510.88694" y="116.43768" width="70" height="70"/><path d="M523.45738,154.64087a5.17964,5.17964,0,0,1,.99121-3.03809,7.35124,7.35124,0,0,1,3.1294-2.35742,11.24846,11.24846,0,0,1-1.2251-1.04785,6.5154,6.5154,0,0,1-.99805-1.26758,6.44576,6.44576,0,0,1-.67285-1.55762,6.84035,6.84035,0,0,1-.24756-1.90429,4.6986,4.6986,0,0,1,.62305-2.44922,5.55489,5.55489,0,0,1,1.63525-1.749,7.38216,7.38216,0,0,1,2.29395-1.04785,9.95094,9.95094,0,0,1,2.61279-.34668,11.83483,11.83483,0,0,1,3.13623.36035,6.0129,6.0129,0,0,1,2.11719,1.00586,3.8428,3.8428,0,0,1,1.19629,1.52246,4.77012,4.77012,0,0,1,.37549,1.89747,5.88843,5.88843,0,0,1-.729,2.8457,6.61772,6.61772,0,0,1-2.41455,2.39355,19.75119,19.75119,0,0,1,1.73487,1.09668,8.40008,8.40008,0,0,1,1.46533,1.31739,5.88983,5.88983,0,0,1,1.0122,1.63574,5.27484,5.27484,0,0,1,.37549,2.03906,5.54261,5.54261,0,0,1-.63037,2.66211,5.814,5.814,0,0,1-1.76269,1.98926A8.39835,8.39835,0,0,1,534.764,159.887a13.143,13.143,0,0,1-3.47607.43164,13.2816,13.2816,0,0,1-2.88135-.31152,7.9887,7.9887,0,0,1-2.50684-.99121,5.40339,5.40339,0,0,1-1.76953-1.7627A4.85366,4.85366,0,0,1,523.45738,154.64087Zm11.38477.73633a2.72957,2.72957,0,0,0-.48145-1.60743,5.507,5.507,0,0,0-1.26025-1.26074,13.2708,13.2708,0,0,0-1.76319-1.083q-.98364-.50976-2.00341-1.07617a4.72306,4.72306,0,0,0-1.16846,1.5293,4.59352,4.59352,0,0,0-.43164,2.02539,7.59572,7.59572,0,0,0,.20508,1.8125,3.905,3.905,0,0,0,.65869,1.43652,3.07987,3.07987,0,0,0,1.18213.94239,4.15259,4.15259,0,0,0,1.76318.33984,3.96971,3.96971,0,0,0,1.21777-.19141,3.14553,3.14553,0,0,0,1.05518-.57324,2.89247,2.89247,0,0,0,.74316-.95605A2.98551,2.98551,0,0,0,534.84215,155.3772Zm-6.07471-13.042a2.69778,2.69778,0,0,0,.37549,1.40918,4.71122,4.71122,0,0,0,1.00488,1.168,9.32368,9.32368,0,0,0,1.45166,1.00586q.821.4673,1.72754.93457a4.68212,4.68212,0,0,0,1.03369-1.5791,4.81459,4.81459,0,0,0,.33985-1.76269,4.35467,4.35467,0,0,0-.82129-2.84668,2.89831,2.89831,0,0,0-2.36475-.99122,3.341,3.341,0,0,0-1.04785.16309,2.518,2.518,0,0,0-.87793.49512,2.339,2.339,0,0,0-.60205.8291A2.88764,2.88764,0,0,0,528.76744,142.3352Z"/><path d="M546.22691,160.30493a3.14929,3.14929,0,0,1-1.041-.16992,2.76984,2.76984,0,0,1-.86328-.48145,2.25972,2.25972,0,0,1-.59473-.76465,2.31055,2.31055,0,0,1-.21973-1.01953,2.75674,2.75674,0,0,1,.24073-1.15429,2.80838,2.80838,0,0,1,.66552-.9209,3.18209,3.18209,0,0,1,1.00537-.61524,3.43074,3.43074,0,0,1,1.26026-.22656,3.70955,3.70955,0,0,1,1.2959.19824,2.37263,2.37263,0,0,1,.86328.53028,1.961,1.961,0,0,1,.48144.77929,2.94251,2.94251,0,0,1,.14893.94141,2.986,2.986,0,0,1-.23389,1.2041,2.55751,2.55751,0,0,1-.6582.91309,2.98683,2.98683,0,0,1-1.02637.58008A4.05875,4.05875,0,0,1,546.22691,160.30493Z"/><path d="M561.27916,160.40356a8.40615,8.40615,0,0,1-3.56836-.71484,7.29238,7.29238,0,0,1-2.58447-1.96875,8.57124,8.57124,0,0,1-1.57129-2.9375,12.03822,12.03822,0,0,1-.53125-3.63965,12.815,12.815,0,0,1,.50976-3.63183,14.42462,14.42462,0,0,1,1.39453-3.24317,14.76513,14.76513,0,0,1,2.08887-2.76074,15.76947,15.76947,0,0,1,2.584-2.18067,14.32938,14.32938,0,0,1,2.88183-1.501,11.80359,11.80359,0,0,1,2.9878-.72949l.96289,1.86914a10.772,10.772,0,0,0-5.06934,3.08691,11.60463,11.60463,0,0,0-1.6709,2.34375,13.74774,13.74774,0,0,0-1.10449,2.68359,6.59239,6.59239,0,0,1,.77881-.55273,5.90718,5.90718,0,0,1,1.00537-.48145,7.32865,7.32865,0,0,1,1.27441-.33984,8.81882,8.81882,0,0,1,1.55762-.12695,6.67159,6.67159,0,0,1,2.49951.44531,5.1118,5.1118,0,0,1,1.89014,1.2959,5.87515,5.87515,0,0,1,1.20361,2.07422,8.4708,8.4708,0,0,1,.42481,2.7832,9.60469,9.60469,0,0,1-.50293,3.10059,7.66,7.66,0,0,1-1.501,2.62695,7.26335,7.26335,0,0,1-2.48486,1.81934A8.23625,8.23625,0,0,1,561.27916,160.40356Zm.32568-12.14941a5.55924,5.55924,0,0,0-1.24609.12793,4.69256,4.69256,0,0,0-.99121.33984,4.01414,4.01414,0,0,0-.75781.4668,4.44912,4.44912,0,0,0-.54493.50977,14.48742,14.48742,0,0,0-.085,1.57226,19.38206,19.38206,0,0,0,.17676,2.94531,8.41864,8.41864,0,0,0,.602,2.21582,3.52409,3.52409,0,0,0,1.05518,1.40137,2.46573,2.46573,0,0,0,1.53613.48926,2.04586,2.04586,0,0,0,1.28857-.43945,3.77415,3.77415,0,0,0,.96289-1.13282,6.03068,6.03068,0,0,0,.60889-1.55078,7.06146,7.06146,0,0,0,.2124-1.706,7.88167,7.88167,0,0,0-.772-3.96485A2.319,2.319,0,0,0,561.60484,148.25415Z"/><rect class="b" x="426.249" y="193.38482" width="70" height="70"/><path d="M431.58385,238.39868a5.66811,5.66811,0,0,0,.687.17676q.38892.0791.82129.13476.43139.05714.88476.085c.30225.01954.59961.02833.89209.02833a7.24943,7.24943,0,0,0,2.209-.31153,4.845,4.845,0,0,0,1.65674-.87793,3.81371,3.81371,0,0,0,1.041-1.35254,4.10859,4.10859,0,0,0,.36084-1.73437,3.9034,3.9034,0,0,0-.17725-1.126,3.07471,3.07471,0,0,0-.5874-1.083,3.443,3.443,0,0,0-1.07617-.84277,4.0607,4.0607,0,0,0-1.64258-.40332l-1.91162.31152-.84961-2.2373a6.59464,6.59464,0,0,0,1.26026-.30469q.6372-.21827,1.16113-.417a6.29723,6.29723,0,0,0,1.45166-.793,4.66007,4.66007,0,0,0,.98389-.98437,3.72638,3.72638,0,0,0,.55908-1.13282,4.36528,4.36528,0,0,0,.17724-1.23926,2.79186,2.79186,0,0,0-.21923-1.16113,2.17425,2.17425,0,0,0-.5879-.78613,2.39261,2.39261,0,0,0-.82812-.44531,3.22331,3.22331,0,0,0-.95605-.1416,6.82678,6.82678,0,0,0-2.34375.36035,7.66664,7.66664,0,0,0-1.86182.999l-1.17529-2.0957a6.1,6.1,0,0,1,1.01953-.7793,10.43211,10.43211,0,0,1,1.53613-.793,12.23462,12.23462,0,0,1,1.91211-.61621,9.23353,9.23353,0,0,1,2.145-.24707,10.13957,10.13957,0,0,1,2.52051.29688,5.79711,5.79711,0,0,1,2.00341.91308,4.41032,4.41032,0,0,1,1.32422,1.53711,4.64437,4.64437,0,0,1,.48145,2.18066,5.97219,5.97219,0,0,1-1.2461,3.85157,8.70753,8.70753,0,0,1-3.61084,2.5205,7.44834,7.44834,0,0,1,2.54151.29,5.18667,5.18667,0,0,1,1.834.97657,4.1148,4.1148,0,0,1,1.11133,1.4873,4.48076,4.48076,0,0,1,.37549,1.81934,6.52016,6.52016,0,0,1-.623,2.83886,6.20444,6.20444,0,0,1-1.8833,2.27344,9.573,9.573,0,0,1-3.13672,1.51465,15.58028,15.58028,0,0,1-4.38232.55273q-.49585,0-1.04053-.043-.54565-.04248-1.0625-.12012-.51636-.07764-.96972-.18457a7.84323,7.84323,0,0,1-.77881-.21875Z"/><path d="M452.04527,241.9104l-.96289-1.85449a10.13023,10.13023,0,0,0,2.71875-1.2041,10.58269,10.58269,0,0,0,2.15967-1.81934,11.35981,11.35981,0,0,0,1.60693-2.29395,14.35472,14.35472,0,0,0,1.07618-2.62695,6.15775,6.15775,0,0,1-.67237.49609,4.6403,4.6403,0,0,1-.86426.42481,6.49585,6.49585,0,0,1-1.09716.29687,7.40143,7.40143,0,0,1-1.35938.11329,6.8322,6.8322,0,0,1-2.59131-.48829,6.14031,6.14031,0,0,1-2.08886-1.38769,6.49876,6.49876,0,0,1-1.39454-2.17383,7.64223,7.64223,0,0,1-.50976-2.86035,8.99612,8.99612,0,0,1,.50976-3.04395,7.27221,7.27221,0,0,1,1.51514-2.5205,7.1646,7.1646,0,0,1,2.49951-1.72754,8.76185,8.76185,0,0,1,3.46192-.6377,8.97185,8.97185,0,0,1,3.58252.666,6.87519,6.87519,0,0,1,2.56982,1.876,8.13294,8.13294,0,0,1,1.55078,2.917,12.87723,12.87723,0,0,1,.52393,3.78808,13.22462,13.22462,0,0,1-.49561,3.63867,14.51367,14.51367,0,0,1-1.35937,3.25,15.11137,15.11137,0,0,1-4.55957,4.94141,13.87673,13.87673,0,0,1-2.84619,1.501A11.5684,11.5684,0,0,1,452.04527,241.9104Zm3.65332-11.14356a5.65633,5.65633,0,0,0,1.16114-.11328,5.855,5.855,0,0,0,.977-.291,4.01681,4.01681,0,0,0,.7788-.41016,4.118,4.118,0,0,0,.58057-.47461q.0564-.49512.0918-.99121.03588-.49512.03564-.99121a20.082,20.082,0,0,0-.1626-2.91016,7.59155,7.59155,0,0,0-.58105-2.13769,3.17113,3.17113,0,0,0-1.04785-1.31738,2.65821,2.65821,0,0,0-1.55029-.44532,2.09608,2.09608,0,0,0-1.29541.43164,3.77651,3.77651,0,0,0-.97754,1.11817,5.985,5.985,0,0,0-.623,1.53711,6.72842,6.72842,0,0,0-.21924,1.68457,11.90194,11.90194,0,0,0,.20557,2.37207,5.55011,5.55011,0,0,0,.58008,1.64941,2.66344,2.66344,0,0,0,.89257.96973A2.14989,2.14989,0,0,0,455.69859,230.76684Z"/><path d="M470.43932,237.2522a3.149,3.149,0,0,1-1.041-.16993,2.76982,2.76982,0,0,1-.86328-.48144,2.25982,2.25982,0,0,1-.59473-.76465,2.31057,2.31057,0,0,1-.21972-1.01953,2.75678,2.75678,0,0,1,.24072-1.1543,2.80847,2.80847,0,0,1,.66553-.9209,3.18185,3.18185,0,0,1,1.00537-.61523,3.43048,3.43048,0,0,1,1.26025-.22656,3.70947,3.70947,0,0,1,1.2959.19824,2.37262,2.37262,0,0,1,.86328.53027,1.96128,1.96128,0,0,1,.48145.7793,2.94273,2.94273,0,0,1,.14892.94141,2.98609,2.98609,0,0,1-.23389,1.2041,2.55748,2.55748,0,0,1-.6582.91308,2.98683,2.98683,0,0,1-1.02637.58008A4.05842,4.05842,0,0,1,470.43932,237.2522Z"/><path d="M479.85582,241.0188q1.18946-2.32325,2.40723-4.84278,1.218-2.521,2.35058-4.96386,1.13306-2.4419,2.124-4.665.991-2.22363,1.72753-3.95117l-7.71728.11328-1.09033,3.32812-2.77539-.50976.7788-6.627h14.03272l1.01953,1.14649-7.73144,22.33105Z"/><rect class="b" x="510.88694" y="193.38482" width="70" height="70"/><path d="M518.74937,237.03931v-1.91114l3.07276-.39648v-11.1582c-.16992.0371-.3916.085-.66553.1416s-.55957.1084-.85644.15527c-.29786.04785-.5879.08984-.8711.12793-.2832.03711-.519.06152-.708.07031l-.36816-2.46386a10.52515,10.52515,0,0,0,1.69922-.49512,14.14224,14.14224,0,0,0,1.62842-.74414,16.35315,16.35315,0,0,0,1.45849-.87793,14.87712,14.87712,0,0,0,1.20362-.89844h.01416l2.563.43848v15.7041l2.917.39648v1.91114Z"/><path d="M534.14146,241.0188q1.18945-2.32325,2.40723-4.84278,1.218-2.521,2.35059-4.96386,1.13305-2.4419,2.124-4.665.991-2.22363,1.72754-3.95117l-7.71729.11328-1.09033,3.32812-2.77539-.50976.77881-6.627h14.03271l1.01954,1.14649-7.73145,22.33105Z"/><path d="M552.15318,237.2522a3.149,3.149,0,0,1-1.041-.16993,2.76982,2.76982,0,0,1-.86328-.48144,2.25982,2.25982,0,0,1-.59473-.76465,2.31044,2.31044,0,0,1-.21973-1.01953,2.75679,2.75679,0,0,1,.24073-1.1543,2.80859,2.80859,0,0,1,.66552-.9209,3.18207,3.18207,0,0,1,1.00537-.61523,3.43054,3.43054,0,0,1,1.26026-.22656,3.70955,3.70955,0,0,1,1.2959.19824,2.37262,2.37262,0,0,1,.86328.53027,1.96114,1.96114,0,0,1,.48144.7793,2.94246,2.94246,0,0,1,.14893.94141,2.98609,2.98609,0,0,1-.23389,1.2041,2.55748,2.55748,0,0,1-.6582.91308,2.98683,2.98683,0,0,1-1.02637.58008A4.05849,4.05849,0,0,1,552.15318,237.2522Z"/><path d="M558.56773,235.09985a30.11405,30.11405,0,0,0,3.54737-2.35058,19.9375,19.9375,0,0,0,2.76074-2.55664,11.47561,11.47561,0,0,0,1.7915-2.6543,6.18313,6.18313,0,0,0,.63721-2.66211,3.13027,3.13027,0,0,0-.2124-1.16113,2.59906,2.59906,0,0,0-.61573-.92774,2.94011,2.94011,0,0,0-.98437-.61621,3.6151,3.6151,0,0,0-1.31689-.22656,5.16033,5.16033,0,0,0-1.42334.18457,6.78,6.78,0,0,0-1.168.44531,6.388,6.388,0,0,0-.93457.56641q-.41089.30468-.72217.5459l-1.23194-1.89746a5.36692,5.36692,0,0,1,1.11866-1.1045,9.32218,9.32218,0,0,1,1.71338-1.02734,12.06235,12.06235,0,0,1,2.13086-.75684,9.52719,9.52719,0,0,1,2.38623-.29785,8.55764,8.55764,0,0,1,2.81787.41113,5.49756,5.49756,0,0,1,1.93261,1.1045,4.30781,4.30781,0,0,1,1.11914,1.60644,5.22437,5.22437,0,0,1,.36084,1.9336,6.14653,6.14653,0,0,1-.729,2.85254,12.1894,12.1894,0,0,1-1.97559,2.73339,22.22937,22.22937,0,0,1-2.88183,2.54883,35.6794,35.6794,0,0,1-3.46192,2.28711l7.689-.86426,1.11865-2.02441,2.16651.4248-.83545,5.42286H559.2899Z"/><rect class="b" x="426.249" y="270.33196" width="70" height="70"/><path d="M428.61705,311.8772q.46728-.86427,1.147-2.25879.67969-1.396,1.46582-3.06543.78516-1.67139,1.61426-3.49121.82764-1.81934,1.60693-3.53223.77857-1.71387,1.437-3.19336.65917-1.4795,1.09765-2.4707h.60889l4.23389,2.08105-6.99512,12.63086-1.72754,2.69043,5.76318-.38281.18408-4.502,4.27637-.29786v4.50293l3.45508-.24023v3.63867h-3.45508v5.32422h-4.48877v-5.32422h-8.86426Z"/><path d="M452.53355,318.85766l-.96289-1.85546a10.12834,10.12834,0,0,0,2.71875-1.20313,10.61387,10.61387,0,0,0,2.15967-1.81933,11.36009,11.36009,0,0,0,1.60693-2.29395,14.3553,14.3553,0,0,0,1.07618-2.627,6.15775,6.15775,0,0,1-.67237.49609,4.57958,4.57958,0,0,1-.86425.42383,6.404,6.404,0,0,1-1.09717.29785,7.48829,7.48829,0,0,1-1.35938.11328,6.8322,6.8322,0,0,1-2.59131-.48828,6.14034,6.14034,0,0,1-2.08886-1.3877,6.49843,6.49843,0,0,1-1.39453-2.17382,7.64207,7.64207,0,0,1-.50977-2.86035,8.99579,8.99579,0,0,1,.50977-3.04395,7.28514,7.28514,0,0,1,1.51513-2.52148,7.16243,7.16243,0,0,1,2.49951-1.72657,8.74472,8.74472,0,0,1,3.46192-.63769,8.98912,8.98912,0,0,1,3.58252.665,6.88779,6.88779,0,0,1,2.56982,1.877,8.133,8.133,0,0,1,1.55078,2.917,12.87266,12.87266,0,0,1,.52393,3.78809,13.22462,13.22462,0,0,1-.49561,3.63867,14.51386,14.51386,0,0,1-1.35937,3.25,15.11164,15.11164,0,0,1-4.55957,4.94141,13.8762,13.8762,0,0,1-2.84619,1.501A11.56748,11.56748,0,0,1,452.53355,318.85766Zm3.65332-11.14453a5.58955,5.58955,0,0,0,1.16114-.11328,5.76439,5.76439,0,0,0,.97705-.29,4.071,4.071,0,0,0,.77881-.41015,4.1185,4.1185,0,0,0,.58056-.47461q.0564-.49659.0918-.99121.0359-.49512.03564-.99121a20.07515,20.07515,0,0,0-.16259-2.91016,7.59185,7.59185,0,0,0-.58106-2.1377,3.17119,3.17119,0,0,0-1.04785-1.31738,2.65878,2.65878,0,0,0-1.55029-.44629,2.09693,2.09693,0,0,0-1.29541.43262,3.77647,3.77647,0,0,0-.97754,1.11816,5.98551,5.98551,0,0,0-.62305,1.53711,6.72273,6.72273,0,0,0-.21924,1.68457,11.90868,11.90868,0,0,0,.20557,2.37207,5.56024,5.56024,0,0,0,.58008,1.64942,2.66335,2.66335,0,0,0,.89258.96972A2.14906,2.14906,0,0,0,456.18687,307.71313Z"/><path d="M470.9276,314.19946a3.1493,3.1493,0,0,1-1.041-.16992,2.75268,2.75268,0,0,1-.86328-.48242,2.2468,2.2468,0,0,1-.59473-.76367,2.31062,2.31062,0,0,1-.21972-1.01954,2.75673,2.75673,0,0,1,.24072-1.15429,2.80847,2.80847,0,0,1,.66553-.9209,3.202,3.202,0,0,1,1.00537-.61621,3.45083,3.45083,0,0,1,1.26025-.22656,3.708,3.708,0,0,1,1.2959.19921,2.37255,2.37255,0,0,1,.86328.53028,1.95444,1.95444,0,0,1,.48145.7793,2.93809,2.93809,0,0,1,.14892.9414,2.986,2.986,0,0,1-.23388,1.2041,2.56614,2.56614,0,0,1-.65821.91309,2.98687,2.98687,0,0,1-1.02636.58008A4.0588,4.0588,0,0,1,470.9276,314.19946Z"/><path d="M485.201,314.28345a7.01182,7.01182,0,0,1-5.64257-2.27246q-1.97609-2.28663-1.97559-6.7754a12.15459,12.15459,0,0,1,.708-4.30468,8.207,8.207,0,0,1,1.86914-2.95215,7.31116,7.31116,0,0,1,2.71875-1.69922,9.66746,9.66746,0,0,1,3.24267-.54492,7.07919,7.07919,0,0,1,5.62842,2.22265q1.94751,2.22365,1.94727,6.74024a12.19658,12.19658,0,0,1-.68653,4.31836,8.36554,8.36554,0,0,1-1.84814,2.98144,7.26062,7.26062,0,0,1-2.70459,1.72754A9.48038,9.48038,0,0,1,485.201,314.28345Zm.50977-2.02442a1.90322,1.90322,0,0,0,1.24609-.418,2.91445,2.91445,0,0,0,.82813-1.28808,9.41554,9.41554,0,0,0,.46045-2.2168,31.13831,31.13831,0,0,0,.1416-3.19922q0-2.09619-.13428-3.51172a9.222,9.222,0,0,0-.45312-2.27343,2.47642,2.47642,0,0,0-.84278-1.21778,2.27056,2.27056,0,0,0-1.31689-.36035,1.95468,1.95468,0,0,0-1.25342.41016,2.93283,2.93283,0,0,0-.84961,1.26757,9.06486,9.06486,0,0,0-.48828,2.1875,27.57735,27.57735,0,0,0-.15576,3.15821,34.42716,34.42716,0,0,0,.14892,3.5039,9.4755,9.4755,0,0,0,.48145,2.3086,2.64193,2.64193,0,0,0,.87061,1.26758A2.22228,2.22228,0,0,0,485.7108,312.259Z"/><rect class="b" x="510.88694" y="270.33196" width="70" height="70"/><path d="M527.46471,318.85766l-.96289-1.85546a10.12862,10.12862,0,0,0,2.71875-1.20313,10.61381,10.61381,0,0,0,2.15966-1.81933,11.36054,11.36054,0,0,0,1.60694-2.29395,14.356,14.356,0,0,0,1.07617-2.627,6.15663,6.15663,0,0,1-.67236.49609,4.57968,4.57968,0,0,1-.86426.42383,6.404,6.404,0,0,1-1.09717.29785,7.48829,7.48829,0,0,1-1.35938.11328,6.83211,6.83211,0,0,1-2.5913-.48828,6.14028,6.14028,0,0,1-2.08887-1.3877,6.49859,6.49859,0,0,1-1.39453-2.17382,7.64207,7.64207,0,0,1-.50977-2.86035,8.99579,8.99579,0,0,1,.50977-3.04395,7.28514,7.28514,0,0,1,1.51513-2.52148,7.16238,7.16238,0,0,1,2.49952-1.72657,8.74464,8.74464,0,0,1,3.46191-.63769,8.98909,8.98909,0,0,1,3.58252.665,6.88779,6.88779,0,0,1,2.56982,1.877,8.13315,8.13315,0,0,1,1.55079,2.917,12.87266,12.87266,0,0,1,.52392,3.78809,13.225,13.225,0,0,1-.4956,3.63867,14.51435,14.51435,0,0,1-1.35938,3.25,15.11164,15.11164,0,0,1-4.55957,4.94141,13.8762,13.8762,0,0,1-2.84619,1.501A11.56741,11.56741,0,0,1,527.46471,318.85766Zm3.65332-11.14453a5.58952,5.58952,0,0,0,1.16113-.11328,5.76411,5.76411,0,0,0,.977-.29,4.0707,4.0707,0,0,0,.77881-.41015,4.1185,4.1185,0,0,0,.58056-.47461q.0564-.49659.0918-.99121.0359-.49512.03565-.99121a20.07646,20.07646,0,0,0-.1626-2.91016,7.59151,7.59151,0,0,0-.58106-2.1377,3.17119,3.17119,0,0,0-1.04785-1.31738,2.65878,2.65878,0,0,0-1.55029-.44629,2.097,2.097,0,0,0-1.29541.43262,3.77661,3.77661,0,0,0-.97754,1.11816,5.98587,5.98587,0,0,0-.62305,1.53711,6.72319,6.72319,0,0,0-.21924,1.68457,11.90868,11.90868,0,0,0,.20557,2.37207,5.56024,5.56024,0,0,0,.58008,1.64942,2.66335,2.66335,0,0,0,.89258.96972A2.1491,2.1491,0,0,0,531.118,307.71313Z"/><path d="M545.85875,314.19946a3.14935,3.14935,0,0,1-1.041-.16992,2.75268,2.75268,0,0,1-.86328-.48242,2.24665,2.24665,0,0,1-.59472-.76367,2.31048,2.31048,0,0,1-.21973-1.01954,2.75689,2.75689,0,0,1,.24072-1.15429,2.80876,2.80876,0,0,1,.66553-.9209,3.202,3.202,0,0,1,1.00537-.61621,3.45086,3.45086,0,0,1,1.26025-.22656,3.708,3.708,0,0,1,1.2959.19921,2.37255,2.37255,0,0,1,.86328.53028,1.95433,1.95433,0,0,1,.48145.7793,2.93809,2.93809,0,0,1,.14892.9414,2.986,2.986,0,0,1-.23388,1.2041,2.56614,2.56614,0,0,1-.65821.91309,2.98678,2.98678,0,0,1-1.02636.58008A4.0588,4.0588,0,0,1,545.85875,314.19946Z"/><path d="M560.911,314.29809a8.4061,8.4061,0,0,1-3.56835-.71484,7.30384,7.30384,0,0,1-2.58448-1.96875,8.56707,8.56707,0,0,1-1.57129-2.93848,12.02717,12.02717,0,0,1-.53125-3.63867,12.81007,12.81007,0,0,1,.50977-3.63183,14.405,14.405,0,0,1,1.39453-3.24317,14.76426,14.76426,0,0,1,2.08887-2.76074,15.76884,15.76884,0,0,1,2.584-2.18066,14.2802,14.2802,0,0,1,2.88184-1.501,11.76219,11.76219,0,0,1,2.98779-.72949l.96289,1.86914a10.77187,10.77187,0,0,0-5.06933,3.08691,11.60463,11.60463,0,0,0-1.6709,2.34375,13.76357,13.76357,0,0,0-1.10449,2.68262,6.589,6.589,0,0,1,.7788-.55176,5.90642,5.90642,0,0,1,1.00537-.48144,7.32786,7.32786,0,0,1,1.27442-.33985,8.81882,8.81882,0,0,1,1.55762-.127,6.67159,6.67159,0,0,1,2.49951.44531,5.11176,5.11176,0,0,1,1.89013,1.2959,5.87516,5.87516,0,0,1,1.20362,2.07422,8.46919,8.46919,0,0,1,.4248,2.78223,9.61054,9.61054,0,0,1-.50293,3.10156,7.66007,7.66007,0,0,1-1.501,2.62695,7.26339,7.26339,0,0,1-2.48487,1.81934A8.23622,8.23622,0,0,1,560.911,314.29809Zm.32569-12.14941a5.62022,5.62022,0,0,0-1.2461.12695,4.80537,4.80537,0,0,0-.99121.33985,4.06677,4.06677,0,0,0-.75781.46777,4.44972,4.44972,0,0,0-.54492.50977,14.46955,14.46955,0,0,0-.085,1.57129,19.36341,19.36341,0,0,0,.17676,2.94531,8.41555,8.41555,0,0,0,.602,2.21679,3.52407,3.52407,0,0,0,1.05517,1.40137,2.46576,2.46576,0,0,0,1.53614.48926,2.04582,2.04582,0,0,0,1.28857-.43945,3.78621,3.78621,0,0,0,.96289-1.13282,6.04472,6.04472,0,0,0,.60889-1.55078,7.06146,7.06146,0,0,0,.2124-1.70605,7.87916,7.87916,0,0,0-.772-3.96485A2.319,2.319,0,0,0,561.23668,302.14868Z"/><rect x="209.74058" y="222.43774" width="68.61328" height="12"/><polygon points="272.226 249.38 308.494 228.438 272.226 207.495 272.226 249.38"/><rect x="171.62362" y="646.01094" width="4.49956" height="1.5001" transform="translate(-424.12681 345.21914) rotate(-48.193)"/><path d="M181.87242,638.94458l-1.11816-1,5.93994-6.63965,1.11816,1Zm11.8794-13.27832-1.11817-1,5.93994-6.63965,1.11817,1Zm11.87939-13.2793-1.11816-1,5.93994-6.63965,1.11816,1Zm11.87939-13.27832-1.11816-1,5.93994-6.63965,1.11817,1Zm11.8794-13.2793-1.11817-1,5.94-6.63867,1.11816,1ZM241.26939,572.551l-1.11816-1,5.93994-6.63964,1.11816,1Zm11.8794-13.27832-1.11817-1,5.94-6.63964,1.11816,1Zm11.87939-13.27929-1.11816-1,5.93994-6.63965,1.11816,1Zm11.8794-13.27832-1.11817-1,5.93994-6.63965,1.11817,1Zm11.87939-13.2793-1.11816-1,5.93994-6.63867,1.11816,1Zm11.8794-13.27832-1.11817-1,5.93994-6.63965,1.11817,1Zm11.87939-13.27832-1.11816-1,5.93994-6.63965,1.11816,1Zm11.8794-13.2793-1.11817-1,5.93994-6.63965,1.11817,1Zm11.87939-13.27832-1.11816-1,5.93994-6.63965,1.11816,1Zm11.87939-13.27929-1.11816-1,5.93994-6.63868,1.11817,1Zm11.8794-13.27833-1.11817-1,5.93995-6.63964,1.11816,1Zm11.87939-13.27929-1.11816-1,5.93994-6.63867,1.11816,1Zm11.8794-13.27832-1.11817-1,5.94-6.63965,1.11816,1ZM395.70152,399.928l-1.11816-1,5.93994-6.63965,1.11816,1Zm11.8794-13.2793-1.11817-1,5.93994-6.63867,1.11817,1Zm11.87939-13.27832-1.11816-1,5.93994-6.63965,1.11816,1Zm11.8794-13.2793-1.11817-1,5.93994-6.63867,1.11817,1Zm11.87939-13.27832-1.11816-1,5.93994-6.63965,1.11816,1Z"/><rect x="453.78935" y="330.60713" width="4.50062" height="1.5001" transform="translate(-94.95896 450.39614) rotate(-48.193)"/><polygon points="459.597 332.989 461.128 325.669 454.023 328.002 459.597 332.989"/><rect x="171.81722" y="646.20692" width="4.49957" height="1.49973" transform="translate(-382.86456 274.55964) rotate(-41.17189)"/><path d="M183.015,640.12915l-.98731-1.12891,6.76075-5.91113.9873,1.12891Zm13.52148-11.82227-.9873-1.1289,6.76074-5.91211.98731,1.1289ZM210.058,616.48364l-.98731-1.1289,6.76075-5.91114.9873,1.12891Zm13.52148-11.82226-.9873-1.12891,6.76074-5.91211.9873,1.12891Zm13.52149-11.82325-.98731-1.1289,6.76074-5.91114.98731,1.12891Zm13.52148-11.82226-.9873-1.12891,6.76074-5.91211.9873,1.12891Zm13.52149-11.82324-.98731-1.12891,6.76074-5.91113.98731,1.1289Zm13.52148-11.82227-.98731-1.12891,6.76075-5.91211.9873,1.12891Zm13.52148-11.82324-.9873-1.12891,6.76074-5.91113.98731,1.12891Zm13.52149-11.82227-.98731-1.1289,6.76075-5.91114.9873,1.12891Zm13.52148-11.82324-.9873-1.12891,6.76074-5.91113.9873,1.12891Zm13.52149-11.82227-.98731-1.1289,6.76074-5.91113.98731,1.1289Zm13.52148-11.82324-.9873-1.1289,6.76074-5.91114.9873,1.12891Zm13.52149-11.82226-.98731-1.12891,6.76074-5.91113.98731,1.1289Zm13.52148-11.82325-.9873-1.1289,6.76074-5.91113.9873,1.1289Zm13.52148-11.82226-.9873-1.12891,6.76074-5.91113.98731,1.12891Zm13.52149-11.82227-.98731-1.1289,6.76075-5.91211.9873,1.1289Zm13.52148-11.82324-.9873-1.12891,6.76074-5.91113.98731,1.12891Zm13.52149-11.82226-.98731-1.12891,6.76075-5.91211.9873,1.12891Zm13.52148-11.82325-.9873-1.1289,6.76074-5.91114.9873,1.12891Zm13.52149-11.82226-.98731-1.12891,6.76074-5.91211.98731,1.12891Zm13.52148-11.82324-.9873-1.12891,6.76074-5.91113.9873,1.1289Zm13.52149-11.82227-.98731-1.12891,6.76074-5.91211.98731,1.12891Zm13.52148-11.82324-.98731-1.12891,6.76075-5.91113.9873,1.1289ZM507.53062,356.384l-.9873-1.1289,6.76074-5.91211.98731,1.1289Zm13.52149-11.82324-.98731-1.12891,6.76075-5.91113.9873,1.12891Z"/><rect x="533.52399" y="329.94276" width="4.50058" height="1.49973" transform="translate(-85.22502 434.47874) rotate(-41.17189)"/><polygon points="539.106 332.747 541.52 325.669 534.183 327.117 539.106 332.747"/></svg>